<svg viewBox="0 0 11 12" fill="currentColor" xmlns="http://www.w3.org/2000/svg">
  <path d="M.143 1.072C.143.835.334.643.57.643h9.857a.429.429 0 1 1 0 .857H.571a.429.429 0 0 1-.428-.428ZM.143 4.929c0-.237.191-.429.428-.429h9.857a.429.429 0 1 1 0 .857H.571a.429.429 0 0 1-.428-.428ZM.143 8.786c0-.237.191-.429.428-.429h3.857a.429.429 0 1 1 0 .857H.571a.429.429 0 0 1-.428-.428ZM7.857 10.929a.429.429 0 1 0 .857 0V9.214h1.714a.429.429 0 1 0 0-.857H8.714V6.643a.429.429 0 0 0-.857 0v1.714H6.143a.429.429 0 0 0 0 .857h1.714v1.715Z" fill="currentColor"/>
</svg>
