<svg viewBox="0 0 41 40" fill="none" xmlns="http://www.w3.org/2000/svg">
  <path d="M12.9148 16.9242V16.9253H12.9137C10.0226 15.4556 9.21991 12.8379 10.7894 10C13.6798 11.4697 14.4831 14.0863 12.9148 16.9242Z" stroke="currentColor" stroke-width="1.3" stroke-linecap="round" stroke-linejoin="round"/>
  <path d="M14.2158 14.3136H14.2146C13.1834 10.8696 14.5971 7.99744 17.9555 6.71484V6.71602C18.9861 10.1589 17.5731 13.031 14.2158 14.3142V14.3136Z" stroke="currentColor" stroke-width="1.3" stroke-linecap="round" stroke-linejoin="round"/>
  <path d="M7.89764 15.2629V15.2617C11.3748 15.5645 13.4265 17.8688 13.3267 21.3578H13.3255C9.84958 21.0544 7.79789 18.7512 7.89646 15.2635L7.89764 15.2629Z" stroke="currentColor" stroke-width="1.3" stroke-linecap="round" stroke-linejoin="round"/>
  <path d="M14.0522 25.1751V25.1762C10.6129 25.904 8.01228 24.272 7.17236 20.858H7.17354C10.6123 20.1303 13.2123 21.7623 14.0528 25.1751H14.0522Z" stroke="currentColor" stroke-width="1.3" stroke-linecap="round" stroke-linejoin="round"/>
  <path d="M16.207 27.4277L16.2082 27.4289C13.6991 29.6859 10.6499 29.6854 8.14014 27.4289L8.14073 27.4283C10.6499 25.1724 13.6985 25.1724 16.207 27.4283V27.4277Z" stroke="currentColor" stroke-width="1.3" stroke-linecap="round" stroke-linejoin="round"/>
  <path d="M14.4188 14.084C14.4188 14.084 13.3398 15.0809 13.3398 19.7078C13.3398 24.9899 19.2559 32.6908 24.8968 32.6908" stroke="currentColor" stroke-width="1.3" stroke-linecap="round" stroke-linejoin="round"/>
  <path d="M28.7885 16.9242V16.9253H28.7897C31.6807 15.4556 32.4835 12.8379 30.914 10H30.9134C28.023 11.4697 27.2203 14.0863 28.7885 16.9242Z" stroke="currentColor" stroke-width="1.3" stroke-linecap="round" stroke-linejoin="round"/>
  <path d="M26.9566 14.3136H26.9578C27.9889 10.8696 26.5753 7.99744 23.2168 6.71484V6.71602C22.1863 10.1589 23.5993 13.031 26.9566 14.3142V14.3136Z" stroke="currentColor" stroke-width="1.3" stroke-linecap="round" stroke-linejoin="round"/>
  <path d="M33.2747 15.2629V15.2617C29.7976 15.5645 27.7459 17.8688 27.8457 21.3578H27.8468C31.3228 21.0544 33.3745 18.7512 33.2759 15.2635L33.2747 15.2629Z" stroke="currentColor" stroke-width="1.3" stroke-linecap="round" stroke-linejoin="round"/>
  <path d="M27.1201 25.1751V25.1762C30.5595 25.904 33.1601 24.272 34 20.858H33.9988C30.5601 20.1303 27.96 21.7623 27.1195 25.1751H27.1201Z" stroke="currentColor" stroke-width="1.3" stroke-linecap="round" stroke-linejoin="round"/>
  <path d="M24.9654 27.4277L24.9642 27.4289C27.4733 29.6859 30.5225 29.6854 33.0322 27.4289L33.0316 27.4283C30.5225 25.1724 27.4739 25.1724 24.9654 27.4283V27.4277Z" stroke="currentColor" stroke-width="1.3" stroke-linecap="round" stroke-linejoin="round"/>
  <path d="M26.7536 14.084C26.7536 14.084 27.8325 15.0809 27.8325 19.7078C27.8325 24.9899 21.9165 32.6908 16.2755 32.6908" stroke="currentColor" stroke-width="1.3" stroke-linecap="round" stroke-linejoin="round"/>
</svg>
