<svg viewBox="0 0 24 24" fill="none" xmlns="http://www.w3.org/2000/svg">
  <path d="M22.4798 13.019C22.5247 12.8313 22.4948 12.6437 22.3898 12.4785C22.2924 12.3209 22.1274 12.2083 21.94 12.1632C21.6327 12.0957 21.3253 12.0581 21.033 12.0431C21.6702 11.1873 22.0075 10.0688 21.97 8.76256C21.97 8.56738 21.8801 8.38721 21.7376 8.25959C21.5952 8.13197 21.4003 8.07192 21.2054 8.08693C21.003 8.10194 20.8081 8.13197 20.6132 8.162C20.6282 8.12446 20.6432 8.08693 20.6582 8.04939C20.988 6.9834 20.8156 5.7973 20.1559 4.6187C19.976 4.28839 19.5637 4.16077 19.2189 4.33343C18.5067 4.69377 17.937 5.14419 17.5247 5.67719C17.2324 3.99562 16.0705 2.64436 14.1739 1.92369C13.994 1.85613 13.7916 1.86363 13.6117 1.94621C13.4393 2.02879 13.3043 2.18643 13.2519 2.37411C12.4198 5.13668 13.5217 7.50138 16.1154 8.62743C16.2879 9.01029 16.5877 9.97118 16.5877 12.0131C16.5877 14.5279 14.5187 17.8836 12 19.6102C9.48876 17.8836 7.41229 14.5279 7.41229 12.0131C7.41229 9.97869 7.71214 9.0178 7.88456 8.62743C10.4783 7.50138 11.5802 5.13668 10.7481 2.37411C10.6957 2.18643 10.5607 2.0363 10.3883 1.94621C10.2159 1.86363 10.0135 1.84862 9.82608 1.92369C8.06447 2.59181 6.93254 3.80795 6.55023 5.32436C6.17541 4.94901 5.71815 4.61119 5.17092 4.33343C4.83359 4.16077 4.42129 4.28839 4.23389 4.6187C3.57422 5.7973 3.40181 6.99091 3.73164 8.04939C3.75413 8.11696 3.78411 8.18452 3.8066 8.25208C3.48426 8.16951 3.15443 8.11696 2.79461 8.08693C2.6072 8.07192 2.4123 8.13197 2.26237 8.25959C2.11994 8.38721 2.02999 8.56738 2.02999 8.76256C1.99251 10.0688 2.32984 11.1798 2.96702 12.0356C2.67467 12.0581 2.37481 12.0957 2.05997 12.1557C1.87256 12.1933 1.70765 12.3059 1.6102 12.471C1.50525 12.6287 1.47526 12.8238 1.52024 13.0115C1.88755 14.4979 2.66717 15.5864 3.73913 16.2095C3.28936 16.4347 2.85457 16.7275 2.43478 17.1028C2.28486 17.238 2.2024 17.4256 2.2024 17.6208C2.2024 17.816 2.28486 18.0112 2.43478 18.1388C3.49175 19.0847 4.66866 19.5501 5.85307 19.5501C6.85007 19.5501 7.85457 19.2048 8.76911 18.5292C9.33133 19.2048 9.96102 19.8128 10.6357 20.3383C10.0435 20.5786 9.43628 20.7287 8.84408 20.7287C8.45427 20.7287 8.13943 21.044 8.13943 21.4268C8.13943 21.8097 8.45427 22.125 8.84408 22.125C9.90855 22.125 10.9805 21.7872 11.9925 21.2392C13.0045 21.7947 14.0765 22.125 15.1409 22.125C15.5307 22.125 15.8456 21.8097 15.8456 21.4268C15.8456 21.044 15.5307 20.7287 15.1409 20.7287C14.5487 20.7287 13.949 20.5786 13.3493 20.3383C14.0165 19.8128 14.6462 19.2048 15.2159 18.5292C16.1379 19.2048 17.1349 19.5426 18.1319 19.5426C19.3163 19.5426 20.4932 19.0697 21.5502 18.1313C21.7001 17.9962 21.7826 17.8085 21.7826 17.6133C21.7826 17.4181 21.7001 17.2229 21.5502 17.0953C21.1304 16.72 20.6957 16.4272 20.2459 16.202C21.3178 15.5789 22.0974 14.4904 22.4648 13.004L22.4798 13.019Z" fill="currentColor"/>
</svg>
