<svg id="Layer_1" xmlns="http://www.w3.org/2000/svg" viewBox="0 0 32 32">
  <path class="cls-1" fill="currentColor" d="M29.97,17.34c.06-.25.02-.5-.12-.72-.13-.21-.35-.36-.6-.42-.41-.09-.82-.14-1.21-.16.85-1.14,1.3-2.63,1.25-4.37,0-.26-.12-.5-.31-.67-.19-.17-.45-.25-.71-.23-.27.02-.53.06-.79.11.02-.05.04-.1.06-.15.44-1.42.21-3-.67-4.57-.24-.44-.79-.61-1.25-.38-.95.48-1.7,1.08-2.26,1.79-.39-2.24-1.94-4.04-4.47-5-.24-.09-.51-.08-.75.03-.23.11-.41.32-.48.57-1.11,3.68.36,6.83,3.82,8.33.23.51.63,1.79.63,4.51,0,3.35-2.76,7.82-6.12,10.12-3.35-2.3-6.12-6.77-6.12-10.12,0-2.71.4-3.99.63-4.51,3.46-1.5,4.93-4.65,3.82-8.33-.07-.25-.25-.45-.48-.57-.23-.11-.5-.13-.75-.03-2.35.89-3.86,2.51-4.37,4.53-.5-.5-1.11-.95-1.84-1.32-.45-.23-1-.06-1.25.38-.88,1.57-1.11,3.16-.67,4.57.03.09.07.18.1.27-.43-.11-.87-.18-1.35-.22-.25-.02-.51.06-.71.23s-.31.41-.31.67c-.05,1.74.4,3.22,1.25,4.36-.39.03-.79.08-1.21.16-.25.05-.47.2-.6.42s-.18.47-.12.72c.49,1.98,1.53,3.43,2.96,4.26-.6.3-1.18.69-1.74,1.19-.2.18-.31.43-.31.69s.11.52.31.69c1.41,1.26,2.98,1.88,4.56,1.88,1.33,0,2.67-.46,3.89-1.36.75.9,1.59,1.71,2.49,2.41-.79.32-1.6.52-2.39.52-.52,0-.94.42-.94.93s.42.93.94.93c1.42,0,2.85-.45,4.2-1.18,1.35.74,2.78,1.18,4.2,1.18.52,0,.94-.42.94-.93s-.42-.93-.94-.93c-.79,0-1.59-.2-2.39-.52.89-.7,1.73-1.51,2.49-2.41,1.23.9,2.56,1.35,3.89,1.35,1.58,0,3.15-.63,4.56-1.88.2-.18.31-.43.31-.69s-.11-.52-.31-.69c-.56-.5-1.14-.89-1.74-1.19,1.43-.83,2.47-2.28,2.96-4.26ZM12.77,4.77c.27,2.02-.54,3.66-2.32,4.68-.27-2.02.54-3.66,2.32-4.68ZM6.87,7.95c.68.5,1.14,1.11,1.35,1.78.21.67.17,1.43-.11,2.23-.68-.5-1.14-1.11-1.35-1.79-.21-.67-.17-1.43.11-2.23ZM7.94,16.5c-1.89-.48-3.04-1.77-3.3-3.69,1.89.48,3.04,1.77,3.3,3.69ZM8.4,20.53c-1.97.09-3.45-.82-4.22-2.63,1.98-.1,3.45.82,4.22,2.63ZM5.43,23.48c1.55-.95,3.21-.95,4.76,0-1.55.95-3.21.95-4.76,0ZM24.06,16.5c.26-1.92,1.42-3.21,3.31-3.69-.26,1.92-1.42,3.21-3.31,3.69ZM24.29,9.74c.21-.67.67-1.28,1.35-1.78.28.8.32,1.56.11,2.23-.21.67-.67,1.28-1.35,1.78-.28-.8-.32-1.56-.11-2.23ZM19.23,4.77c1.78,1.02,2.59,2.66,2.32,4.68-1.78-1.02-2.59-2.66-2.32-4.68ZM21.82,23.48c1.55-.95,3.21-.95,4.76,0-1.55.95-3.21.95-4.76,0ZM23.6,20.52c.77-1.81,2.25-2.74,4.22-2.63-.77,1.81-2.24,2.73-4.22,2.63Z"/>
</svg>
