<svg viewBox="0 0 34 34" fill="none" xmlns="http://www.w3.org/2000/svg">
    <path fill-rule="evenodd" clip-rule="evenodd" d="M17.5 31.5C25.232 31.5 31.5 25.232 31.5 17.5C31.5 9.76801 25.232 3.5 17.5 3.5C9.76801 3.5 3.5 9.76801 3.5 17.5C3.5 25.232 9.76801 31.5 17.5 31.5ZM23.9874 15.2374C24.6709 14.554 24.6709 13.446 23.9874 12.7626C23.304 12.0791 22.196 12.0791 21.5126 12.7626L15.75 18.5251L13.4874 16.2626C12.804 15.5791 11.696 15.5791 11.0126 16.2626C10.3291 16.946 10.3291 18.054 11.0126 18.7374L14.5126 22.2374C15.196 22.9209 16.304 22.9209 16.9874 22.2374L23.9874 15.2374Z" fill="currentColor"/>
</svg>
