<svg viewBox="0 0 34 34" fill="none" xmlns="http://www.w3.org/2000/svg">
    <path fill-rule="evenodd" clip-rule="evenodd" d="M17.5 31.5C25.232 31.5 31.5 25.232 31.5 17.5C31.5 9.76801 25.232 3.5 17.5 3.5C9.76801 3.5 3.5 9.76801 3.5 17.5C3.5 25.232 9.76801 31.5 17.5 31.5ZM18.5 10.5C18.5 9.94772 18.0523 9.5 17.5 9.5C16.9477 9.5 16.5 9.94772 16.5 10.5V17.5C16.5 17.7652 16.6054 18.0196 16.7929 18.2071L21.7426 23.1569C22.1332 23.5474 22.7663 23.5474 23.1569 23.1569C23.5474 22.7663 23.5474 22.1332 23.1569 21.7426L18.5 17.0858V10.5Z" fill="currentColor"/>
</svg>
