<svg width="118" height="32" viewBox="0 0 118 37" fill="none" xmlns="http://www.w3.org/2000/svg">
<path fill-rule="evenodd" clip-rule="evenodd" d="M115.101 13.1651C113.18 11.3215 110.934 10.3997 108.367 10.3997C105.87 10.3997 103.655 11.3357 101.728 13.2078C100.749 14.1568 100.021 15.1745 99.5383 16.2603C99.0739 17.317 98.8353 18.4386 98.8353 19.6252C98.8353 19.8925 98.8476 20.156 98.873 20.4159C99.0548 22.606 100.015 24.5356 101.747 26.2023C103.693 28.0676 105.983 28.9999 108.625 28.9999C111.097 28.9999 113.274 28.0564 115.158 26.1701C117.04 24.2838 117.981 22.1024 117.981 19.6252C117.981 17.1623 117.021 15.0088 115.101 13.1651ZM116.601 28.9846C115.829 28.9846 115.195 28.3634 115.195 27.6012C115.195 26.8372 115.829 26.2166 116.601 26.2166C117.372 26.2166 118 26.8372 118 27.6012C118 28.3634 117.372 28.9846 116.601 28.9846ZM85.0611 20.4161C85.3874 22.2177 86.1404 23.5329 87.3142 24.3632C88.4871 25.1928 89.7613 25.6073 91.1419 25.6073C93.2754 25.6073 95.0577 24.735 95.8738 23.7798L98.6095 25.8226C97.1789 27.6576 94.4238 28.9692 90.9724 28.9692C88.3244 28.9692 86.109 28.0758 84.3268 26.2885C82.5386 24.5011 81.6474 22.282 81.6474 19.6292C81.6474 17.1471 82.5509 14.9947 84.3581 13.1721C86.1658 11.3495 88.368 10.4382 90.9724 10.4382C93.5326 10.4382 95.7289 11.3638 97.5552 13.2148C98.076 13.7432 98.5218 14.3185 98.8917 14.9372C98.0696 16.383 97.6556 17.9507 97.6556 19.6255C97.6556 19.8921 97.6679 20.1556 97.687 20.4161L85.0611 20.4161ZM32.8131 10.1866H38.4421V18.9847C38.4421 20.2523 38.7684 21.309 39.4277 22.156C40.0798 23.0029 40.8896 23.4267 41.8558 23.4267C42.8787 23.4267 43.7389 23.0172 44.4347 22.1987C45.1313 21.3802 45.483 20.3513 45.483 19.1128V10.1866H51.118V20.8642C51.118 23.1273 50.24 25.0247 48.489 26.5553C46.7322 28.0853 44.5542 28.8506 41.9439 28.8506C39.1701 28.8506 36.9615 28.0815 35.2979 26.5442C33.6419 25.0068 32.8131 22.9639 32.8131 20.4157L32.8131 10.1866ZM116.601 26.3876C115.923 26.3876 115.371 26.932 115.371 27.6014C115.371 28.269 115.923 28.8134 116.601 28.8134C117.278 28.8134 117.83 28.269 117.83 27.6014C117.83 26.932 117.278 26.3876 116.601 26.3876ZM19.2774 28.5088H13.8179V25.3697H13.7302C12.1174 27.6618 10.1093 28.8076 7.71849 28.8076C5.58494 28.8076 3.76496 27.8895 2.25898 26.0527C0.752992 24.2165 0 21.9738 0 19.3259C0 16.678 0.777995 14.418 2.33398 12.5459C3.89082 10.6739 5.75445 9.73781 7.93164 9.73781C9.17448 9.73781 10.2156 9.96178 11.0695 10.4103C11.9229 10.8588 12.7954 11.5889 13.6861 12.5992V0H19.2774L19.2774 28.5088ZM26.3933 28.5085H20.7584V10.1434H26.3061V12.855H26.3933C26.9391 11.9443 27.5798 11.2217 28.3078 10.6878C29.0358 10.1539 29.7129 9.88725 30.3346 9.88725C30.7113 9.88725 31.0499 9.91571 31.3511 9.97263V15.9514C30.8867 15.866 30.435 15.8233 29.9892 15.8233C28.8472 15.8233 27.962 16.2187 27.3349 17.0087C26.7073 17.7988 26.3933 18.9061 26.3933 20.3297V28.5085ZM58.0902 10.1437V13.0694C58.347 12.8986 58.7301 12.5708 59.2322 12.0869C59.7403 11.6031 60.2301 11.1936 60.6941 10.8589C61.1649 10.5248 61.7297 10.2538 62.3887 10.0472C63.0412 9.84118 63.6374 9.73786 64.1709 9.73786C65.0244 9.73786 65.9464 10.0336 66.9443 10.6238C67.9423 11.2152 68.7702 12.2651 69.4355 13.774C70.5902 12.322 71.7195 11.2858 72.8242 10.6665C73.9289 10.0472 74.9578 9.73786 75.9116 9.73786C77.6062 9.73786 79.0308 10.4246 80.2037 11.7986C80.9067 12.6289 81.4025 13.5754 81.6788 14.6365C80.9131 16.1608 80.5241 17.8282 80.5241 19.6248C80.5241 21.7487 81.0071 23.6647 81.9546 25.3555V28.5088H76.4137V18.3225C76.4137 17.3116 76.1315 16.4609 75.5663 15.7705C75.0018 15.08 74.3238 14.7348 73.5331 14.7348C72.5797 14.7348 71.7576 15.1265 71.061 15.9091C70.3707 16.6923 70.0194 17.6252 70.0194 18.7067V28.5088H64.5218V18.5786C64.5218 17.5108 64.2336 16.6106 63.6624 15.8775C63.0912 15.1444 62.4073 14.7775 61.598 14.7775C60.6441 14.7775 59.8221 15.1797 59.1254 15.9839C58.4351 16.7888 58.0902 17.7533 58.0902 18.8774V28.5088H52.4989V10.1437L58.0902 10.1437ZM116.306 28.3431H116.117V26.8533H116.651C116.94 26.8533 117.153 26.9838 117.153 27.2882C117.153 27.4862 117.014 27.6897 116.802 27.6897C116.826 27.7145 116.852 27.7374 116.864 27.7664L117.216 28.3431H116.99L116.701 27.8648C116.651 27.7857 116.601 27.7064 116.5 27.7064H116.306L116.306 28.3431ZM116.651 27.0432H116.306V27.5406H116.651C116.826 27.5406 116.958 27.4862 116.958 27.2882C116.958 27.0908 116.826 27.0432 116.651 27.0432ZM114.316 20.2019C114.222 21.107 113.908 21.9404 113.375 22.7038C113.419 22.8145 113.451 22.9364 113.451 23.0645C113.451 23.5607 113.043 23.9628 112.54 23.9628C112.44 23.9628 112.346 23.9467 112.258 23.9188C111.392 24.6588 110.432 25.108 109.372 25.2638C109.258 25.6344 108.907 25.9048 108.499 25.9048C108.085 25.9048 107.74 25.6369 107.627 25.2688C106.567 25.1259 105.613 24.7163 104.753 24.0395C104.64 24.084 104.527 24.1082 104.401 24.1082C103.899 24.1082 103.491 23.706 103.491 23.2105C103.491 23.0806 103.516 22.958 103.567 22.8467C102.965 22.0486 102.619 21.1683 102.538 20.205C102.205 20.0726 101.966 19.7497 101.966 19.3723C101.966 18.9504 102.262 18.5971 102.663 18.5012C102.839 17.7458 103.171 17.0498 103.673 16.4157C103.655 16.3346 103.636 16.2492 103.636 16.1608C103.636 15.6646 104.044 15.2625 104.552 15.2625C104.64 15.2625 104.727 15.2761 104.81 15.3008C105.644 14.6593 106.579 14.2683 107.621 14.1303C107.721 13.748 108.078 13.4659 108.499 13.4659C108.92 13.4659 109.271 13.7492 109.378 14.1322C110.47 14.2844 111.449 14.7292 112.315 15.4635C112.384 15.4456 112.459 15.4351 112.54 15.4351C113.043 15.4351 113.451 15.8372 113.451 16.3334C113.451 16.4392 113.432 16.54 113.394 16.6347C113.808 17.215 114.084 17.8411 114.229 18.5117C114.605 18.6224 114.881 18.9658 114.881 19.3723C114.881 19.7466 114.649 20.067 114.316 20.2019ZM9.60119 15.1616C8.69777 15.1616 7.84393 15.5749 7.05322 16.4001C6.26293 17.2261 5.86716 18.3434 5.86716 19.7533C5.86716 20.8781 6.21887 21.8389 6.9155 22.6357C7.61214 23.4338 8.45878 23.8322 9.45034 23.8322C10.6364 23.8322 11.6216 23.401 12.4123 22.5398C13.203 21.6786 13.5979 20.6071 13.5979 19.3258C13.5979 18.2153 13.2157 17.244 12.4437 16.4113C11.6716 15.578 10.7241 15.1616 9.60119 15.1616ZM96.3255 17.4586C95.1144 15.0477 93.3322 13.8419 90.9723 13.8419C88.3998 13.8419 86.5548 15.0477 85.4501 17.4586H96.3255Z" fill="#0B76DB"/>
</svg>
