<svg viewBox="0 0 16 16" fill="none" xmlns="http://www.w3.org/2000/svg">
  <path d="M8.00033 3.33268L8.00033 3.33935M8.00032 7.99935L8.00032 8.00602M8.00032 12.666L8.00032 12.6727M8.00033 3.99935C7.63214 3.99935 7.33366 3.70087 7.33366 3.33268C7.33366 2.96449 7.63214 2.66602 8.00033 2.66602C8.36852 2.66602 8.66699 2.96449 8.66699 3.33268C8.66699 3.70087 8.36852 3.99935 8.00033 3.99935ZM8.00032 8.66602C7.63213 8.66602 7.33366 8.36754 7.33366 7.99935C7.33366 7.63116 7.63213 7.33268 8.00032 7.33268C8.36852 7.33268 8.66699 7.63116 8.66699 7.99935C8.66699 8.36754 8.36851 8.66602 8.00032 8.66602ZM8.00032 13.3327C7.63213 13.3327 7.33366 13.0342 7.33366 12.666C7.33366 12.2978 7.63213 11.9993 8.00032 11.9993C8.36851 11.9993 8.66699 12.2978 8.66699 12.666C8.66699 13.0342 8.36851 13.3327 8.00032 13.3327Z" stroke="currentColor" stroke-width="2" stroke-linecap="round" stroke-linejoin="round"/>
</svg>
