<svg viewBox="0 0 25 25" fill="none" xmlns="http://www.w3.org/2000/svg">
  <path d="M12.75 5.55078L12.75 5.56078M12.75 12.5508L12.75 12.5608M12.75 19.5508L12.75 19.5608M12.75 6.55078C12.1977 6.55078 11.75 6.10307 11.75 5.55078C11.75 4.9985 12.1977 4.55078 12.75 4.55078C13.3023 4.55078 13.75 4.9985 13.75 5.55078C13.75 6.10307 13.3023 6.55078 12.75 6.55078ZM12.75 13.5508C12.1977 13.5508 11.75 13.1031 11.75 12.5508C11.75 11.9985 12.1977 11.5508 12.75 11.5508C13.3023 11.5508 13.75 11.9985 13.75 12.5508C13.75 13.1031 13.3023 13.5508 12.75 13.5508ZM12.75 20.5508C12.1977 20.5508 11.75 20.1031 11.75 19.5508C11.75 18.9985 12.1977 18.5508 12.75 18.5508C13.3023 18.5508 13.75 18.9985 13.75 19.5508C13.75 20.1031 13.3023 20.5508 12.75 20.5508Z" stroke="currentColor" stroke-width="2" stroke-linecap="round" stroke-linejoin="round"/>
</svg>
