<svg width="14" height="16" viewBox="0 0 14 16" fill="none" xmlns="http://www.w3.org/2000/svg">
    <path fill-rule="evenodd" clip-rule="evenodd" d="M8.66893 0.432221C8.93229 0.50216 9.15294 0.68182 9.2748 0.925542C9.73418 1.84431 10.077 2.40193 10.422 2.85405C10.7711 3.31169 11.1404 3.68634 11.7023 4.24816C13.0006 5.54647 13.65 7.25001 13.65 8.95043C13.65 10.6508 13.0006 12.3544 11.7023 13.6527C9.10528 16.2497 4.89473 16.2497 2.29775 13.6527C0.99944 12.3544 0.350008 10.6508 0.350006 8.95043C0.350003 7.25001 0.999436 5.54646 2.29775 4.24816C2.56944 3.97646 2.97806 3.89518 3.33305 4.04222C3.68804 4.18926 3.9195 4.53567 3.9195 4.91991C3.9195 5.98373 3.98593 6.79433 4.29708 7.44087C4.46817 7.7964 4.73506 8.14398 5.19505 8.45415C5.3049 7.44642 5.50615 6.21865 5.77807 5.05328C5.99216 4.13575 6.25843 3.21973 6.57535 2.45587C6.73387 2.0738 6.91313 1.71 7.11672 1.3959C7.31488 1.09016 7.56949 0.779042 7.89813 0.559948C8.12485 0.408798 8.40557 0.362281 8.66893 0.432221ZM9.01526 12.8656C7.90227 13.9786 6.09774 13.9786 4.98475 12.8656C4.42826 12.3092 4.15001 11.5798 4.15001 10.8504C4.15001 10.8504 4.98475 11.3254 6.52505 11.3254C6.52505 10.3754 7.00005 7.52539 7.71255 7.05039C8.18755 8.00039 8.45876 8.27865 9.01526 8.83514C9.57176 9.39164 9.85001 10.121 9.85001 10.8504C9.85 11.5798 9.57176 12.3092 9.01526 12.8656Z" fill="#FFAE00"/>
</svg>
