<svg id="Layer_1" xmlns="http://www.w3.org/2000/svg" viewBox="0 0 32 32">
  <path class="cls-1" fill="currentColor" d="M22.96,29.5c-.25,0-.5-.1-.68-.28l-5.29-5.29h-5.17c-.67,0-1.32-.18-1.88-.5l-.22.22c-.28.28-.69.36-1.05.21-.36-.15-.6-.5-.6-.89v-4.61h-1.82c-2.07,0-3.75-1.68-3.75-3.75V6.25c0-2.07,1.68-3.75,3.75-3.75h13.93c2.07,0,3.75,1.68,3.75,3.75v1.82h1.82c2.07,0,3.75,1.68,3.75,3.75v8.36c0,2.07-1.68,3.75-3.75,3.75h-1.82v4.61c0,.39-.23.74-.6.89-.12.05-.24.07-.37.07ZM11.41,21.95c.13.03.27.05.41.05h5.57c.26,0,.5.1.68.28l3.93,3.93v-3.24c0-.53.43-.96.96-.96h2.79c1,0,1.82-.82,1.82-1.82v-8.36c0-1-.82-1.82-1.82-1.82h-1.82v4.61c0,2.07-1.68,3.75-3.75,3.75h-5.17l-3.6,3.6ZM6.25,4.43c-1,0-1.82.82-1.82,1.82v8.36c0,1,.82,1.82,1.82,1.82h2.79c.53,0,.96.43.96.96v3.24l3.93-3.93c.18-.18.43-.28.68-.28h5.57c1,0,1.82-.82,1.82-1.82V6.25c0-1-.82-1.82-1.82-1.82H6.25Z"/>
</svg>
