<svg viewBox="0 0 28 28" fill="none" xmlns="http://www.w3.org/2000/svg">
  <path d="M22.5293 7.06125H20.9368V5.46875C20.9368 3.6575 19.4668 2.1875 17.6555 2.1875H5.4668C3.65555 2.1875 2.18555 3.6575 2.18555 5.46875V12.7837C2.18555 14.595 3.65555 16.065 5.4668 16.065H7.0593V20.0987C7.0593 20.44 7.26931 20.7463 7.58431 20.8775C7.89931 21.0088 8.25805 20.93 8.50305 20.6938L8.69555 20.5013C9.1943 20.79 9.7543 20.9388 10.3406 20.9388H14.8643L19.493 25.5675C19.6593 25.725 19.8693 25.8125 20.088 25.8125C20.2018 25.8125 20.3068 25.795 20.4118 25.7513C20.7268 25.62 20.9368 25.3138 20.9368 24.9725V20.9388H22.5293C24.3405 20.9388 25.8105 19.4688 25.8105 17.6575V10.3425C25.8105 8.54 24.3405 7.06125 22.5293 7.06125ZM24.1218 17.6575C24.1218 18.5413 23.4043 19.25 22.5293 19.25H20.088C19.6243 19.25 19.248 19.6262 19.248 20.0987V22.9338L15.818 19.495C15.6518 19.3375 15.4418 19.25 15.2143 19.25H10.3406C10.2181 19.25 10.0956 19.2412 9.9818 19.215L13.1318 16.065H17.6555C19.4668 16.065 20.9368 14.595 20.9368 12.7837V8.75H22.5293C23.4043 8.75 24.1218 9.4675 24.1218 10.3425V17.6575Z" fill="currentColor"/>
</svg>
