<svg width="117" height="32" viewBox="0 0 117 37" fill="none" xmlns="http://www.w3.org/2000/svg">
<path fill-rule="evenodd" clip-rule="evenodd" d="M13.6607 10.2262L13.6534 11.7047C12.2426 10.1286 11.0223 9.7976 8.46698 9.7976C3.89035 9.7976 0 13.6891 0 19.7992C0 25.2864 3.27984 29.0999 7.89472 29.0999C10.0308 29.0999 11.6203 28.4514 13.0054 26.9984V27.8547C13.0054 31.3567 10.9076 32.2266 8.16172 32.2266C5.98816 32.2266 3.9286 31.4873 2.74583 30.7863L1.47479 35.5214C3.15259 36.4941 5.74616 37 8.18747 37C10.9333 37 13.7174 36.4559 15.7769 34.6651C17.8747 32.758 18.7265 30.1506 18.7265 26.4925C18.7265 26.4925 18.7574 10.1338 18.7515 10.2262H13.6607ZM72.1153 28.54C71.9314 27.5275 71.8586 25.8395 71.8586 24.0773V17.7015C71.8586 13.3882 69.9469 9.78784 63.9558 9.78784C60.6848 9.78784 58.2222 10.6885 56.9724 11.4007L58.0015 15.0761C59.1776 14.3263 61.1254 13.6884 62.9635 13.6884C65.7204 13.6884 66.2346 15.0761 66.2346 16.0511V16.3137C59.8764 16.2762 55.686 18.5639 55.686 23.3267C55.686 26.2523 57.8544 28.9528 61.4932 28.9528C63.6248 28.9528 65.463 28.1647 66.6391 26.7027H66.7495L67.0804 28.54H72.1153ZM36.6248 10.2584C36.6248 13.5946 36.6182 16.9299 36.6182 20.2653C36.6174 20.4147 36.6145 20.5633 36.6071 20.7126C36.5931 20.9873 36.5667 21.2613 36.5277 21.5337C36.4159 22.3113 36.1996 23.0731 35.887 23.7913C35.6634 24.3024 35.3913 24.7918 35.0757 25.2504C34.7528 25.7202 34.3843 26.157 33.9768 26.5526C33.5943 26.9248 33.178 27.2611 32.7352 27.5545C32.2879 27.851 31.8142 28.1047 31.3214 28.3103C30.8691 28.4987 30.4005 28.6473 29.9231 28.7539C29.4509 28.8582 28.9706 28.922 28.4881 28.9438C27.5568 28.9858 26.6197 28.874 25.7246 28.6083C24.9287 28.3718 24.1689 28.0153 23.4738 27.5545C22.6875 27.0336 21.9872 26.3799 21.4076 25.6271C20.867 24.9261 20.4323 24.1381 20.1255 23.3012C19.8982 22.679 19.7416 22.0298 19.6592 21.3716C19.6298 21.1344 19.6099 20.8958 19.5996 20.6571C19.5945 20.5453 19.5923 20.4334 19.5908 20.3216C19.5805 16.9675 19.5842 13.6133 19.5871 10.2584H25.1641C25.1538 13.6073 25.1508 16.9562 25.1825 20.3051C25.1847 20.4454 25.195 20.5858 25.2156 20.7246C25.2531 20.9761 25.323 21.2215 25.423 21.4542C25.5672 21.7912 25.7731 22.0989 26.0262 22.3601C26.2792 22.6205 26.5778 22.8351 26.9059 22.9868C27.1604 23.1038 27.4311 23.1834 27.7084 23.2209C28.1078 23.2757 28.5182 23.2472 28.9059 23.1354C29.1596 23.0618 29.4031 22.9515 29.6274 22.8104C29.804 22.6993 29.9687 22.5695 30.1195 22.4239C30.388 22.1619 30.6087 21.8489 30.7646 21.5037C30.8705 21.268 30.9456 21.0181 30.9875 20.7622C31.0132 20.6046 31.0257 20.4454 31.0272 20.2856C31.0368 16.9434 31.0544 13.6006 31.0515 10.2584H36.6248ZM46.3304 10.2006V6.22505L51.8066 4.94989V10.2006H55.8132V14.4014H51.8066V21.0391C51.8066 23.2517 52.3215 24.2649 54.0118 24.2649C54.3222 24.2649 54.604 24.2499 54.8563 24.2266C54.9114 24.6417 55.0056 25.0507 55.1365 25.4478C55.3292 26.0279 55.6014 26.5796 55.9463 27.0809C56.2715 27.5545 56.6606 27.9816 57.0997 28.3478C55.7176 28.6203 53.2851 28.9152 52.0641 28.9152C50.2627 28.9152 48.7563 28.2773 47.8736 27.3399C46.8446 26.2523 46.3304 24.4893 46.3304 21.9015V14.4014H43.9413V10.2006H46.3304ZM107.888 10.0873C108.046 10.0896 108.202 10.0941 108.359 10.1031C108.649 10.1196 108.938 10.1503 109.225 10.1954C110.044 10.323 110.846 10.5661 111.601 10.9144C112.508 11.3332 113.347 11.9036 114.075 12.5963C114.829 13.3116 115.464 14.1567 115.945 15.0859C116.356 15.8807 116.653 16.7355 116.825 17.6174C117.021 18.6284 117.053 19.6731 116.919 20.6946C116.794 21.6478 116.523 22.58 116.119 23.4491C115.645 24.4676 114.989 25.396 114.195 26.1788C113.785 26.5818 113.339 26.9466 112.863 27.2663C112.384 27.5883 111.875 27.8637 111.345 28.0889C110.772 28.3321 110.174 28.5159 109.564 28.6353C108.992 28.7471 108.411 28.8027 107.829 28.8027C107.247 28.8027 106.665 28.7471 106.094 28.6353C105.484 28.5159 104.886 28.3321 104.312 28.0889C103.782 27.8637 103.274 27.5883 102.795 27.2663C102.319 26.9466 101.873 26.5818 101.463 26.1788C100.668 25.396 100.013 24.4676 99.539 23.4491C99.1352 22.58 98.8645 21.6478 98.7395 20.6946C98.6056 19.6731 98.6372 18.6284 98.8336 17.6174C99.005 16.7355 99.3022 15.8807 99.7134 15.0859C100.194 14.1567 100.829 13.3116 101.583 12.5963C102.311 11.9036 103.15 11.3332 104.056 10.9144C104.812 10.5661 105.613 10.323 106.433 10.1954C106.72 10.1503 107.009 10.1196 107.299 10.1031C107.456 10.0941 107.612 10.0896 107.77 10.0873H107.888ZM85.4326 20.0807C85.4392 20.143 85.4465 20.2053 85.4554 20.2676C85.5333 20.8372 85.6952 21.3941 85.9342 21.9157C86.2277 22.5567 86.6352 23.1406 87.131 23.6352C87.6436 24.1456 88.249 24.5584 88.9081 24.8428C89.2869 25.0064 89.6819 25.1273 90.0857 25.2038C90.4211 25.2669 90.7609 25.2992 91.1022 25.3014C91.4678 25.3044 91.8334 25.2714 92.193 25.2038C92.5733 25.1318 92.947 25.02 93.3059 24.8713C93.9584 24.5982 94.5586 24.2011 95.0727 23.708C95.2419 23.5452 95.4023 23.3718 95.5509 23.1894L98.3062 25.2804C98.0584 25.5964 97.7906 25.8973 97.5052 26.1788C97.0955 26.5818 96.649 26.9466 96.1724 27.2663C95.6943 27.5883 95.1853 27.8637 94.6557 28.0889C94.0827 28.3321 93.4847 28.5159 92.8742 28.6353C92.3026 28.7471 91.7208 28.8027 91.139 28.8027C90.5572 28.8027 89.9753 28.7471 89.4038 28.6353C88.794 28.5159 88.196 28.3321 87.6223 28.0889C87.0927 27.8637 86.5844 27.5883 86.1049 27.2663C85.6297 26.9466 85.1832 26.5818 84.7735 26.1788C83.9784 25.396 83.323 24.4676 82.8493 23.4491C82.4455 22.58 82.1748 21.6478 82.0497 20.6946C81.9159 19.6731 81.9468 18.6284 82.1439 17.6174C82.3153 16.7355 82.6124 15.8807 83.0236 15.0859C83.5047 14.1567 84.1395 13.3116 84.8934 12.5963C85.6216 11.9036 86.4601 11.3332 87.3663 10.9144C88.1217 10.5661 88.9235 10.323 89.7436 10.1954C90.0305 10.1503 90.3196 10.1196 90.6094 10.1031C90.7661 10.0941 90.9227 10.0896 91.0801 10.0873H91.1986C91.3552 10.0896 91.5127 10.0941 91.6693 10.1031C91.9591 10.1196 92.2482 10.1503 92.5351 10.1954C93.3545 10.323 94.1562 10.5661 94.9117 10.9144C95.8186 11.3332 96.6564 11.9036 97.3853 12.5963C97.9988 13.1788 98.5343 13.8475 98.9712 14.5778C98.9057 14.7008 98.8432 14.8254 98.7829 14.9508C98.5181 15.5047 98.3026 16.0826 98.14 16.6763C97.8561 17.7112 97.734 18.7913 97.7766 19.8653C97.7796 19.9373 97.7833 20.0094 97.7877 20.0807H85.4326ZM43.1219 28.54V10.2006H37.5354V28.54H43.1219ZM77.8203 10.2006L77.8769 12.2796C79.0913 10.3522 81.2752 9.78784 83.0023 9.78784C84.2093 9.78784 85.2788 10.3365 85.9283 10.6652C85.3553 11.0195 84.8176 11.4323 84.3248 11.8961C83.5856 12.5911 82.9493 13.3987 82.4425 14.2843C82.2881 14.5545 82.1454 14.8329 82.0159 15.1166C80.3182 15.332 79.1759 16.3956 78.8493 17.9642C78.7758 18.3387 78.739 18.789 78.739 19.2393V28.54H73.1517V16.2387C73.1517 13.5383 73.0789 11.776 73.0053 10.2006H77.8203ZM110.113 14.5147C110.685 14.8044 111.33 15.1985 111.798 15.5452C112.268 15.8934 112.733 16.2995 113.054 16.6898C113.351 17.0508 113.64 17.5491 113.748 18.016C113.894 18.6442 113.924 19.2964 113.604 20.0266C113.301 20.7216 112.856 21.0909 112.47 21.4602C112.166 21.7506 111.848 21.9908 111.529 22.2572C110.912 22.7721 110.285 23.2292 109.55 23.6682C109.203 23.8746 108.867 24.093 108.502 24.2754C107.8 24.6252 107.073 25.0004 106.319 25.1836C105.894 25.2879 105.412 25.4147 104.987 25.2849C104.37 25.098 104.18 24.5644 103.989 24.1021C103.861 23.7891 103.78 23.4521 103.718 23.1594C103.585 22.5237 103.511 21.8287 103.476 21.187C103.4 19.824 103.465 18.425 103.657 17.0763C103.709 16.71 103.776 16.3903 103.863 16.0038C103.953 15.6105 104.072 15.2472 104.298 14.875C104.742 14.1424 105.281 13.801 105.925 13.5938C106.841 13.2988 107.874 13.509 108.995 13.9646C109.36 14.1132 109.713 14.3121 110.113 14.5147ZM66.4184 21.8647C66.4184 22.2017 66.3817 22.5394 66.3081 22.8397C65.9403 24.0022 64.801 24.9396 63.4049 24.9396C62.1552 24.9396 61.1989 24.2274 61.1989 22.7646C61.1989 20.552 63.4784 19.839 66.4184 19.8765V21.8647ZM12.9289 20.7719C12.9289 21.2778 12.8906 21.9007 12.7383 22.3285C12.3573 23.7298 11.1746 24.7415 9.68726 24.7415C7.24669 24.7415 5.87341 22.5229 5.87341 19.6821C5.87341 16.2192 7.58946 14.273 9.68726 14.273C11.2893 14.273 12.3948 15.3238 12.8148 16.8804C12.8906 17.1919 12.9289 17.5807 12.9289 17.9702V20.7719ZM96.1459 16.5802C95.8826 16.1036 95.5538 15.6645 95.172 15.2803C94.7123 14.8164 94.1761 14.4322 93.5921 14.1485C93.1265 13.9233 92.6307 13.7627 92.1224 13.6734C91.9444 13.6418 91.7642 13.6193 91.584 13.6051C91.4737 13.5968 91.3626 13.5916 91.2515 13.5893C91.2015 13.5886 91.1515 13.5886 91.1015 13.5886C91.0022 13.5893 90.9036 13.5923 90.8043 13.5976C90.6109 13.6096 90.4182 13.6306 90.2262 13.6614C89.7282 13.7424 89.2405 13.8918 88.7808 14.1042C88.2549 14.3473 87.7657 14.6716 87.3332 15.0626C86.8544 15.4964 86.4469 16.0113 86.1328 16.5802H96.1459ZM40.5048 3C38.7035 3 37.5273 4.23763 37.5641 5.88806C37.5273 7.46268 38.7035 8.73784 40.4681 8.73784C42.3055 8.73784 43.4816 7.46268 43.4816 5.88806C43.4448 4.23763 42.3055 3 40.5048 3Z" fill="#00C9AC"/>
</svg>
