<svg id="Layer_1" xmlns="http://www.w3.org/2000/svg" viewBox="0 0 32 32">
  <path class="cls-1" fill="currentColor" d="M16,3c-7.18,0-13,5.82-13,13s5.82,13,13,13,13-5.82,13-13S23.18,3,16,3ZM23.04,7.55l-3.33,3.33c-1.04-.76-2.32-1.21-3.71-1.21s-2.67.45-3.71,1.21l-3.33-3.33c1.91-1.59,4.36-2.55,7.04-2.55s5.13.96,7.04,2.55ZM16,20.33c-2.39,0-4.33-1.94-4.33-4.33s1.94-4.33,4.33-4.33,4.33,1.94,4.33,4.33-1.94,4.33-4.33,4.33ZM5,16c0-2.68.96-5.13,2.55-7.04l3.33,3.33c-.76,1.04-1.21,2.32-1.21,3.71s.45,2.67,1.21,3.71l-3.33,3.33c-1.59-1.91-2.55-4.36-2.55-7.04ZM8.96,24.45l3.33-3.33c1.04.76,2.32,1.21,3.71,1.21s2.67-.45,3.71-1.21l3.33,3.33c-1.91,1.59-4.36,2.55-7.04,2.55s-5.13-.96-7.04-2.55ZM24.45,23.04l-3.33-3.33c.76-1.04,1.21-2.32,1.21-3.71s-.45-2.67-1.21-3.71l3.33-3.33c1.59,1.91,2.55,4.36,2.55,7.04s-.96,5.13-2.55,7.04Z"/>
</svg>
