<svg viewBox="0 0 41 40" fill="none" xmlns="http://www.w3.org/2000/svg">
<path d="M21.0785 7.34223C20.7512 7.07603 20.2547 7.07603 19.9218 7.34223L5.08163 19.3964C4.72154 19.6877 4.68335 20.2 5.00525 20.5315C5.32715 20.863 5.8782 20.8981 6.23829 20.6018L8.27882 18.9444V28.8388C8.27882 31.0588 10.2321 32.8569 12.6436 32.8569H28.3568C30.7683 32.8569 32.7215 31.0588 32.7215 28.8388V18.9444L34.7621 20.6018C35.1222 20.8931 35.6732 20.863 35.9951 20.5315C36.317 20.2 36.2788 19.6927 35.9187 19.3964L21.0785 7.34223ZM10.0247 28.8388V17.523L20.5002 9.01474L30.9756 17.523V28.8388C30.9756 30.1698 29.8026 31.2496 28.3568 31.2496H12.6436C11.1978 31.2496 10.0247 30.1698 10.0247 28.8388ZM17.8813 16.7847C16.9156 16.7847 16.1354 17.5029 16.1354 18.3919V23.2135C16.1354 24.1025 16.9156 24.8208 17.8813 24.8208H23.119C24.0847 24.8208 24.865 24.1025 24.865 23.2135V18.3919C24.865 17.5029 24.0847 16.7847 23.119 16.7847H17.8813ZM17.8813 18.3919H23.119V23.2135H17.8813V18.3919Z" fill="currentColor"/>
</svg>
