<svg viewBox="0 0 28 28" fill="none" xmlns="http://www.w3.org/2000/svg">
  <path d="M27.6961 13.3787L14.5776 2.82625C14.4201 2.695 14.2188 2.625 14.0088 2.625C13.7987 2.625 13.5887 2.695 13.4224 2.82625L0.303932 13.3787C-0.0636304 13.6762 -0.107388 14.2013 0.225168 14.5513C0.400198 14.735 0.64524 14.8225 0.890281 14.8225C1.09157 14.8225 1.3016 14.7613 1.46788 14.6213L3.0869 13.3263V21.7437C3.0869 23.7563 4.8722 25.375 7.06007 25.375H20.9399C23.1278 25.375 24.9131 23.7563 24.9131 21.7437V13.3263L26.5321 14.6213C26.6984 14.7613 26.9084 14.8225 27.1097 14.8225C27.3548 14.8225 27.5998 14.735 27.7748 14.5513C28.1074 14.2013 28.0636 13.685 27.6961 13.3787ZM17.5356 18.34C17.5356 19.1012 16.8617 19.6963 16.0653 19.6963H11.9434C11.1383 19.6963 10.4732 19.1012 10.4732 18.34V14.5775C10.4732 13.825 11.147 13.2212 11.9434 13.2212H16.0653C16.8705 13.2212 17.5356 13.825 17.5356 14.5775V18.34Z" fill="currentColor"/>
</svg>
