<svg viewBox="0 0 41 40" fill="none" xmlns="http://www.w3.org/2000/svg">
  <path d="M31.5 10.3084C32.2606 10.3084 32.875 10.9271 32.875 11.6929V25.5384C32.875 26.3043 32.2606 26.923 31.5 26.923H9.5C8.73946 26.923 8.125 26.3043 8.125 25.5384V11.6929C8.125 10.9271 8.73946 10.3084 9.5 10.3084H31.5ZM9.5 8.92383C7.98321 8.92383 6.75 10.1656 6.75 11.6929V25.5384C6.75 27.0658 7.98321 28.3075 9.5 28.3075H31.5C33.0168 28.3075 34.25 27.0658 34.25 25.5384V11.6929C34.25 10.1656 33.0168 8.92383 31.5 8.92383H9.5ZM10.875 30.3844C10.875 30.7651 11.1844 31.0766 11.5625 31.0766H29.4375C29.8157 31.0766 30.125 30.7651 30.125 30.3844C30.125 30.0036 29.8157 29.6921 29.4375 29.6921H11.5625C11.1844 29.6921 10.875 30.0036 10.875 30.3844Z" fill="currentColor"/>
  <path d="M17.7738 14.5349L17.774 14.535L24.0747 18.7347C24.1082 18.758 24.1332 18.8006 24.1332 18.8546C24.1332 18.9116 24.1061 18.9538 24.0772 18.9728L24.0761 18.9736L17.7757 23.1731C17.7755 23.1732 17.7753 23.1733 17.7751 23.1735C17.7431 23.1941 17.7147 23.1923 17.6899 23.177C17.6567 23.1563 17.6287 23.1131 17.6287 23.0553V14.654C17.6287 14.5936 17.6585 14.5511 17.6866 14.5343C17.717 14.5161 17.7486 14.518 17.7738 14.5349ZM17.0866 13.4405L17.0866 13.4405L17.086 13.4409C16.6759 13.6926 16.4307 14.1585 16.4307 14.654V23.0553C16.4307 23.5507 16.6759 24.0166 17.086 24.2684C17.4995 24.5222 18.0119 24.5132 18.4171 24.2416C18.4172 24.2416 18.4172 24.2415 18.4173 24.2415L24.7188 20.0412L24.7195 20.0407C25.1059 19.7814 25.3335 19.3335 25.3335 18.8546C25.3335 18.3766 25.1066 17.9255 24.7187 17.6679C24.7186 17.6679 24.7185 17.6678 24.7184 17.6677L18.4167 13.4674L18.4163 13.4671C18.0122 13.1991 17.5028 13.1866 17.0866 13.4405Z" fill="currentColor" stroke="currentColor" stroke-width="0.5"/>
</svg>
