<svg id="Layer_1" xmlns="http://www.w3.org/2000/svg" viewBox="0 0 32 32">
  <path class="cls-1" fill="currentColor" d="M25.97,27.94c0,.59-.47,1.06-1.05,1.06H7.09c-.58,0-1.05-.47-1.05-1.06s.47-1.05,1.05-1.05h17.83c.58,0,1.05.47,1.05,1.05Z"/>
  <path class="cls-1" fill="currentColor" d="M26.97,3H5.03c-1.72,0-3.11,1.39-3.11,3.11v13.73c0,1.72,1.39,3.12,3.11,3.12h21.94c1.72,0,3.11-1.4,3.11-3.12V6.11c0-1.72-1.39-3.11-3.11-3.11ZM27.97,19.83c0,.56-.45,1-1,1H5.03c-.55,0-1-.44-1-1V6.11c0-.55.45-1,1-1h21.94c.55,0,1,.45,1,1v13.73Z"/>
  <path class="cls-1" fill="currentColor" d="M20.4,11.57l-5.99-3.93c-.28-.18-.59-.27-.9-.27s-.59.08-.86.24c-.5.3-.81.86-.81,1.46v7.85c0,.6.31,1.16.81,1.46.26.16.56.24.85.24.32,0,.64-.09.91-.27l5.99-3.93c.48-.31.77-.85.77-1.43s-.29-1.11-.77-1.42ZM18.66,13.19l-4.46,2.92c-.16.11-.37,0-.37-.2v-5.85c0-.19.21-.31.37-.2l4.46,2.92c.15.1.15.31,0,.4Z"/>
</svg>
