<svg viewBox="0 0 28 28" fill="none" xmlns="http://www.w3.org/2000/svg">
  <path d="M22.6024 24.448C22.6024 24.9643 22.1934 25.3755 21.6888 25.3755H6.17622C5.67161 25.3755 5.2627 24.9643 5.2627 24.448C5.2627 23.9318 5.67161 23.5293 6.17622 23.5293H21.6888C22.1934 23.5293 22.6024 23.9405 22.6024 24.448Z" fill="currentColor"/>
  <path d="M23.4724 2.625H4.38401C2.88756 2.625 1.67822 3.84125 1.67822 5.34625V17.3512C1.67822 18.8563 2.88756 20.0813 4.38401 20.0813H23.4724C24.9689 20.0813 26.1782 18.8563 26.1782 17.3512V5.34625C26.1782 3.84125 24.9689 2.625 23.4724 2.625ZM17.4083 12.4862L12.7363 15.5662C12.5275 15.7063 12.2752 15.7762 12.0229 15.7762C11.7967 15.7762 11.5617 15.715 11.3616 15.5838C10.9701 15.3475 10.7265 14.91 10.7265 14.4375V8.2775C10.7265 7.805 10.9701 7.3675 11.3616 7.13125C11.5704 7.00875 11.7967 6.93875 12.0316 6.93875C12.2665 6.93875 12.5188 7.00875 12.7363 7.14875L17.4083 10.2287C17.7824 10.4737 18.0087 10.885 18.0087 11.34C18.0087 11.795 17.7824 12.215 17.4083 12.46V12.4862Z" fill="currentColor"/>
</svg>
