<svg viewBox="0 0 34 34" fill="none" xmlns="http://www.w3.org/2000/svg">
    <path fill-rule="evenodd" clip-rule="evenodd" d="M8.75 15.75V12.25C8.75 7.41751 12.6675 3.5 17.5 3.5C22.3325 3.5 26.25 7.41751 26.25 12.25V15.75C28.183 15.75 29.75 17.317 29.75 19.25V28C29.75 29.933 28.183 31.5 26.25 31.5H8.75C6.817 31.5 5.25 29.933 5.25 28V19.25C5.25 17.317 6.817 15.75 8.75 15.75ZM22.75 12.25V15.75H12.25V12.25C12.25 9.35051 14.6005 7 17.5 7C20.3995 7 22.75 9.35051 22.75 12.25Z" fill="currentColor"/>
</svg>
