<svg id="Layer_1" xmlns="http://www.w3.org/2000/svg" viewBox="0 0 32 32">
  <path class="cls-1" fill="currentColor" d="M17.33,27.67h-9.33c-2.76,0-5-2.24-5-5v-13.33c0-2.76,2.24-5,5-5h9.33c2.76,0,5,2.24,5,5v1.33c0,.55-.45,1-1,1s-1-.45-1-1v-1.33c0-1.65-1.35-3-3-3h-9.33c-1.65,0-3,1.35-3,3v13.33c0,1.65,1.35,3,3,3h9.33c1.65,0,3-1.35,3-3v-1.33c0-.55.45-1,1-1s1,.45,1,1v1.33c0,2.76-2.24,5-5,5ZM14.67,22.33c-.26,0-.51-.1-.71-.29l-5.33-5.33s0,0,0,0c0,0,0,0,0,0h0s0,0,0,0c0,0,0,0,0,0h0s0,0,0,0h0s0,0,0,0h0c-.09-.09-.16-.2-.2-.31-.05-.11-.07-.23-.08-.36h0v-.05h0c0-.13.03-.25.07-.36.05-.12.12-.23.21-.32h0s0,0,0,0c0,0,0,0,0,0h0l5.33-5.33c.39-.39,1.02-.39,1.41,0s.39,1.02,0,1.41l-3.63,3.63h16.25c.55,0,1,.45,1,1s-.45,1-1,1H11.75l3.63,3.63c.39.39.39,1.02,0,1.41-.2.2-.45.29-.71.29Z"/>
</svg>
