<svg id="Layer_1" xmlns="http://www.w3.org/2000/svg" viewBox="0 0 32 32">
  <path class="cls-1" fill="currentColor" d="M2.5,27.94c0,.58.44,1.05.99,1.05h24.04c1.29,0,1.97-1.02,1.97-2.02V8.84c0-1.89-1.46-3.44-3.27-3.44h-2.27c-.55,0-.99.47-.99,1.05v1.19c0,.08-.07.15-.15.15h-2.27c-.55,0-.99.47-.99,1.05s.44,1.05.99,1.05h2.27c.08,0,.15.07.15.15v13.13c0,.58.44,1.05.99,1.05h2.27c.71,0,1.28.6,1.28,1.34s-.58,1.34-1.28,1.34H4.96c-.26,0-.47-.21-.47-.47V10.36c0-.26.21-.47.47-.47h8.77c.55,0,.99-.47.99-1.05s-.44-1.05-.99-1.05H3.49c-.55,0-.99.47-.99,1.05v19.1ZM27.04,22.12h-1.61c-.26,0-.48-.22-.48-.48V7.64c0-.08.07-.15.15-.15h1.14c.71,0,1.28.6,1.28,1.34v12.8c0,.26-.22.48-.48.48Z"/>
  <path class="cls-1" fill="currentColor" d="M18.15,19.58V4.06c0-.59-.46-1.07-1.02-1.07s-1.02.48-1.02,1.07v12.59l-.17-.08c-.67-.3-1.44-.46-2.23-.46-1.11,0-2.16.31-2.97.88-.92.65-1.45,1.59-1.45,2.58s.53,1.94,1.45,2.58c.81.57,1.86.88,2.97.88s2.16-.31,2.97-.88c.92-.65,1.45-1.59,1.45-2.58ZM15.58,20.38c-.47.33-1.15.52-1.85.52s-1.38-.19-1.85-.52c-.49-.34-.54-.67-.54-.79s.05-.45.54-.8c.47-.33,1.15-.52,1.85-.52s1.38.19,1.85.52c.49.34.54.67.54.8s-.05.45-.54.79Z"/>
</svg>
