<svg viewBox="0 0 24 24" fill="none" xmlns="http://www.w3.org/2000/svg">
  <path fill-rule="evenodd" clip-rule="evenodd" d="M22.125 6.63762V20.2351C22.125 20.9851 21.6225 21.7501 20.6475 21.7501H2.6175C2.2125 21.7501 1.875 21.3976 1.875 20.9626V6.63762C1.875 6.20262 2.2125 5.85012 2.6175 5.85012H10.2975C10.7025 5.85012 11.04 6.20262 11.04 6.63762C11.04 7.07262 10.7025 7.42512 10.2975 7.42512H3.72001C3.52501 7.42512 3.36 7.58262 3.36 7.77762V19.8226C3.36 20.0176 3.52501 20.1751 3.72001 20.1751H19.68C20.205 20.1751 20.64 19.7251 20.64 19.1701C20.64 18.6151 20.205 18.1651 19.68 18.1651H17.97C17.5575 18.1651 17.2275 17.8126 17.2275 17.3851V7.53012C17.2275 7.47012 17.175 7.42512 17.115 7.42512H15.4125C15 7.42512 14.67 7.07262 14.67 6.63762C14.67 6.20262 15 5.85012 15.4125 5.85012H17.115C17.175 5.85012 17.2275 5.80512 17.2275 5.73762V4.84512C17.2275 4.41012 17.5575 4.05762 17.97 4.05762H19.68C21.03 4.05762 22.125 5.21262 22.125 6.63762Z" fill="currentColor"/>
  <path fill-rule="evenodd" clip-rule="evenodd" d="M13.6125 3.0525V14.6925C13.6125 15.4425 13.215 16.1475 12.525 16.635C11.9175 17.055 11.13 17.2875 10.2975 17.2875C9.465 17.2875 8.67 17.055 8.0625 16.635C7.3725 16.1475 6.97501 15.4425 6.97501 14.6925C6.97501 13.9425 7.3725 13.245 8.0625 12.7575C8.67 12.3375 9.465 12.0975 10.2975 12.0975C10.8825 12.0975 11.46 12.2175 11.9625 12.4425L12.09 12.5025V3.0525C12.09 2.61 12.435 2.25 12.855 2.25C13.275 2.25 13.6125 2.61 13.6125 3.0525Z" fill="currentColor"/>
</svg>
