<svg viewBox="0 0 41 40" fill="none" xmlns="http://www.w3.org/2000/svg">
  <mask id="path-1-inside-1_3827_37659" fill="white">
    <path fill-rule="evenodd" clip-rule="evenodd" d="M30.1382 6.32437C29.3778 6.32437 28.7614 6.96149 28.7614 7.74729V9.17022H26.0077C25.2474 9.17022 24.6309 9.80734 24.6309 10.5931C24.6309 11.3789 25.2474 12.0161 26.0077 12.0161H28.7614V27.6682C28.7614 28.454 29.3778 29.0912 30.1382 29.0912H32.8918C33.6522 29.0912 34.2686 29.7283 34.2686 30.5141C34.2686 31.2999 33.6522 31.937 32.8918 31.937H6.73238V12.0161H17.7469C18.5073 12.0161 19.1237 11.3789 19.1237 10.5931C19.1237 9.80734 18.5073 9.17022 17.7469 9.17022H5.35557C4.59519 9.17022 3.97876 9.80734 3.97876 10.5931V33.3599C3.97876 34.1457 4.59519 34.7829 5.35557 34.7829H35.6454C36.4058 34.7829 37.0222 34.1457 37.0222 33.3599V10.5931C37.0222 8.23573 35.173 6.32437 32.8918 6.32437H30.1382ZM34.2686 10.5931C34.2686 9.80734 33.6522 9.17022 32.8918 9.17022H31.515V26.2453H34.2686V10.5931Z"/>
    <path fill-rule="evenodd" clip-rule="evenodd" d="M21.8773 3.47852C22.6377 3.47852 23.2541 4.11558 23.2541 4.90144V23.3995C23.2541 24.8091 22.4249 25.9111 21.4313 26.5957C20.428 27.287 19.1214 27.6682 17.7469 27.6682C16.3724 27.6682 15.0657 27.287 14.0625 26.5957C13.0689 25.9111 12.2396 24.8091 12.2396 23.3995C12.2396 21.9898 13.0689 20.8878 14.0625 20.2032C15.0657 19.512 16.3724 19.1307 17.7469 19.1307C18.7279 19.1307 19.6743 19.3249 20.5005 19.6874V4.90144C20.5005 4.11558 21.1169 3.47852 21.8773 3.47852ZM20.5005 23.3995C20.5005 23.2374 20.4051 22.9165 19.9038 22.5711C19.4121 22.2323 18.6536 21.9765 17.7469 21.9765C16.8402 21.9765 16.0816 22.2323 15.5899 22.5711C15.0886 22.9165 14.9933 23.2374 14.9933 23.3995C14.9933 23.5615 15.0886 23.8824 15.5899 24.2278C16.0816 24.5666 16.8402 24.8224 17.7469 24.8224C18.6536 24.8224 19.4121 24.5666 19.9038 24.2278C20.4051 23.8824 20.5005 23.5615 20.5005 23.3995Z"/>
  </mask>
  <path fill-rule="evenodd" clip-rule="evenodd" d="M30.1382 6.32437C29.3778 6.32437 28.7614 6.96149 28.7614 7.74729V9.17022H26.0077C25.2474 9.17022 24.6309 9.80734 24.6309 10.5931C24.6309 11.3789 25.2474 12.0161 26.0077 12.0161H28.7614V27.6682C28.7614 28.454 29.3778 29.0912 30.1382 29.0912H32.8918C33.6522 29.0912 34.2686 29.7283 34.2686 30.5141C34.2686 31.2999 33.6522 31.937 32.8918 31.937H6.73238V12.0161H17.7469C18.5073 12.0161 19.1237 11.3789 19.1237 10.5931C19.1237 9.80734 18.5073 9.17022 17.7469 9.17022H5.35557C4.59519 9.17022 3.97876 9.80734 3.97876 10.5931V33.3599C3.97876 34.1457 4.59519 34.7829 5.35557 34.7829H35.6454C36.4058 34.7829 37.0222 34.1457 37.0222 33.3599V10.5931C37.0222 8.23573 35.173 6.32437 32.8918 6.32437H30.1382ZM34.2686 10.5931C34.2686 9.80734 33.6522 9.17022 32.8918 9.17022H31.515V26.2453H34.2686V10.5931Z" fill="currentColor"/>
  <path fill-rule="evenodd" clip-rule="evenodd" d="M21.8773 3.47852C22.6377 3.47852 23.2541 4.11558 23.2541 4.90144V23.3995C23.2541 24.8091 22.4249 25.9111 21.4313 26.5957C20.428 27.287 19.1214 27.6682 17.7469 27.6682C16.3724 27.6682 15.0657 27.287 14.0625 26.5957C13.0689 25.9111 12.2396 24.8091 12.2396 23.3995C12.2396 21.9898 13.0689 20.8878 14.0625 20.2032C15.0657 19.512 16.3724 19.1307 17.7469 19.1307C18.7279 19.1307 19.6743 19.3249 20.5005 19.6874V4.90144C20.5005 4.11558 21.1169 3.47852 21.8773 3.47852ZM20.5005 23.3995C20.5005 23.2374 20.4051 22.9165 19.9038 22.5711C19.4121 22.2323 18.6536 21.9765 17.7469 21.9765C16.8402 21.9765 16.0816 22.2323 15.5899 22.5711C15.0886 22.9165 14.9933 23.2374 14.9933 23.3995C14.9933 23.5615 15.0886 23.8824 15.5899 24.2278C16.0816 24.5666 16.8402 24.8224 17.7469 24.8224C18.6536 24.8224 19.4121 24.5666 19.9038 24.2278C20.4051 23.8824 20.5005 23.5615 20.5005 23.3995Z" fill="currentColor"/>
  <path d="M28.7614 9.17022V9.67022H29.2614V9.17022H28.7614ZM28.7614 12.0161H29.2614V11.5161H28.7614V12.0161ZM6.73238 31.937H6.23238V32.437H6.73238V31.937ZM6.73238 12.0161V11.5161H6.23238V12.0161H6.73238ZM31.515 9.17022V8.67022H31.015V9.17022H31.515ZM31.515 26.2453H31.015V26.7453H31.515V26.2453ZM34.2686 26.2453V26.7453H34.7686V26.2453H34.2686ZM21.4313 26.5957L21.7149 27.0075V27.0075L21.4313 26.5957ZM14.0625 26.5957L14.3462 26.184L14.0625 26.5957ZM14.0625 20.2032L14.3462 20.6149L14.0625 20.2032ZM20.5005 19.6874L20.2996 20.1453C20.4542 20.2131 20.6326 20.1983 20.774 20.106C20.9153 20.0137 21.0005 19.8562 21.0005 19.6874H20.5005ZM19.9038 22.5711L19.6201 22.9828L19.9038 22.5711ZM15.5899 22.5711L15.8736 22.9828L15.5899 22.5711ZM15.5899 24.2278L15.8736 23.8161L15.5899 24.2278ZM19.9038 24.2278L19.6201 23.8161L19.9038 24.2278ZM29.2614 7.74729C29.2614 7.22196 29.6693 6.82437 30.1382 6.82437V5.82437C29.0862 5.82437 28.2614 6.70101 28.2614 7.74729H29.2614ZM29.2614 9.17022V7.74729H28.2614V9.17022H29.2614ZM26.0077 9.67022H28.7614V8.67022H26.0077V9.67022ZM25.1309 10.5931C25.1309 10.0678 25.5389 9.67022 26.0077 9.67022V8.67022C24.9558 8.67022 24.1309 9.54686 24.1309 10.5931H25.1309ZM26.0077 11.5161C25.5389 11.5161 25.1309 11.1185 25.1309 10.5931H24.1309C24.1309 11.6394 24.9558 12.5161 26.0077 12.5161V11.5161ZM28.7614 11.5161H26.0077V12.5161H28.7614V11.5161ZM29.2614 27.6682V12.0161H28.2614V27.6682H29.2614ZM30.1382 28.5912C29.6693 28.5912 29.2614 28.1936 29.2614 27.6682H28.2614C28.2614 28.7145 29.0862 29.5912 30.1382 29.5912V28.5912ZM32.8918 28.5912H30.1382V29.5912H32.8918V28.5912ZM34.7686 30.5141C34.7686 29.4678 33.9437 28.5912 32.8918 28.5912V29.5912C33.3606 29.5912 33.7686 29.9888 33.7686 30.5141H34.7686ZM32.8918 32.437C33.9437 32.437 34.7686 31.5604 34.7686 30.5141H33.7686C33.7686 31.0394 33.3606 31.437 32.8918 31.437V32.437ZM6.73238 32.437H32.8918V31.437H6.73238V32.437ZM6.23238 12.0161V31.937H7.23238V12.0161H6.23238ZM17.7469 11.5161H6.73238V12.5161H17.7469V11.5161ZM18.6237 10.5931C18.6237 11.1185 18.2157 11.5161 17.7469 11.5161V12.5161C18.7988 12.5161 19.6237 11.6394 19.6237 10.5931H18.6237ZM17.7469 9.67022C18.2157 9.67022 18.6237 10.0678 18.6237 10.5931H19.6237C19.6237 9.54686 18.7988 8.67022 17.7469 8.67022V9.67022ZM5.35557 9.67022H17.7469V8.67022H5.35557V9.67022ZM4.47876 10.5931C4.47876 10.0678 4.88674 9.67022 5.35557 9.67022V8.67022C4.30364 8.67022 3.47876 9.54686 3.47876 10.5931H4.47876ZM4.47876 33.3599V10.5931H3.47876V33.3599H4.47876ZM5.35557 34.2829C4.88674 34.2829 4.47876 33.8853 4.47876 33.3599H3.47876C3.47876 34.4062 4.30364 35.2829 5.35557 35.2829V34.2829ZM35.6454 34.2829H5.35557V35.2829H35.6454V34.2829ZM36.5222 33.3599C36.5222 33.8853 36.1143 34.2829 35.6454 34.2829V35.2829C36.6974 35.2829 37.5222 34.4062 37.5222 33.3599H36.5222ZM32.8918 6.82437C34.8814 6.82437 36.5222 8.4962 36.5222 10.5931H37.5222C37.5222 7.97525 35.4645 5.82437 32.8918 5.82437V6.82437ZM30.1382 6.82437H32.8918V5.82437H30.1382V6.82437ZM32.8918 9.67022C33.3606 9.67022 33.7686 10.0678 33.7686 10.5931H34.7686C34.7686 9.54686 33.9437 8.67022 32.8918 8.67022V9.67022ZM31.515 9.67022H32.8918V8.67022H31.515V9.67022ZM32.015 26.2453V9.17022H31.015V26.2453H32.015ZM34.2686 25.7453H31.515V26.7453H34.2686V25.7453ZM34.7686 26.2453V10.5931H33.7686V26.2453H34.7686ZM36.5222 10.5931V33.3599H37.5222V10.5931H36.5222ZM23.7541 4.90144C23.7541 3.85509 22.9292 2.97852 21.8773 2.97852V3.97852C22.3462 3.97852 22.7541 4.37607 22.7541 4.90144H23.7541ZM23.7541 23.3995V4.90144H22.7541V23.3995H23.7541ZM21.7149 27.0075C22.7984 26.261 23.7541 25.0222 23.7541 23.3995H22.7541C22.7541 24.5961 22.0514 25.5613 21.1476 26.184L21.7149 27.0075ZM17.7469 28.1682C19.2096 28.1682 20.6181 27.7632 21.7149 27.0075L21.1476 26.184C20.2379 26.8107 19.0331 27.1682 17.7469 27.1682V28.1682ZM13.7788 27.0075C14.8757 27.7632 16.2842 28.1682 17.7469 28.1682V27.1682C16.4606 27.1682 15.2558 26.8107 14.3462 26.184L13.7788 27.0075ZM11.7396 23.3995C11.7396 25.0221 12.6954 26.261 13.7788 27.0075L14.3462 26.184C13.4424 25.5613 12.7396 24.5961 12.7396 23.3995H11.7396ZM13.7788 19.7915C12.6954 20.5379 11.7396 21.7768 11.7396 23.3995H12.7396C12.7396 22.2029 13.4424 21.2376 14.3462 20.6149L13.7788 19.7915ZM17.7469 18.6307C16.2842 18.6307 14.8757 19.0358 13.7788 19.7915L14.3462 20.6149C15.2558 19.9882 16.4606 19.6307 17.7469 19.6307V18.6307ZM20.7014 19.2295C19.8078 18.8375 18.7925 18.6307 17.7469 18.6307V19.6307C18.6632 19.6307 19.5407 19.8123 20.2996 20.1453L20.7014 19.2295ZM20.0005 4.90144V19.6874H21.0005V4.90144H20.0005ZM21.8773 2.97852C20.8254 2.97852 20.0005 3.85509 20.0005 4.90144H21.0005C21.0005 4.37607 21.4085 3.97852 21.8773 3.97852V2.97852ZM19.6201 22.9828C20.0241 23.2612 20.0005 23.4433 20.0005 23.3995H21.0005C21.0005 23.0315 20.7861 22.5718 20.1875 22.1594L19.6201 22.9828ZM17.7469 22.4765C18.5651 22.4765 19.2219 22.7084 19.6201 22.9828L20.1875 22.1594C19.6024 21.7562 18.742 21.4765 17.7469 21.4765V22.4765ZM15.8736 22.9828C16.2719 22.7084 16.9287 22.4765 17.7469 22.4765V21.4765C16.7517 21.4765 15.8913 21.7562 15.3063 22.1594L15.8736 22.9828ZM15.4933 23.3995C15.4933 23.4433 15.4696 23.2612 15.8736 22.9828L15.3063 22.1594C14.7076 22.5718 14.4933 23.0315 14.4933 23.3995H15.4933ZM15.8736 23.8161C15.4696 23.5378 15.4933 23.3556 15.4933 23.3995H14.4933C14.4933 23.7674 14.7076 24.2271 15.3063 24.6396L15.8736 23.8161ZM17.7469 24.3224C16.9287 24.3224 16.2719 24.0905 15.8736 23.8161L15.3063 24.6396C15.8913 25.0427 16.7517 25.3224 17.7469 25.3224V24.3224ZM19.6201 23.8161C19.2219 24.0905 18.5651 24.3224 17.7469 24.3224V25.3224C18.742 25.3224 19.6024 25.0427 20.1875 24.6396L19.6201 23.8161ZM20.0005 23.3995C20.0005 23.3556 20.0241 23.5378 19.6201 23.8161L20.1875 24.6396C20.7861 24.2271 21.0005 23.7674 21.0005 23.3995H20.0005Z" fill="white" mask="url(#path-1-inside-1_3827_37659)"/>
</svg>
