<svg viewBox="0 0 138 32" fill="none" xmlns="http://www.w3.org/2000/svg">
<g clip-path="url(#clip0_3538_7976)">
<path d="M125.758 7.87707C124.692 7.87707 123.677 7.95984 122.729 8.11402C123.353 8.50804 123.886 8.97578 124.303 9.49825L124.327 9.52804L124.348 9.55946C124.381 9.60745 124.415 9.65613 124.451 9.7076C124.559 9.86317 124.681 10.0381 124.803 10.2385C126.902 10.7715 128.057 12.4638 128.057 15.1137V18.5283C128.057 19.0307 127.673 19.3571 127.226 19.3571C127.137 19.3571 127.046 19.3443 126.954 19.3172C125.703 18.9477 124.203 18.6863 122.592 18.6863C117.604 18.6863 113.787 21.6089 113.787 25.4594C113.787 29.3099 116.91 32.0006 121.074 32.0006C123.24 32.0006 125.424 31.4595 126.9 30.2208C127.138 30.0209 127.429 29.8997 127.709 29.8997C127.988 29.8997 128.233 30.0107 128.423 30.2697C128.431 30.2872 128.44 30.3046 128.449 30.322C128.721 30.8536 129.159 31.2613 129.706 31.5367C130.257 31.8137 130.918 31.9566 131.629 31.9566C132.341 31.9566 133.073 31.8194 133.813 31.5367C134.044 31.4484 134.274 31.3461 134.502 31.2294C136.302 30.3073 137.457 28.7437 137.584 27.2831C137.593 27.1921 137.599 16.9233 137.599 16.9233C137.599 11.7739 132.611 7.87695 125.758 7.87695V7.87707ZM128.057 26.4575C128.057 26.577 128.012 26.6941 127.932 26.7958C127.421 27.4424 126.728 27.7926 125.888 27.7926C124.457 27.7926 123.503 26.5576 123.503 24.7736C123.503 22.7496 124.717 21.5489 126.409 21.5489C126.898 21.5489 127.362 21.6458 127.729 21.8396C127.941 21.9518 128.057 22.1466 128.057 22.3468V26.4574L128.057 26.4575Z" fill="currentColor"/>
<path d="M124.577 12.9071C124.45 11.4233 123.917 10.7742 123.488 10.1482C122.388 8.76869 120.283 7.8645 118.15 7.8645C116.556 7.8645 114.842 8.33213 113.677 9.40627C113.388 9.67324 113.114 9.81919 112.908 9.81919C112.847 9.81919 112.792 9.8062 112.744 9.77954C112.605 9.69839 112.558 9.61725 112.445 9.4531C112.112 8.97225 111.813 8.58925 111.334 8.31706C110.756 7.98842 110.04 7.81836 109.264 7.81836C108.35 7.81836 107.35 8.05449 106.392 8.54577C105.99 8.75154 105.621 8.98918 105.288 9.25047C104.128 10.1605 103.409 11.3575 103.31 12.4924C103.313 12.4967 103.316 12.5008 103.319 12.5051C103.81 13.2049 104.23 13.9581 104.568 14.7435C104.912 15.5401 105.175 16.3797 105.351 17.2389C105.53 18.1145 105.621 19.0225 105.621 19.9378C105.621 20.8532 105.53 21.7612 105.351 22.6368C105.175 23.496 104.912 24.3356 104.568 25.1322C104.23 25.9176 103.81 26.6708 103.319 27.3706C103.314 27.3773 103.309 27.384 103.305 27.3907C103.308 27.9416 103.314 29.1399 103.313 29.2211C103.332 29.6006 103.425 29.9679 103.599 30.3093C104.009 31.1097 104.796 31.6293 105.763 31.8389C106.084 31.9086 106.426 31.9441 106.78 31.9441C107.134 31.9441 107.493 31.9094 107.862 31.8389C108.455 31.7256 109.061 31.5197 109.653 31.2167C111.511 30.2645 112.682 28.628 112.744 27.1274C112.744 27.1274 112.72 16.5462 112.72 16.4606C112.704 13.3129 115.607 10.6036 117.979 10.5911C118.003 10.591 118.028 10.5909 118.051 10.5909C118.477 10.5909 118.729 10.6124 119.098 10.6697C118.745 10.7818 118.586 10.9077 118.237 11.0863C115.791 12.3393 114.536 14.7771 115.434 16.5312C115.979 17.5977 117.195 18.166 118.614 18.166C119.529 18.166 120.528 17.9298 121.487 17.4386C123.325 16.4964 124.491 14.8847 124.575 13.3971C124.582 13.1876 124.582 13.0832 124.577 12.907V12.9071Z" fill="currentColor"/>
<path d="M71.4979 31.9868C77.7926 31.9868 81.1661 28.8322 81.1661 24.1931C81.1661 18.8117 76.3115 17.0488 73.1435 15.4252C71.5877 14.6604 70.4575 14.1507 69.7057 13.5822C69.0923 13.0977 68.8212 12.7311 68.856 12.2583C68.9409 11.0996 70.3526 10.58 72.4169 10.5799H72.4171C72.7527 10.5799 73.1052 10.5936 73.4723 10.6206C73.8917 10.6513 74.3156 10.6918 74.7789 10.7729C75.4646 10.9081 75.8055 11.0806 76.1693 11.3572C76.165 11.3594 76.1606 11.3615 76.1564 11.3637C74.6414 12.1398 73.8639 13.6499 74.4198 14.7365C74.7577 15.3971 75.5109 15.749 76.3898 15.749C76.9564 15.749 77.5755 15.6027 78.1694 15.2984C79.2416 14.7491 79.939 13.896 80.0612 13.0218C80.0612 13.0218 80.0967 12.6287 80.0967 12.456C80.0555 9.85808 76.4351 7.86328 71.7038 7.86328C65.9029 7.86328 62.2002 10.7859 62.2002 15.5179C62.2002 21.1312 67.7543 23.0796 70.1817 24.425C71.899 25.3811 73.0994 26.078 73.8497 26.7143C74.0728 26.9967 74.1694 27.2716 74.1479 27.5654C74.0629 28.724 72.6512 29.2437 70.5869 29.2437C70.2513 29.2437 69.8987 29.23 69.5315 29.203C68.8349 29.1519 68.1668 29.0961 67.5618 28.9377C67.076 28.8105 66.6706 28.683 66.1493 28.3816C66.1524 28.3769 66.1557 28.3722 66.1589 28.3676C67.665 27.5894 68.4364 26.0852 67.8821 25.0019C67.5442 24.3412 66.791 23.9893 65.9122 23.9893C65.3455 23.9893 64.7265 24.1356 64.1326 24.4399C62.7981 25.1236 62.0361 26.3767 62.2534 27.4082C62.7413 29.9893 66.523 31.9868 71.498 31.9868H71.4979Z" fill="currentColor"/>
<path d="M91.8095 7.87512C85.3151 7.87512 80.2634 12.028 79.2656 17.8143C79.3584 17.8951 79.4491 17.9765 79.5371 18.0586C79.9347 18.4295 80.2917 18.8231 80.5983 19.2285C80.934 19.6723 81.2208 20.1457 81.4509 20.6351C81.6968 21.1584 81.8853 21.7157 82.011 22.2918C82.1423 22.8938 82.2089 23.5335 82.2089 24.1932C82.2089 25.3371 82.0238 26.409 81.6584 27.3857C83.9417 30.2269 87.5679 31.9985 91.8096 31.9985C99.1189 31.9985 104.579 26.8026 104.579 19.9368C104.579 13.0709 99.119 7.875 91.8096 7.875L91.8095 7.87512ZM91.7839 29.2745C89.7323 29.2745 88.6738 25.8591 88.6738 19.9253C88.6738 13.9914 89.7786 10.5877 91.8302 10.5877C93.8818 10.5877 94.9904 13.9914 94.9904 19.9253C94.9904 25.8591 93.8355 29.2745 91.7839 29.2745Z" fill="currentColor"/>
<path d="M30.1584 30.3214C30.704 31.3879 31.9198 31.9562 33.3386 31.9562C34.2535 31.9562 35.2527 31.72 36.2115 31.2288C38.6571 29.9758 39.8748 27.5567 39.015 25.7839C38.9555 25.6615 27.3371 1.7582 27.3371 1.7582C27.3371 1.7582 27.2889 1.649 27.2816 1.63474C26.736 0.568253 25.5203 0 24.1014 0C23.1865 0 22.1873 0.236135 21.2285 0.727415C18.9665 1.88641 18.0007 3.98392 18.259 5.76646L20.0458 18.0088L16.1132 9.91232L16.0777 9.83801C16.0082 9.68731 15.9871 9.61301 15.9116 9.4652C15.366 8.39872 14.1503 7.83046 12.7314 7.83046C11.8165 7.83046 10.8173 8.0666 9.85854 8.55788C7.85549 9.58402 6.65113 11.4049 6.77369 12.9941H6.77276L6.7445 24.2095C6.49429 24.1695 6.23366 24.1492 5.96584 24.1492C5.05096 24.1492 4.05175 24.3854 3.09297 24.8767C0.647301 26.1297 -0.607909 28.5674 0.28948 30.3216C0.835072 31.388 2.05078 31.9563 3.46967 31.9563C4.38455 31.9563 5.38376 31.7202 6.34254 31.2289C8.29196 30.2301 9.48497 28.4785 9.43435 26.9205L9.45439 18.9796L14.537 29.5914C14.7223 29.9623 14.8678 30.1926 14.9338 30.3216C15.4794 31.388 16.6951 31.9563 18.114 31.9563C19.0289 31.9563 20.0281 31.7202 20.9869 31.2289C23.2242 30.0826 24.2673 27.9684 23.9734 26.2462L23.8618 25.4645L22.1567 13.7986L29.9433 29.9507C30.0244 30.1014 30.0981 30.2039 30.1582 30.3216L30.1584 30.3214Z" fill="currentColor"/>
<path d="M60.9098 9.45299C60.6627 8.96994 60.2781 8.58925 59.7995 8.31718C59.2214 7.98842 58.5058 7.81836 57.7295 7.81836C56.8146 7.81836 55.8154 8.05461 54.8567 8.54577C54.4679 8.74505 54.1091 8.97422 53.7843 9.22589C52.4769 10.2388 51.72 11.6153 51.7654 12.8655C51.7669 13.0139 51.7626 23.8523 51.7626 23.8523C51.7626 23.9571 51.745 24.0621 51.7093 24.16C51.0598 25.9355 50.0452 27.1649 49.0769 27.1649C48.2115 27.1649 47.4614 26.2373 47.4614 24.985C47.4614 24.985 47.4461 10.8231 47.4491 10.485C47.4243 10.1257 47.3321 9.7778 47.1661 9.45333C46.9202 8.97272 46.5382 8.5933 46.063 8.32146C45.4836 7.99016 44.7652 7.81859 43.9858 7.81859C43.0709 7.81859 42.0717 8.05473 41.1129 8.54601C40.7208 8.7469 40.3593 8.97828 40.0324 9.23238C38.8934 10.1177 38.1741 11.2791 38.0418 12.3912C38.0408 13.3736 38.0384 17.9819 38.0366 21.226C38.0366 21.226 40.0844 25.4312 40.0966 25.455C40.2363 25.728 40.3374 26.0201 40.3973 26.3233C40.4548 26.6151 40.4746 26.9195 40.4561 27.2282C40.4208 27.8179 40.2497 28.4143 39.9476 29.0009C39.8696 29.1523 39.7837 29.301 39.6904 29.4471C40.97 31.0363 42.8784 31.9881 45.0095 31.9881C47.1407 31.9881 48.934 31.1283 50.3697 29.7075C50.5555 29.5236 50.7905 29.4195 51.0275 29.4195C51.3849 29.4195 51.7469 29.656 51.9518 30.2121C51.9707 30.2466 51.9908 30.2806 52.0118 30.3141C52.3738 30.9848 53.0058 31.4521 53.7864 31.6974C54.2444 31.8606 54.7589 31.9442 55.3029 31.9442C56.0002 31.9442 56.7463 31.8071 57.4862 31.5243C57.4862 31.5243 57.8749 31.3538 58.1028 31.2369C60.0512 30.2387 61.2472 28.4685 61.198 26.9111C61.198 26.9111 61.1989 26.9111 61.1994 26.9111C61.1996 26.9111 61.2 26.9111 61.2002 26.9111V10.8616C61.1957 10.6606 61.1615 9.94577 60.9095 9.45299H60.9098Z" fill="currentColor"/>
</g>
<defs>
<clipPath id="clip0_3538_7976">
<rect width="137.6" height="32" fill="currentColor"/>
</clipPath>
</defs>
</svg>
