<svg width="36" height="30" viewBox="0 0 36 30" fill="none" xmlns="http://www.w3.org/2000/svg">
    <path d="M27.6332 28.4652C28.1331 29.4664 29.2471 29.9999 30.5471 29.9999C31.3853 29.9999 32.3009 29.7782 33.1794 29.317C35.4202 28.1407 36.5359 25.8697 35.7481 24.2054C35.6936 24.0905 25.0482 1.65057 25.0482 1.65057C25.0482 1.65057 25.004 1.54805 24.9973 1.53467C24.4974 0.533466 23.3835 0 22.0835 0C21.2452 0 20.3297 0.221679 19.4512 0.682884C17.3785 1.77093 16.4937 3.74003 16.7304 5.41345L18.3675 16.9064L14.7642 9.30551L14.7317 9.23575C14.668 9.09428 14.6487 9.02452 14.5795 8.88577C14.0796 7.88456 12.9657 7.3511 11.6657 7.3511C10.8274 7.3511 9.91187 7.57278 9.03338 8.03398C7.19807 8.99731 6.09458 10.7068 6.20687 12.1987H6.20602L6.18012 22.7275C5.95087 22.6899 5.71206 22.6709 5.46667 22.6709C4.62841 22.6709 3.71288 22.8926 2.83439 23.3538C0.593539 24.5301 -0.556552 26.8186 0.265685 28.4653C0.765586 29.4665 1.87949 30 3.17955 30C4.01781 30 4.93334 29.7783 5.81183 29.3171C7.59799 28.3795 8.69109 26.7351 8.64471 25.2725L8.66307 17.8177L13.32 27.7798C13.4898 28.1281 13.6231 28.3443 13.6836 28.4653C14.1835 29.4665 15.2974 30 16.5975 30C17.4358 30 18.3513 29.7783 19.2298 29.3171C21.2797 28.241 22.2354 26.2563 21.9662 24.6394L21.864 23.9056L20.3016 12.9539L27.4361 28.1172C27.5104 28.2587 27.5779 28.3549 27.633 28.4653L27.6332 28.4652Z"/>
</svg>
