<svg viewBox="0 0 28 28" fill="none" xmlns="http://www.w3.org/2000/svg">
  <path d="M17.4998 19.8333H23.3332L21.6941 18.1943C21.2496 17.7497 20.9998 17.1468 20.9998 16.5182V12.8333C20.9998 9.78549 19.052 7.1926 16.3332 6.23165V5.83333C16.3332 4.54467 15.2885 3.5 13.9998 3.5C12.7112 3.5 11.6665 4.54467 11.6665 5.83333V6.23165C8.94772 7.1926 6.99984 9.78549 6.99984 12.8333V16.5182C6.99984 17.1468 6.75011 17.7497 6.30559 18.1943L4.6665 19.8333H10.4998M17.4998 19.8333V21C17.4998 22.933 15.9328 24.5 13.9998 24.5C12.0668 24.5 10.4998 22.933 10.4998 21V19.8333M17.4998 19.8333H10.4998" stroke="currentColor" stroke-width="1.5" stroke-linecap="round" stroke-linejoin="round"/>
</svg>
