<svg viewBox="0 0 13 14" fill="none" xmlns="http://www.w3.org/2000/svg">
<path d="M5.25 8.25L2.27254 8.25C1.34332 8.25 0.738947 7.27211 1.15451 6.44098L3.34201 2.06598C3.55375 1.6425 3.98658 1.375 4.46004 1.375L6.97112 1.375C7.07332 1.375 7.17514 1.38753 7.27429 1.41232L9.625 2M5.25 8.25L5.25 11.375C5.25 12.0654 5.80964 12.625 6.5 12.625L6.55967 12.625C6.87189 12.625 7.125 12.3719 7.125 12.0597C7.125 11.6132 7.25715 11.1768 7.50479 10.8053L9.625 7.625L9.625 2M5.25 8.25L6.5 8.25M9.625 2L10.875 2C11.5654 2 12.125 2.55964 12.125 3.25L12.125 7C12.125 7.69036 11.5654 8.25 10.875 8.25L9.3125 8.25" stroke="currentColor" stroke-linecap="round" stroke-linejoin="round"/>
</svg>
