<svg viewBox="0 0 13 14" fill="none" xmlns="http://www.w3.org/2000/svg">
<path d="M7.75 5.75H10.7275C11.6567 5.75 12.2611 6.72789 11.8455 7.55902L9.65799 11.934C9.44625 12.3575 9.01342 12.625 8.53996 12.625H6.02888C5.92668 12.625 5.82486 12.6125 5.72571 12.5877L3.375 12M7.75 5.75V2.625C7.75 1.93464 7.19036 1.375 6.5 1.375H6.44033C6.12811 1.375 5.875 1.62811 5.875 1.94033C5.875 2.38677 5.74285 2.82322 5.49521 3.19468L3.375 6.375V12M7.75 5.75H6.5M3.375 12H2.125C1.43464 12 0.875 11.4404 0.875 10.75V7C0.875 6.30964 1.43464 5.75 2.125 5.75H3.6875" stroke="currentColor" stroke-linecap="round" stroke-linejoin="round"/>
</svg>
