<svg width="108" height="32" viewBox="0 0 108 37" fill="none" xmlns="http://www.w3.org/2000/svg">
<path fill-rule="evenodd" clip-rule="evenodd" d="M4.53459 35H0V10.4124H4.53459V12.3977C5.36089 11.5818 6.25433 10.9693 7.21498 10.5613C8.16965 10.1534 9.19773 9.94882 10.2871 9.94882C12.6677 9.94882 14.6872 10.8373 16.3456 12.6132C18.0102 14.389 18.8362 16.6666 18.8362 19.4466C18.8362 22.1267 17.9795 24.3692 16.2599 26.1723C14.5464 27.9759 12.5085 28.8778 10.1586 28.8778C9.10603 28.8778 8.13288 28.6932 7.22727 28.3234C6.32764 27.9541 5.42812 27.3501 4.53459 26.5118V35ZM101.55 8.59223C95.1425 8.59223 91.9052 13.6147 91.9052 19.3332C91.9052 25.0899 94.4815 29.1082 101.121 29.1082C104.793 29.1082 107.37 27.4855 108 26.945L106.513 23.8152C105.577 24.4719 103.894 25.5154 101.593 25.5154C98.2696 25.5154 96.9417 23.4672 96.7888 20.9559C101.397 20.9172 107.92 19.9131 107.92 13.9627C107.92 10.5242 105.381 8.59223 101.55 8.59223ZM87.7132 9.3148H95.3077L95.2833 9.33477C94.8549 9.64103 94.451 9.9818 94.0839 10.3522C93.7167 10.7196 93.3738 11.1149 93.0679 11.5331C92.8354 11.8515 92.6212 12.1819 92.4193 12.5233H87.7132V22.5682C87.7132 24.8985 88.6373 25.5861 90.2224 25.5861C90.8159 25.5861 91.385 25.4493 91.8808 25.2604C91.9113 25.3282 91.9481 25.3954 91.9785 25.462C92.0765 25.6478 92.1744 25.83 92.2845 26.0091C92.4315 26.2585 92.5967 26.5012 92.768 26.7348C93.0068 27.052 93.2638 27.3534 93.5453 27.6343C93.6249 27.7136 93.7044 27.7916 93.7901 27.8673C92.6151 28.59 90.8098 29.0615 89.1024 29.0615C83.0746 29.0615 83.1174 25.3948 83.1174 22.7214V12.5233H80.8347C80.8224 12.51 81.5874 9.73485 81.5874 9.73485C83.6375 9.63559 84.1272 8.14119 84.4392 7.34467C84.6411 6.83383 84.8125 5.54341 84.8676 5.2662H87.7132L87.7132 9.3148ZM44.796 28.4148H40.2491V26.5118C39.3556 27.3501 38.462 27.9542 37.5625 28.3234C36.6629 28.6932 35.6898 28.8778 34.6434 28.8778C32.2935 28.8778 30.2556 27.9759 28.536 26.1723C26.8224 24.3692 25.9596 22.1267 25.9596 19.4466C25.9596 16.6666 26.7918 14.389 28.4565 12.6132C30.1149 10.8373 32.1344 9.94882 34.5088 9.94882C35.6042 9.94882 36.6261 10.1534 37.587 10.5613C38.5478 10.9693 39.4352 11.5818 40.2491 12.3977V10.4124H44.796L44.796 28.4148ZM72.1447 9.94882C73.8645 9.94882 75.4738 10.3737 76.9854 11.2229C78.4971 12.0727 79.6781 13.2251 80.5226 14.6814C81.3732 16.1376 81.7955 17.7095 81.7955 19.397C81.7955 21.0953 81.3732 22.6841 80.5165 24.1622C79.6659 25.6402 78.503 26.7957 77.0282 27.6285C75.5596 28.4614 73.9317 28.8778 72.1631 28.8778C69.55 28.8778 67.3226 27.9596 65.4806 26.1226C63.6324 24.2863 62.7083 22.0553 62.7083 19.4302C62.7083 16.617 63.7547 14.2734 65.8354 12.3977C67.6651 10.7653 69.7704 9.94882 72.1447 9.94882ZM24.6806 28.4148H20.0908V10.4125H24.6806V28.4148ZM50.7504 28.4148H46.1975V10.4124H50.7504V12.2488C51.7846 11.3887 52.7271 10.7901 53.5654 10.4536C54.41 10.1171 55.2728 9.94882 56.1542 9.94882C57.9594 9.94882 59.4954 10.5722 60.756 11.8191C61.5884 12.6543 62.0963 13.8049 62.2738 15.2715C62.0473 15.8362 61.8698 16.4209 61.7474 17.0159C61.5822 17.8093 61.5028 18.6198 61.5028 19.4296C61.5028 20.2116 61.5761 20.9942 61.7291 21.7617C61.8698 22.4408 62.0719 23.1072 62.3411 23.747V28.4148H57.8248V20.5221C57.8248 18.371 57.7268 16.9426 57.5311 16.2369C57.3352 15.5305 56.9986 14.9931 56.5151 14.6232C56.0255 14.254 55.4258 14.0688 54.7159 14.0688C53.7857 14.0688 52.9963 14.3751 52.3293 14.9876C51.6683 15.5995 51.2094 16.4463 50.9524 17.5273C50.8176 18.0896 50.7504 19.3086 50.7504 21.1837V28.4148ZM9.33868 14.1187C7.90043 14.1187 6.70103 14.6042 5.75855 15.575C4.80997 16.5458 4.33259 17.8145 4.33259 19.3809C4.33259 20.98 4.80997 22.2734 5.75855 23.2606C6.70103 24.2478 7.90043 24.7417 9.33868 24.7417C10.7277 24.7417 11.9027 24.2399 12.8575 23.2358C13.812 22.2323 14.2893 20.9527 14.2893 19.3972C14.2893 17.8526 13.8181 16.587 12.8818 15.5998C11.9456 14.6126 10.7644 14.1187 9.33868 14.1187ZM35.4451 14.1187C34.0314 14.1187 32.8504 14.6126 31.914 15.5998C30.9777 16.587 30.5126 17.8526 30.5126 19.3972C30.5126 20.9527 30.9899 22.2323 31.9447 23.2358C32.8933 24.2399 34.0682 24.7417 35.4635 24.7417C36.9015 24.7417 38.0949 24.2478 39.0434 23.2606C39.992 22.2734 40.4632 20.98 40.4632 19.3809C40.4632 17.8145 39.992 16.5458 39.0434 15.575C38.0949 14.6042 36.8954 14.1187 35.4451 14.1187ZM72.2122 14.2017C70.7923 14.2017 69.6174 14.6901 68.675 15.6658C67.7325 16.6421 67.2613 17.8913 67.2613 19.4136C67.2613 20.98 67.7264 22.2486 68.6566 23.2195C69.5868 24.1903 70.7679 24.6751 72.1938 24.6751C73.6196 24.6751 74.8131 24.1842 75.7553 23.2025C76.7039 22.2208 77.1813 20.9582 77.1813 19.4136C77.1813 17.8696 76.7162 16.6148 75.7798 15.6495C74.8496 14.6841 73.6624 14.2017 72.2122 14.2017ZM103.624 14.0398C103.624 17.0147 99.1387 18.8722 96.6296 17.7101C95.9686 14.6057 98.1534 11.876 101.281 11.876C102.682 11.876 103.624 12.6102 103.624 14.0398ZM22.3856 3C23.1874 3 23.879 3.2869 24.4542 3.86008C25.0233 4.43386 25.317 5.1287 25.317 5.9452C25.317 6.7502 25.0294 7.43717 24.4603 8.00491C23.8911 8.57325 23.2118 8.85712 22.4224 8.85712C21.6085 8.85712 20.9108 8.56781 20.3357 7.98857C19.7603 7.40934 19.4727 6.70602 19.4727 5.87923C19.4727 5.08452 19.7603 4.40663 20.3296 3.84373C20.8987 3.28145 21.5841 3 22.3856 3Z" fill="#F61A30"/>
</svg>
