<svg id="Layer_1" xmlns="http://www.w3.org/2000/svg" viewBox="0 0 32 32">
  <path class="cls-1" fill="currentColor" d="M16,29c-1.55,0-2.84-1.01-3.21-2.52-.1-.41-.38-.73-.76-.89-.39-.16-.82-.13-1.17.09-1.33.81-2.95.61-4.05-.48-1.1-1.1-1.29-2.72-.48-4.05.22-.36.25-.79.09-1.17-.16-.39-.49-.67-.89-.77-1.51-.37-2.52-1.65-2.52-3.21,0-1.55,1.01-2.84,2.52-3.21.41-.1.73-.38.89-.77.16-.39.13-.81-.09-1.17-.81-1.33-.61-2.95.48-4.05,1.1-1.1,2.73-1.29,4.05-.48.36.22.79.25,1.17.09.39-.16.67-.49.77-.89h0c.37-1.51,1.66-2.52,3.21-2.52h0c1.55,0,2.84,1.01,3.2,2.52.1.41.38.73.76.89.39.16.82.13,1.17-.09,1.33-.81,2.95-.61,4.05.48,1.1,1.1,1.29,2.72.48,4.05-.22.36-.25.79-.09,1.17.16.39.49.67.89.76,1.51.37,2.52,1.65,2.52,3.21,0,1.55-1.01,2.84-2.52,3.21-.41.1-.73.38-.89.77-.16.39-.13.81.09,1.17.81,1.32.61,2.95-.49,4.05-1.1,1.1-2.72,1.29-4.05.48-.36-.22-.79-.25-1.17-.09-.39.16-.67.49-.76.89-.37,1.51-1.65,2.52-3.2,2.52h0ZM11.53,23.48c.43,0,.86.08,1.27.25.98.41,1.69,1.23,1.94,2.27.18.73.77.99,1.26.99s1.08-.26,1.26-.99c.25-1.03.96-1.86,1.94-2.27.99-.41,2.07-.32,2.98.23.64.39,1.24.16,1.59-.19.35-.35.58-.95.19-1.59-.55-.91-.64-2-.23-2.98.41-.98,1.23-1.69,2.27-1.94.73-.18.99-.77.99-1.26,0-.49-.26-1.08-.99-1.26-1.03-.25-1.86-.96-2.27-1.94-.41-.98-.32-2.07.23-2.98.39-.64.16-1.25-.19-1.59-.35-.35-.95-.58-1.59-.19-.91.55-2,.64-2.98.23-.98-.41-1.69-1.23-1.94-2.27-.18-.73-.77-.99-1.26-.99h0c-.49,0-1.08.26-1.26.99-.25,1.03-.96,1.86-1.94,2.27-.98.41-2.07.32-2.98-.23-.64-.39-1.24-.16-1.59.19s-.58.95-.19,1.59c.55.91.64,1.99.23,2.98-.41.98-1.24,1.69-2.27,1.94-.73.18-.99.77-.99,1.26,0,.49.26,1.08.99,1.26,1.03.25,1.86.96,2.27,1.94.41.98.32,2.07-.23,2.98-.39.64-.16,1.24.19,1.59.35.35.95.58,1.59.19.53-.32,1.12-.49,1.71-.49Z"/>
  <path class="cls-1" fill="currentColor" d="M16,21c-2.76,0-5-2.24-5-5s2.24-5,5-5,5,2.24,5,5-2.24,5-5,5ZM16,13c-1.65,0-3,1.35-3,3s1.35,3,3,3,3-1.35,3-3-1.35-3-3-3Z"/>
</svg>
