<svg viewBox="0 0 11 11" fill="none" xmlns="http://www.w3.org/2000/svg">
<path d="M3.6172 6.04032C3.72556 5.82401 3.78655 5.57984 3.78655 5.32143C3.78655 5.06302 3.72556 4.81885 3.6172 4.60254M3.6172 6.04032C3.35334 6.56701 2.8086 6.92857 2.17941 6.92857C1.29181 6.92857 0.572266 6.20903 0.572266 5.32143C0.572266 4.43383 1.29181 3.71429 2.17941 3.71429C2.8086 3.71429 3.35334 4.07585 3.6172 4.60254M3.6172 6.04032L7.17019 7.81682M3.6172 4.60254L7.17019 2.82604M7.17019 2.82604C7.43405 3.35272 7.97879 3.71429 8.60798 3.71429C9.49558 3.71429 10.2151 2.99474 10.2151 2.10714C10.2151 1.21954 9.49558 0.5 8.60798 0.5C7.72038 0.5 7.00084 1.21954 7.00084 2.10714C7.00084 2.36555 7.06183 2.60972 7.17019 2.82604ZM7.17019 7.81682C7.06183 8.03314 7.00084 8.2773 7.00084 8.53571C7.00084 9.42332 7.72038 10.1429 8.60798 10.1429C9.49558 10.1429 10.2151 9.42332 10.2151 8.53571C10.2151 7.64811 9.49558 6.92857 8.60798 6.92857C7.97879 6.92857 7.43405 7.29013 7.17019 7.81682Z" stroke="currentColor" stroke-linecap="round" stroke-linejoin="round"/>
</svg>
