<svg width="100" height="32" viewBox="0 0 100 37" fill="none" xmlns="http://www.w3.org/2000/svg">
<path fill-rule="evenodd" clip-rule="evenodd" d="M63.7871 25.1775V26.1025C63.7871 29.4376 63.1244 32.6177 60.7884 34.6343C58.6081 36.4958 55.6884 37 52.7296 37C50.082 37 47.3958 36.4958 45.6048 35.565L46.9286 30.2908C48.0966 30.9501 50.2767 31.687 52.457 31.687C54.9488 31.687 56.895 30.3296 56.895 27.3823V26.5291H56.8171C55.6494 27.9639 53.9365 28.6619 52.0287 28.6619C47.3568 28.6619 43.9696 24.939 43.9696 19.3933C43.9696 13.3821 47.863 9.38754 52.6517 9.38754C54.9877 9.38754 56.5835 10.2795 57.5958 11.8696L57.5386 10.2116L64.1717 9.82286L63.8046 13.5319C62.8288 15.1256 62.2298 16.991 62.1503 18.9871C62.0597 21.2958 62.6715 23.4309 63.7871 25.1775ZM0 27.9208C1.51524 28.6944 3.88402 29.2728 6.5641 29.2728C12.4671 29.2728 15.3025 26.5286 15.3025 22.8897C15.2634 20.1453 13.8265 18.2081 10.0593 16.9705C7.80649 16.2373 7.1853 15.8473 7.1853 15.2283C7.1853 14.4549 7.8842 14.1454 9.08813 14.1454C10.642 14.1454 12.4287 14.7642 13.3221 15.1948L14.4483 10.473C13.2051 9.92812 11.1079 9.38992 8.77761 9.38992C3.72875 9.38992 0.466567 12.1343 0.466567 15.928C0.427315 18.1342 1.86438 20.4144 6.09753 21.7663C8.15626 22.3852 8.58374 22.6945 8.58374 23.394C8.58374 24.1272 8.001 24.4367 6.48639 24.4367C4.77727 24.4367 2.2917 23.6631 1.20393 23.004L0 27.9208ZM23.08 28.849V9.81368L16.0506 10.2442V28.849H23.08ZM31.2614 11.4147C32.225 10.4595 33.8814 9.38992 36.2994 9.38992C40.7656 9.38992 43.2127 12.41 43.2127 17.6297V28.849H36.1826V18.4838C36.1826 16.2777 35.4453 14.9998 33.7362 14.9998C32.377 14.9998 31.7558 15.928 31.4445 16.6611C31.3323 16.9167 31.2809 17.2664 31.2614 17.6297V28.849H24.2124V10.2442L31.2614 9.81368V11.4147ZM79.6833 20.2368H67.164C67.5867 22.925 69.4015 24.9475 72.1078 24.9475C73.894 24.9475 75.5213 24.0677 76.6035 22.698L79.6849 24.3579C77.9511 26.9205 75.1097 28.6083 71.9632 28.6083C66.9463 28.6083 63.0434 24.3166 63.2516 19.0303C63.4613 13.744 67.7043 9.45229 72.7212 9.45229C76.3063 9.45229 79.3225 11.6433 80.6765 14.822C80.0774 16.1017 79.7182 17.5094 79.6594 18.9871C79.6435 19.4096 79.6515 19.8263 79.6833 20.2368ZM84.8114 17.1662C84.5921 17.7524 84.4618 18.3791 84.4364 19.0303C84.403 19.8643 84.546 20.6584 84.8305 21.378L82.8457 25.2804C81.4599 23.602 80.6669 21.4175 80.7607 19.0303C80.9705 13.744 85.4487 9.45229 90.7548 9.45229C96.0625 9.45229 100.201 13.744 99.9925 19.0303C99.7827 24.3166 95.3045 28.6083 89.9984 28.6083C89.3214 28.6083 88.6651 28.5386 88.0342 28.4063L90.6118 24.9293C92.1914 24.8066 93.6248 24.0707 94.6593 22.9616L84.8114 17.1662ZM56.779 20.2465C56.779 20.6731 56.779 21.2934 56.6614 21.6813C56.4278 22.7284 55.4937 23.5816 54.209 23.5816C52.2623 23.5816 51.0943 21.7588 51.0943 19.2769C51.0943 16.2519 52.5349 14.623 54.209 14.623C55.4937 14.623 56.3892 15.3987 56.7011 16.7948C56.7393 17.0663 56.779 17.3766 56.779 17.6868V20.2465ZM95.1265 22.3996C95.8305 21.4432 96.2675 20.2819 96.3168 19.0303C96.4455 15.7645 93.8886 13.1132 90.6102 13.1132C88.2392 13.1132 86.1368 14.4999 85.1054 16.5025L95.1265 22.3996ZM77.1835 16.5759C76.3779 14.5339 74.8459 13.1132 72.5766 13.1132C70.3074 13.1132 68.6626 14.5339 67.6964 16.5759H77.1835ZM19.5849 3C17.6253 3 16.3653 4.25117 16.3653 5.99321C16.3653 7.63442 17.5902 8.95951 19.5497 8.95951C21.5444 8.95951 22.8045 7.63442 22.8045 5.99321C22.7694 4.25117 21.5444 3 19.5849 3Z" fill="#8300E9"/>
</svg>
