<svg viewBox="0 0 35 35" fill="none" xmlns="http://www.w3.org/2000/svg">
<path d="M3.5 18.375C3.5 16.9253 4.67525 15.75 6.125 15.75C7.57475 15.75 8.75 16.9253 8.75 18.375V28.875C8.75 30.3247 7.57475 31.5 6.125 31.5C4.67525 31.5 3.5 30.3247 3.5 28.875V18.375Z" fill="#111827"/>
<path d="M10.5 18.0833V27.5869C10.5 28.9126 11.249 30.1245 12.4348 30.7174L12.522 30.761C13.494 31.247 14.5658 31.5 15.6525 31.5H25.1307C26.7991 31.5 28.2355 30.3224 28.5627 28.6864L30.6627 18.1864C31.0959 16.0206 29.4393 14 27.2307 14H21V7C21 5.067 19.433 3.5 17.5 3.5C16.5335 3.5 15.75 4.2835 15.75 5.25V6.41667C15.75 7.93126 15.2588 9.40499 14.35 10.6167L11.9 13.8833C10.9912 15.095 10.5 16.5687 10.5 18.0833Z" fill="currentColor"/>
</svg>
