<svg id="Layer_1" xmlns="http://www.w3.org/2000/svg" viewBox="0 0 32 32">
  <path class="cls-1" fill="currentColor" d="M27.66,3c-.14,0-.27.02-.39.06l-15.56,4.79h0c-.42.13-.7.51-.7.95v12.66c-.87-.55-1.91-.85-3.01-.85-2.76,0-5,1.88-5,4.2s2.24,4.2,5,4.2,5-1.88,5-4.2v-9.15l14.02-4.31v6.91c-.87-.55-1.91-.85-3.01-.85-2.76,0-5,1.88-5,4.2s2.24,4.2,5,4.2,5-1.88,5-4.2V4.34c0-.74-.6-1.34-1.34-1.34ZM21.3,20.64c.55-.82,1.76-1.24,2.71-1.24,1.96,0,3.01,1.28,3.01,2.21,0,.35-.11.67-.29.94,0,0-.01.02-.02.03-.55.82-1.76,1.24-2.71,1.24-1.96,0-3.01-1.28-3.01-2.21,0-.35.11-.67.29-.94,0,0,.01-.02.02-.03ZM27.01,5.22v4.05l-14.02,4.31v-4.05l14.02-4.31ZM5.29,23.84c.55-.82,1.76-1.24,2.71-1.24,1.96,0,3.01,1.28,3.01,2.21,0,.35-.11.67-.29.94,0,0-.01.02-.02.03-.55.82-1.76,1.24-2.71,1.24-1.96,0-3.01-1.28-3.01-2.21,0-.35.11-.67.29-.94,0,0,.01-.02.02-.03Z"/>
</svg>
