<svg viewBox="0 0 28 28" fill="none" xmlns="http://www.w3.org/2000/svg">
  <path d="M25.373 3.80625V18.9088C25.373 20.93 23.413 22.575 20.998 22.575C18.583 22.575 16.6318 20.93 16.6318 18.9088C16.6318 16.8875 18.5918 15.2337 20.998 15.2337C21.9605 15.2337 22.8705 15.4875 23.6318 15.9688V9.93125L11.3643 13.7025V21.7087C11.3643 23.73 9.4043 25.375 6.99805 25.375C4.5918 25.375 2.62305 23.73 2.62305 21.7087C2.62305 19.6875 4.58305 18.0338 6.99805 18.0338C7.9518 18.0338 8.8618 18.2875 9.62305 18.7775V7.7C9.62305 7.315 9.86804 6.9825 10.2355 6.86875L23.8505 2.6775C23.9555 2.6425 24.0781 2.625 24.2006 2.625C24.848 2.625 25.373 3.15875 25.373 3.80625Z" fill="currentColor"/>
</svg>
