<svg viewBox="0 0 41 40" fill="none" xmlns="http://www.w3.org/2000/svg">
  <path d="M33.0002 8.24447C33.0002 7.60368 32.4973 7.08398 31.8772 7.08398C31.7649 7.08398 31.6526 7.09912 31.5452 7.13444L16.3596 11.9631C16.0374 12.069 15.8127 12.3818 15.8127 12.735V18.7897V25.8737C14.9827 25.2329 13.8889 24.8444 12.6877 24.8444C10.0999 24.8444 8.00024 26.6507 8.00024 28.8809C8.00024 31.111 10.0999 32.9173 12.6877 32.9173C15.2756 32.9173 17.3752 31.111 17.3752 28.8809V19.5112L31.4377 15.0409V22.6445C30.6077 22.0037 29.5139 21.6152 28.3127 21.6152C25.7249 21.6152 23.6252 23.4215 23.6252 25.6517C23.6252 27.8818 25.7249 29.6882 28.3127 29.6882C30.9006 29.6882 33.0002 27.8818 33.0002 25.6517V13.9661C33.0002 13.9561 33.0002 13.9409 33.0002 13.9308V8.24447ZM31.4377 25.6517C31.4377 26.7264 30.3196 28.0736 28.3127 28.0736C26.3059 28.0736 25.1877 26.7264 25.1877 25.6517C25.1877 24.577 26.3059 23.2298 28.3127 23.2298C30.3196 23.2298 31.4377 24.577 31.4377 25.6517ZM15.8127 28.8809C15.8127 29.9556 14.6946 31.3027 12.6877 31.3027C10.6809 31.3027 9.56274 29.9556 9.56274 28.8809C9.56274 27.8062 10.6809 26.459 12.6877 26.459C14.6946 26.459 15.8127 27.8062 15.8127 28.8809ZM31.4377 13.3506L17.3752 17.821V13.3304L31.4377 8.86003V13.3506Z" fill="currentColor"/>
</svg>
