<svg viewBox="0 0 14 14" fill="none" xmlns="http://www.w3.org/2000/svg">
<path d="M0.400391 5.1999C0.400391 4.97899 0.579477 4.7999 0.800391 4.7999C1.0213 4.7999 1.20039 4.97899 1.20039 5.1999V8.3999C1.20039 8.62082 1.0213 8.7999 0.800391 8.7999C0.579477 8.7999 0.400391 8.62082 0.400391 8.3999V5.1999Z" fill="currentColor"/>
<path d="M2.80039 2.5999C2.80039 2.37899 2.97948 2.1999 3.20039 2.1999C3.4213 2.1999 3.60039 2.37899 3.60039 2.5999V10.9999C3.60039 11.2208 3.4213 11.3999 3.20039 11.3999C2.97948 11.3999 2.80039 11.2208 2.80039 10.9999V2.5999Z" fill="currentColor"/>
<path d="M5.20039 0.799902C5.20039 0.578988 5.37948 0.399902 5.60039 0.399902C5.8213 0.399902 6.00039 0.578988 6.00039 0.799902V12.7999C6.00039 13.0208 5.8213 13.1999 5.60039 13.1999C5.37948 13.1999 5.20039 13.0208 5.20039 12.7999V0.799902Z" fill="currentColor"/>
<path d="M7.60039 3.7999C7.60039 3.57899 7.77948 3.3999 8.00039 3.3999C8.2213 3.3999 8.40039 3.57899 8.40039 3.7999V9.7999C8.40039 10.0208 8.2213 10.1999 8.00039 10.1999C7.77948 10.1999 7.60039 10.0208 7.60039 9.7999V3.7999Z" fill="currentColor"/>
<path d="M10.0004 1.7999C10.0004 1.57899 10.1795 1.3999 10.4004 1.3999C10.6213 1.3999 10.8004 1.57899 10.8004 1.7999V11.7999C10.8004 12.0208 10.6213 12.1999 10.4004 12.1999C10.1795 12.1999 10.0004 12.0208 10.0004 11.7999V1.7999Z" fill="currentColor"/>
<path d="M12.4004 5.5999C12.4004 5.37899 12.5795 5.1999 12.8004 5.1999C13.0213 5.1999 13.2004 5.37899 13.2004 5.5999V7.9999C13.2004 8.22082 13.0213 8.3999 12.8004 8.3999C12.5795 8.3999 12.4004 8.22082 12.4004 7.9999V5.5999Z" fill="currentColor"/>
<path d="M5.60039 0.314675C5.33241 0.314675 5.11516 0.531919 5.11516 0.799902V12.7999C5.11516 13.0679 5.33241 13.2851 5.60039 13.2851C5.86837 13.2851 6.08562 13.0679 6.08562 12.7999V0.799902C6.08562 0.531919 5.86837 0.314675 5.60039 0.314675ZM3.20039 2.11468C2.93241 2.11468 2.71516 2.33192 2.71516 2.5999V10.9999C2.71516 11.2679 2.93241 11.4851 3.20039 11.4851C3.46837 11.4851 3.68562 11.2679 3.68562 10.9999V2.5999C3.68562 2.33192 3.46837 2.11468 3.20039 2.11468ZM0.800391 4.71467C0.532407 4.71467 0.315163 4.93192 0.315163 5.1999V8.3999C0.315163 8.66789 0.532407 8.88513 0.800391 8.88513C1.06837 8.88513 1.28562 8.66789 1.28562 8.3999V5.1999C1.28562 4.93192 1.06837 4.71467 0.800391 4.71467ZM8.00039 3.31468C7.73241 3.31468 7.51516 3.53192 7.51516 3.7999V9.7999C7.51516 10.0679 7.73241 10.2851 8.00039 10.2851C8.26837 10.2851 8.48562 10.0679 8.48562 9.7999V3.7999C8.48562 3.53192 8.26837 3.31468 8.00039 3.31468ZM10.4004 1.31468C10.1324 1.31468 9.91516 1.53192 9.91516 1.7999V11.7999C9.91516 12.0679 10.1324 12.2851 10.4004 12.2851C10.6684 12.2851 10.8856 12.0679 10.8856 11.7999V1.7999C10.8856 1.53192 10.6684 1.31468 10.4004 1.31468ZM12.8004 5.11468C12.5324 5.11468 12.3152 5.33192 12.3152 5.5999V7.9999C12.3152 8.26789 12.5324 8.48513 12.8004 8.48513C13.0684 8.48513 13.2856 8.26789 13.2856 7.9999V5.5999C13.2856 5.33192 13.0684 5.11468 12.8004 5.11468Z" fill="currentColor" stroke="currentColor" stroke-width="0.170455"/>
</svg>
