<svg viewBox="0 0 18 20" fill="none" xmlns="http://www.w3.org/2000/svg">
  <path d="M7.03846 0C6.31514 0 5.73077 0.558594 5.73077 1.25C5.73077 1.94141 6.31514 2.5 7.03846 2.5H7.69231V3.84375C3.61803 4.44531 0.5 7.8125 0.5 11.875C0.5 16.3633 4.30457 20 9 20C13.6954 20 17.5 16.3633 17.5 11.875C17.5 10.2422 16.9974 8.72266 16.131 7.45313L17.1159 6.51172C17.6267 6.02344 17.6267 5.23047 17.1159 4.74219C16.605 4.25391 15.7755 4.25391 15.2647 4.74219L14.382 5.58594C13.2337 4.6875 11.8401 4.07031 10.3077 3.84375V2.5H10.9615C11.6849 2.5 12.2692 1.94141 12.2692 1.25C12.2692 0.558594 11.6849 0 10.9615 0H9H7.03846ZM9.98077 7.5V12.5C9.98077 13.0195 9.54351 13.4375 9 13.4375C8.45649 13.4375 8.01923 13.0195 8.01923 12.5V7.5C8.01923 6.98047 8.45649 6.5625 9 6.5625C9.54351 6.5625 9.98077 6.98047 9.98077 7.5Z" fill="currentColor"/>
</svg>
