<svg viewBox="0 0 35 35" fill="none" xmlns="http://www.w3.org/2000/svg">
<path d="M1 7.65C1 5.03426 3.19768 3 5.8 3H27.4C30.0023 3 32.2 5.03426 32.2 7.65V10.2C32.2 10.8627 31.6627 11.4 31 11.4C30.3373 11.4 29.8 10.8627 29.8 10.2V7.65C29.8 6.45498 28.7741 5.4 27.4 5.4H5.8C4.42587 5.4 3.4 6.45498 3.4 7.65V28.35C3.4 29.545 4.42587 30.6 5.8 30.6H19C19.6627 30.6 20.2 31.1373 20.2 31.8C20.2 32.4627 19.6627 33 19 33H5.8C3.19768 33 1 30.9657 1 28.35V7.65Z" fill="currentColor"/>
<path d="M31 13.8C30.3373 13.8 29.8 14.3373 29.8 15V25.803C28.9252 25.3867 27.8859 25.16 26.8 25.16C25.4432 25.16 24.1592 25.5139 23.1779 26.1494C22.2083 26.7773 21.4 27.7864 21.4 29.08C21.4 30.3736 22.2083 31.3827 23.1779 32.0106C24.1592 32.6461 25.4432 33 26.8 33C28.1568 33 29.4408 32.6461 30.4221 32.0106C31.3917 31.3827 32.2 30.3736 32.2 29.08V15C32.2 14.3373 31.6627 13.8 31 13.8Z" fill="currentColor"/>
<path d="M5.97726 22.9632C6.10332 23.1125 6.26089 23.2059 6.44997 23.2432C6.9857 23.3477 7.51749 23.4 8.04535 23.4C10.4561 23.4 11.6615 22.4368 11.6615 20.5104C11.6615 19.6891 11.4212 19.0581 10.9407 18.6176C10.468 18.1696 9.79041 17.9456 8.90803 17.9456C8.53774 17.9456 8.16352 18.0203 7.78536 18.1696H7.76172C7.75384 18.1696 7.74991 18.1659 7.74991 18.1584L7.82081 16.736C7.82081 16.6763 7.85626 16.6464 7.92717 16.6464H10.5979C10.7792 16.6464 10.9367 16.5829 11.0707 16.456C11.2046 16.3291 11.2716 16.1797 11.2716 16.008V15.7504C11.2716 15.5787 11.2046 15.4293 11.0707 15.3024C10.9367 15.1755 10.7792 15.112 10.5979 15.112H6.68632C6.49724 15.112 6.33573 15.1755 6.2018 15.3024C6.06787 15.4219 5.99302 15.5712 5.97726 15.7504L5.81182 19.1776C5.80394 19.3493 5.86303 19.4987 5.98908 19.6256C6.11514 19.7525 6.26876 19.816 6.44997 19.816H6.81631C6.91873 19.816 7.02509 19.8048 7.13539 19.7824C7.25356 19.7525 7.34811 19.7264 7.41901 19.704C7.4978 19.6741 7.60809 19.6331 7.74991 19.5808C7.89959 19.5211 7.99807 19.4837 8.04535 19.4688C8.17928 19.4165 8.33685 19.3904 8.51805 19.3904C9.30589 19.3904 9.69981 19.7637 9.69981 20.5104C9.69981 21.4288 9.12075 21.888 7.96262 21.888C7.58446 21.888 7.0763 21.8096 6.43815 21.6528C6.28058 21.6155 6.13483 21.6416 6.0009 21.7312C5.86697 21.8208 5.8 21.944 5.8 22.1008V22.448C5.8 22.6421 5.85909 22.8139 5.97726 22.9632Z" fill="currentColor"/>
<path fill-rule="evenodd" clip-rule="evenodd" d="M18.8631 22.4144C18.3037 23.0715 17.445 23.4 16.2868 23.4C15.1287 23.4 14.266 23.0715 13.6988 22.4144C13.1394 21.7573 12.8597 20.6859 12.8597 19.2C12.8597 17.7141 13.1394 16.6427 13.6988 15.9856C14.266 15.3285 15.1287 15 16.2868 15C17.445 15 18.3037 15.3285 18.8631 15.9856C19.4303 16.6427 19.7139 17.7141 19.7139 19.2C19.7139 20.6859 19.4303 21.7573 18.8631 22.4144ZM17.3268 17.0608C17.1062 16.6501 16.7595 16.4448 16.2868 16.4448C15.8141 16.4448 15.4635 16.6501 15.2351 17.0608C15.0145 17.4715 14.9042 18.1845 14.9042 19.2C14.9042 20.2155 15.0145 20.9285 15.2351 21.3392C15.4635 21.7499 15.8141 21.9552 16.2868 21.9552C16.7595 21.9552 17.1062 21.7499 17.3268 21.3392C17.5553 20.9285 17.6695 20.2155 17.6695 19.2C17.6695 18.1845 17.5553 17.4715 17.3268 17.0608Z" fill="currentColor"/>
<path fill-rule="evenodd" clip-rule="evenodd" d="M23.9729 23.4C25.131 23.4 25.9898 23.0715 26.5491 22.4144C27.1164 21.7573 27.4 20.6859 27.4 19.2C27.4 17.7141 27.1164 16.6427 26.5491 15.9856C25.9898 15.3285 25.131 15 23.9729 15C22.8148 15 21.9521 15.3285 21.3848 15.9856C20.8255 16.6427 20.5458 17.7141 20.5458 19.2C20.5458 20.6859 20.8255 21.7573 21.3848 22.4144C21.9521 23.0715 22.8148 23.4 23.9729 23.4ZM23.9729 16.4448C24.4456 16.4448 24.7922 16.6501 25.0128 17.0608C25.2413 17.4715 25.3556 18.1845 25.3556 19.2C25.3556 20.2155 25.2413 20.9285 25.0128 21.3392C24.7922 21.7499 24.4456 21.9552 23.9729 21.9552C23.5002 21.9552 23.1496 21.7499 22.9211 21.3392C22.7005 20.9285 22.5902 20.2155 22.5902 19.2C22.5902 18.1845 22.7005 17.4715 22.9211 17.0608C23.1496 16.6501 23.5002 16.4448 23.9729 16.4448Z" fill="currentColor"/>
</svg>
