<svg viewBox="0 0 35 35" fill="none" xmlns="http://www.w3.org/2000/svg">
<path d="M17.4517 26.3631C17.812 26.3278 18.1499 26.1686 18.4061 25.9127C18.5515 25.7672 18.6668 25.5945 18.7454 25.4044C18.8241 25.2143 18.8644 25.0105 18.8643 24.8048C18.8642 24.7023 18.8541 24.6008 18.8345 24.5014C18.7843 24.2515 18.6734 24.016 18.5097 23.8165C18.2799 23.5367 17.9603 23.3452 17.6052 23.2746C17.25 23.2039 16.8814 23.2586 16.5621 23.4293C16.2428 23.6 15.9925 23.8761 15.8539 24.2106C15.735 24.4976 15.7046 24.8123 15.7647 25.1148C15.7745 25.1633 15.7866 25.2116 15.8011 25.2593C15.9061 25.6058 16.128 25.9052 16.429 26.1064C16.7299 26.3077 17.0914 26.3984 17.4517 26.3631Z" fill="currentColor"/>
<path fill-rule="evenodd" clip-rule="evenodd" d="M13.8995 1C13.363 1 12.928 1.43492 12.928 1.97143V5.85714C12.928 6.39365 13.363 6.82857 13.8995 6.82857H14.1659V12.706C10.8689 13.567 9.31801 15.517 9.77264 18.2502C10.1306 20.4106 9.49879 21.4443 8.69246 22.7527C8.02833 23.675 7.55708 24.7219 7.30689 25.8306C7.05671 26.9393 7.03273 28.0871 7.2364 29.2052C8.01947 34.4201 14.1041 35.2426 17.2981 34.9445C17.6936 34.9838 18.0909 35.002 18.4884 34.9991C21.8166 34.9991 26.6949 33.8357 27.3608 29.2044C27.5655 28.0868 27.5428 26.9395 27.294 25.831C27.0452 24.7225 26.5754 23.6755 25.9128 22.7527V22.7572L25.8662 22.6796C25.104 21.4078 24.4791 20.3653 24.8317 18.2618C25.2863 15.5215 23.7354 13.5634 20.4393 12.7132L20.4317 6.82857H20.6995C21.236 6.82857 21.6709 6.39365 21.6709 5.85714V1.97143C21.6709 1.43492 21.236 1 20.6995 1H13.8995ZM15.7329 8.77142V6.82857H18.8652V8.77142H15.7329ZM18.8652 11.6857V9.74285H15.7329V11.6857H18.8652ZM18.8652 12.6571V14.6H15.7329V12.6571H18.8652ZM18.8652 17.7616V15.5714H15.7329V17.7616H18.8652ZM14.5303 26.2775C14.6764 26.5517 14.8612 26.8005 15.0775 27.0172C15.2955 27.2364 15.5463 27.4236 15.823 27.5714C16.4624 27.9127 17.2005 28.0218 17.9113 27.8799C18.6222 27.738 19.2618 27.3539 19.7212 26.7931C20.1805 26.2324 20.4312 25.5297 20.4304 24.8048C20.4295 23.9757 20.1 23.1808 19.514 22.5943C19.2234 22.3025 18.8781 22.0709 18.4978 21.9128C18.1176 21.7546 17.7099 21.6729 17.2981 21.6725C16.5736 21.6717 15.8712 21.9222 15.3106 22.3811C14.7499 22.8401 14.3658 23.4793 14.2235 24.1897C14.0812 24.9002 14.1897 25.638 14.5303 26.2775ZM14.8709 29.1714C14.3344 29.1714 13.8995 29.6063 13.8995 30.1429C13.8995 30.6794 14.3344 31.1143 14.8709 31.1143H19.728C20.2645 31.1143 20.6995 30.6794 20.6995 30.1429C20.6995 29.6063 20.2645 29.1714 19.728 29.1714H14.8709Z" fill="currentColor"/>
</svg>
