<svg viewBox="0 0 35 35" fill="none" xmlns="http://www.w3.org/2000/svg">
<path fill-rule="evenodd" clip-rule="evenodd" d="M10.5 3.5C8.567 3.5 7 5.06701 7 7V28C7 29.933 8.567 31.5 10.5 31.5H24.5C26.433 31.5 28 29.933 28 28V12.9749C28 12.0466 27.6313 11.1564 26.9749 10.5L21 4.52513C20.3436 3.86875 19.4534 3.5 18.5251 3.5H10.5ZM19.25 14C19.25 13.0335 18.4665 12.25 17.5 12.25C16.5335 12.25 15.75 13.0335 15.75 14V17.5H12.25C11.2835 17.5 10.5 18.2835 10.5 19.25C10.5 20.2165 11.2835 21 12.25 21H15.75V24.5C15.75 25.4665 16.5335 26.25 17.5 26.25C18.4665 26.25 19.25 25.4665 19.25 24.5L19.25 21H22.75C23.7165 21 24.5 20.2165 24.5 19.25C24.5 18.2835 23.7165 17.5 22.75 17.5H19.25V14Z" fill="currentColor"/>
</svg>
