<svg viewBox="0 0 35 35" fill="none" xmlns="http://www.w3.org/2000/svg">
<path fill-rule="evenodd" clip-rule="evenodd" d="M8.75 5.25C8.75 4.2835 9.5335 3.5 10.5 3.5C11.4665 3.5 12.25 4.2835 12.25 5.25V7H22.75V5.25C22.75 4.2835 23.5335 3.5 24.5 3.5C25.4665 3.5 26.25 4.2835 26.25 5.25V7H28C29.933 7 31.5 8.567 31.5 10.5V28C31.5 29.933 29.933 31.5 28 31.5H7C5.067 31.5 3.5 29.933 3.5 28V10.5C3.5 8.567 5.067 7 7 7H8.75V5.25ZM18.5 14C18.5 13.4477 18.0523 13 17.5 13C16.9477 13 16.5 13.4477 16.5 14V19H11.5C10.9477 19 10.5 19.4477 10.5 20C10.5 20.5523 10.9477 21 11.5 21H16.5V26C16.5 26.5523 16.9477 27 17.5 27C18.0523 27 18.5 26.5523 18.5 26V21H23.5C24.0523 21 24.5 20.5523 24.5 20C24.5 19.4477 24.0523 19 23.5 19H18.5V14Z" fill="currentColor"/>
</svg>
