<svg viewBox="0 0 35 35" fill="none" xmlns="http://www.w3.org/2000/svg">
<path d="M7 5.25C5.067 5.25 3.5 6.817 3.5 8.75C3.5 10.683 5.067 12.25 7 12.25H28C29.933 12.25 31.5 10.683 31.5 8.75C31.5 6.817 29.933 5.25 28 5.25H7Z" fill="currentColor"/>
<path fill-rule="evenodd" clip-rule="evenodd" d="M5.25 14H29.75V26.25C29.75 28.183 28.183 29.75 26.25 29.75H8.75C6.817 29.75 5.25 28.183 5.25 26.25V14ZM14 19.25C14 18.2835 14.7835 17.5 15.75 17.5H19.25C20.2165 17.5 21 18.2835 21 19.25C21 20.2165 20.2165 21 19.25 21H15.75C14.7835 21 14 20.2165 14 19.25Z" fill="currentColor"/>
</svg>
