<svg viewBox="0 0 35 35" fill="none" xmlns="http://www.w3.org/2000/svg">
<path fill-rule="evenodd" clip-rule="evenodd" d="M3.5 8.75C3.5 6.817 5.067 5.25 7 5.25H21C22.933 5.25 24.5 6.817 24.5 8.75V26.25C24.5 28.183 26.067 29.75 28 29.75H7C5.067 29.75 3.5 28.183 3.5 26.25V8.75ZM8.75 10.5H19.25V17.5H8.75V10.5ZM19.25 21H8.75V24.5H19.25V21Z" fill="currentColor"/>
<path d="M26.25 12.25H28C29.933 12.25 31.5 13.817 31.5 15.75V25.375C31.5 26.8247 30.3247 28 28.875 28C27.4253 28 26.25 26.8247 26.25 25.375V12.25Z" fill="currentColor"/>
</svg>
