<svg viewBox="0 0 35 35" fill="none" xmlns="http://www.w3.org/2000/svg">
<path fill-rule="evenodd" clip-rule="evenodd" d="M31.5 17.5C31.5 9.76801 25.232 3.5 17.5 3.5C9.76801 3.5 3.5 9.76801 3.5 17.5C3.5 25.232 9.76801 31.5 17.5 31.5C25.232 31.5 31.5 25.232 31.5 17.5ZM13.4874 16.2626C12.804 15.5791 11.696 15.5791 11.0126 16.2626C10.3291 16.946 10.3291 18.054 11.0126 18.7374L16.2626 23.9874C16.946 24.6709 18.054 24.6709 18.7374 23.9874L23.9874 18.7374C24.6709 18.054 24.6709 16.946 23.9874 16.2626C23.304 15.5791 22.196 15.5791 21.5126 16.2626L19.25 18.5251L19.25 12.25C19.25 11.2835 18.4665 10.5 17.5 10.5C16.5335 10.5 15.75 11.2835 15.75 12.25L15.75 18.5251L13.4874 16.2626Z" fill="currentColor"/>
</svg>
