<svg viewBox="0 0 35 35" fill="none" xmlns="http://www.w3.org/2000/svg">
<path fill-rule="evenodd" clip-rule="evenodd" d="M17.5 3.5C9.76802 3.5 3.5 9.76801 3.5 17.5C3.5 25.232 9.76801 31.5 17.5 31.5C25.232 31.5 31.5 25.232 31.5 17.5C31.5 9.76801 25.232 3.5 17.5 3.5ZM16.2626 21.5126C15.5791 22.196 15.5791 23.304 16.2626 23.9874C16.946 24.6709 18.054 24.6709 18.7374 23.9874L23.9874 18.7374C24.6709 18.054 24.6709 16.946 23.9874 16.2626L18.7374 11.0126C18.054 10.3291 16.946 10.3291 16.2626 11.0126C15.5791 11.696 15.5791 12.804 16.2626 13.4874L18.5251 15.75L12.25 15.75C11.2835 15.75 10.5 16.5335 10.5 17.5C10.5 18.4665 11.2835 19.25 12.25 19.25L18.5251 19.25L16.2626 21.5126Z" fill="currentColor"/>
</svg>
