<svg viewBox="0 0 35 35" fill="none" xmlns="http://www.w3.org/2000/svg">
<path fill-rule="evenodd" clip-rule="evenodd" d="M14.1339 8.36612C14.622 8.85427 14.622 9.64573 14.1339 10.1339L11.2678 13H18.25C23.0825 13 27 16.9175 27 21.75V24.25C27 24.9404 26.4404 25.5 25.75 25.5C25.0596 25.5 24.5 24.9404 24.5 24.25V21.75C24.5 18.2982 21.7018 15.5 18.25 15.5H11.2678L14.1339 18.3661C14.622 18.8543 14.622 19.6457 14.1339 20.1339C13.6457 20.622 12.8543 20.622 12.3661 20.1339L7.36612 15.1339C6.87796 14.6457 6.87796 13.8543 7.36612 13.3661L12.3661 8.36612C12.8543 7.87796 13.6457 7.87796 14.1339 8.36612Z" fill="currentColor"/>
</svg>
