<svg viewBox="0 0 35 35" fill="none" xmlns="http://www.w3.org/2000/svg">
<path fill-rule="evenodd" clip-rule="evenodd" d="M17.5 31.5C25.232 31.5 31.5 25.232 31.5 17.5C31.5 9.76801 25.232 3.5 17.5 3.5C9.76801 3.5 3.5 9.76801 3.5 17.5C3.5 25.232 9.76801 31.5 17.5 31.5ZM18.7374 13.4874C19.4209 12.804 19.4209 11.696 18.7374 11.0126C18.054 10.3291 16.946 10.3291 16.2626 11.0126L11.0126 16.2626C10.3291 16.946 10.3291 18.054 11.0126 18.7374L16.2626 23.9874C16.946 24.6709 18.054 24.6709 18.7374 23.9874C19.4209 23.304 19.4209 22.196 18.7374 21.5126L16.4749 19.25H22.75C23.7165 19.25 24.5 18.4665 24.5 17.5C24.5 16.5335 23.7165 15.75 22.75 15.75L16.4749 15.75L18.7374 13.4874Z" fill="currentColor"/>
</svg>
