<svg viewBox="0 0 35 35" fill="none" xmlns="http://www.w3.org/2000/svg">
<path fill-rule="evenodd" clip-rule="evenodd" d="M3.5 17.5C3.5 25.232 9.76801 31.5 17.5 31.5C25.232 31.5 31.5 25.232 31.5 17.5C31.5 9.76801 25.232 3.5 17.5 3.5C9.76801 3.5 3.5 9.76801 3.5 17.5ZM21.5126 18.7374C22.196 19.4209 23.304 19.4209 23.9874 18.7374C24.6709 18.054 24.6709 16.946 23.9874 16.2626L18.7374 11.0126C18.054 10.3291 16.946 10.3291 16.2626 11.0126L11.0126 16.2626C10.3291 16.946 10.3291 18.054 11.0126 18.7374C11.696 19.4209 12.804 19.4209 13.4874 18.7374L15.75 16.4749L15.75 22.75C15.75 23.7165 16.5335 24.5 17.5 24.5C18.4665 24.5 19.25 23.7165 19.25 22.75L19.25 16.4749L21.5126 18.7374Z" fill="currentColor"/>
</svg>
