<svg viewBox="0 0 35 35" fill="none" xmlns="http://www.w3.org/2000/svg">
<path fill-rule="evenodd" clip-rule="evenodd" d="M14 7C11.1005 7 8.75 9.3505 8.75 12.25V19.25C8.75 24.0825 12.6675 28 17.5 28C22.3325 28 26.25 24.0825 26.25 19.25V12.25C26.25 11.2835 27.0335 10.5 28 10.5C28.9665 10.5 29.75 11.2835 29.75 12.25V19.25C29.75 26.0155 24.2655 31.5 17.5 31.5C10.7345 31.5 5.25 26.0155 5.25 19.25V12.25C5.25 7.41751 9.16751 3.5 14 3.5C18.8325 3.5 22.75 7.41751 22.75 12.25V19.25C22.75 22.1495 20.3995 24.5 17.5 24.5C14.6005 24.5 12.25 22.1495 12.25 19.25V12.25C12.25 11.2835 13.0335 10.5 14 10.5C14.9665 10.5 15.75 11.2835 15.75 12.25V19.25C15.75 20.2165 16.5335 21 17.5 21C18.4665 21 19.25 20.2165 19.25 19.25V12.25C19.25 9.3505 16.8995 7 14 7Z" fill="currentColor"/>
</svg>
