<svg viewBox="0 0 35 35" fill="none" xmlns="http://www.w3.org/2000/svg">
<path d="M12.1499 15.6205L13.2552 18.9169H9.98831L11.0855 15.637C11.1673 15.4277 11.2547 15.1799 11.3475 14.8935C11.4403 14.6071 11.5276 14.2959 11.6095 13.9599C11.7023 14.2904 11.7951 14.5988 11.8879 14.8852C11.9806 15.1661 12.068 15.4112 12.1499 15.6205Z" fill="currentColor"/>
<path d="M26.3545 15.8849C26.5073 16.364 26.5837 16.901 26.5837 17.4959C26.5837 18.0962 26.5073 18.636 26.3545 19.1151C26.2016 19.5943 25.9806 20.0019 25.6913 20.3378C25.4074 20.6683 25.0581 20.9244 24.6432 21.1062C24.2284 21.2824 23.7562 21.3705 23.2268 21.3705H21.3764V13.6295H23.2268C23.7562 13.6295 24.2284 13.7204 24.6432 13.9021C25.0581 14.0784 25.4074 14.3345 25.6913 14.6704C25.9806 15.0009 26.2016 15.4057 26.3545 15.8849Z" fill="currentColor"/>
<path fill-rule="evenodd" clip-rule="evenodd" d="M1 6.38889C1 5.62188 1.61561 5 2.375 5H32.625C33.3844 5 34 5.62188 34 6.38889V28.6111C34 29.3782 33.3844 30 32.625 30H2.375C1.61561 30 1 29.3782 1 28.6111V6.38889ZM15.5068 23.5185H17.652L13.0341 11.4815H10.2012L5.58333 23.5185H7.74488C7.97414 23.5185 8.16518 23.4579 8.31802 23.3368C8.47632 23.2101 8.58549 23.0696 8.64553 22.9154L9.34967 20.817H13.8856L14.5898 22.9154C14.6662 23.0917 14.7781 23.2376 14.9255 23.3533C15.0729 23.4634 15.2666 23.5185 15.5068 23.5185ZM28.9663 19.9082C29.2666 19.1702 29.4167 18.3661 29.4167 17.4959C29.4167 16.6312 29.2666 15.8325 28.9663 15.1C28.6716 14.362 28.254 13.7259 27.7136 13.1916C27.1732 12.6574 26.521 12.2388 25.7568 11.9359C24.998 11.6329 24.1547 11.4815 23.2268 11.4815H18.5925V23.5185H23.2268C24.1547 23.5185 24.998 23.3698 25.7568 23.0724C26.521 22.7695 27.1732 22.3509 27.7136 21.8166C28.254 21.2769 28.6716 20.6408 28.9663 19.9082Z" fill="currentColor"/>
</svg>
