<svg viewBox="0 0 35 35" fill="none" xmlns="http://www.w3.org/2000/svg">
<path fill-rule="evenodd" clip-rule="evenodd" d="M8.88833 2C6.74087 2 5 3.74087 5 5.88833V29.2183C5 31.3658 6.74086 33.1067 8.88833 33.1067H24.4417C26.5891 33.1067 28.33 31.3658 28.33 29.2183V12.5261C28.33 11.4949 27.9203 10.5059 27.1911 9.77667L20.5533 3.13887C19.8241 2.40966 18.8351 2 17.8039 2H8.88833ZM18.5695 12.3954C18.5695 12.0102 18.3375 11.663 17.9817 11.5156C17.6258 11.3682 17.2163 11.4497 16.9439 11.722L13.4138 15.2521H10.9515C10.4256 15.2521 9.99929 15.6784 9.99929 16.2043V20.0133C9.99929 20.5392 10.4256 20.9655 10.9515 20.9655H13.4138L16.9439 24.4956C17.2163 24.7679 17.6258 24.8494 17.9817 24.702C18.3375 24.5546 18.5695 24.2074 18.5695 23.8223V12.3954ZM21.6573 14.0687C21.2854 13.6968 20.6825 13.6968 20.3106 14.0687C19.9387 14.4406 19.9387 15.0435 20.3106 15.4154C20.6455 15.7503 20.918 16.1468 21.1097 16.5855C21.313 17.0507 21.4262 17.5653 21.4262 18.1087C21.4262 19.1608 21.0009 20.1117 20.3106 20.8021C19.9387 21.1739 19.9387 21.7769 20.3106 22.1487C20.6825 22.5206 21.2854 22.5206 21.6573 22.1487C22.6902 21.1159 23.3307 19.6862 23.3307 18.1087C23.3307 17.2979 23.1612 16.5242 22.8549 15.823C22.5667 15.1634 22.158 14.5695 21.6573 14.0687Z" fill="currentColor"/>
</svg>
