<svg viewBox="0 0 35 35" fill="none" xmlns="http://www.w3.org/2000/svg">
<path d="M16.2902 24.3267C16.7461 24.6248 17.3322 24.6526 17.8153 24.399C18.2984 24.1454 18.6 23.6517 18.6 23.1143L18.6 19.037L26.6902 24.3267C27.1461 24.6248 27.7322 24.6526 28.2153 24.399C28.6984 24.1454 29 23.6517 29 23.1143V11.4571C29 10.9198 28.6984 10.426 28.2153 10.1724C27.7322 9.91885 27.1461 9.94664 26.6902 10.2447L18.6 15.5344V11.4571C18.6 10.9198 18.2984 10.426 17.8153 10.1724C17.3322 9.91885 16.7461 9.94664 16.2902 10.2447L7.37587 16.0733C6.96255 16.3435 6.71429 16.7985 6.71429 17.2857C6.71429 17.7729 6.96255 18.2279 7.37587 18.4981L16.2902 24.3267Z" fill="currentColor"/>
<path d="M5 10.8571C5 10.3838 5.38376 10 5.85714 10C6.33053 10 6.71429 10.3838 6.71429 10.8571V23.7143C6.71429 24.1877 6.33053 24.5714 5.85714 24.5714C5.38376 24.5714 5 24.1877 5 23.7143V10.8571Z" fill="currentColor"/>
</svg>
