<svg viewBox="0 0 35 35" fill="none" xmlns="http://www.w3.org/2000/svg">
<path d="M17.5001 3.5C11.7011 3.5 7.00005 8.20101 7.00005 14V20.2751L5.76261 21.5126C5.26212 22.0131 5.1124 22.7658 5.38326 23.4197C5.65413 24.0736 6.29224 24.5 7.00005 24.5H28.0001C28.7079 24.5 29.346 24.0736 29.6168 23.4197C29.8877 22.7658 29.738 22.0131 29.2375 21.5126L28.0001 20.2751V14C28.0001 8.20101 23.299 3.5 17.5001 3.5Z" fill="currentColor"/>
<path d="M17.5 31.5C14.6005 31.5 12.25 29.1495 12.25 26.25H22.75C22.75 29.1495 20.3995 31.5 17.5 31.5Z" fill="currentColor"/>
</svg>
