<svg viewBox="0 0 35 35" fill="none" xmlns="http://www.w3.org/2000/svg">
<path d="M17.5001 3.5C11.7011 3.5 7.00008 8.20101 7.00008 14V20.2751L5.76264 21.5126C5.26214 22.0131 5.11242 22.7658 5.38329 23.4197C5.65415 24.0736 6.29227 24.5 7.00008 24.5H28.0001C28.7079 24.5 29.346 24.0736 29.6169 23.4197C29.8877 22.7658 29.738 22.0131 29.2375 21.5126L28.0001 20.2751V14C28.0001 8.20101 23.2991 3.5 17.5001 3.5Z" fill="currentColor"/>
<path d="M17.5 31.5C14.6005 31.5 12.25 29.1495 12.25 26.25H22.75C22.75 29.1495 20.3995 31.5 17.5 31.5Z" fill="currentColor"/>
<path d="M4.2383 6.61328C3.70328 6.07825 3.70328 5.21081 4.23831 4.67578C4.77333 4.14076 5.64078 4.14076 6.17581 4.67578L29.0312 27.5312C29.5662 28.0662 29.5662 28.9337 29.0312 29.4687C28.4962 30.0037 27.6287 30.0037 27.0937 29.4687L4.2383 6.61328Z" fill="currentColor"/>
</svg>
