<svg viewBox="0 0 35 35" fill="none" xmlns="http://www.w3.org/2000/svg">
<path d="M15.75 3.5C14.7835 3.5 14 4.2835 14 5.25C14 6.2165 14.7835 7 15.75 7H19.25C20.2165 7 21 6.2165 21 5.25C21 4.2835 20.2165 3.5 19.25 3.5H15.75Z" fill="currentColor"/>
<path fill-rule="evenodd" clip-rule="evenodd" d="M7 8.75C7 6.817 8.567 5.25 10.5 5.25C10.5 8.14949 12.8505 10.5 15.75 10.5H19.25C22.1495 10.5 24.5 8.14949 24.5 5.25C26.433 5.25 28 6.817 28 8.75V28C28 29.933 26.433 31.5 24.5 31.5H10.5C8.567 31.5 7 29.933 7 28V8.75ZM23.9874 18.7374C24.6709 18.054 24.6709 16.946 23.9874 16.2626C23.304 15.5791 22.196 15.5791 21.5126 16.2626L15.75 22.0251L13.4874 19.7626C12.804 19.0791 11.696 19.0791 11.0126 19.7626C10.3291 20.446 10.3291 21.554 11.0126 22.2374L14.5126 25.7374C15.196 26.4209 16.304 26.4209 16.9874 25.7374L23.9874 18.7374Z" fill="currentColor"/>
</svg>
