<svg viewBox="0 0 35 35" fill="none" xmlns="http://www.w3.org/2000/svg">
<path fill-rule="evenodd" clip-rule="evenodd" d="M19.7761 1.83084C20.5046 2.06048 21 2.73606 21 3.49988V12.2499L28 12.2499C28.6525 12.2499 29.2509 12.6129 29.5522 13.1917C29.8536 13.7705 29.8079 14.4689 29.4337 15.0034L17.1837 32.5034C16.7456 33.1292 15.9524 33.3986 15.2239 33.1689C14.4954 32.9393 14 32.2637 14 31.4999L14 22.7499H7.00001C6.34747 22.7499 5.74914 22.3868 5.44779 21.8081C5.14645 21.2293 5.19215 20.5309 5.56635 19.9963L17.8163 2.49632C18.2544 1.87058 19.0476 1.60121 19.7761 1.83084Z" fill="currentColor"/>
</svg>
