<svg viewBox="0 0 35 35" fill="none" xmlns="http://www.w3.org/2000/svg">
<path d="M15.75 8.40741C13.8999 7.50585 11.8215 7 9.625 7C7.42847 7 5.35009 7.50585 3.5 8.40741V25.9074C5.35009 25.0059 7.42847 24.5 9.625 24.5C12.5451 24.5 15.2563 25.394 17.5 26.9232C19.7437 25.394 22.4549 24.5 25.375 24.5C27.5715 24.5 29.6499 25.0059 31.5 25.9074V8.40741C29.6499 7.50585 27.5715 7 25.375 7C23.1785 7 21.1001 7.50585 19.25 8.40741V21C19.25 21.9665 18.4665 22.75 17.5 22.75C16.5335 22.75 15.75 21.9665 15.75 21V8.40741Z" fill="currentColor"/>
</svg>
