<svg viewBox="0 0 35 35" fill="none" xmlns="http://www.w3.org/2000/svg">
<path d="M19.8276 4H15.1724V18C15.1724 18.5291 14.7615 18.9622 14.2414 18.9977V30H20.7586V18.9977C20.2385 18.9622 19.8276 18.5291 19.8276 18V4Z" fill="currentColor"/>
<path d="M22.6206 30V18.9977C23.1408 18.9623 23.5517 18.5291 23.5517 18V4H29C30.1046 4 31 4.89543 31 6V28C31 29.1046 30.1046 30 29 30H22.6206Z" fill="currentColor"/>
<path d="M6 4H11.4483V18C11.4483 18.5291 11.8592 18.9622 12.3793 18.9977V30H6C4.89543 30 4 29.1046 4 28V6C4 4.89543 4.89543 4 6 4Z" fill="currentColor"/>
</svg>
