<svg viewBox="0 0 35 35" fill="none" xmlns="http://www.w3.org/2000/svg">
<path fill-rule="evenodd" clip-rule="evenodd" d="M10.5 10.5V8.75C10.5 5.85051 12.8505 3.5 15.75 3.5H19.25C22.1495 3.5 24.5 5.85051 24.5 8.75V10.5H28C29.933 10.5 31.5 12.067 31.5 14V20.2488C27.1419 21.8658 22.4261 22.7499 17.5 22.7499C12.574 22.7499 7.85814 21.8658 3.5 20.2488V14C3.5 12.067 5.067 10.5 7 10.5H10.5ZM14 8.75C14 7.7835 14.7835 7 15.75 7H19.25C20.2165 7 21 7.7835 21 8.75V10.5H14V8.75ZM15.75 17.5C15.75 16.5335 16.5335 15.75 17.5 15.75H17.5175C18.484 15.75 19.2675 16.5335 19.2675 17.5C19.2675 18.4665 18.484 19.25 17.5175 19.25H17.5C16.5335 19.25 15.75 18.4665 15.75 17.5Z" fill="currentColor"/>
<path d="M3.5 23.9615V28C3.5 29.933 5.067 31.5 7 31.5H28C29.933 31.5 31.5 29.933 31.5 28V23.9615C27.1026 25.4458 22.3937 26.2499 17.5 26.2499C12.6063 26.2499 7.89739 25.4458 3.5 23.9615Z" fill="currentColor"/>
</svg>
