<svg viewBox="0 0 35 35" fill="none" xmlns="http://www.w3.org/2000/svg">
<path d="M10.5 5.25C10.5 4.2835 11.2835 3.5 12.25 3.5H12.2675C13.234 3.5 14.0175 4.2835 14.0175 5.25C14.0175 6.2165 13.234 7 12.2675 7H12.25C11.2835 7 10.5 6.2165 10.5 5.25Z" fill="currentColor"/>
<path d="M14 10.5C14 9.5335 13.2165 8.75 12.25 8.75C11.2835 8.75 10.5 9.5335 10.5 10.5V12.25C8.567 12.25 7 13.817 7 15.75V17.5C5.067 17.5 3.5 19.067 3.5 21V22.1958C4.1452 22.3766 4.76873 22.6594 5.34573 23.044C6.34747 23.7119 7.65253 23.7119 8.65427 23.044C10.8317 21.5924 13.6683 21.5924 15.8457 23.044C16.8475 23.7119 18.1525 23.7119 19.1543 23.044C21.3317 21.5924 24.1683 21.5924 26.3457 23.044C27.3475 23.7119 28.6525 23.7119 29.6543 23.044C30.2313 22.6594 30.8548 22.3766 31.5 22.1958V21C31.5 19.067 29.933 17.5 28 17.5V15.75C28 13.817 26.433 12.25 24.5 12.25V10.5C24.5 9.5335 23.7165 8.75 22.75 8.75C21.7835 8.75 21 9.5335 21 10.5V12.25H19.25V10.5C19.25 9.5335 18.4665 8.75 17.5 8.75C16.5335 8.75 15.75 9.5335 15.75 10.5V12.25H14V10.5Z" fill="currentColor"/>
<path d="M31.5 26.0188C29.3357 27.4075 26.5499 27.3866 24.4043 25.9562C23.4025 25.2884 22.0975 25.2884 21.0957 25.9562C18.9183 27.4078 16.0817 27.4078 13.9043 25.9562C12.9025 25.2884 11.5975 25.2884 10.5957 25.9562C8.4501 27.3866 5.66431 27.4075 3.5 26.0188V29.75C3.5 30.7165 4.2835 31.5 5.25 31.5H29.75C30.7165 31.5 31.5 30.7165 31.5 29.75V26.0188Z" fill="currentColor"/>
<path d="M15.75 5.25C15.75 4.2835 16.5335 3.5 17.5 3.5H17.5175C18.484 3.5 19.2675 4.2835 19.2675 5.25C19.2675 6.2165 18.484 7 17.5175 7H17.5C16.5335 7 15.75 6.2165 15.75 5.25Z" fill="currentColor"/>
<path d="M21 5.25C21 4.2835 21.7835 3.5 22.75 3.5H22.7675C23.734 3.5 24.5175 4.2835 24.5175 5.25C24.5175 6.2165 23.734 7 22.7675 7H22.75C21.7835 7 21 6.2165 21 5.25Z" fill="currentColor"/>
</svg>
