<svg viewBox="0 0 35 35" fill="none" xmlns="http://www.w3.org/2000/svg">
<path fill-rule="evenodd" clip-rule="evenodd" d="M10.5 3.5C9.5335 3.5 8.75 4.2835 8.75 5.25V7H7C5.067 7 3.5 8.567 3.5 10.5V28C3.5 29.933 5.067 31.5 7 31.5H28C29.933 31.5 31.5 29.933 31.5 28V10.5C31.5 8.567 29.933 7 28 7H26.25V5.25C26.25 4.2835 25.4665 3.5 24.5 3.5C23.5335 3.5 22.75 4.2835 22.75 5.25V7H12.25V5.25C12.25 4.2835 11.4665 3.5 10.5 3.5ZM9.5 15C9.5 13.8954 10.5233 13 11.7857 13H14.0714C15.3338 13 16.3571 13.8954 16.3571 15V17C16.3571 18.1046 15.3338 19 14.0714 19H11.7857C10.5233 19 9.5 18.1046 9.5 17V15ZM9.5 23C9.5 21.8954 10.5233 21 11.7857 21H14.0714C15.3338 21 16.3571 21.8954 16.3571 23V25C16.3571 26.1046 15.3338 27 14.0714 27H11.7857C10.5233 27 9.5 26.1046 9.5 25V23ZM18.6429 15C18.6429 13.8954 19.6662 13 20.9286 13H23.2143C24.4767 13 25.5 13.8954 25.5 15V17C25.5 18.1046 24.4767 19 23.2143 19H20.9286C19.6662 19 18.6429 18.1046 18.6429 17V15ZM23.2143 22C23.2143 21.4477 22.7026 21 22.0714 21C21.4402 21 20.9286 21.4477 20.9286 22V23H19.7857C19.1545 23 18.6429 23.4477 18.6429 24C18.6429 24.5523 19.1545 25 19.7857 25H20.9286V26C20.9286 26.5523 21.4402 27 22.0714 27C22.7026 27 23.2143 26.5523 23.2143 26V25H24.3571C24.9883 25 25.5 24.5523 25.5 24C25.5 23.4477 24.9883 23 24.3571 23H23.2143V22Z" fill="currentColor"/>
</svg>
