<svg viewBox="0 0 35 35" fill="none" xmlns="http://www.w3.org/2000/svg">
<path fill-rule="evenodd" clip-rule="evenodd" d="M7 8.75C5.067 8.75 3.5 10.317 3.5 12.25V26.25C3.5 28.183 5.067 29.75 7 29.75H28C29.933 29.75 31.5 28.183 31.5 26.25V12.25C31.5 10.317 29.933 8.75 28 8.75H25.2249C24.7607 8.75 24.3156 8.56563 23.9874 8.23744L22.0251 6.27513C21.3687 5.61875 20.4785 5.25 19.5503 5.25H15.4497C14.5215 5.25 13.6313 5.61875 12.9749 6.27513L11.0126 8.23744C10.6844 8.56563 10.2393 8.75 9.77513 8.75H7ZM17.5 24.5C20.3995 24.5 22.75 22.1495 22.75 19.25C22.75 16.3505 20.3995 14 17.5 14C14.6005 14 12.25 16.3505 12.25 19.25C12.25 22.1495 14.6005 24.5 17.5 24.5Z" fill="currentColor"/>
</svg>
