<svg viewBox="0 0 35 35" fill="none" xmlns="http://www.w3.org/2000/svg">
<path fill-rule="evenodd" clip-rule="evenodd" d="M31.5 22.75V8.75C31.5 6.817 29.933 5.25 28 5.25H7C5.067 5.25 3.5 6.817 3.5 8.75V22.75C3.5 24.683 5.067 26.25 7 26.25H12.25L17.5 31.5L22.75 26.25H28C29.933 26.25 31.5 24.683 31.5 22.75ZM8.75 12.25C8.75 11.2835 9.5335 10.5 10.5 10.5H24.5C25.4665 10.5 26.25 11.2835 26.25 12.25C26.25 13.2165 25.4665 14 24.5 14H10.5C9.5335 14 8.75 13.2165 8.75 12.25ZM10.5 17.5C9.5335 17.5 8.75 18.2835 8.75 19.25C8.75 20.2165 9.5335 21 10.5 21H15.75C16.7165 21 17.5 20.2165 17.5 19.25C17.5 18.2835 16.7165 17.5 15.75 17.5H10.5Z" fill="currentColor"/>
</svg>
