<svg viewBox="0 0 35 35" fill="none" xmlns="http://www.w3.org/2000/svg">
<path d="M9.35588 4.56522H6.48148C5.42316 4.56522 4.56522 5.42316 4.56522 6.48148V28.5185C4.56522 29.5768 5.42316 30.4348 6.48148 30.4348H9.35588V25.4806C8.23947 25.086 7.43961 24.0213 7.43961 22.7697C7.43961 21.5182 8.23947 20.4535 9.35588 20.0589V4.56522Z" fill="currentColor"/>
<path d="M11.2721 30.4348V25.4806C12.3885 25.086 13.1884 24.0213 13.1884 22.7697C13.1884 21.5182 12.3885 20.4535 11.2721 20.0589V4.56522H14.1465V30.4348H11.2721Z" fill="currentColor"/>
<path d="M16.0628 4.56522H18.9372V20.0589C17.8208 20.4535 17.0209 21.5182 17.0209 22.7697C17.0209 24.0213 17.8208 25.086 18.9372 25.4806V30.4348H16.0628V4.56522Z" fill="currentColor"/>
<path d="M20.8535 25.4806V30.4348H23.7279V15.8992C22.6114 15.5046 21.8116 14.4399 21.8116 13.1884C21.8116 11.9369 22.6114 10.8722 23.7279 10.4776V4.56522H20.8535V20.0589C21.9699 20.4535 22.7697 21.5182 22.7697 22.7697C22.7697 24.0213 21.9699 25.086 20.8535 25.4806Z" fill="currentColor"/>
<path d="M25.6441 30.4348V15.8992C26.7605 15.5046 27.5604 14.4399 27.5604 13.1884C27.5604 11.9369 26.7605 10.8722 25.6441 10.4776V4.56522H28.5185C29.5768 4.56522 30.4348 5.42316 30.4348 6.48148V28.5185C30.4348 29.5768 29.5768 30.4348 28.5185 30.4348H25.6441Z" fill="currentColor"/>
</svg>
