<svg viewBox="0 0 35 35" fill="none" xmlns="http://www.w3.org/2000/svg">
<path d="M15.75 3.5C14.7835 3.5 14 4.2835 14 5.25C14 6.2165 14.7835 7 15.75 7H19.25C20.2165 7 21 6.2165 21 5.25C21 4.2835 20.2165 3.5 19.25 3.5H15.75Z" fill="currentColor"/>
<path fill-rule="evenodd" clip-rule="evenodd" d="M7 8.75C7 6.817 8.567 5.25 10.5 5.25C10.5 8.14949 12.8505 10.5 15.75 10.5H19.25C22.1495 10.5 24.5 8.14949 24.5 5.25C26.433 5.25 28 6.817 28 8.75V28C28 29.933 26.433 31.5 24.5 31.5H10.5C8.567 31.5 7 29.933 7 28V8.75ZM12.25 15.75C11.2835 15.75 10.5 16.5335 10.5 17.5C10.5 18.4665 11.2835 19.25 12.25 19.25H12.2675C13.234 19.25 14.0175 18.4665 14.0175 17.5C14.0175 16.5335 13.234 15.75 12.2675 15.75H12.25ZM17.5 15.75C16.5335 15.75 15.75 16.5335 15.75 17.5C15.75 18.4665 16.5335 19.25 17.5 19.25H22.75C23.7165 19.25 24.5 18.4665 24.5 17.5C24.5 16.5335 23.7165 15.75 22.75 15.75H17.5ZM12.25 22.75C11.2835 22.75 10.5 23.5335 10.5 24.5C10.5 25.4665 11.2835 26.25 12.25 26.25H12.2675C13.234 26.25 14.0175 25.4665 14.0175 24.5C14.0175 23.5335 13.234 22.75 12.2675 22.75H12.25ZM17.5 22.75C16.5335 22.75 15.75 23.5335 15.75 24.5C15.75 25.4665 16.5335 26.25 17.5 26.25H22.75C23.7165 26.25 24.5 25.4665 24.5 24.5C24.5 23.5335 23.7165 22.75 22.75 22.75H17.5Z" fill="currentColor"/>
</svg>
