<svg viewBox="0 0 35 35" fill="none" xmlns="http://www.w3.org/2000/svg">
<path fill-rule="evenodd" clip-rule="evenodd" d="M1 6.38889C1 5.62188 1.61561 5 2.375 5H32.625C33.3844 5 34 5.62188 34 6.38889V28.6111C34 29.3782 33.3844 30 32.625 30H2.375C1.61561 30 1 29.3782 1 28.6111V6.38889ZM15.71 14.7742C15.7907 14.7149 15.8714 14.6334 15.952 14.5297L16.667 13.5297C16.161 13.0186 15.589 12.626 14.951 12.3519C14.3204 12.0779 13.5834 11.9408 12.74 11.9408C11.8527 11.9408 11.068 12.089 10.386 12.3853C9.70402 12.6816 9.13202 13.0927 8.67002 13.6186C8.20802 14.1371 7.85602 14.7556 7.61402 15.4742C7.37936 16.1853 7.26202 16.9593 7.26202 17.7964C7.26202 18.7297 7.39402 19.5631 7.65802 20.2964C7.92936 21.0223 8.29602 21.6371 8.75802 22.1408C9.22002 22.6445 9.75902 23.0297 10.375 23.2964C10.991 23.5556 11.6474 23.6853 12.344 23.6853C12.74 23.6853 13.136 23.6556 13.532 23.5964C13.9354 23.5371 14.324 23.4371 14.698 23.2964C15.0794 23.1482 15.446 22.9556 15.798 22.7186C16.15 22.4742 16.4764 22.1742 16.777 21.8186L15.996 20.8186C15.886 20.6482 15.721 20.563 15.501 20.563C15.3324 20.563 15.1784 20.6186 15.039 20.7297C14.907 20.8334 14.7494 20.9519 14.566 21.0853C14.3827 21.2112 14.1554 21.3297 13.884 21.4408C13.62 21.5445 13.2717 21.5964 12.839 21.5964C12.4064 21.5964 12.0177 21.5149 11.673 21.3519C11.3284 21.1816 11.035 20.9371 10.793 20.6186C10.551 20.2927 10.364 19.8927 10.232 19.4186C10.1074 18.9445 10.045 18.4038 10.045 17.7964C10.045 17.2112 10.1037 16.689 10.221 16.2297C10.3384 15.7631 10.5144 15.3668 10.749 15.0408C10.991 14.7149 11.2917 14.4668 11.651 14.2964C12.0104 14.1186 12.4284 14.0297 12.905 14.0297C13.279 14.0297 13.5907 14.0742 13.84 14.163C14.0967 14.2445 14.3167 14.3408 14.5 14.4519C14.6834 14.5556 14.841 14.6519 14.973 14.7408C15.105 14.8223 15.2407 14.863 15.38 14.863C15.5267 14.863 15.6367 14.8334 15.71 14.7742ZM27.0466 14.7742C27.1273 14.7149 27.2079 14.6334 27.2886 14.5297L28.0036 13.5297C27.4976 13.0186 26.9256 12.626 26.2876 12.3519C25.6569 12.0779 24.9199 11.9408 24.0766 11.9408C23.1893 11.9408 22.4046 12.089 21.7226 12.3853C21.0406 12.6816 20.4686 13.0927 20.0066 13.6186C19.5446 14.1371 19.1926 14.7556 18.9506 15.4742C18.7159 16.1853 18.5986 16.9593 18.5986 17.7964C18.5986 18.7297 18.7306 19.5631 18.9946 20.2964C19.2659 21.0223 19.6326 21.6371 20.0946 22.1408C20.5566 22.6445 21.0956 23.0297 21.7116 23.2964C22.3276 23.5556 22.9839 23.6853 23.6806 23.6853C24.0766 23.6853 24.4726 23.6556 24.8686 23.5964C25.2719 23.5371 25.6606 23.4371 26.0346 23.2964C26.4159 23.1482 26.7826 22.9556 27.1346 22.7186C27.4866 22.4742 27.8129 22.1742 28.1136 21.8186L27.3326 20.8186C27.2226 20.6482 27.0576 20.563 26.8376 20.563C26.6689 20.563 26.5149 20.6186 26.3756 20.7297C26.2436 20.8334 26.0859 20.9519 25.9026 21.0853C25.7193 21.2112 25.4919 21.3297 25.2206 21.4408C24.9566 21.5445 24.6083 21.5964 24.1756 21.5964C23.7429 21.5964 23.3543 21.5149 23.0096 21.3519C22.6649 21.1816 22.3716 20.9371 22.1296 20.6186C21.8876 20.2927 21.7006 19.8927 21.5686 19.4186C21.4439 18.9445 21.3816 18.4038 21.3816 17.7964C21.3816 17.2112 21.4403 16.689 21.5576 16.2297C21.6749 15.7631 21.8509 15.3668 22.0856 15.0408C22.3276 14.7149 22.6283 14.4668 22.9876 14.2964C23.3469 14.1186 23.7649 14.0297 24.2416 14.0297C24.6156 14.0297 24.9273 14.0742 25.1766 14.163C25.4333 14.2445 25.6533 14.3408 25.8366 14.4519C26.0199 14.5556 26.1776 14.6519 26.3096 14.7408C26.4416 14.8223 26.5773 14.863 26.7166 14.863C26.8633 14.863 26.9733 14.8334 27.0466 14.7742Z" fill="currentColor"/>
</svg>
