<svg viewBox="0 0 35 35" fill="none" xmlns="http://www.w3.org/2000/svg">
<path fill-rule="evenodd" clip-rule="evenodd" d="M7.51256 7.51256C8.19598 6.82915 9.30402 6.82915 9.98744 7.51256L17.5 15.0251L25.0126 7.51256C25.696 6.82915 26.804 6.82915 27.4874 7.51256C28.1709 8.19598 28.1709 9.30402 27.4874 9.98744L19.9749 17.5L27.4874 25.0126C28.1709 25.696 28.1709 26.804 27.4874 27.4874C26.804 28.1709 25.696 28.1709 25.0126 27.4874L17.5 19.9749L9.98744 27.4874C9.30402 28.1709 8.19598 28.1709 7.51256 27.4874C6.82915 26.804 6.82915 25.696 7.51256 25.0126L15.0251 17.5L7.51256 9.98744C6.82915 9.30402 6.82915 8.19598 7.51256 7.51256Z" fill="currentColor"/>
</svg>
