<svg viewBox="0 0 35 35" fill="none" xmlns="http://www.w3.org/2000/svg">
<path fill-rule="evenodd" clip-rule="evenodd" d="M17.5 31.5C25.232 31.5 31.5 25.232 31.5 17.5C31.5 9.76801 25.232 3.5 17.5 3.5C9.76801 3.5 3.5 9.76801 3.5 17.5C3.5 25.232 9.76801 31.5 17.5 31.5ZM15.2374 12.7626C14.554 12.0791 13.446 12.0791 12.7626 12.7626C12.0791 13.446 12.0791 14.554 12.7626 15.2374L15.0251 17.5L12.7626 19.7626C12.0791 20.446 12.0791 21.554 12.7626 22.2374C13.446 22.9209 14.554 22.9209 15.2374 22.2374L17.5 19.9749L19.7626 22.2374C20.446 22.9209 21.554 22.9209 22.2374 22.2374C22.9209 21.554 22.9209 20.446 22.2374 19.7626L19.9749 17.5L22.2374 15.2374C22.9209 14.554 22.9209 13.446 22.2374 12.7626C21.554 12.0791 20.446 12.0791 19.7626 12.7626L17.5 15.0251L15.2374 12.7626Z" fill="currentColor"/>
</svg>
