<svg viewBox="0 0 35 35" fill="none" xmlns="http://www.w3.org/2000/svg">
<path d="M30.8275 6.46091C30.5088 6.13992 29.8713 6.13992 29.5526 6.46091L26.684 9.34979C26.3652 9.67078 26.3652 10.3128 26.684 10.6337C26.7902 10.8477 27.1089 10.8477 27.3214 10.8477C27.5339 10.8477 27.8526 10.7407 27.9589 10.6337L30.8275 7.74486C31.1462 7.42387 31.1462 6.78189 30.8275 6.46091ZM23.2841 4C22.7529 4 22.3279 4.42798 22.3279 4.96296V9.1358C22.3279 9.67078 22.7529 10.0988 23.2841 10.0988C23.8154 9.99177 24.1341 9.56379 24.1341 9.02881V4.96296C24.1341 4.42798 23.8154 4 23.2841 4ZM32.6337 13.0947C32.5274 13.0947 32.5274 13.0947 32.4212 13.0947H28.2776C27.7464 13.2016 27.3214 13.5226 27.3214 14.0576C27.3214 14.5926 27.7464 15.0206 28.2776 15.0206H32.4212C32.9524 15.1276 33.3774 14.6996 33.4836 14.1646C33.5899 13.6296 33.1649 13.2016 32.6337 13.0947ZM32.2087 25.9342V21.6543C32.2087 21.5473 32.2087 21.5473 32.2087 21.4403C32.2087 21.3333 32.2087 21.3333 32.1024 21.3333L31.9962 21.1193V21.0123L21.3717 11.0617L21.2655 10.9547C19.9906 9.77778 18.3969 9.2428 16.8032 9.2428C15.9533 9.2428 14.9971 9.45679 14.2533 9.77778L10.4285 11.1687C10.1098 9.45679 8.30365 8.27984 6.60374 8.60082C4.79758 8.92181 3.62889 10.7407 3.94763 12.4527C4.05387 12.9877 4.26636 13.4156 4.47885 13.7366C2.56645 15.1276 1.504 17.3745 1.504 19.7284C1.39776 22.8313 3.4164 25.6132 6.39125 26.6831H6.4975C6.81623 26.7901 17.9719 29.037 22.7529 30H23.2841L31.6775 26.7901C31.9962 26.6831 32.3149 26.2551 32.2087 25.9342ZM6.17876 12.8807C5.86003 12.5597 5.75378 12.2387 5.75378 11.8107C5.75378 10.9547 6.39125 10.3128 7.24121 10.3128C7.98492 10.3128 8.62239 10.9547 8.62239 11.8107L6.17876 12.8807ZM21.7967 16.6255L18.6094 17.9095C18.5031 18.0165 18.3969 18.0165 18.2906 18.0165C17.9719 18.0165 17.5469 17.6955 17.4407 17.3745C17.2282 16.9465 17.5469 16.4115 17.9719 16.1975L21.053 14.9136C21.5842 14.8066 22.0092 15.0206 22.2217 15.4486C22.4342 15.8765 22.2217 16.4115 21.7967 16.6255ZM30.2963 25.1852L23.8154 27.7531V25.5062L30.2963 22.9383V25.1852Z" fill="currentColor"/>
</svg>
