<svg viewBox="0 0 35 35" fill="none" xmlns="http://www.w3.org/2000/svg">
<path fill-rule="evenodd" clip-rule="evenodd" d="M30.9038 21.0069C31.4506 19.6587 31.75 18.1985 31.75 16.6667C31.75 9.56359 25.3121 4 17.625 4C9.93797 4 3.50002 9.56359 3.50002 16.6667C3.50002 18.9966 4.20161 21.1755 5.41599 23.0427L3.56369 27.9822C3.4362 28.3222 3.503 28.7045 3.73822 28.9811C3.97343 29.2577 4.34009 29.3851 4.69613 29.3139L11.2951 27.9941C13.2027 28.8524 15.3538 29.3333 17.625 29.3333C19.6222 29.3333 21.5351 28.9578 23.2727 28.2772C24.0765 28.7371 25.0075 29 26 29C29.0376 29 31.5 26.5376 31.5 23.5C31.5 22.6025 31.2851 21.7553 30.9038 21.0069ZM22.5 23.5C22.5 21.567 24.067 20 26 20C27.933 20 29.5 21.567 29.5 23.5C29.5 25.433 27.933 27 26 27C24.067 27 22.5 25.433 22.5 23.5Z" fill="currentColor"/>
</svg>
