<svg viewBox="0 0 35 35" fill="none" xmlns="http://www.w3.org/2000/svg">
<path fill-rule="evenodd" clip-rule="evenodd" d="M3.79069 8.74809C9.05515 8.67666 13.8517 6.66808 17.5 3.4028C21.1483 6.66808 25.9448 8.67666 31.2093 8.74809C31.4005 9.88694 31.5 11.0569 31.5 12.2501C31.5 21.3936 25.6563 29.1722 17.5 32.055C9.34366 29.1722 3.5 21.3936 3.5 12.2501C3.5 11.0569 3.59951 9.88694 3.79069 8.74809ZM23.9874 15.2374C24.6709 14.554 24.6709 13.446 23.9874 12.7626C23.304 12.0791 22.196 12.0791 21.5126 12.7626L15.75 18.5251L13.4874 16.2626C12.804 15.5791 11.696 15.5791 11.0126 16.2626C10.3291 16.946 10.3291 18.054 11.0126 18.7374L14.5126 22.2374C15.196 22.9209 16.304 22.9209 16.9874 22.2374L23.9874 15.2374Z" fill="currentColor"/>
</svg>
