<svg viewBox="0 0 35 35" fill="none" xmlns="http://www.w3.org/2000/svg">
<path d="M28.2843 11.8627C29.2319 11.8627 30 12.6309 30 13.5784C30 14.526 29.2319 15.2941 28.2843 15.2941L21.4216 15.2941C20.474 15.2941 19.7059 14.526 19.7059 13.5784L19.7059 6.71569C19.7059 5.76814 20.474 5 21.4216 5C22.3691 5 23.1373 5.76814 23.1373 6.71569V11.8627L28.2843 11.8627Z" fill="currentColor"/>
<path d="M6.71569 23.1372C5.76814 23.1372 5 22.3691 5 21.4215C5 20.474 5.76814 19.7059 6.71569 19.7059H13.5784C14.526 19.7059 15.2941 20.474 15.2941 21.4215V28.2843C15.2941 29.2318 14.526 30 13.5784 30C12.6309 30 11.8627 29.2318 11.8627 28.2843V23.1372H6.71569Z" fill="currentColor"/>
<path d="M23.1373 28.2843C23.1373 29.2318 22.3691 30 21.4216 30C20.474 30 19.7059 29.2318 19.7059 28.2843V21.4215C19.7059 20.474 20.474 19.7059 21.4216 19.7059H28.2843C29.2319 19.7059 30 20.474 30 21.4215C30 22.3691 29.2319 23.1372 28.2843 23.1372H23.1373V28.2843Z" fill="currentColor"/>
<path d="M11.8627 6.71569C11.8627 5.76814 12.6309 5 13.5784 5C14.526 5 15.2941 5.76814 15.2941 6.71569V13.5784C15.2941 14.526 14.526 15.2941 13.5784 15.2941H6.71569C5.76814 15.2941 5 14.526 5 13.5784C5 12.6309 5.76814 11.8627 6.71569 11.8627L11.8627 11.8627L11.8627 6.71569Z" fill="currentColor"/>
</svg>
