<svg viewBox="0 0 35 35" fill="none" xmlns="http://www.w3.org/2000/svg">
<path d="M8.75 7C8.75 6.0335 7.9665 5.25 7 5.25C6.0335 5.25 5.25 6.0335 5.25 7V19.7182C4.20385 20.3234 3.5 21.4545 3.5 22.75C3.5 24.0455 4.20385 25.1766 5.25 25.7818V28C5.25 28.9665 6.0335 29.75 7 29.75C7.9665 29.75 8.75 28.9665 8.75 28V25.7818C9.79615 25.1766 10.5 24.0455 10.5 22.75C10.5 21.4545 9.79615 20.3234 8.75 19.7182V7Z" fill="currentColor"/>
<path d="M19.25 7C19.25 6.0335 18.4665 5.25 17.5 5.25C16.5335 5.25 15.75 6.0335 15.75 7V9.21824C14.7038 9.8234 14 10.9545 14 12.25C14 13.5455 14.7038 14.6766 15.75 15.2818V28C15.75 28.9665 16.5335 29.75 17.5 29.75C18.4665 29.75 19.25 28.9665 19.25 28V15.2818C20.2962 14.6766 21 13.5455 21 12.25C21 10.9545 20.2962 9.8234 19.25 9.21824V7Z" fill="currentColor"/>
<path d="M28 5.25C28.9665 5.25 29.75 6.0335 29.75 7V19.7182C30.7962 20.3234 31.5 21.4545 31.5 22.75C31.5 24.0455 30.7962 25.1766 29.75 25.7818V28C29.75 28.9665 28.9665 29.75 28 29.75C27.0335 29.75 26.25 28.9665 26.25 28V25.7818C25.2038 25.1766 24.5 24.0455 24.5 22.75C24.5 21.4545 25.2038 20.3234 26.25 19.7182V7C26.25 6.0335 27.0335 5.25 28 5.25Z" fill="currentColor"/>
</svg>
