<svg viewBox="0 0 35 35" fill="none" xmlns="http://www.w3.org/2000/svg">
<path d="M14 3.5C13.0335 3.5 12.25 4.2835 12.25 5.25C12.25 6.2165 13.0335 7 14 7H17.5C18.4665 7 19.25 6.2165 19.25 5.25C19.25 4.2835 18.4665 3.5 17.5 3.5H14Z" fill="currentColor"/>
<path d="M5.25 8.75C5.25 6.817 6.817 5.25 8.75 5.25C8.75 8.14949 11.1005 10.5 14 10.5H17.5C20.3995 10.5 22.75 8.14949 22.75 5.25C24.683 5.25 26.25 6.817 26.25 8.75V19.25H18.2249L20.4874 16.9874C21.1709 16.304 21.1709 15.196 20.4874 14.5126C19.804 13.8291 18.696 13.8291 18.0126 14.5126L12.7626 19.7626C12.0791 20.446 12.0791 21.554 12.7626 22.2374L18.0126 27.4874C18.696 28.1709 19.804 28.1709 20.4874 27.4874C21.1709 26.804 21.1709 25.696 20.4874 25.0126L18.2249 22.75H26.25V28C26.25 29.933 24.683 31.5 22.75 31.5H8.75C6.817 31.5 5.25 29.933 5.25 28V8.75Z" fill="currentColor"/>
<path d="M26.25 19.25H29.75C30.7165 19.25 31.5 20.0335 31.5 21C31.5 21.9665 30.7165 22.75 29.75 22.75H26.25V19.25Z" fill="currentColor"/>
</svg>
