<svg viewBox="0 0 35 35" fill="none" xmlns="http://www.w3.org/2000/svg">
<path d="M18.1894 3.6415C17.7491 3.45283 17.2509 3.45283 16.8106 3.6415L4.56064 8.8915C3.91719 9.16726 3.5 9.79995 3.5 10.5C3.5 11.2 3.91719 11.8327 4.56064 12.1085L9.18815 14.0917C9.35643 13.9011 9.56736 13.7458 9.81064 13.6415L16.8106 10.6415C17.699 10.2608 18.7278 10.6723 19.1085 11.5607C19.4892 12.449 19.0777 13.4778 18.1894 13.8585L13.4167 15.904L16.8106 17.3585C17.2509 17.5472 17.7491 17.5472 18.1894 17.3585L30.4394 12.1085C31.0828 11.8327 31.5 11.2 31.5 10.5C31.5 9.79995 31.0828 9.16726 30.4394 8.8915L18.1894 3.6415Z" fill="currentColor"/>
<path d="M5.79258 16.4443L8.75 17.7117V24.8896C8.15015 24.7536 7.53734 24.6518 6.91374 24.5864C6.09164 24.5002 5.44197 23.8505 5.35577 23.0284C5.28581 22.3612 5.25 21.6843 5.25 20.9997C5.25 19.4308 5.43797 17.9051 5.79258 16.4443Z" fill="currentColor"/>
<path d="M16.2749 29.0019C15.0974 27.8475 13.7404 26.8772 12.25 26.1364V19.2117L15.4319 20.5754C16.7526 21.1414 18.2474 21.1414 19.5681 20.5754L29.2074 16.4443C29.562 17.9051 29.75 19.4308 29.75 20.9997C29.75 21.6843 29.7142 22.3612 29.6442 23.0284C29.558 23.8505 28.9084 24.5002 28.0863 24.5864C24.4588 24.9667 21.1967 26.5789 18.7251 29.0019C18.0446 29.669 16.9554 29.669 16.2749 29.0019Z" fill="currentColor"/>
<path d="M10.5 31.5C11.4665 31.5 12.25 30.7164 12.25 29.75V26.1364C11.1499 25.5897 9.97705 25.1679 8.75 24.8896V29.75C8.75 30.7164 9.5335 31.5 10.5 31.5Z" fill="currentColor"/>
</svg>
