<svg viewBox="0 0 35 35" fill="none" xmlns="http://www.w3.org/2000/svg">
<path fill-rule="evenodd" clip-rule="evenodd" d="M3.5 8.45455C3.5 5.99437 5.49437 4 7.95455 4C9.97247 4 11.677 5.34178 12.2246 7.18182H22.7754C23.323 5.34178 25.0275 4 27.0455 4C29.5056 4 31.5 5.99437 31.5 8.45455C31.5 10.4725 30.1582 12.177 28.3182 12.7246V23.2754C30.1582 23.823 31.5 25.5275 31.5 27.5455C31.5 30.0056 29.5056 32 27.0455 32C25.0275 32 23.323 30.6582 22.7754 28.8182H12.2246C11.677 30.6582 9.97247 32 7.95455 32C5.49437 32 3.5 30.0056 3.5 27.5455C3.5 25.5275 4.84178 23.823 6.68182 23.2754V12.7246C4.84178 12.177 3.5 10.4725 3.5 8.45455ZM9.22727 12.7246V23.2754C10.664 23.703 11.797 24.836 12.2246 26.2727H22.7754C23.203 24.836 24.336 23.703 25.7727 23.2754V12.7246C24.336 12.297 23.203 11.164 22.7754 9.72727H12.2246C11.797 11.164 10.664 12.297 9.22727 12.7246Z" fill="currentColor"/>
</svg>
