<svg viewBox="0 0 35 35" fill="none" xmlns="http://www.w3.org/2000/svg">
<path fill-rule="evenodd" clip-rule="evenodd" d="M24.6395 24.4087C24.1589 24.8894 23.3796 24.8894 22.8989 24.4087L16.7451 18.2549C16.2645 17.7743 16.2645 16.995 16.7451 16.5143L22.8989 10.3605C23.3796 9.87984 24.1589 9.87984 24.6395 10.3605C25.1202 10.8411 25.1202 11.6204 24.6395 12.1011L19.356 17.3846L24.6395 22.6682C25.1202 23.1488 25.1202 23.9281 24.6395 24.4087ZM17.2549 24.4087C16.7743 24.8894 15.995 24.8894 15.5143 24.4087L9.36048 18.2549C8.87984 17.7743 8.87984 16.995 9.36048 16.5143L15.5143 10.3605C15.995 9.87984 16.7743 9.87984 17.2549 10.3605C17.7355 10.8411 17.7355 11.6204 17.2549 12.1011L11.9713 17.3846L17.2549 22.6682C17.7355 23.1488 17.7355 23.9281 17.2549 24.4087Z" fill="currentColor"/>
</svg>
