<svg viewBox="0 0 35 35" fill="none" xmlns="http://www.w3.org/2000/svg">
<path fill-rule="evenodd" clip-rule="evenodd" d="M9.39052 24.9428C8.86983 24.4221 8.86983 23.5779 9.39052 23.0572L16.0572 16.3905C16.5779 15.8698 17.4221 15.8698 17.9428 16.3905L24.6095 23.0572C25.1302 23.5779 25.1302 24.4221 24.6095 24.9428C24.0888 25.4635 23.2446 25.4635 22.7239 24.9428L17 19.219L11.2761 24.9428C10.7554 25.4635 9.91122 25.4635 9.39052 24.9428ZM9.39052 16.9428C8.86983 16.4221 8.86983 15.5779 9.39052 15.0572L16.0572 8.39052C16.5779 7.86983 17.4221 7.86983 17.9428 8.39052L24.6095 15.0572C25.1302 15.5779 25.1302 16.4221 24.6095 16.9428C24.0888 17.4635 23.2446 17.4635 22.7239 16.9428L17 11.219L11.2761 16.9428C10.7554 17.4635 9.91122 17.4635 9.39052 16.9428Z" fill="currentColor"/>
</svg>
