<svg viewBox="0 0 35 35" fill="none" xmlns="http://www.w3.org/2000/svg">
<path fill-rule="evenodd" clip-rule="evenodd" d="M24.6095 8.39052C25.1302 8.91122 25.1302 9.75544 24.6095 10.2761L17.9428 16.9428C17.4221 17.4635 16.5779 17.4635 16.0572 16.9428L9.39053 10.2761C8.86983 9.75544 8.86983 8.91122 9.39053 8.39052C9.91122 7.86983 10.7554 7.86983 11.2761 8.39052L17 14.1144L22.7239 8.39052C23.2446 7.86983 24.0888 7.86983 24.6095 8.39052ZM24.6095 16.3905C25.1302 16.9112 25.1302 17.7554 24.6095 18.2761L17.9428 24.9428C17.4221 25.4635 16.5779 25.4635 16.0572 24.9428L9.39052 18.2761C8.86983 17.7554 8.86983 16.9112 9.39052 16.3905C9.91122 15.8698 10.7554 15.8698 11.2761 16.3905L17 22.1144L22.7239 16.3905C23.2446 15.8698 24.0888 15.8698 24.6095 16.3905Z" fill="currentColor"/>
</svg>
