<svg viewBox="0 0 35 35" fill="none" xmlns="http://www.w3.org/2000/svg">
<path fill-rule="evenodd" clip-rule="evenodd" d="M16.7451 24.4087C16.2645 23.9281 16.2645 23.1488 16.7451 22.6682L22.0287 17.3846L16.7451 12.1011C16.2645 11.6204 16.2645 10.8411 16.7451 10.3605C17.2257 9.87984 18.005 9.87984 18.4857 10.3605L24.6395 16.5143C25.1202 16.995 25.1202 17.7743 24.6395 18.2549L18.4857 24.4087C18.005 24.8894 17.2257 24.8894 16.7451 24.4087Z" fill="currentColor"/>
<path fill-rule="evenodd" clip-rule="evenodd" d="M9.36048 24.4087C8.87984 23.9281 8.87984 23.1488 9.36048 22.6682L14.644 17.3846L9.36048 12.1011C8.87984 11.6204 8.87984 10.8411 9.36048 10.3605C9.84113 9.87984 10.6204 9.87984 11.1011 10.3605L17.2549 16.5143C17.7355 16.995 17.7355 17.7743 17.2549 18.2549L11.1011 24.4087C10.6204 24.8894 9.84113 24.8894 9.36048 24.4087Z" fill="currentColor"/>
</svg>
