<svg viewBox="0 0 35 35" fill="none" xmlns="http://www.w3.org/2000/svg">
<path fill-rule="evenodd" clip-rule="evenodd" d="M5.25 29.75C5.25 28.7835 6.0335 28 7 28H28C28.9665 28 29.75 28.7835 29.75 29.75C29.75 30.7165 28.9665 31.5 28 31.5H7C6.0335 31.5 5.25 30.7165 5.25 29.75ZM11.0126 16.2626C11.696 15.5791 12.804 15.5791 13.4874 16.2626L15.75 18.5251L15.75 5.25C15.75 4.2835 16.5335 3.5 17.5 3.5C18.4665 3.5 19.25 4.2835 19.25 5.25L19.25 18.5251L21.5126 16.2626C22.196 15.5791 23.304 15.5791 23.9874 16.2626C24.6709 16.946 24.6709 18.054 23.9874 18.7374L18.7374 23.9874C18.4092 24.3156 17.9641 24.5 17.5 24.5C17.0359 24.5 16.5908 24.3156 16.2626 23.9874L11.0126 18.7374C10.3291 18.054 10.3291 16.946 11.0126 16.2626Z" fill="currentColor"/>
</svg>
