<svg viewBox="0 0 35 35" fill="none" xmlns="http://www.w3.org/2000/svg">
<path fill-rule="evenodd" clip-rule="evenodd" d="M10.5 3.5C8.567 3.5 7 5.06701 7 7V28C7 29.933 8.567 31.5 10.5 31.5H24.5C26.433 31.5 28 29.933 28 28V12.9749C28 12.0466 27.6313 11.1564 26.9749 10.5L21 4.52513C20.3436 3.86875 19.4534 3.5 18.5251 3.5H10.5ZM19.25 14C19.25 13.0335 18.4665 12.25 17.5 12.25C16.5335 12.25 15.75 13.0335 15.75 14V20.2751L13.4874 18.0126C12.804 17.3291 11.696 17.3291 11.0126 18.0126C10.3291 18.696 10.3291 19.804 11.0126 20.4874L16.2626 25.7374C16.946 26.4209 18.054 26.4209 18.7374 25.7374L23.9874 20.4874C24.6709 19.804 24.6709 18.696 23.9874 18.0126C23.304 17.3291 22.196 17.3291 21.5126 18.0126L19.25 20.2751V14Z" fill="currentColor"/>
</svg>
