<svg viewBox="0 0 35 35" fill="none" xmlns="http://www.w3.org/2000/svg">
<path d="M29.0432 8.8927C30.6762 8.8927 32 7.56891 32 5.93592C32 4.30294 30.6762 2.97914 29.0432 2.97914C27.4102 2.97914 26.0864 4.30294 26.0864 5.93592C26.0864 6.32268 26.1607 6.69209 26.2957 7.03068C26.2594 7.0603 26.2242 7.09204 26.1904 7.1259L3.40665 29.9096C2.86445 30.4518 2.86445 31.3309 3.40665 31.8731C3.94885 32.4153 4.82794 32.4153 5.37014 31.8731L28.1538 9.08939C28.238 9.00522 28.3091 8.91294 28.3671 8.81506C28.5843 8.86584 28.8106 8.8927 29.0432 8.8927Z" fill="currentColor"/>
<path d="M5.95681 8.89262C4.32383 8.89262 3.00003 7.56883 3.00003 5.93584C3.00003 4.30286 4.32383 2.97906 5.95681 2.97906C7.5898 2.97906 8.91359 4.30286 8.91359 5.93584C8.91359 6.3226 8.83934 6.69201 8.70431 7.0306C8.74063 7.06023 8.77579 7.09196 8.80965 7.12582L31.5933 29.9095C32.1355 30.4517 32.1355 31.3308 31.5933 31.873C31.0511 32.4152 30.1721 32.4152 29.6299 31.873L6.84616 9.08931C6.762 9.00514 6.6909 8.91286 6.63287 8.81498C6.41574 8.86577 6.18942 8.89262 5.95681 8.89262Z" fill="currentColor"/>
</svg>
