<svg viewBox="0 0 35 35" fill="none" xmlns="http://www.w3.org/2000/svg">
<path d="M17.8775 17.6274C17.1573 17.6274 16.4828 17.9602 15.8541 18.6246C15.2252 19.2901 14.9107 20.1904 14.9107 21.3244C14.9107 22.2307 15.1877 23.0048 15.7423 23.6467C16.297 24.2886 16.9685 24.6096 17.7575 24.6096C18.6949 24.6096 19.4785 24.2627 20.1071 23.57C20.736 22.8761 21.0502 22.0135 21.0502 20.981C21.0502 20.0866 20.7442 19.3042 20.1328 18.6328C19.5211 17.9626 18.7692 17.6274 17.8775 17.6274Z" fill="currentColor"/>
<path fill-rule="evenodd" clip-rule="evenodd" d="M5.41667 3C4.082 3 3 4.08207 3 5.41667V29.5833C3 30.9179 4.082 32 5.41667 32H29.5833C30.918 32 32 30.9179 32 29.5833V5.41667C32 4.08207 30.918 3 29.5833 3H5.41667ZM24.75 28.1496V6.625H20.5466V16.1371C19.8741 15.3748 19.2182 14.8237 18.5783 14.4851C17.9384 14.1464 17.1523 13.9765 16.2196 13.9765C14.5821 13.9765 13.1776 14.6845 12.0065 16.097C10.8355 17.5106 10.25 19.2169 10.25 21.2159C10.25 23.216 10.8163 24.9081 11.9496 26.2946C13.0831 27.6812 14.452 28.375 16.0571 28.375C17.8575 28.375 19.3647 27.5101 20.5792 25.779H20.6445V28.1496H24.75Z" fill="currentColor"/>
</svg>
