<svg viewBox="0 0 35 35" fill="none" xmlns="http://www.w3.org/2000/svg">
<g clip-path="url(#clip0_1_88)">
<mask id="path-1-inside-1_1_88" fill="white">
<path d="M27.6609 20.6419C27.6635 18.9362 27.2201 17.2584 26.3731 15.7688C25.5262 14.2793 24.304 13.028 22.8234 12.1344C21.3428 11.2408 19.6533 10.7349 17.9166 10.6651C16.1799 10.5952 14.4539 10.9638 12.9038 11.7355C11.3537 12.5072 10.0312 13.6563 9.06291 15.0728C8.09461 16.4894 7.51284 18.126 7.37322 19.8261C7.2336 21.5263 7.54081 23.2332 8.26548 24.7836C8.99014 26.334 10.108 27.6761 11.5122 28.6814L9.16987 31.3629L10.0266 32.0833L12.4644 29.2929C13.9959 30.1592 15.7326 30.6152 17.5003 30.6152C19.268 30.6152 21.0047 30.1592 22.5362 29.2929L24.9741 32.0833L25.8307 31.3629L23.4884 28.6814C24.7801 27.7586 25.8312 26.5494 26.5562 25.1523C27.2812 23.7552 27.6601 22.2097 27.6609 20.6419Z"/>
<path d="M17.5006 12.8872C15.6699 12.885 13.895 13.506 12.4785 14.6442C11.0621 15.7825 10.0918 17.3675 9.73298 19.1292C9.37418 20.8909 9.64911 22.7202 10.5109 24.3052C11.3727 25.8903 12.768 27.133 14.459 27.8215C16.15 28.51 18.032 28.6017 19.7842 28.081C21.5363 27.5603 23.0502 26.4593 24.0678 24.9659C25.0854 23.4724 25.5437 21.6788 25.3645 19.8909C25.1853 18.103 24.3798 16.4314 23.0852 15.1611C21.6043 13.7069 19.5957 12.8891 17.5006 12.8872ZM17.5006 27.2887C15.9316 27.2903 14.4105 26.7579 13.1968 25.7821C11.983 24.8064 11.1516 23.4478 10.8443 21.9379C10.5371 20.428 10.773 18.8603 11.5118 17.5019C12.2506 16.1436 13.4465 15.0787 14.8959 14.4888C16.3452 13.8989 17.9582 13.8205 19.4598 14.267C20.9614 14.7134 22.2588 15.6571 23.1308 16.9372C24.0028 18.2172 24.3954 19.7544 24.2417 21.2867C24.088 22.819 23.3975 24.2516 22.2879 25.3403C21.0185 26.5868 19.2965 27.2877 17.5006 27.2887Z"/>
<path d="M33.3055 19.636V6.56639C33.3616 6.51131 33.4184 6.4613 33.4745 6.4075C34.5241 5.37755 35.4827 3.91461 34.7324 3.17902C33.9822 2.44344 32.492 3.38286 31.4424 4.41407C30.3929 5.44529 29.4349 6.90696 30.1845 7.64255C30.2734 7.72898 30.3793 7.79678 30.4958 7.84183C30.6122 7.88688 30.7368 7.90824 30.8619 7.90462C31.3345 7.86771 31.7885 7.70727 32.1766 7.43997V19.5309H29.9187V13.2132C29.9749 13.1582 30.0316 13.1082 30.0877 13.0543C31.1373 12.0244 32.0959 10.5621 31.3457 9.82588C30.5954 9.08966 29.1046 10.0297 28.0557 11.0603C27.0068 12.0909 26.0475 13.5525 26.7978 14.2888C26.8867 14.3753 26.9925 14.4431 27.109 14.4883C27.2254 14.5334 27.35 14.5549 27.4751 14.5515C27.9483 14.5148 28.4029 14.3546 28.7917 14.0875V19.636C28.4626 19.7499 28.1773 19.961 27.9752 20.2402C27.7731 20.5195 27.664 20.8533 27.6628 21.1958V23.4114C27.6626 23.7332 27.7577 24.048 27.9365 24.3178C28.1152 24.5875 28.37 24.8004 28.6698 24.9307C28.324 25.2648 28.0556 25.6682 27.8831 26.1134C27.7106 26.5585 27.6379 27.035 27.67 27.5102C27.7022 27.9854 27.8384 28.4482 28.0694 28.8671C28.3004 29.286 28.6207 29.651 29.0085 29.9374L27.7944 31.3655L28.6621 32.0745L30.0348 30.459C30.6963 30.6628 31.4055 30.6628 32.0669 30.459L33.4377 32.0745L34.306 31.3655L33.0913 29.9342C33.479 29.6477 33.7991 29.2826 34.03 28.8638C34.2608 28.4449 34.3969 27.9821 34.4291 27.507C34.4612 27.0318 34.3886 26.5555 34.2162 26.1103C34.0438 25.6652 33.7756 25.2618 33.43 24.9275C33.7297 24.797 33.9844 24.584 34.1632 24.3144C34.342 24.0447 34.4374 23.73 34.4376 23.4083V21.1926C34.4361 20.8502 34.3268 20.5166 34.1248 20.2374C33.9227 19.9582 33.6377 19.7471 33.3087 19.6328L33.3055 19.636Z"/>
<path d="M22.4111 10.8375C23.2013 11.6129 24.238 12.3333 25.0231 12.3333C25.1482 12.3368 25.2728 12.3153 25.3892 12.2701C25.5056 12.225 25.6115 12.1571 25.7004 12.0706C26.4507 11.3344 25.4921 9.87019 24.4431 8.84214C23.3942 7.8141 21.9028 6.87214 21.1532 7.60773C20.4036 8.34331 21.3628 9.81005 22.4137 10.8394L22.4111 10.8375Z"/>
<path d="M9.97882 12.3333C10.7639 12.3333 11.8025 11.6104 12.5908 10.8381C13.6404 9.80752 14.599 8.34521 13.8487 7.60963C13.0985 6.87404 11.6077 7.81283 10.5588 8.84341C9.50984 9.87399 8.55058 11.3363 9.30082 12.0719C9.39003 12.1586 9.49636 12.2265 9.61328 12.2715C9.7302 12.3164 9.85525 12.3375 9.98075 12.3333H9.97882Z"/>
<path d="M6.21146 19.636V14.0875C6.5991 14.3538 7.05245 14.5131 7.52423 14.5489C7.64941 14.5527 7.77406 14.5313 7.89053 14.4862C8.007 14.441 8.11285 14.373 8.20158 14.2862C8.95183 13.5506 7.99322 12.0864 6.94365 11.0578C5.89407 10.0291 4.40519 9.09029 3.65366 9.82651C2.90212 10.5627 3.86202 12.0263 4.91224 13.055C4.96901 13.1101 5.02513 13.1607 5.0819 13.2139V19.5353H2.82406V7.44441C3.21171 7.7107 3.66505 7.87007 4.13683 7.90589C4.26201 7.90965 4.38666 7.88829 4.50313 7.84312C4.61961 7.79794 4.72545 7.72991 4.81418 7.64318C5.56636 6.90886 4.6084 5.44528 3.55754 4.4147C2.50668 3.38413 1.0178 2.44407 0.267549 3.17902C-0.482698 3.91398 0.475915 5.37945 1.52613 6.4075C1.5829 6.46257 1.63902 6.51321 1.69579 6.56639V19.6385C1.36697 19.7524 1.08203 19.9632 0.879955 20.2421C0.677878 20.5209 0.568531 20.8543 0.566873 21.1964V23.412C0.566428 23.7339 0.661394 24.0488 0.840196 24.3186C1.019 24.5884 1.27391 24.8013 1.57387 24.9313C1.22802 25.2655 0.959679 25.6689 0.787142 26.114C0.614604 26.5592 0.541931 27.0356 0.574077 27.5108C0.606223 27.986 0.742433 28.4489 0.973417 28.8677C1.2044 29.2866 1.52472 29.6516 1.91254 29.938L0.700409 31.3655L1.56806 32.0745L2.94083 30.459C3.60225 30.6628 4.31145 30.6628 4.97288 30.459L6.34371 32.0745L7.212 31.3655L5.99729 29.9342C6.38492 29.6477 6.70508 29.2826 6.93594 28.8638C7.16679 28.4449 7.30293 27.9821 7.33507 27.507C7.36721 27.0318 7.29461 26.5555 7.12219 26.1103C6.94978 25.6652 6.68161 25.2618 6.33596 24.9275C6.63564 24.797 6.89033 24.584 7.06918 24.3144C7.24802 24.0447 7.34334 23.73 7.34361 23.4083V21.1926C7.34206 20.8502 7.23279 20.5166 7.03073 20.2374C6.82866 19.9582 6.54366 19.7471 6.21469 19.6328L6.21146 19.636Z"/>
</mask>
<path d="M27.6609 20.6419C27.6635 18.9362 27.2201 17.2584 26.3731 15.7688C25.5262 14.2793 24.304 13.028 22.8234 12.1344C21.3428 11.2408 19.6533 10.7349 17.9166 10.6651C16.1799 10.5952 14.4539 10.9638 12.9038 11.7355C11.3537 12.5072 10.0312 13.6563 9.06291 15.0728C8.09461 16.4894 7.51284 18.126 7.37322 19.8261C7.2336 21.5263 7.54081 23.2332 8.26548 24.7836C8.99014 26.334 10.108 27.6761 11.5122 28.6814L9.16987 31.3629L10.0266 32.0833L12.4644 29.2929C13.9959 30.1592 15.7326 30.6152 17.5003 30.6152C19.268 30.6152 21.0047 30.1592 22.5362 29.2929L24.9741 32.0833L25.8307 31.3629L23.4884 28.6814C24.7801 27.7586 25.8312 26.5494 26.5562 25.1523C27.2812 23.7552 27.6601 22.2097 27.6609 20.6419Z" fill="currentColor"/>
<path d="M17.5006 12.8872C15.6699 12.885 13.895 13.506 12.4785 14.6442C11.0621 15.7825 10.0918 17.3675 9.73298 19.1292C9.37418 20.8909 9.64911 22.7202 10.5109 24.3052C11.3727 25.8903 12.768 27.133 14.459 27.8215C16.15 28.51 18.032 28.6017 19.7842 28.081C21.5363 27.5603 23.0502 26.4593 24.0678 24.9659C25.0854 23.4724 25.5437 21.6788 25.3645 19.8909C25.1853 18.103 24.3798 16.4314 23.0852 15.1611C21.6043 13.7069 19.5957 12.8891 17.5006 12.8872ZM17.5006 27.2887C15.9316 27.2903 14.4105 26.7579 13.1968 25.7821C11.983 24.8064 11.1516 23.4478 10.8443 21.9379C10.5371 20.428 10.773 18.8603 11.5118 17.5019C12.2506 16.1436 13.4465 15.0787 14.8959 14.4888C16.3452 13.8989 17.9582 13.8205 19.4598 14.267C20.9614 14.7134 22.2588 15.6571 23.1308 16.9372C24.0028 18.2172 24.3954 19.7544 24.2417 21.2867C24.088 22.819 23.3975 24.2516 22.2879 25.3403C21.0185 26.5868 19.2965 27.2877 17.5006 27.2887Z" fill="currentColor"/>
<path d="M33.3055 19.636V6.56639C33.3616 6.51131 33.4184 6.4613 33.4745 6.4075C34.5241 5.37755 35.4827 3.91461 34.7324 3.17902C33.9822 2.44344 32.492 3.38286 31.4424 4.41407C30.3929 5.44529 29.4349 6.90696 30.1845 7.64255C30.2734 7.72898 30.3793 7.79678 30.4958 7.84183C30.6122 7.88688 30.7368 7.90824 30.8619 7.90462C31.3345 7.86771 31.7885 7.70727 32.1766 7.43997V19.5309H29.9187V13.2132C29.9749 13.1582 30.0316 13.1082 30.0877 13.0543C31.1373 12.0244 32.0959 10.5621 31.3457 9.82588C30.5954 9.08966 29.1046 10.0297 28.0557 11.0603C27.0068 12.0909 26.0475 13.5525 26.7978 14.2888C26.8867 14.3753 26.9925 14.4431 27.109 14.4883C27.2254 14.5334 27.35 14.5549 27.4751 14.5515C27.9483 14.5148 28.4029 14.3546 28.7917 14.0875V19.636C28.4626 19.7499 28.1773 19.961 27.9752 20.2402C27.7731 20.5195 27.664 20.8533 27.6628 21.1958V23.4114C27.6626 23.7332 27.7577 24.048 27.9365 24.3178C28.1152 24.5875 28.37 24.8004 28.6698 24.9307C28.324 25.2648 28.0556 25.6682 27.8831 26.1134C27.7106 26.5585 27.6379 27.035 27.67 27.5102C27.7022 27.9854 27.8384 28.4482 28.0694 28.8671C28.3004 29.286 28.6207 29.651 29.0085 29.9374L27.7944 31.3655L28.6621 32.0745L30.0348 30.459C30.6963 30.6628 31.4055 30.6628 32.0669 30.459L33.4377 32.0745L34.306 31.3655L33.0913 29.9342C33.479 29.6477 33.7991 29.2826 34.03 28.8638C34.2608 28.4449 34.3969 27.9821 34.4291 27.507C34.4612 27.0318 34.3886 26.5555 34.2162 26.1103C34.0438 25.6652 33.7756 25.2618 33.43 24.9275C33.7297 24.797 33.9844 24.584 34.1632 24.3144C34.342 24.0447 34.4374 23.73 34.4376 23.4083V21.1926C34.4361 20.8502 34.3268 20.5166 34.1248 20.2374C33.9227 19.9582 33.6377 19.7471 33.3087 19.6328L33.3055 19.636Z" fill="currentColor"/>
<path d="M22.4111 10.8375C23.2013 11.6129 24.238 12.3333 25.0231 12.3333C25.1482 12.3368 25.2728 12.3153 25.3892 12.2701C25.5056 12.225 25.6115 12.1571 25.7004 12.0706C26.4507 11.3344 25.4921 9.87019 24.4431 8.84214C23.3942 7.8141 21.9028 6.87214 21.1532 7.60773C20.4036 8.34331 21.3628 9.81005 22.4137 10.8394L22.4111 10.8375Z" fill="currentColor"/>
<path d="M9.97882 12.3333C10.7639 12.3333 11.8025 11.6104 12.5908 10.8381C13.6404 9.80752 14.599 8.34521 13.8487 7.60963C13.0985 6.87404 11.6077 7.81283 10.5588 8.84341C9.50984 9.87399 8.55058 11.3363 9.30082 12.0719C9.39003 12.1586 9.49636 12.2265 9.61328 12.2715C9.7302 12.3164 9.85525 12.3375 9.98075 12.3333H9.97882Z" fill="currentColor"/>
<path d="M6.21146 19.636V14.0875C6.5991 14.3538 7.05245 14.5131 7.52423 14.5489C7.64941 14.5527 7.77406 14.5313 7.89053 14.4862C8.007 14.441 8.11285 14.373 8.20158 14.2862C8.95183 13.5506 7.99322 12.0864 6.94365 11.0578C5.89407 10.0291 4.40519 9.09029 3.65366 9.82651C2.90212 10.5627 3.86202 12.0263 4.91224 13.055C4.96901 13.1101 5.02513 13.1607 5.0819 13.2139V19.5353H2.82406V7.44441C3.21171 7.7107 3.66505 7.87007 4.13683 7.90589C4.26201 7.90965 4.38666 7.88829 4.50313 7.84312C4.61961 7.79794 4.72545 7.72991 4.81418 7.64318C5.56636 6.90886 4.6084 5.44528 3.55754 4.4147C2.50668 3.38413 1.0178 2.44407 0.267549 3.17902C-0.482698 3.91398 0.475915 5.37945 1.52613 6.4075C1.5829 6.46257 1.63902 6.51321 1.69579 6.56639V19.6385C1.36697 19.7524 1.08203 19.9632 0.879955 20.2421C0.677878 20.5209 0.568531 20.8543 0.566873 21.1964V23.412C0.566428 23.7339 0.661394 24.0488 0.840196 24.3186C1.019 24.5884 1.27391 24.8013 1.57387 24.9313C1.22802 25.2655 0.959679 25.6689 0.787142 26.114C0.614604 26.5592 0.541931 27.0356 0.574077 27.5108C0.606223 27.986 0.742433 28.4489 0.973417 28.8677C1.2044 29.2866 1.52472 29.6516 1.91254 29.938L0.700409 31.3655L1.56806 32.0745L2.94083 30.459C3.60225 30.6628 4.31145 30.6628 4.97288 30.459L6.34371 32.0745L7.212 31.3655L5.99729 29.9342C6.38492 29.6477 6.70508 29.2826 6.93594 28.8638C7.16679 28.4449 7.30293 27.9821 7.33507 27.507C7.36721 27.0318 7.29461 26.5555 7.12219 26.1103C6.94978 25.6652 6.68161 25.2618 6.33596 24.9275C6.63564 24.797 6.89033 24.584 7.06918 24.3144C7.24802 24.0447 7.34334 23.73 7.34361 23.4083V21.1926C7.34206 20.8502 7.23279 20.5166 7.03073 20.2374C6.82866 19.9582 6.54366 19.7471 6.21469 19.6328L6.21146 19.636Z" fill="currentColor"/>
<path d="M27.6609 20.6419C27.6635 18.9362 27.2201 17.2584 26.3731 15.7688C25.5262 14.2793 24.304 13.028 22.8234 12.1344C21.3428 11.2408 19.6533 10.7349 17.9166 10.6651C16.1799 10.5952 14.4539 10.9638 12.9038 11.7355C11.3537 12.5072 10.0312 13.6563 9.06291 15.0728C8.09461 16.4894 7.51284 18.126 7.37322 19.8261C7.2336 21.5263 7.54081 23.2332 8.26548 24.7836C8.99014 26.334 10.108 27.6761 11.5122 28.6814L9.16987 31.3629L10.0266 32.0833L12.4644 29.2929C13.9959 30.1592 15.7326 30.6152 17.5003 30.6152C19.268 30.6152 21.0047 30.1592 22.5362 29.2929L24.9741 32.0833L25.8307 31.3629L23.4884 28.6814C24.7801 27.7586 25.8312 26.5494 26.5562 25.1523C27.2812 23.7552 27.6601 22.2097 27.6609 20.6419Z" stroke="currentColor" stroke-width="2" mask="url(#path-1-inside-1_1_88)"/>
<path d="M17.5006 12.8872C15.6699 12.885 13.895 13.506 12.4785 14.6442C11.0621 15.7825 10.0918 17.3675 9.73298 19.1292C9.37418 20.8909 9.64911 22.7202 10.5109 24.3052C11.3727 25.8903 12.768 27.133 14.459 27.8215C16.15 28.51 18.032 28.6017 19.7842 28.081C21.5363 27.5603 23.0502 26.4593 24.0678 24.9659C25.0854 23.4724 25.5437 21.6788 25.3645 19.8909C25.1853 18.103 24.3798 16.4314 23.0852 15.1611C21.6043 13.7069 19.5957 12.8891 17.5006 12.8872ZM17.5006 27.2887C15.9316 27.2903 14.4105 26.7579 13.1968 25.7821C11.983 24.8064 11.1516 23.4478 10.8443 21.9379C10.5371 20.428 10.773 18.8603 11.5118 17.5019C12.2506 16.1436 13.4465 15.0787 14.8959 14.4888C16.3452 13.8989 17.9582 13.8205 19.4598 14.267C20.9614 14.7134 22.2588 15.6571 23.1308 16.9372C24.0028 18.2172 24.3954 19.7544 24.2417 21.2867C24.088 22.819 23.3975 24.2516 22.2879 25.3403C21.0185 26.5868 19.2965 27.2877 17.5006 27.2887Z" stroke="currentColor" stroke-width="2" mask="url(#path-1-inside-1_1_88)"/>
<path d="M33.3055 19.636V6.56639C33.3616 6.51131 33.4184 6.4613 33.4745 6.4075C34.5241 5.37755 35.4827 3.91461 34.7324 3.17902C33.9822 2.44344 32.492 3.38286 31.4424 4.41407C30.3929 5.44529 29.4349 6.90696 30.1845 7.64255C30.2734 7.72898 30.3793 7.79678 30.4958 7.84183C30.6122 7.88688 30.7368 7.90824 30.8619 7.90462C31.3345 7.86771 31.7885 7.70727 32.1766 7.43997V19.5309H29.9187V13.2132C29.9749 13.1582 30.0316 13.1082 30.0877 13.0543C31.1373 12.0244 32.0959 10.5621 31.3457 9.82588C30.5954 9.08966 29.1046 10.0297 28.0557 11.0603C27.0068 12.0909 26.0475 13.5525 26.7978 14.2888C26.8867 14.3753 26.9925 14.4431 27.109 14.4883C27.2254 14.5334 27.35 14.5549 27.4751 14.5515C27.9483 14.5148 28.4029 14.3546 28.7917 14.0875V19.636C28.4626 19.7499 28.1773 19.961 27.9752 20.2402C27.7731 20.5195 27.664 20.8533 27.6628 21.1958V23.4114C27.6626 23.7332 27.7577 24.048 27.9365 24.3178C28.1152 24.5875 28.37 24.8004 28.6698 24.9307C28.324 25.2648 28.0556 25.6682 27.8831 26.1134C27.7106 26.5585 27.6379 27.035 27.67 27.5102C27.7022 27.9854 27.8384 28.4482 28.0694 28.8671C28.3004 29.286 28.6207 29.651 29.0085 29.9374L27.7944 31.3655L28.6621 32.0745L30.0348 30.459C30.6963 30.6628 31.4055 30.6628 32.0669 30.459L33.4377 32.0745L34.306 31.3655L33.0913 29.9342C33.479 29.6477 33.7991 29.2826 34.03 28.8638C34.2608 28.4449 34.3969 27.9821 34.4291 27.507C34.4612 27.0318 34.3886 26.5555 34.2162 26.1103C34.0438 25.6652 33.7756 25.2618 33.43 24.9275C33.7297 24.797 33.9844 24.584 34.1632 24.3144C34.342 24.0447 34.4374 23.73 34.4376 23.4083V21.1926C34.4361 20.8502 34.3268 20.5166 34.1248 20.2374C33.9227 19.9582 33.6377 19.7471 33.3087 19.6328L33.3055 19.636Z" stroke="currentColor" stroke-width="2" mask="url(#path-1-inside-1_1_88)"/>
<path d="M22.4111 10.8375C23.2013 11.6129 24.238 12.3333 25.0231 12.3333C25.1482 12.3368 25.2728 12.3153 25.3892 12.2701C25.5056 12.225 25.6115 12.1571 25.7004 12.0706C26.4507 11.3344 25.4921 9.87019 24.4431 8.84214C23.3942 7.8141 21.9028 6.87214 21.1532 7.60773C20.4036 8.34331 21.3628 9.81005 22.4137 10.8394L22.4111 10.8375Z" stroke="currentColor" stroke-width="2" mask="url(#path-1-inside-1_1_88)"/>
<path d="M9.97882 12.3333C10.7639 12.3333 11.8025 11.6104 12.5908 10.8381C13.6404 9.80752 14.599 8.34521 13.8487 7.60963C13.0985 6.87404 11.6077 7.81283 10.5588 8.84341C9.50984 9.87399 8.55058 11.3363 9.30082 12.0719C9.39003 12.1586 9.49636 12.2265 9.61328 12.2715C9.7302 12.3164 9.85525 12.3375 9.98075 12.3333H9.97882Z" stroke="currentColor" stroke-width="2" mask="url(#path-1-inside-1_1_88)"/>
<path d="M6.21146 19.636V14.0875C6.5991 14.3538 7.05245 14.5131 7.52423 14.5489C7.64941 14.5527 7.77406 14.5313 7.89053 14.4862C8.007 14.441 8.11285 14.373 8.20158 14.2862C8.95183 13.5506 7.99322 12.0864 6.94365 11.0578C5.89407 10.0291 4.40519 9.09029 3.65366 9.82651C2.90212 10.5627 3.86202 12.0263 4.91224 13.055C4.96901 13.1101 5.02513 13.1607 5.0819 13.2139V19.5353H2.82406V7.44441C3.21171 7.7107 3.66505 7.87007 4.13683 7.90589C4.26201 7.90965 4.38666 7.88829 4.50313 7.84312C4.61961 7.79794 4.72545 7.72991 4.81418 7.64318C5.56636 6.90886 4.6084 5.44528 3.55754 4.4147C2.50668 3.38413 1.0178 2.44407 0.267549 3.17902C-0.482698 3.91398 0.475915 5.37945 1.52613 6.4075C1.5829 6.46257 1.63902 6.51321 1.69579 6.56639V19.6385C1.36697 19.7524 1.08203 19.9632 0.879955 20.2421C0.677878 20.5209 0.568531 20.8543 0.566873 21.1964V23.412C0.566428 23.7339 0.661394 24.0488 0.840196 24.3186C1.019 24.5884 1.27391 24.8013 1.57387 24.9313C1.22802 25.2655 0.959679 25.6689 0.787142 26.114C0.614604 26.5592 0.541931 27.0356 0.574077 27.5108C0.606223 27.986 0.742433 28.4489 0.973417 28.8677C1.2044 29.2866 1.52472 29.6516 1.91254 29.938L0.700409 31.3655L1.56806 32.0745L2.94083 30.459C3.60225 30.6628 4.31145 30.6628 4.97288 30.459L6.34371 32.0745L7.212 31.3655L5.99729 29.9342C6.38492 29.6477 6.70508 29.2826 6.93594 28.8638C7.16679 28.4449 7.30293 27.9821 7.33507 27.507C7.36721 27.0318 7.29461 26.5555 7.12219 26.1103C6.94978 25.6652 6.68161 25.2618 6.33596 24.9275C6.63564 24.797 6.89033 24.584 7.06918 24.3144C7.24802 24.0447 7.34334 23.73 7.34361 23.4083V21.1926C7.34206 20.8502 7.23279 20.5166 7.03073 20.2374C6.82866 19.9582 6.54366 19.7471 6.21469 19.6328L6.21146 19.636Z" stroke="currentColor" stroke-width="2" mask="url(#path-1-inside-1_1_88)"/>
</g>
<defs>
<clipPath id="clip0_1_88">
<rect fill="white"/>
</clipPath>
</defs>
</svg>
