<svg viewBox="0 0 35 35" fill="none" xmlns="http://www.w3.org/2000/svg">
<path d="M15.75 3.5C13.817 3.5 12.25 5.06701 12.25 7V21C12.25 22.933 13.817 24.5 15.75 24.5H26.25C28.183 24.5 29.75 22.933 29.75 21V11.2249C29.75 10.2966 29.3813 9.40638 28.7249 8.75L24.5 4.52513C23.8436 3.86875 22.9534 3.5 22.0251 3.5H15.75Z" fill="currentColor"/>
<path d="M5.25 14C5.25 12.067 6.817 10.5 8.75 10.5V28H22.75C22.75 29.933 21.183 31.5 19.25 31.5H8.75C6.817 31.5 5.25 29.933 5.25 28V14Z" fill="currentColor"/>
</svg>
