<svg viewBox="0 0 35 35" fill="none" xmlns="http://www.w3.org/2000/svg">
<path d="M30.4749 4.52513C29.108 3.15829 26.892 3.15829 25.5251 4.52513L12.25 17.8003V22.75H17.1997L30.4749 9.47487C31.8417 8.10804 31.8417 5.89196 30.4749 4.52513Z" fill="currentColor"/>
<path fill-rule="evenodd" clip-rule="evenodd" d="M3.5 10.5C3.5 8.567 5.067 7 7 7H14C14.9665 7 15.75 7.7835 15.75 8.75C15.75 9.7165 14.9665 10.5 14 10.5H7V28H24.5V21C24.5 20.0335 25.2835 19.25 26.25 19.25C27.2165 19.25 28 20.0335 28 21V28C28 29.933 26.433 31.5 24.5 31.5H7C5.067 31.5 3.5 29.933 3.5 28V10.5Z" fill="currentColor"/>
</svg>
