<svg viewBox="0 0 35 35" fill="none" xmlns="http://www.w3.org/2000/svg">
<path d="M8.61331 30.0769C9.27389 33.3494 11.8778 35 16.3504 35C16.7199 35 17.1008 34.9857 17.4987 34.9651C22.677 35.2626 25.6636 33.619 26.3844 30.0633C26.8348 27.6051 25.8968 25.9545 24.8161 24.3465C24.351 23.6595 24.133 22.8731 24.2006 22.1365C24.2457 21.6134 24.4034 21.3501 24.621 20.9958C24.9905 20.3939 25.4464 19.6427 25.4312 17.709C25.43 17.6614 25.425 17.6139 25.4161 17.567C25.3108 17.0997 25.0407 15.8673 23.6826 15.7254C23.5819 15.714 23.4798 15.7227 23.3828 15.7509C23.2859 15.7792 23.1963 15.8263 23.1199 15.8893C23.0423 15.9509 22.9785 16.0265 22.9321 16.1116C22.8858 16.1968 22.8578 16.2897 22.8499 16.3852C22.7974 17.1221 22.452 17.6755 21.7615 18.1351C21.2361 18.4752 20.5456 18.6931 19.7727 18.7723H19.7424V8.28683L21.0259 6.33391C21.12 6.18225 21.1496 6.0025 21.1086 5.83104L22.4368 5.51229C22.63 5.46531 22.7956 5.34779 22.897 5.1856C22.9985 5.0234 23.0275 4.82982 22.9777 4.64743C22.9279 4.46504 22.8034 4.30878 22.6316 4.21303C22.4598 4.11729 22.2547 4.08989 22.0615 4.13688L20.6808 4.46957L20.3206 3.37873L21.6336 3.05998C21.8252 3.01174 21.9889 2.89399 22.089 2.73237C22.189 2.57076 22.2174 2.37838 22.1679 2.19712C22.1184 2.01586 21.995 1.8604 21.8246 1.7646C21.6543 1.66879 21.4507 1.64041 21.2583 1.68561L19.8698 2.01866L19.7128 1.49555C19.7054 1.48126 19.6981 1.47428 19.6981 1.46731C19.6811 1.41905 19.6561 1.37362 19.6242 1.33269C19.6022 1.29568 19.5775 1.26014 19.5503 1.22633C19.5166 1.1944 19.4794 1.16589 19.4394 1.14124C19.4025 1.11131 19.3622 1.08524 19.3194 1.06347C19.2796 1.04427 19.2364 1.03243 19.1919 1.0286C19.1412 1.01155 19.088 1.0019 19.0341 1C19.0264 1.00697 19.019 1 19.0042 1H15.9983C15.7995 1.00055 15.609 1.07535 15.4684 1.20806C15.3278 1.34077 15.2486 1.5206 15.248 1.70828V17.7512C14.6971 17.3791 14.2456 16.8911 13.9291 16.3259C13.6125 15.7606 13.4397 15.1335 13.4243 14.4943L13.3874 13.0209C13.3832 12.8989 13.3467 12.7798 13.2811 12.6746C13.2155 12.5694 13.123 12.4814 13.012 12.4187C12.8996 12.3595 12.773 12.3284 12.6442 12.3284C12.5155 12.3284 12.3889 12.3595 12.2765 12.4187C12.1261 12.4968 11.0155 13.1698 10.9032 13.2476C9.35148 14.2324 8.74188 16.1097 9.42537 17.8094C10.011 19.2828 10.5138 20.5993 10.7554 21.8401C10.9206 22.6617 10.7325 23.5189 10.2382 24.2628C9.11946 25.9137 8.15925 27.5925 8.61663 30.0786L8.61331 30.0769ZM16.7487 8.79006H18.2498V22.2488H16.7487V8.79006Z" fill="currentColor"/>
<path d="M15.2177 27.9168H19.7198C19.9189 27.9168 20.1097 27.8422 20.2504 27.7094C20.3912 27.5765 20.4702 27.3964 20.4702 27.2085C20.4702 27.0207 20.3912 26.8405 20.2504 26.7077C20.1097 26.5749 19.9189 26.5003 19.7198 26.5003H15.2177C15.0187 26.5003 14.8278 26.5749 14.6871 26.7077C14.5464 26.8405 14.4673 27.0207 14.4673 27.2085C14.4673 27.3964 14.5464 27.5765 14.6871 27.7094C14.8278 27.8422 15.0187 27.9168 15.2177 27.9168Z" fill="currentColor"/>
<path d="M15.2177 30.75H19.7198C19.9189 30.75 20.1097 30.6753 20.2504 30.5425C20.3912 30.4097 20.4702 30.2295 20.4702 30.0417C20.4702 29.8538 20.3912 29.6737 20.2504 29.5408C20.1097 29.408 19.9189 29.3334 19.7198 29.3334H15.2177C15.0187 29.3334 14.8278 29.408 14.6871 29.5408C14.5464 29.6737 14.4673 29.8538 14.4673 30.0417C14.4673 30.2295 14.5464 30.4097 14.6871 30.5425C14.8278 30.6753 15.0187 30.75 15.2177 30.75Z" fill="currentColor"/>
</svg>
