<svg viewBox="0 0 35 35" fill="none" xmlns="http://www.w3.org/2000/svg">
<path d="M17.5 10.5C15.567 10.5 14 8.933 14 7C14 5.067 15.567 3.5 17.5 3.5C19.433 3.5 21 5.067 21 7C21 8.933 19.433 10.5 17.5 10.5Z" fill="currentColor"/>
<path d="M17.5 21C15.567 21 14 19.433 14 17.5C14 15.567 15.567 14 17.5 14C19.433 14 21 15.567 21 17.5C21 19.433 19.433 21 17.5 21Z" fill="currentColor"/>
<path d="M17.5 31.5C15.567 31.5 14 29.933 14 28C14 26.067 15.567 24.5 17.5 24.5C19.433 24.5 21 26.067 21 28C21 29.933 19.433 31.5 17.5 31.5Z" fill="currentColor"/>
</svg>
