<svg viewBox="0 0 35 35" fill="none" xmlns="http://www.w3.org/2000/svg">
<path d="M10.5 17.5C10.5 19.433 8.933 21 7 21C5.067 21 3.5 19.433 3.5 17.5C3.5 15.567 5.067 14 7 14C8.933 14 10.5 15.567 10.5 17.5Z" fill="currentColor"/>
<path d="M21 17.5C21 19.433 19.433 21 17.5 21C15.567 21 14 19.433 14 17.5C14 15.567 15.567 14 17.5 14C19.433 14 21 15.567 21 17.5Z" fill="currentColor"/>
<path d="M28 21C29.933 21 31.5 19.433 31.5 17.5C31.5 15.567 29.933 14 28 14C26.067 14 24.5 15.567 24.5 17.5C24.5 19.433 26.067 21 28 21Z" fill="currentColor"/>
</svg>
