<svg viewBox="0 0 35 35" fill="none" xmlns="http://www.w3.org/2000/svg">
<path fill-rule="evenodd" clip-rule="evenodd" d="M5.25 7C5.25 6.0335 6.0335 5.25 7 5.25H14C14.9665 5.25 15.75 6.0335 15.75 7C15.75 7.9665 14.9665 8.75 14 8.75H11.2249L15.2374 12.7626C15.9209 13.446 15.9209 14.554 15.2374 15.2374C14.554 15.9209 13.446 15.9209 12.7626 15.2374L8.75 11.2249V14C8.75 14.9665 7.9665 15.75 7 15.75C6.0335 15.75 5.25 14.9665 5.25 14V7ZM21 8.75C20.0335 8.75 19.25 7.9665 19.25 7C19.25 6.0335 20.0335 5.25 21 5.25H28C28.9665 5.25 29.75 6.0335 29.75 7V14C29.75 14.9665 28.9665 15.75 28 15.75C27.0335 15.75 26.25 14.9665 26.25 14V11.2249L22.2374 15.2374C21.554 15.9209 20.446 15.9209 19.7626 15.2374C19.0791 14.554 19.0791 13.446 19.7626 12.7626L23.7751 8.75H21ZM5.25 21C5.25 20.0335 6.0335 19.25 7 19.25C7.9665 19.25 8.75 20.0335 8.75 21V23.7751L12.7626 19.7626C13.446 19.0791 14.554 19.0791 15.2374 19.7626C15.9209 20.446 15.9209 21.554 15.2374 22.2374L11.2249 26.25H14C14.9665 26.25 15.75 27.0335 15.75 28C15.75 28.9665 14.9665 29.75 14 29.75H7C6.0335 29.75 5.25 28.9665 5.25 28V21ZM28 19.25C28.9665 19.25 29.75 20.0335 29.75 21V28C29.75 28.9665 28.9665 29.75 28 29.75H21C20.0335 29.75 19.25 28.9665 19.25 28C19.25 27.0335 20.0335 26.25 21 26.25H23.7751L19.7626 22.2374C19.0791 21.554 19.0791 20.446 19.7626 19.7626C20.446 19.0791 21.554 19.0791 22.2374 19.7626L26.25 23.7751V21C26.25 20.0335 27.0335 19.25 28 19.25Z" fill="currentColor"/>
</svg>
