<svg viewBox="0 0 35 35" fill="none" xmlns="http://www.w3.org/2000/svg">
<path d="M19.25 5.25C18.2835 5.25 17.5 6.0335 17.5 7C17.5 7.9665 18.2835 8.75 19.25 8.75H23.7751L12.7626 19.7626C12.0791 20.446 12.0791 21.554 12.7626 22.2374C13.446 22.9209 14.554 22.9209 15.2374 22.2374L26.25 11.2249V15.75C26.25 16.7165 27.0335 17.5 28 17.5C28.9665 17.5 29.75 16.7165 29.75 15.75V7C29.75 6.0335 28.9665 5.25 28 5.25H19.25Z" fill="currentColor"/>
<path d="M8.75 8.75C6.817 8.75 5.25 10.317 5.25 12.25V26.25C5.25 28.183 6.817 29.75 8.75 29.75H22.75C24.683 29.75 26.25 28.183 26.25 26.25V21C26.25 20.0335 25.4665 19.25 24.5 19.25C23.5335 19.25 22.75 20.0335 22.75 21V26.25H8.75V12.25L14 12.25C14.9665 12.25 15.75 11.4665 15.75 10.5C15.75 9.5335 14.9665 8.75 14 8.75H8.75Z" fill="currentColor"/>
</svg>
