<svg viewBox="0 0 35 35" fill="none" xmlns="http://www.w3.org/2000/svg">
<path d="M17.4997 21C19.4327 21 20.9997 19.433 20.9997 17.5C20.9997 15.567 19.4327 14 17.4997 14C15.5667 14 13.9997 15.567 13.9997 17.5C13.9997 19.433 15.5667 21 17.4997 21Z" fill="currentColor"/>
<path fill-rule="evenodd" clip-rule="evenodd" d="M0.800781 17.5001C3.03072 10.4001 9.66375 5.25 17.4996 5.25C25.3355 5.25 31.9685 10.4 34.1985 17.4999C31.9685 24.5999 25.3355 29.75 17.4996 29.75C9.66376 29.75 3.03076 24.6 0.800781 17.5001ZM24.4997 17.5C24.4997 21.366 21.3657 24.5 17.4997 24.5C13.6337 24.5 10.4997 21.366 10.4997 17.5C10.4997 13.634 13.6337 10.5 17.4997 10.5C21.3657 10.5 24.4997 13.634 24.4997 17.5Z" fill="currentColor"/>
</svg>
