<svg viewBox="0 0 35 35" fill="none" xmlns="http://www.w3.org/2000/svg">
<path fill-rule="evenodd" clip-rule="evenodd" d="M6.48768 4.01256C5.80426 3.32915 4.69622 3.32915 4.01281 4.01256C3.32939 4.69598 3.32939 5.80402 4.01281 6.48744L28.5128 30.9874C29.1962 31.6709 30.3043 31.6709 30.9877 30.9874C31.6711 30.304 31.6711 29.196 30.9877 28.5126L28.4096 25.9345C31.1003 23.7867 33.1435 20.8619 34.1994 17.4999C31.9695 10.4 25.3365 5.25 17.5006 5.25C14.6594 5.25 11.9763 5.92711 9.60388 7.12876L6.48768 4.01256ZM13.9445 11.4693L16.5938 14.1186C16.883 14.0413 17.187 14 17.5007 14C19.4337 14 21.0007 15.567 21.0007 17.5C21.0007 17.8137 20.9594 18.1177 20.882 18.4069L23.5313 21.0562C24.1472 20.014 24.5007 18.7983 24.5007 17.5C24.5007 13.634 21.3667 10.5 17.5007 10.5C16.2024 10.5 14.9867 10.8534 13.9445 11.4693Z" fill="currentColor"/>
<path d="M21.7949 29.2192L17.0621 24.4865C13.5455 24.2691 10.7316 21.4552 10.5142 17.9385L4.08636 11.5107C2.62635 13.2514 1.49889 15.2805 0.801758 17.5001C3.03174 24.6 9.66473 29.75 17.5006 29.75C18.9822 29.75 20.4209 29.5659 21.7949 29.2192Z" fill="currentColor"/>
</svg>
