<svg viewBox="0 0 35 35" fill="none" xmlns="http://www.w3.org/2000/svg">
<path d="M7.97072 9.04391C7.43373 8.68592 6.74327 8.65254 6.17425 8.95707C5.60522 9.26161 5.25 9.85461 5.25 10.5V24.5C5.25 25.1454 5.60522 25.7384 6.17425 26.0429C6.74327 26.3475 7.43373 26.3141 7.97072 25.9561L17.5 19.6032V24.5C17.5 25.1454 17.8552 25.7384 18.4242 26.0429C18.9933 26.3475 19.6837 26.3141 20.2207 25.9561L30.7207 18.9561C31.2076 18.6315 31.5 18.0851 31.5 17.5C31.5 16.9149 31.2076 16.3685 30.7207 16.0439L20.2207 9.04391C19.6837 8.68592 18.9933 8.65254 18.4242 8.95707C17.8552 9.26161 17.5 9.85461 17.5 10.5V15.3968L7.97072 9.04391Z" fill="currentColor"/>
</svg>
