<svg viewBox="0 0 35 35" fill="none" xmlns="http://www.w3.org/2000/svg">
<path d="M12.25 5.25C11.2835 5.25 10.5 6.0335 10.5 7C10.5 7.9665 11.2835 8.75 12.25 8.75H22.75C23.7165 8.75 24.5 7.9665 24.5 7C24.5 6.0335 23.7165 5.25 22.75 5.25H12.25Z" fill="currentColor"/>
<path d="M7 12.25C7 11.2835 7.7835 10.5 8.75 10.5H26.25C27.2165 10.5 28 11.2835 28 12.25C28 13.2165 27.2165 14 26.25 14H8.75C7.7835 14 7 13.2165 7 12.25Z" fill="currentColor"/>
<path d="M3.5 19.25C3.5 17.317 5.067 15.75 7 15.75H28C29.933 15.75 31.5 17.317 31.5 19.25V26.25C31.5 28.183 29.933 29.75 28 29.75H7C5.067 29.75 3.5 28.183 3.5 26.25V19.25Z" fill="currentColor"/>
</svg>
