<svg viewBox="0 0 35 35" fill="none" xmlns="http://www.w3.org/2000/svg">
<path fill-rule="evenodd" clip-rule="evenodd" d="M7 5.25C5.067 5.25 3.5 6.817 3.5 8.75V26.25C3.5 28.183 5.06701 29.75 7 29.75H28C29.933 29.75 31.5 28.183 31.5 26.25V8.75C31.5 6.817 29.933 5.25 28 5.25H7ZM12.25 8.75L22.75 8.75V15.75H12.25V8.75ZM26.25 22.75V26.25H28V22.75H26.25ZM22.75 19.25H12.25V26.25H22.75V19.25ZM26.25 19.25H28V15.75H26.25V19.25ZM28 12.25V8.75H26.25V12.25H28ZM8.75 8.75V12.25H7V8.75H8.75ZM8.75 15.75H7V19.25H8.75V15.75ZM7 22.75H8.75V26.25H7V22.75Z" fill="currentColor"/>
</svg>
