<svg viewBox="0 0 35 35" fill="none" xmlns="http://www.w3.org/2000/svg">
<path fill-rule="evenodd" clip-rule="evenodd" d="M11.5934 4.64551C13.4197 3.90623 15.4146 3.5 17.5 3.5C26.1985 3.5 33.25 10.5515 33.25 19.25C33.25 20.2165 32.4665 21 31.5 21C30.5335 21 29.75 20.2165 29.75 19.25C29.75 12.4845 24.2655 7 17.5 7C15.8723 7 14.3228 7.31654 12.9066 7.8898C12.0107 8.25244 10.9905 7.82016 10.6279 6.92428C10.2652 6.0284 10.6975 5.00816 11.5934 4.64551ZM8.15803 8.67757C8.88266 9.31713 8.95161 10.423 8.31204 11.1476C6.40512 13.3082 5.25 16.1421 5.25 19.25C5.25 20.2165 4.4665 21 3.5 21C2.5335 21 1.75 20.2165 1.75 19.25C1.75 15.2568 3.23834 11.607 5.68796 8.83158C6.32752 8.10696 7.43341 8.03801 8.15803 8.67757Z" fill="currentColor"/>
<path fill-rule="evenodd" clip-rule="evenodd" d="M8.75 19.25C8.75 14.4175 12.6675 10.5 17.5 10.5C22.3325 10.5 26.25 14.4175 26.25 19.25C26.25 20.2165 25.4665 21 24.5 21C23.5335 21 22.75 20.2165 22.75 19.25C22.75 16.3505 20.3995 14 17.5 14C14.6005 14 12.25 16.3505 12.25 19.25C12.25 22.185 11.6469 24.9837 10.5561 27.5253C10.175 28.4135 9.14596 28.8245 8.2578 28.4434C7.36963 28.0622 6.95862 27.0332 7.33978 26.145C8.24683 24.0315 8.75 21.7018 8.75 19.25ZM24.362 22.7716C25.3166 22.923 25.9677 23.8196 25.8163 24.7742C25.5859 26.2267 25.2661 27.6497 24.8627 29.0373C24.5929 29.9654 23.6218 30.4991 22.6937 30.2293C21.7657 29.9595 21.232 28.9884 21.5018 28.0603C21.8645 26.8126 22.1522 25.5327 22.3595 24.2258C22.5109 23.2713 23.4075 22.6202 24.362 22.7716Z" fill="currentColor"/>
<path fill-rule="evenodd" clip-rule="evenodd" d="M17.5 17.5C18.4665 17.5 19.25 18.2835 19.25 19.25C19.25 23.1635 18.4461 26.8938 16.9928 30.2812C16.6117 31.1694 15.5827 31.5805 14.6945 31.1994C13.8063 30.8184 13.3952 29.7894 13.7763 28.9012C15.046 25.9418 15.75 22.6804 15.75 19.25C15.75 18.2835 16.5335 17.5 17.5 17.5Z" fill="currentColor"/>
</svg>
