<svg viewBox="0 0 35 35" fill="none" xmlns="http://www.w3.org/2000/svg">
<path fill-rule="evenodd" clip-rule="evenodd" d="M20.5743 3.55863C21.0595 3.68747 21.4659 4.01842 21.6904 4.46738C22.5366 6.15985 23.1682 7.18705 23.8036 8.0199C24.4468 8.86292 25.1271 9.55306 26.1621 10.588C28.5537 12.9796 29.75 16.1177 29.75 19.2501C29.75 22.3824 28.5537 25.5205 26.1621 27.9121C21.3781 32.696 13.6219 32.696 8.83794 27.9121C6.44633 25.5205 5.25 22.3824 5.25 19.2501C5.24999 16.1177 6.44632 12.9796 8.83794 10.588C9.33844 10.0875 10.0911 9.93777 10.7451 10.2086C11.399 10.4795 11.8254 11.1176 11.8254 11.8254C11.8254 13.7851 11.9478 15.2783 12.5209 16.4693C12.8361 17.1242 13.3277 17.7645 14.1751 18.3359C14.3774 16.4795 14.7482 14.2178 15.2491 12.0711C15.6434 10.3809 16.1339 8.69353 16.7177 7.28641C17.0097 6.5826 17.34 5.91245 17.715 5.33384C18.08 4.77063 18.549 4.19751 19.1544 3.79392C19.5721 3.51549 20.0892 3.4298 20.5743 3.55863ZM21.2123 26.4623C19.1621 28.5126 15.8379 28.5126 13.7877 26.4623C12.7626 25.4372 12.25 24.0936 12.25 22.75C12.25 22.75 13.7877 23.625 16.6251 23.625C16.6251 21.875 17.5001 16.625 18.8126 15.75C19.6876 17.5 20.1872 18.0126 21.2123 19.0377C22.2374 20.0628 22.75 21.4064 22.75 22.75C22.75 24.0936 22.2374 25.4372 21.2123 26.4623Z" fill="currentColor"/>
</svg>
