<svg viewBox="0 0 35 35" fill="none" xmlns="http://www.w3.org/2000/svg">
<path d="M3.5 8.75C3.5 6.817 5.067 5.25 7 5.25H19.25C21.183 5.25 22.75 6.817 22.75 8.75V15.75C22.75 17.683 21.183 19.25 19.25 19.25H15.75L10.5 24.5V19.25H7C5.067 19.25 3.5 17.683 3.5 15.75V8.75Z" fill="currentColor"/>
<path d="M26.25 12.25V18.75C26.25 20.9591 24.4591 22.75 22.25 22.75H17.1997L14.108 25.8417C14.5977 26.1023 15.1566 26.25 15.75 26.25H19.25L24.5 31.5V26.25H28C29.933 26.25 31.5 24.683 31.5 22.75V15.75C31.5 13.817 29.933 12.25 28 12.25H26.25Z" fill="currentColor"/>
</svg>
