<svg viewBox="0 0 35 35" fill="none" xmlns="http://www.w3.org/2000/svg">
<path fill-rule="evenodd" clip-rule="evenodd" d="M6.07692 4C4.92987 4 4 4.92987 4 6.07692V28.9231C4 30.0701 4.92987 31 6.07692 31H28.9231C30.0701 31 31 30.0701 31 28.9231V6.07692C31 4.92987 30.0701 4 28.9231 4H6.07692ZM25 9.00001C25 8.68933 24.8556 8.3963 24.6092 8.20702C24.3629 8.01774 24.0425 7.95372 23.7423 8.03377L13.7423 10.7004C13.3046 10.8172 13 11.2136 13 11.6667V15.1994C12.9997 15.2142 12.9997 15.2289 13 15.2438V20.7065C12.5368 20.5351 12.0258 20.4445 11.5 20.4445C10.6262 20.4445 9.79316 20.6948 9.15271 21.1502C8.51443 21.6041 8 22.3225 8 23.2222C8 24.1219 8.51443 24.8404 9.15271 25.2943C9.79316 25.7497 10.6262 26 11.5 26C12.3738 26 13.2068 25.7497 13.8473 25.2943C14.4856 24.8404 15 24.1219 15 23.2222V15.9905L23 13.8572V18.0398C22.5368 17.8684 22.0258 17.7778 21.5 17.7778C20.6262 17.7778 19.7932 18.0281 19.1527 18.4835C18.5144 18.9374 18 19.6559 18 20.5556C18 21.4553 18.5144 22.1737 19.1527 22.6276C19.7932 23.083 20.6262 23.3333 21.5 23.3333C22.3738 23.3333 23.2068 23.083 23.8473 22.6276C24.4856 22.1737 25 21.4553 25 20.5556V12.5784C25.0003 12.5636 25.0003 12.5489 25 12.534V9.00001ZM19.5 24C18.9477 24 18.5 24.4649 18.5 25.0385C18.5 25.612 18.9477 26.0769 19.5 26.0769H24.5C25.0523 26.0769 25.5 25.612 25.5 25.0385C25.5 24.4649 25.0523 24 24.5 24H19.5Z" fill="currentColor"/>
</svg>
