<svg viewBox="0 0 35 35" fill="none" xmlns="http://www.w3.org/2000/svg">
<path fill-rule="evenodd" clip-rule="evenodd" d="M8.75 8.75C8.75 5.85051 11.1005 3.5 14 3.5C15.3446 3.5 16.5712 4.0055 17.5 4.83682C18.4288 4.0055 19.6554 3.5 21 3.5C23.8995 3.5 26.25 5.85051 26.25 8.75C26.25 9.36361 26.1447 9.95264 25.9513 10.5H28C29.933 10.5 31.5 12.067 31.5 14C31.5 15.933 29.933 17.5 28 17.5H19.25V15.75C19.25 14.7835 18.4665 14 17.5 14C16.5335 14 15.75 14.7835 15.75 15.75V17.5H7C5.067 17.5 3.5 15.933 3.5 14C3.5 12.067 5.067 10.5 7 10.5H9.04874C8.85527 9.95264 8.75 9.36361 8.75 8.75ZM15.75 10.5V8.75C15.75 7.7835 14.9665 7 14 7C13.0335 7 12.25 7.7835 12.25 8.75C12.25 9.7165 13.0335 10.5 14 10.5H15.75ZM21 10.5C21.9665 10.5 22.75 9.7165 22.75 8.75C22.75 7.7835 21.9665 7 21 7C20.0335 7 19.25 7.7835 19.25 8.75V10.5H21Z" fill="currentColor"/>
<path d="M15.75 19.25H5.25V28C5.25 29.933 6.817 31.5 8.75 31.5H15.75V19.25Z" fill="currentColor"/>
<path d="M19.25 31.5H26.25C28.183 31.5 29.75 29.933 29.75 28V19.25H19.25V31.5Z" fill="currentColor"/>
</svg>
