<svg viewBox="0 0 35 35" fill="none" xmlns="http://www.w3.org/2000/svg">
<path fill-rule="evenodd" clip-rule="evenodd" d="M17.5 31.5C25.232 31.5 31.5 25.232 31.5 17.5C31.5 9.76801 25.232 3.5 17.5 3.5C9.76801 3.5 3.5 9.76801 3.5 17.5C3.5 25.232 9.76801 31.5 17.5 31.5ZM7.58063 14.048C8.23449 12.1688 9.40726 10.5326 10.9274 9.31097C11.3962 10.0269 12.2054 10.4998 13.125 10.4998C14.5748 10.4998 15.75 11.6751 15.75 13.1248V13.9998C15.75 15.9328 17.317 17.4998 19.25 17.4998C21.183 17.4998 22.75 15.9328 22.75 13.9998C22.75 12.3546 23.8852 10.9746 25.415 10.6001C27.0249 12.4453 28 14.8587 28 17.4999C28 18.0962 27.9503 18.681 27.8548 19.2502H26.25C24.317 19.2502 22.75 20.8172 22.75 22.7502V26.5952C21.2056 27.4886 19.4123 27.9999 17.4999 27.9999V24.5C17.4999 22.567 15.9328 21 13.9999 21C12.0669 21 10.4999 19.433 10.4999 17.5C10.4999 15.7649 9.23722 14.3246 7.58063 14.048Z" fill="currentColor"/>
</svg>
