<svg viewBox="0 0 35 35" fill="none" xmlns="http://www.w3.org/2000/svg">
<path fill-rule="evenodd" clip-rule="evenodd" d="M7.14518 15.75H10.5501C10.7062 13.0438 11.2215 10.5509 12.0163 8.54399C9.48065 10.0999 7.65648 12.7023 7.14518 15.75ZM17.5 3.5C9.76801 3.5 3.5 9.76801 3.5 17.5C3.5 25.232 9.76801 31.5 17.5 31.5C25.232 31.5 31.5 25.232 31.5 17.5C31.5 9.76801 25.232 3.5 17.5 3.5ZM17.5 7C17.3669 7 17.0938 7.05552 16.6857 7.45822C16.2702 7.86835 15.8156 8.54858 15.3962 9.5273C14.716 11.1144 14.2186 13.2748 14.0566 15.75H20.9434C20.7814 13.2748 20.284 11.1144 19.6038 9.5273C19.1844 8.54858 18.7298 7.86835 18.3143 7.45822C17.9062 7.05552 17.6331 7 17.5 7ZM24.4499 15.75C24.2938 13.0438 23.7785 10.5509 22.9837 8.54399C25.5193 10.0999 27.3435 12.7023 27.8548 15.75H24.4499ZM20.9434 19.25H14.0566C14.2186 21.7252 14.716 23.8856 15.3962 25.4727C15.8156 26.4514 16.2702 27.1316 16.6857 27.5418C17.0938 27.9445 17.3669 28 17.5 28C17.6331 28 17.9062 27.9445 18.3143 27.5418C18.7298 27.1316 19.1844 26.4514 19.6038 25.4727C20.284 23.8856 20.7814 21.7252 20.9434 19.25ZM22.9837 26.456C23.7785 24.4491 24.2938 21.9562 24.4499 19.25H27.8548C27.3435 22.2977 25.5193 24.9001 22.9837 26.456ZM12.0163 26.456C11.2215 24.4491 10.7062 21.9562 10.5501 19.25H7.14518C7.65648 22.2977 9.48066 24.9001 12.0163 26.456Z" fill="currentColor"/>
</svg>
