<svg viewBox="0 0 35 35" fill="none" xmlns="http://www.w3.org/2000/svg">
<path fill-rule="evenodd" clip-rule="evenodd" d="M8.75 5.25C6.817 5.25 5.25 6.817 5.25 8.75V26.25C5.25 28.183 6.817 29.75 8.75 29.75H26.25C28.183 29.75 29.75 28.183 29.75 26.25V8.75C29.75 6.817 28.183 5.25 26.25 5.25H8.75ZM24.5 12.25C24.5 11.2835 23.7165 10.5 22.75 10.5C21.7835 10.5 21 11.2835 21 12.25V22.75C21 23.7165 21.7835 24.5 22.75 24.5C23.7165 24.5 24.5 23.7165 24.5 22.75V12.25ZM19.25 15.75C19.25 14.7835 18.4665 14 17.5 14C16.5335 14 15.75 14.7835 15.75 15.75V22.75C15.75 23.7165 16.5335 24.5 17.5 24.5C18.4665 24.5 19.25 23.7165 19.25 22.75V15.75ZM14 21C14 20.0335 13.2165 19.25 12.25 19.25C11.2835 19.25 10.5 20.0335 10.5 21V22.75C10.5 23.7165 11.2835 24.5 12.25 24.5C13.2165 24.5 14 23.7165 14 22.75V21Z" fill="currentColor"/>
</svg>
