<svg viewBox="0 0 35 35" fill="none" xmlns="http://www.w3.org/2000/svg">
<path fill-rule="evenodd" clip-rule="evenodd" d="M5.25 5.25C4.2835 5.25 3.5 6.0335 3.5 7C3.5 7.9665 4.2835 8.75 5.25 8.75V22.75C5.25 24.683 6.817 26.25 8.75 26.25H13.2751L11.0126 28.5126C10.3291 29.196 10.3291 30.304 11.0126 30.9874C11.696 31.6709 12.804 31.6709 13.4874 30.9874L17.5 26.9749L21.5126 30.9874C22.196 31.6709 23.304 31.6709 23.9874 30.9874C24.6709 30.304 24.6709 29.196 23.9874 28.5126L21.7249 26.25H26.25C28.183 26.25 29.75 24.683 29.75 22.75V8.75C30.7165 8.75 31.5 7.9665 31.5 7C31.5 6.0335 30.7165 5.25 29.75 5.25H5.25ZM25.7374 13.4874C26.4209 12.804 26.4209 11.696 25.7374 11.0126C25.054 10.3291 23.946 10.3291 23.2626 11.0126L17.5 16.7751L15.2374 14.5126C14.554 13.8291 13.446 13.8291 12.7626 14.5126L9.26256 18.0126C8.57914 18.696 8.57914 19.804 9.26256 20.4874C9.94598 21.1709 11.054 21.1709 11.7374 20.4874L14 18.2249L16.2626 20.4874C16.946 21.1709 18.054 21.1709 18.7374 20.4874L25.7374 13.4874Z" fill="currentColor"/>
</svg>
