<svg viewBox="0 0 35 35" fill="none" xmlns="http://www.w3.org/2000/svg">
<path fill-rule="evenodd" clip-rule="evenodd" d="M5.25 5.25C4.2835 5.25 3.5 6.0335 3.5 7C3.5 7.9665 4.2835 8.75 5.25 8.75V22.75C5.25 24.683 6.817 26.25 8.75 26.25H13.2751L11.0126 28.5126C10.3291 29.196 10.3291 30.304 11.0126 30.9874C11.696 31.6709 12.804 31.6709 13.4874 30.9874L17.5 26.9749L21.5126 30.9874C22.196 31.6709 23.304 31.6709 23.9874 30.9874C24.6709 30.304 24.6709 29.196 23.9874 28.5126L21.7249 26.25H26.25C28.183 26.25 29.75 24.683 29.75 22.75V8.75C30.7165 8.75 31.5 7.9665 31.5 7C31.5 6.0335 30.7165 5.25 29.75 5.25H5.25ZM24.5 12.25C24.5 11.2835 23.7165 10.5 22.75 10.5C21.7835 10.5 21 11.2835 21 12.25V19.25C21 20.2165 21.7835 21 22.75 21C23.7165 21 24.5 20.2165 24.5 19.25V12.25ZM19.25 14C19.25 13.0335 18.4665 12.25 17.5 12.25C16.5335 12.25 15.75 13.0335 15.75 14V19.25C15.75 20.2165 16.5335 21 17.5 21C18.4665 21 19.25 20.2165 19.25 19.25V14ZM14 15.75C14 14.7835 13.2165 14 12.25 14C11.2835 14 10.5 14.7835 10.5 15.75V19.25C10.5 20.2165 11.2835 21 12.25 21C13.2165 21 14 20.2165 14 19.25V15.75Z" fill="currentColor"/>
</svg>
