<svg viewBox="0 0 35 35" fill="none" xmlns="http://www.w3.org/2000/svg">
<path d="M8.75 5.25C6.817 5.25 5.25 6.817 5.25 8.75V12.25C5.25 14.183 6.817 15.75 8.75 15.75H12.25C14.183 15.75 15.75 14.183 15.75 12.25V8.75C15.75 6.817 14.183 5.25 12.25 5.25H8.75Z" fill="currentColor"/>
<path d="M8.75 19.25C6.817 19.25 5.25 20.817 5.25 22.75V26.25C5.25 28.183 6.817 29.75 8.75 29.75H12.25C14.183 29.75 15.75 28.183 15.75 26.25V22.75C15.75 20.817 14.183 19.25 12.25 19.25H8.75Z" fill="currentColor"/>
<path d="M19.25 8.75C19.25 6.817 20.817 5.25 22.75 5.25H26.25C28.183 5.25 29.75 6.817 29.75 8.75V12.25C29.75 14.183 28.183 15.75 26.25 15.75H22.75C20.817 15.75 19.25 14.183 19.25 12.25V8.75Z" fill="currentColor"/>
<path d="M19.25 22.75C19.25 20.817 20.817 19.25 22.75 19.25H26.25C28.183 19.25 29.75 20.817 29.75 22.75V26.25C29.75 28.183 28.183 29.75 26.25 29.75H22.75C20.817 29.75 19.25 28.183 19.25 26.25V22.75Z" fill="currentColor"/>
</svg>
