<svg viewBox="0 0 35 35" fill="none" xmlns="http://www.w3.org/2000/svg">
<path d="M20.6773 16.6764C20.8021 16.333 20.8334 15.8338 20.8334 15.4279V13.18C20.8334 13.0065 20.8237 12.8319 20.8041 12.6678C20.7887 12.5392 20.7672 12.4165 20.7396 12.3056C20.3963 11.0571 19.4908 10.2146 18.1797 10.2146C16.4628 10.2146 15.0578 11.7758 15.0578 14.5535C15.0578 16.8333 16.1818 18.6128 18.1797 18.6128C19.3972 18.6128 20.365 17.8009 20.6773 16.6764Z" fill="currentColor"/>
<path fill-rule="evenodd" clip-rule="evenodd" d="M3 5.41667C3 4.08207 4.082 3 5.41667 3H29.5833C30.918 3 32 4.08207 32 5.41667V29.5833C32 30.9179 30.918 32 29.5833 32H5.41667C4.082 32 3 30.9179 3 29.5833V5.41667ZM21.4263 8.15548L21.4323 6.96838H25.5994C25.6042 6.89522 25.5786 20.0181 25.5786 20.0181C25.5786 22.9528 24.8815 25.0438 23.1643 26.5743C21.4784 28.0104 19.1995 28.447 16.9518 28.447C14.9537 28.447 12.8309 28.0411 11.4572 27.2611L12.4979 23.4626C13.4655 24.0243 15.1513 24.6178 16.9309 24.6178C19.1787 24.6178 20.8956 23.9205 20.8956 21.1108V20.4241C19.7622 21.5887 18.4606 22.1091 16.7124 22.1091C12.9348 22.1091 10.25 19.0505 10.25 14.6479C10.25 9.74731 13.4344 6.625 17.1806 6.625C19.2723 6.625 20.2712 6.8905 21.4263 8.15548Z" fill="currentColor"/>
</svg>
