<svg viewBox="0 0 35 35" fill="none" xmlns="http://www.w3.org/2000/svg">
<path d="M18.7374 4.01256C18.054 3.32915 16.946 3.32915 16.2626 4.01256L4.01256 16.2626C3.32915 16.946 3.32915 18.054 4.01256 18.7374C4.69598 19.4209 5.80402 19.4209 6.48744 18.7374L7 18.2249V29.75C7 30.7165 7.7835 31.5 8.75 31.5H12.25C13.2165 31.5 14 30.7165 14 29.75V26.25C14 25.2835 14.7835 24.5 15.75 24.5H19.25C20.2165 24.5 21 25.2835 21 26.25V29.75C21 30.7165 21.7835 31.5 22.75 31.5H26.25C27.2165 31.5 28 30.7165 28 29.75V18.2249L28.5126 18.7374C29.196 19.4209 30.304 19.4209 30.9874 18.7374C31.6709 18.054 31.6709 16.946 30.9874 16.2626L18.7374 4.01256Z" fill="currentColor"/>
</svg>
