<svg viewBox="0 0 35 35" fill="none" xmlns="http://www.w3.org/2000/svg">
<path fill-rule="evenodd" clip-rule="evenodd" d="M5.25 8.75C5.25 6.817 6.817 5.25 8.75 5.25H10.5C11.4665 5.25 12.25 6.0335 12.25 7C12.25 7.9665 11.4665 8.75 10.5 8.75L8.75 8.75V26.25H26.25V8.75H24.5C23.5335 8.75 22.75 7.9665 22.75 7C22.75 6.0335 23.5335 5.25 24.5 5.25H26.25C28.183 5.25 29.75 6.817 29.75 8.75V26.25C29.75 28.183 28.183 29.75 26.25 29.75H8.75C6.817 29.75 5.25 28.183 5.25 26.25V8.75Z" fill="currentColor"/>
<path d="M7 21H12.25L14 24.5H21L22.75 21H28V28H7V21Z" fill="currentColor"/>
<path d="M12.7626 12.7626C13.446 12.0791 14.554 12.0791 15.2374 12.7626L15.75 13.2751V5.25C15.75 4.2835 16.5335 3.5 17.5 3.5C18.4665 3.5 19.25 4.2835 19.25 5.25L19.25 13.2751L19.7626 12.7626C20.446 12.0791 21.554 12.0791 22.2374 12.7626C22.9209 13.446 22.9209 14.554 22.2374 15.2374L18.7374 18.7374C18.4092 19.0656 17.9641 19.25 17.5 19.25C17.0359 19.25 16.5908 19.0656 16.2626 18.7374L12.7626 15.2374C12.0791 14.554 12.0791 13.446 12.7626 12.7626Z" fill="currentColor"/>
</svg>
