<svg viewBox="0 0 35 35" fill="none" xmlns="http://www.w3.org/2000/svg">
<path fill-rule="evenodd" clip-rule="evenodd" d="M31.5 17.5C31.5 25.232 25.232 31.5 17.5 31.5C9.76801 31.5 3.5 25.232 3.5 17.5C3.5 9.76801 9.76801 3.5 17.5 3.5C25.232 3.5 31.5 9.76801 31.5 17.5ZM19.25 10.5C19.25 11.4665 18.4665 12.25 17.5 12.25C16.5335 12.25 15.75 11.4665 15.75 10.5C15.75 9.5335 16.5335 8.75 17.5 8.75C18.4665 8.75 19.25 9.5335 19.25 10.5ZM15.75 15.75C14.7835 15.75 14 16.5335 14 17.5C14 18.4665 14.7835 19.25 15.75 19.25V24.5C15.75 25.4665 16.5335 26.25 17.5 26.25H19.25C20.2165 26.25 21 25.4665 21 24.5C21 23.5335 20.2165 22.75 19.25 22.75V17.5C19.25 16.5335 18.4665 15.75 17.5 15.75H15.75Z" fill="currentColor"/>
</svg>
