<svg viewBox="0 0 35 35" fill="none" xmlns="http://www.w3.org/2000/svg">
<path fill-rule="evenodd" clip-rule="evenodd" d="M2.25806 4C1.01099 4 0 5.00745 0 6.25V28.75C0 29.9926 1.01099 31 2.25806 31H32.7419C33.989 31 35 29.9926 35 28.75V6.25C35 5.00745 33.989 4 32.7419 4H2.25806ZM27.0968 17.5V22C27.0968 22.6213 27.6022 23.125 28.2258 23.125V28.75H24.8387V23.125C25.4623 23.125 25.9677 22.6213 25.9677 22V17.5H27.0968ZM31.6129 28.75C32.2365 28.75 32.7419 28.2463 32.7419 27.625V17.5H30.4839V22C30.4839 22.6213 29.9784 23.125 29.3548 23.125V28.75H31.6129ZM20.3226 28.75H23.7097V23.125C23.0861 23.125 22.5806 22.6213 22.5806 22V17.5H21.4516V22C21.4516 22.6213 20.9462 23.125 20.3226 23.125V28.75ZM19.1935 23.125C18.57 23.125 18.0645 22.6213 18.0645 22V17.5H15.8065V28.75H19.1935V23.125ZM11.2903 28.75H14.6774V17.5H12.4194V22C12.4194 22.6213 11.9139 23.125 11.2903 23.125V28.75ZM10.1613 23.125C9.53772 23.125 9.03226 22.6213 9.03226 22V17.5H7.90323V22C7.90323 22.6213 7.39777 23.125 6.77419 23.125V28.75H10.1613V23.125ZM3.3871 28.75H5.64516V23.125C5.02159 23.125 4.51613 22.6213 4.51613 22V17.5H2.25806V27.625C2.25806 28.2463 2.76352 28.75 3.3871 28.75ZM15.5 11C15.5 10.4477 15.9477 10 16.5 10H20.5C21.0523 10 21.5 10.4477 21.5 11C21.5 11.5523 21.0523 12 20.5 12H16.5C15.9477 12 15.5 11.5523 15.5 11ZM23.5 10C22.9477 10 22.5 10.4477 22.5 11C22.5 11.5523 22.9477 12 23.5 12H26.5C27.0523 12 27.5 11.5523 27.5 11C27.5 10.4477 27.0523 10 26.5 10H23.5ZM28.5 11C28.5 10.4477 28.9477 10 29.5 10C30.0523 10 30.5 10.4477 30.5 11C30.5 11.5523 30.0523 12 29.5 12C28.9477 12 28.5 11.5523 28.5 11ZM6.5 10C5.94772 10 5.5 10.4477 5.5 11C5.5 11.5523 5.94772 12 6.5 12C7.05228 12 7.5 11.5523 7.5 11C7.5 10.4477 7.05228 10 6.5 10Z" fill="currentColor"/>
</svg>
