<svg viewBox="0 0 35 35" fill="none" xmlns="http://www.w3.org/2000/svg">
<path fill-rule="evenodd" clip-rule="evenodd" d="M31.5 14C31.5 19.799 26.799 24.5 21 24.5C19.9392 24.5 18.9151 24.3427 17.9499 24.0501L14 28H10.5V31.5H3.5V24.5L10.9499 17.0501C10.6573 16.0849 10.5 15.0608 10.5 14C10.5 8.20101 15.201 3.5 21 3.5C26.799 3.5 31.5 8.20101 31.5 14ZM21 7C20.0335 7 19.25 7.7835 19.25 8.75C19.25 9.7165 20.0335 10.5 21 10.5C22.933 10.5 24.5 12.067 24.5 14C24.5 14.9665 25.2835 15.75 26.25 15.75C27.2165 15.75 28 14.9665 28 14C28 10.134 24.866 7 21 7Z" fill="currentColor"/>
</svg>
