<svg viewBox="0 0 35 35" fill="none" xmlns="http://www.w3.org/2000/svg">
<path d="M5.25 7C5.25 6.0335 6.0335 5.25 7 5.25H28C28.9665 5.25 29.75 6.0335 29.75 7V10.5C29.75 11.4665 28.9665 12.25 28 12.25H7C6.0335 12.25 5.25 11.4665 5.25 10.5V7Z" fill="currentColor"/>
<path d="M5.25 17.5C5.25 16.5335 6.0335 15.75 7 15.75H17.5C18.4665 15.75 19.25 16.5335 19.25 17.5V28C19.25 28.9665 18.4665 29.75 17.5 29.75H7C6.0335 29.75 5.25 28.9665 5.25 28V17.5Z" fill="currentColor"/>
<path d="M24.5 15.75C23.5335 15.75 22.75 16.5335 22.75 17.5V28C22.75 28.9665 23.5335 29.75 24.5 29.75H28C28.9665 29.75 29.75 28.9665 29.75 28V17.5C29.75 16.5335 28.9665 15.75 28 15.75H24.5Z" fill="currentColor"/>
</svg>
