<svg viewBox="0 0 35 35" fill="none" xmlns="http://www.w3.org/2000/svg">
<path d="M22.0251 8.02513C23.3919 6.65829 25.608 6.65829 26.9748 8.02513C28.3417 9.39196 28.3417 11.608 26.9748 12.9749L21.7248 18.2249C20.358 19.5917 18.1419 19.5917 16.7751 18.2249C16.0917 17.5415 14.9836 17.5415 14.3002 18.2249C13.6168 18.9083 13.6168 20.0163 14.3002 20.6997C17.0339 23.4334 21.466 23.4334 24.1997 20.6997L29.4497 15.4497C32.1834 12.7161 32.1834 8.28392 29.4497 5.55025C26.716 2.81658 22.2839 2.81658 19.5502 5.55025L16.9252 8.17525C16.2418 8.85867 16.2418 9.96671 16.9252 10.6501C17.6086 11.3335 18.7167 11.3335 19.4001 10.6501L22.0251 8.02513Z" fill="currentColor"/>
<path d="M13.2751 16.7751C14.642 15.4083 16.858 15.4083 18.2249 16.7751C18.9083 17.4585 20.0163 17.4585 20.6997 16.7751C21.3832 16.0917 21.3832 14.9837 20.6997 14.3003C17.9661 11.5666 13.5339 11.5666 10.8003 14.3003L5.55025 19.5503C2.81658 22.2839 2.81658 26.7161 5.55025 29.4497C8.28392 32.1834 12.7161 32.1834 15.4497 29.4497L18.0747 26.8247C18.7582 26.1413 18.7582 25.0333 18.0747 24.3499C17.3913 23.6665 16.2833 23.6665 15.5999 24.3499L12.9749 26.9749C11.608 28.3417 9.39196 28.3417 8.02513 26.9749C6.65829 25.608 6.65829 23.392 8.02513 22.0251L13.2751 16.7751Z" fill="currentColor"/>
</svg>
