<svg viewBox="0 0 35 35" fill="none" xmlns="http://www.w3.org/2000/svg">
<path fill-rule="evenodd" clip-rule="evenodd" d="M5.25 7C5.25 6.0335 6.0335 5.25 7 5.25H28C28.9665 5.25 29.75 6.0335 29.75 7C29.75 7.9665 28.9665 8.75 28 8.75H7C6.0335 8.75 5.25 7.9665 5.25 7ZM5.25 14C5.25 13.0335 6.0335 12.25 7 12.25H28C28.9665 12.25 29.75 13.0335 29.75 14C29.75 14.9665 28.9665 15.75 28 15.75H7C6.0335 15.75 5.25 14.9665 5.25 14ZM5.25 21C5.25 20.0335 6.0335 19.25 7 19.25H28C28.9665 19.25 29.75 20.0335 29.75 21C29.75 21.9665 28.9665 22.75 28 22.75H7C6.0335 22.75 5.25 21.9665 5.25 21ZM5.25 28C5.25 27.0335 6.0335 26.25 7 26.25H28C28.9665 26.25 29.75 27.0335 29.75 28C29.75 28.9665 28.9665 29.75 28 29.75H7C6.0335 29.75 5.25 28.9665 5.25 28Z" fill="currentColor"/>
</svg>
