<svg viewBox="0 0 35 35" fill="none" xmlns="http://www.w3.org/2000/svg">
<path fill-rule="evenodd" clip-rule="evenodd" d="M17.5 31.5C25.232 31.5 31.5 25.232 31.5 17.5C31.5 9.76801 25.232 3.5 17.5 3.5C9.76801 3.5 3.5 9.76801 3.5 17.5C3.5 25.232 9.76801 31.5 17.5 31.5ZM16.7207 12.5439C16.1837 12.1859 15.4933 12.1525 14.9242 12.4571C14.3552 12.7616 14 13.3546 14 14V21C14 21.6454 14.3552 22.2384 14.9242 22.5429C15.4933 22.8475 16.1837 22.8141 16.7207 22.4561L21.9707 18.9561C22.4576 18.6315 22.75 18.0851 22.75 17.5C22.75 16.9149 22.4576 16.3685 21.9707 16.0439L16.7207 12.5439Z" fill="currentColor"/>
</svg>
