<svg viewBox="0 0 35 35" fill="none" xmlns="http://www.w3.org/2000/svg">
<path fill-rule="evenodd" clip-rule="evenodd" d="M19.8125 5.8125C19.8125 7.36582 18.5533 8.625 17 8.625C15.4467 8.625 14.1875 7.36582 14.1875 5.8125C14.1875 4.25918 15.4467 3 17 3C18.5533 3 19.8125 4.25918 19.8125 5.8125ZM17 27.375C15.4467 27.375 14.1875 28.6342 14.1875 30.1875C14.1875 31.7408 15.4467 33 17 33C18.5533 33 19.8125 31.7408 19.8125 30.1875C19.8125 28.6342 18.5533 27.375 17 27.375ZM29.1875 15.1875C27.6342 15.1875 26.375 16.4467 26.375 18C26.375 19.5533 27.6342 20.8125 29.1875 20.8125C30.7408 20.8125 32 19.5533 32 18C32 16.4467 30.7408 15.1875 29.1875 15.1875ZM7.625 18C7.625 16.4467 6.36582 15.1875 4.8125 15.1875C3.25918 15.1875 2 16.4467 2 18C2 19.5533 3.25918 20.8125 4.8125 20.8125C6.36582 20.8125 7.625 19.5533 7.625 18ZM8.38184 23.8054C6.82852 23.8054 5.56934 25.0646 5.56934 26.6179C5.56934 28.1712 6.82852 29.4304 8.38184 29.4304C9.93516 29.4304 11.1943 28.1712 11.1943 26.6179C11.1943 25.0647 9.93509 23.8054 8.38184 23.8054ZM25.6182 23.8054C24.0648 23.8054 22.8057 25.0646 22.8057 26.6179C22.8057 28.1712 24.0648 29.4304 25.6182 29.4304C27.1715 29.4304 28.4307 28.1712 28.4307 26.6179C28.4307 25.0647 27.1715 23.8054 25.6182 23.8054ZM8.38184 6.56958C6.82852 6.56958 5.56934 7.82876 5.56934 9.38208C5.56934 10.9354 6.82852 12.1946 8.38184 12.1946C9.93516 12.1946 11.1943 10.9354 11.1943 9.38208C11.1943 7.82876 9.93509 6.56958 8.38184 6.56958Z" fill="currentColor"/>
</svg>
