<svg viewBox="0 0 35 35" fill="none" xmlns="http://www.w3.org/2000/svg">
<path d="M29.75 29.75C30.7165 29.75 31.5 28.9665 31.5 28L31.5 7C31.5 6.0335 30.7165 5.25 29.75 5.25C28.7835 5.25 28 6.0335 28 7L28 28C28 28.9665 28.7835 29.75 29.75 29.75Z" fill="currentColor"/>
<path d="M11.7374 13.4874C12.4209 12.804 12.4209 11.696 11.7374 11.0126C11.054 10.3291 9.94598 10.3291 9.26257 11.0126L4.01256 16.2626C3.68438 16.5907 3.5 17.0359 3.5 17.5C3.5 17.9641 3.68438 18.4092 4.01256 18.7374L9.26256 23.9874C9.94598 24.6709 11.054 24.6709 11.7374 23.9874C12.4209 23.304 12.4209 22.196 11.7374 21.5126L9.47487 19.25L22.75 19.25C23.7165 19.25 24.5 18.4665 24.5 17.5C24.5 16.5335 23.7165 15.75 22.75 15.75L9.47488 15.75L11.7374 13.4874Z" fill="currentColor"/>
</svg>
