<svg viewBox="0 0 35 35" fill="none" xmlns="http://www.w3.org/2000/svg">
<path fill-rule="evenodd" clip-rule="evenodd" d="M5.145 11.2217C4.12167 11.8613 3.5 12.9829 3.5 14.1897V27.9998C3.5 29.9328 5.067 31.4998 7 31.4998H28C29.933 31.4998 31.5 29.9328 31.5 27.9998V14.1897C31.5 12.9829 30.8783 11.8613 29.855 11.2217L19.355 4.6592C18.22 3.94986 16.78 3.94986 15.645 4.6592L5.145 11.2217ZM9.72073 15.4606C8.91655 14.9245 7.83003 15.1418 7.29391 15.9459C6.7578 16.7501 6.9751 17.8366 7.77927 18.3728L16.5293 24.2061C17.1171 24.598 17.8829 24.598 18.4707 24.2061L27.2207 18.3728C28.0249 17.8366 28.2422 16.7501 27.7061 15.9459C27.17 15.1418 26.0834 14.9245 25.2793 15.4606L17.5 20.6468L9.72073 15.4606Z" fill="currentColor"/>
</svg>
