<svg viewBox="0 0 35 35" fill="none" xmlns="http://www.w3.org/2000/svg">
<path fill-rule="evenodd" clip-rule="evenodd" d="M21 2.77515L14 9.77515V32.2249L21 25.2249V2.77515Z" fill="currentColor"/>
<path fill-rule="evenodd" clip-rule="evenodd" d="M6.48744 5.76258C5.98694 5.26209 5.23423 5.11236 4.5803 5.38323C3.92637 5.6541 3.5 6.29221 3.5 7.00002V24.5C3.5 24.9642 3.68437 25.4093 4.01256 25.7375L10.5 32.2249V9.77515L6.48744 5.76258Z" fill="currentColor"/>
<path fill-rule="evenodd" clip-rule="evenodd" d="M30.9874 9.26258L24.5 2.77515V25.2249L28.5126 29.2375C29.0131 29.738 29.7658 29.8877 30.4197 29.6168C31.0736 29.3459 31.5 28.7078 31.5 28V10.5C31.5 10.0359 31.3156 9.59077 30.9874 9.26258Z" fill="currentColor"/>
</svg>
