<svg viewBox="0 0 35 35" fill="none" xmlns="http://www.w3.org/2000/svg">
<path d="M17.5 3.5C16.5335 3.5 15.75 4.2835 15.75 5.25V7C15.75 7.9665 16.5335 8.75 17.5 8.75C18.4665 8.75 19.25 7.9665 19.25 7V5.25C19.25 4.2835 18.4665 3.5 17.5 3.5Z" fill="currentColor"/>
<path fill-rule="evenodd" clip-rule="evenodd" d="M7 7H12.25C12.25 9.89949 14.6005 12.25 17.5 12.25C20.3995 12.25 22.75 9.89949 22.75 7H28C29.933 7 31.5 8.567 31.5 10.5V26.25C31.5 28.183 29.933 29.75 28 29.75H7C5.067 29.75 3.5 28.183 3.5 26.25V10.5C3.5 8.567 5.067 7 7 7ZM11.375 19.25C12.8247 19.25 14 18.0747 14 16.625C14 15.1753 12.8247 14 11.375 14C9.92525 14 8.75 15.1753 8.75 16.625C8.75 18.0747 9.92525 19.25 11.375 19.25ZM15.6633 26.25C15.7207 25.9673 15.7509 25.6747 15.7509 25.375C15.7509 22.9588 13.7921 21 11.3759 21C8.95961 21 7.00085 22.9588 7.00085 25.375C7.00085 25.6747 7.03098 25.9673 7.08837 26.25H15.6633ZM21 15.75C20.0335 15.75 19.25 16.5335 19.25 17.5C19.25 18.4665 20.0335 19.25 21 19.25H26.25C27.2165 19.25 28 18.4665 28 17.5C28 16.5335 27.2165 15.75 26.25 15.75H21ZM19.25 22.75C19.25 21.7835 20.0335 21 21 21H24.5C25.4665 21 26.25 21.7835 26.25 22.75C26.25 23.7165 25.4665 24.5 24.5 24.5H21C20.0335 24.5 19.25 23.7165 19.25 22.75Z" fill="currentColor"/>
</svg>
