<svg viewBox="0 0 35 35" fill="none" xmlns="http://www.w3.org/2000/svg">
<path fill-rule="evenodd" clip-rule="evenodd" d="M25.9583 5.45455C25.291 5.45455 24.75 6.00406 24.75 6.68182V7.90909H4.20833C3.54098 7.90909 3 8.45861 3 9.13636V28.7727C3 29.4505 3.54098 30 4.20833 30H30.7917C31.459 30 32 29.4505 32 28.7727V9.13636C32 7.10309 30.377 5.45455 28.375 5.45455H25.9583ZM28.375 25.0909H25.9583C25.291 25.0909 24.75 24.5414 24.75 23.8636V10.3636H5.41667V27.5455H28.375C29.0423 27.5455 29.5833 26.9959 29.5833 26.3182C29.5833 25.6404 29.0423 25.0909 28.375 25.0909Z" fill="currentColor"/>
<path fill-rule="evenodd" clip-rule="evenodd" d="M18.7083 3C19.3757 3 19.9167 3.54947 19.9167 4.22727V20.1818C19.9167 21.3976 19.1889 22.3481 18.3169 22.9386C17.4364 23.5348 16.2896 23.8636 15.0833 23.8636C13.877 23.8636 12.7303 23.5348 11.8498 22.9386C10.9778 22.3481 10.25 21.3976 10.25 20.1818C10.25 18.966 10.9778 18.0155 11.8498 17.425C12.7303 16.8289 13.877 16.5 15.0833 16.5C15.9443 16.5 16.7749 16.6675 17.5 16.9802V4.22727C17.5 3.54947 18.041 3 18.7083 3Z" fill="currentColor"/>
</svg>
