<svg viewBox="0 0 35 35" fill="none" xmlns="http://www.w3.org/2000/svg">
<path d="M16.8764 24.5818C16.3924 24.2795 16.2451 23.642 16.5474 23.158L28.5902 3.87646C28.8925 3.39241 29.53 3.2451 30.014 3.54742C30.498 3.84974 30.6454 4.48721 30.343 4.97125L18.3003 24.2528C17.9979 24.7368 17.3605 24.8842 16.8764 24.5818Z" fill="currentColor"/>
<path fill-rule="evenodd" clip-rule="evenodd" d="M14.341 5.66784C15.7449 3.33135 19.2551 3.33135 20.6592 5.66784L32.5059 25.3824C33.91 27.7189 32.1549 30.6396 29.3467 30.6396H5.65333C2.84522 30.6396 1.0901 27.7189 2.49415 25.3824L14.341 5.66784ZM5.35658 25L4.86354 25.8206C4.16151 26.9888 5.03907 28.4492 6.443 28.4492H28.557C29.9611 28.4492 30.8386 26.9888 30.1366 25.8206L29.6436 25H5.35658Z" fill="currentColor"/>
</svg>
