<svg viewBox="0 0 35 35" fill="none" xmlns="http://www.w3.org/2000/svg">
<path d="M12.25 7C12.25 4.10051 14.6005 1.75 17.5 1.75C20.3995 1.75 22.75 4.10051 22.75 7V14C22.75 16.8995 20.3995 19.25 17.5 19.25C14.6005 19.25 12.25 16.8995 12.25 14V7Z" fill="currentColor"/>
<path d="M19.25 26.1259C25.1865 25.2768 29.75 20.1713 29.75 14C29.75 13.0335 28.9665 12.25 28 12.25C27.0335 12.25 26.25 13.0335 26.25 14C26.25 18.8325 22.3325 22.75 17.5 22.75C12.6675 22.75 8.75 18.8325 8.75 14C8.75 13.0335 7.9665 12.25 7 12.25C6.0335 12.25 5.25 13.0335 5.25 14C5.25 20.1713 9.81349 25.2768 15.75 26.1259V29.75H10.5C9.5335 29.75 8.75 30.5335 8.75 31.5C8.75 32.4665 9.5335 33.25 10.5 33.25H24.5C25.4665 33.25 26.25 32.4665 26.25 31.5C26.25 30.5335 25.4665 29.75 24.5 29.75H19.25V26.1259Z" fill="currentColor"/>
</svg>
