<svg viewBox="0 0 35 35" fill="none" xmlns="http://www.w3.org/2000/svg">
<path d="M14.7425 19.6777V18.3995C14.7425 18.2074 14.6619 18.0232 14.5184 17.8874C14.375 17.7515 14.1803 17.6752 13.9774 17.6752C13.7745 17.6752 13.5799 17.7515 13.4364 17.8874C13.2929 18.0232 13.2123 18.2074 13.2123 18.3995V19.6777C13.2123 19.8698 13.2929 20.054 13.4364 20.1898C13.5799 20.3256 13.7745 20.4019 13.9774 20.4019C14.1803 20.4019 14.375 20.3256 14.5184 20.1898C14.6619 20.054 14.7425 19.8698 14.7425 19.6777Z" fill="currentColor"/>
<path d="M24.1937 16.8537C23.1861 16.8588 22.2214 17.2399 21.5089 17.9143C20.7964 18.5888 20.3938 19.502 20.3884 20.4558V30.4121C20.3833 30.9819 20.1419 31.5269 19.7164 31.9298C19.2908 32.3328 18.715 32.5613 18.1131 32.5663H17.0201C16.4181 32.5614 15.8422 32.3329 15.4166 31.93C14.9909 31.527 14.7495 30.9819 14.7444 30.4121V29.6047C15.517 29.4458 16.2158 29.0576 16.7391 28.4966C17.2625 27.9357 17.583 27.2312 17.654 26.4858L18.8014 13.3255C19.7979 12.4128 20.4839 11.2393 20.7713 9.95518C21.0586 8.67111 20.9343 7.33506 20.4143 6.11828C19.8943 4.90151 19.0023 3.85946 17.8526 3.12573C16.7028 2.39199 15.3478 2 13.9612 2C12.5746 2 11.2196 2.39199 10.0698 3.12573C8.92012 3.85946 8.02808 4.90151 7.50806 6.11828C6.98805 7.33506 6.86377 8.67111 7.15115 9.95518C7.43852 11.2393 8.12447 12.4128 9.12104 13.3255L10.2684 26.4858C10.3411 27.2361 10.6665 27.9444 11.1968 28.5062C11.727 29.0681 12.434 29.4538 13.2134 29.6064V30.3997C13.2192 31.3534 13.6223 32.2664 14.335 32.9405C15.0477 33.6146 16.0126 33.9953 17.0201 34H18.1175C19.125 33.9948 20.0896 33.6137 20.802 32.9393C21.5144 32.2649 21.917 31.3517 21.9223 30.398V20.4527C21.9095 20.1624 21.9587 19.8727 22.0672 19.6009C22.1757 19.3292 22.3411 19.081 22.5535 18.8713C22.7659 18.6616 23.0209 18.4948 23.3032 18.3808C23.5854 18.2668 23.8892 18.2081 24.196 18.2081C24.5029 18.2081 24.8067 18.2668 25.0889 18.3808C25.3712 18.4948 25.6262 18.6616 25.8386 18.8713C26.051 19.081 26.2164 19.3292 26.3249 19.6009C26.4333 19.8727 26.4826 20.1624 26.4697 20.4527V28.1568C26.4697 28.3489 26.5504 28.5332 26.6938 28.669C26.8373 28.8048 27.0319 28.8811 27.2349 28.8811C27.4378 28.8811 27.6324 28.8048 27.7759 28.669C27.9194 28.5332 28 28.3489 28 28.1568V20.4527C27.9938 19.4993 27.5906 18.5866 26.878 17.9129C26.1654 17.2391 25.2009 16.8585 24.1937 16.8537Z" fill="currentColor"/>
</svg>
