<svg viewBox="0 0 35 35" fill="none" xmlns="http://www.w3.org/2000/svg">
<path fill-rule="evenodd" clip-rule="evenodd" d="M14 7C13.4477 7 13 7.44775 13 8V21.3911C12.3999 21.1367 11.7125 21 11 21C10.0017 21 9.05264 21.2681 8.32397 21.7539C7.60229 22.2349 7 23.0093 7 24C7 24.9907 7.60229 25.7651 8.32397 26.2461C9.05264 26.7319 10.0017 27 11 27C11.9983 27 12.9474 26.7319 13.676 26.2461C14.3977 25.7651 15 24.9907 15 24V13H25V21.3911C24.3999 21.1367 23.7125 21 23 21C22.0017 21 21.0526 21.2681 20.324 21.7539C19.6023 22.2349 19 23.0093 19 24C19 24.9907 19.6023 25.7651 20.324 26.2461C21.0526 26.7319 22.0017 27 23 27C23.9983 27 24.9474 26.7319 25.676 26.2461C26.3977 25.7651 27 24.9907 27 24V8C27 7.44775 26.5523 7 26 7H14Z" fill="currentColor"/>
</svg>
