<svg viewBox="0 0 35 35" fill="none" xmlns="http://www.w3.org/2000/svg">
<path fill-rule="evenodd" clip-rule="evenodd" d="M9.05042 8C9.05042 7.44727 9.50189 7 10.0588 7H30.2269C30.7838 7 31.2353 7.44727 31.2353 8V24C31.2353 24.9902 30.6279 25.7656 29.9002 26.2461C29.1654 26.7324 28.2084 27 27.2017 27C26.195 27 25.238 26.7324 24.5032 26.2461C23.7754 25.7656 23.1681 24.9902 23.1681 24C23.1681 23.0098 23.7754 22.2344 24.5032 21.7539C25.238 21.2676 26.195 21 27.2017 21C27.9202 21 28.6133 21.1367 29.2185 21.3906V13H21.1513V24C21.1513 24.9902 20.5439 25.7656 19.8162 26.2461C19.0814 26.7324 18.1244 27 17.1176 27C16.1109 27 15.1539 26.7324 14.4191 26.2461C13.6914 25.7656 13.084 24.9902 13.084 24C13.084 23.0098 13.6914 22.2344 14.4191 21.7539C15.1539 21.2676 16.1109 21 17.1176 21C17.8361 21 18.5293 21.1367 19.1345 21.3906V13H11.0672V24C11.0672 24.9902 10.4599 25.7656 9.73212 26.2461C8.99734 26.7324 8.04032 27 7.03362 27C6.0269 27 5.06989 26.7324 4.3351 26.2461C3.60737 25.7656 3 24.9902 3 24C3 23.0098 3.60737 22.2344 4.3351 21.7539C5.06989 21.2676 6.0269 21 7.03362 21C7.7521 21 8.44528 21.1367 9.05042 21.3906V8Z" fill="currentColor"/>
</svg>
