<svg viewBox="0 0 35 35" fill="none" xmlns="http://www.w3.org/2000/svg">
<path fill-rule="evenodd" clip-rule="evenodd" d="M16.4197 5.38326C17.0736 5.65413 17.5 6.29224 17.5 7.00005V28.0001C17.5 28.7079 17.0736 29.346 16.4197 29.6168C15.7658 29.8877 15.0131 29.738 14.5126 29.2375L8.02513 22.7501H3.5C2.5335 22.7501 1.75 21.9666 1.75 21.0001V14.0001C1.75 13.0336 2.5335 12.2501 3.5 12.2501H8.02513L14.5126 5.76261C15.0131 5.26212 15.7658 5.1124 16.4197 5.38326Z" fill="currentColor"/>
<path fill-rule="evenodd" clip-rule="evenodd" d="M21.5126 12.7626C22.196 12.0791 23.304 12.0791 23.9874 12.7626L26.25 15.0251L28.5126 12.7626C29.196 12.0791 30.304 12.0791 30.9874 12.7626C31.6709 13.446 31.6709 14.554 30.9874 15.2374L28.7249 17.5L30.9874 19.7626C31.6709 20.446 31.6709 21.554 30.9874 22.2374C30.304 22.9209 29.196 22.9209 28.5126 22.2374L26.25 19.9749L23.9874 22.2374C23.304 22.9209 22.196 22.9209 21.5126 22.2374C20.8291 21.554 20.8291 20.446 21.5126 19.7626L23.7751 17.5L21.5126 15.2374C20.8291 14.554 20.8291 13.446 21.5126 12.7626Z" fill="currentColor"/>
</svg>
