<svg viewBox="0 0 32 32" fill="none" xmlns="http://www.w3.org/2000/svg">
<path d="M25.748 8.07H23.928V6.25C23.928 4.18 22.248 2.5 20.178 2.5H6.24805C4.17805 2.5 2.49805 4.18 2.49805 6.25V14.61C2.49805 16.68 4.17805 18.36 6.24805 18.36H8.06805V22.97C8.06805 23.36 8.30806 23.71 8.66806 23.86C9.02806 24.01 9.43805 23.92 9.71805 23.65L9.93805 23.43C10.508 23.76 11.1481 23.93 11.8181 23.93H16.988L22.278 29.22C22.468 29.4 22.708 29.5 22.958 29.5C23.088 29.5 23.208 29.48 23.328 29.43C23.688 29.28 23.928 28.93 23.928 28.54V23.93H25.748C27.818 23.93 29.498 22.25 29.498 20.18V11.82C29.498 9.76 27.818 8.07 25.748 8.07ZM27.5681 20.18C27.5681 21.19 26.748 22 25.748 22H22.958C22.428 22 21.998 22.43 21.998 22.97V26.21L18.078 22.28C17.888 22.1 17.6481 22 17.3881 22H11.8181C11.6781 22 11.5381 21.99 11.4081 21.96L15.0081 18.36H20.178C22.248 18.36 23.928 16.68 23.928 14.61V10H25.748C26.748 10 27.5681 10.82 27.5681 11.82V20.18Z" fill="currentColor"/>
</svg>
