<svg viewBox="0 0 32 32" fill="none" xmlns="http://www.w3.org/2000/svg">
<path d="M28.998 4.35V21.61C28.998 23.92 26.758 25.8 23.998 25.8C21.238 25.8 19.008 23.92 19.008 21.61C19.008 19.3 21.248 17.41 23.998 17.41C25.098 17.41 26.138 17.7 27.008 18.25V11.35L12.988 15.66V24.81C12.988 27.12 10.748 29 7.99805 29C5.24805 29 2.99805 27.12 2.99805 24.81C2.99805 22.5 5.23805 20.61 7.99805 20.61C9.08805 20.61 10.128 20.9 10.998 21.46V8.8C10.998 8.36 11.278 7.98 11.698 7.85L27.258 3.06C27.378 3.02 27.5181 3 27.6581 3C28.3981 3 28.998 3.61 28.998 4.35Z" fill="currentColor"/>
</svg>
