<svg viewBox="0 0 32 32" fill="none" xmlns="http://www.w3.org/2000/svg">
<path d="M29.973 17.3587C30.033 17.1085 29.993 16.8582 29.8531 16.638C29.7231 16.4278 29.5032 16.2777 29.2534 16.2176C28.8436 16.1275 28.4338 16.0775 28.044 16.0575C28.8935 14.9164 29.3433 13.425 29.2933 11.6834C29.2933 11.4232 29.1734 11.1829 28.9835 11.0128C28.7936 10.8426 28.5337 10.7626 28.2739 10.7826C28.004 10.8026 27.7441 10.8426 27.4843 10.8827C27.5042 10.8326 27.5242 10.7826 27.5442 10.7325C27.984 9.3112 27.7541 7.72973 26.8746 6.15827C26.6347 5.71786 26.085 5.5477 25.6252 5.77791C24.6757 6.25836 23.916 6.85892 23.3663 7.56958C22.9765 5.32749 21.4273 3.52582 18.8986 2.56492C18.6587 2.47484 18.3888 2.48485 18.1489 2.59495C17.919 2.70505 17.7391 2.91525 17.6692 3.16548C16.5597 6.84891 18.029 10.0018 21.4873 11.5032C21.7171 12.0137 22.1169 13.2949 22.1169 16.0174C22.1169 19.3706 19.3583 23.8447 16 26.1469C12.6517 23.8447 9.88305 19.3706 9.88305 16.0174C9.88305 13.3049 10.2829 12.0237 10.5127 11.5032C13.971 10.0018 15.4403 6.84891 14.3308 3.16548C14.2609 2.91525 14.081 2.71506 13.8511 2.59495C13.6212 2.48485 13.3513 2.46483 13.1014 2.56492C10.7526 3.45575 9.24338 5.07726 8.73364 7.09914C8.23389 6.59868 7.62419 6.14826 6.89456 5.77791C6.44478 5.5477 5.89506 5.71786 5.64518 6.15827C4.76562 7.72973 4.53574 9.32121 4.97552 10.7325C5.00551 10.8226 5.04548 10.9127 5.07546 11.0028C4.64568 10.8927 4.20591 10.8226 3.72615 10.7826C3.47627 10.7626 3.21639 10.8426 3.01649 11.0128C2.82659 11.1829 2.70665 11.4232 2.70665 11.6834C2.65668 13.425 3.10645 14.9064 3.95603 16.0475C3.56622 16.0775 3.16642 16.1275 2.74663 16.2076C2.49675 16.2577 2.27687 16.4078 2.14693 16.628C2.007 16.8382 1.96701 17.0985 2.02698 17.3487C2.51674 19.3305 3.55623 20.7819 4.98551 21.6127C4.38581 21.9129 3.8061 22.3033 3.24638 22.8038C3.04648 22.9839 2.93653 23.2342 2.93653 23.4944C2.93653 23.7547 3.04648 24.0149 3.24638 24.1851C4.65567 25.4462 6.22488 26.0668 7.80409 26.0668C9.13343 26.0668 10.4728 25.6064 11.6921 24.7055C12.4418 25.6064 13.2814 26.4171 14.1809 27.1178C13.3913 27.4381 12.5817 27.6383 11.7921 27.6383C11.2724 27.6383 10.8526 28.0587 10.8526 28.5691C10.8526 29.0796 11.2724 29.5 11.7921 29.5C13.2114 29.5 14.6407 29.0496 15.99 28.3189C17.3393 29.0596 18.7686 29.5 20.1879 29.5C20.7076 29.5 21.1274 29.0796 21.1274 28.5691C21.1274 28.0587 20.7076 27.6383 20.1879 27.6383C19.3983 27.6383 18.5987 27.4381 17.7991 27.1178C18.6886 26.4171 19.5282 25.6064 20.2879 24.7055C21.5172 25.6064 22.8466 26.0568 24.1759 26.0568C25.7551 26.0568 27.3243 25.4262 28.7336 24.175C28.9335 23.9949 29.0435 23.7446 29.0435 23.4844C29.0435 23.2242 28.9335 22.9639 28.7336 22.7938C28.1739 22.2933 27.5942 21.9029 26.9945 21.6026C28.4238 20.7719 29.4633 19.3205 29.953 17.3387L29.973 17.3587Z" fill="currentColor"/>
</svg>
