<svg viewBox="0 0 32 32" fill="none" xmlns="http://www.w3.org/2000/svg">
<path fill-rule="evenodd" clip-rule="evenodd" d="M29.5 8.85016V26.9802C29.5 27.9802 28.83 29.0002 27.53 29.0002H3.49001C2.95001 29.0002 2.5 28.5302 2.5 27.9502V8.85016C2.5 8.27016 2.95001 7.80016 3.49001 7.80016H13.73C14.27 7.80016 14.72 8.27016 14.72 8.85016C14.72 9.43016 14.27 9.90016 13.73 9.90016H4.96001C4.70001 9.90016 4.48 10.1102 4.48 10.3702V26.4302C4.48 26.6902 4.70001 26.9002 4.96001 26.9002H26.24C26.94 26.9002 27.52 26.3002 27.52 25.5602C27.52 24.8202 26.94 24.2202 26.24 24.2202H23.96C23.41 24.2202 22.97 23.7502 22.97 23.1802V10.0402C22.97 9.96016 22.9 9.90016 22.82 9.90016H20.55C20 9.90016 19.56 9.43016 19.56 8.85016C19.56 8.27016 20 7.80016 20.55 7.80016H22.82C22.9 7.80016 22.97 7.74016 22.97 7.65016V6.46016C22.97 5.88016 23.41 5.41016 23.96 5.41016H26.24C28.04 5.41016 29.5 6.95016 29.5 8.85016Z" fill="currentColor"/>
<path fill-rule="evenodd" clip-rule="evenodd" d="M18.1498 4.07V19.59C18.1498 20.59 17.6198 21.53 16.6998 22.18C15.8898 22.74 14.8398 23.05 13.7298 23.05C12.6198 23.05 11.5598 22.74 10.7498 22.18C9.8298 21.53 9.2998 20.59 9.2998 19.59C9.2998 18.59 9.8298 17.66 10.7498 17.01C11.5598 16.45 12.6198 16.13 13.7298 16.13C14.5098 16.13 15.2798 16.29 15.9498 16.59L16.1198 16.67V4.07C16.1198 3.48 16.5798 3 17.1398 3C17.6998 3 18.1498 3.48 18.1498 4.07Z" fill="currentColor"/>
</svg>
