<svg viewBox="0 0 32 32" fill="none" xmlns="http://www.w3.org/2000/svg">
    <path d="M31.653 15.29 16.66 3.23c-.18-.15-.41-.23-.65-.23-.24 0-.48.08-.67.23L.347 15.29a.9.9 0 0 0-.09 1.34c.2.21.48.31.76.31.23 0 .47-.07.66-.23l1.85-1.48v9.62c0 2.3 2.041 4.15 4.542 4.15H23.93c2.5 0 4.541-1.85 4.541-4.15v-9.62l1.85 1.48c.19.16.43.23.66.23.28 0 .56-.1.76-.31.38-.4.33-.99-.09-1.34ZM20.04 20.96c0 .87-.77 1.55-1.68 1.55H13.65c-.92 0-1.68-.68-1.68-1.55v-4.3c0-.86.77-1.55 1.68-1.55h4.71c.92 0 1.68.69 1.68 1.55v4.3Z" fill="currentColor"/>
</svg>
