<svg viewBox="0 0 32 32" fill="none" xmlns="http://www.w3.org/2000/svg">
<path d="M25.8314 27.9406C25.8314 28.5306 25.3641 29.0006 24.7874 29.0006H7.05868C6.48198 29.0006 6.01465 28.5306 6.01465 27.9406C6.01465 27.3506 6.48198 26.8906 7.05868 26.8906H24.7874C25.3641 26.8906 25.8314 27.3606 25.8314 27.9406Z" fill="currentColor"/>
<path d="M26.8256 3H5.0103C3.30007 3 1.91797 4.39 1.91797 6.11V19.83C1.91797 21.55 3.30007 22.95 5.0103 22.95H26.8256C28.5359 22.95 29.918 21.55 29.918 19.83V6.11C29.918 4.39 28.5359 3 26.8256 3ZM19.8952 14.27L14.5558 17.79C14.3171 17.95 14.0288 18.03 13.7404 18.03C13.4819 18.03 13.2134 17.96 12.9847 17.81C12.5373 17.54 12.2589 17.04 12.2589 16.5V9.46C12.2589 8.92 12.5373 8.42 12.9847 8.15C13.2234 8.01 13.4819 7.93 13.7504 7.93C14.0188 7.93 14.3072 8.01 14.5558 8.17L19.8952 11.69C20.3228 11.97 20.5813 12.44 20.5813 12.96C20.5813 13.48 20.3228 13.96 19.8952 14.24V14.27Z" fill="currentColor"/>
</svg>
