<svg viewBox="0 0 32 32" fill="none" xmlns="http://www.w3.org/2000/svg">
<path d="M26.4781 12.8C26.0681 12.7 25.748 12.42 25.588 12.03C25.428 11.64 25.458 11.22 25.678 10.86C26.478 9.53 26.288 7.91 25.188 6.81C24.098 5.71 22.4681 5.52 21.1381 6.33C20.7881 6.54 20.358 6.58 19.968 6.42C19.578 6.26 19.298 5.93 19.208 5.52C19.018 4.77 18.608 4.14 18.048 3.7C17.478 3.25 16.778 3 15.998 3C15.218 3 14.5181 3.25 13.9481 3.7C13.3881 4.14 12.9781 4.77 12.7881 5.52C12.6981 5.93 12.418 6.26 12.028 6.42C11.638 6.58 11.208 6.54 10.858 6.33C9.53803 5.52 7.90804 5.71 6.80804 6.81C5.70804 7.91 5.51805 9.53 6.31805 10.86C6.53805 11.22 6.57805 11.64 6.40805 12.03C6.24805 12.42 5.92804 12.7 5.51804 12.8C4.00804 13.16 2.99805 14.45 2.99805 16C2.99805 17.55 4.00804 18.84 5.51804 19.21C5.92804 19.31 6.24805 19.59 6.40805 19.97C6.57805 20.36 6.53805 20.79 6.31805 21.15C5.51805 22.47 5.70804 24.1 6.80804 25.19C7.89804 26.29 9.52803 26.49 10.858 25.68C11.208 25.46 11.638 25.43 12.028 25.59C12.418 25.75 12.6981 26.07 12.7881 26.48C13.1581 27.99 14.448 29 15.998 29C17.548 29 18.838 27.99 19.208 26.48C19.298 26.07 19.578 25.75 19.968 25.59C20.358 25.43 20.7881 25.46 21.1381 25.68C22.4681 26.49 24.098 26.29 25.188 25.2C26.278 24.11 26.478 22.47 25.678 21.15C25.458 20.79 25.428 20.36 25.588 19.97C25.748 19.59 26.0681 19.31 26.4781 19.21C27.9881 18.84 28.998 17.55 28.998 16C28.998 14.45 27.9881 13.16 26.4781 12.8ZM20.588 16C20.588 18.54 18.538 20.59 15.998 20.59C13.458 20.59 11.4081 18.54 11.4081 16C11.4081 13.46 13.478 11.41 15.998 11.41C18.518 11.41 20.588 13.48 20.588 16Z" fill="currentColor"/>
</svg>
