<svg viewBox="0 0 35 35" fill="none" xmlns="http://www.w3.org/2000/svg">
<path d="M17.7098 10.2447C17.2539 9.94662 16.6678 9.91883 16.1847 10.1724C15.7016 10.426 15.4 10.9197 15.4 11.4571L15.4 15.5344L7.30984 10.2447C6.85394 9.94662 6.26776 9.91883 5.78467 10.1724C5.30158 10.426 5 10.9197 5 11.4571L5 23.1143C5 23.6517 5.30158 24.1454 5.78467 24.399C6.26776 24.6526 6.85394 24.6248 7.30984 24.3267L15.4 19.037L15.4 23.1143C15.4 23.6517 15.7016 24.1454 16.1847 24.399C16.6678 24.6526 17.2539 24.6248 17.7098 24.3267L26.6241 18.4981C27.0375 18.2279 27.2857 17.7729 27.2857 17.2857C27.2857 16.7985 27.0375 16.3435 26.6241 16.0733L17.7098 10.2447Z" fill="currentColor"/>
<path d="M29 23.7143C29 24.1877 28.6162 24.5714 28.1429 24.5714C27.6695 24.5714 27.2857 24.1877 27.2857 23.7143L27.2857 10.8571C27.2857 10.3837 27.6695 9.99998 28.1429 9.99998C28.6162 9.99998 29 10.3837 29 10.8571L29 23.7143Z" fill="currentColor"/>
</svg>
