<svg viewBox="0 0 35 35" fill="none" xmlns="http://www.w3.org/2000/svg">
<path d="M16.6318 1.98057C17.1698 1.67314 17.8302 1.67314 18.3682 1.98057L21.4307 3.73057C22.2699 4.21009 22.5614 5.27909 22.0819 6.11824C21.6024 6.9574 20.5334 7.24894 19.6943 6.76943L17.5 5.51556L15.3057 6.76943C14.4666 7.24894 13.3976 6.9574 12.9181 6.11824C12.4386 5.27909 12.7301 4.21009 13.5693 3.73057L16.6318 1.98057Z" fill="currentColor"/>
<path d="M9.83193 7.88176C10.3114 8.72091 10.0199 9.78991 9.18074 10.2694L8.77724 10.5L9.18074 10.7306C10.0199 11.2101 10.3114 12.2791 9.83193 13.1182C9.35241 13.9574 8.28341 14.2489 7.44426 13.7694L7 13.5156V14C7 14.9665 6.2165 15.75 5.25 15.75C4.2835 15.75 3.5 14.9665 3.5 14V10.5C3.5 10.0625 3.66053 9.66254 3.92589 9.35574C3.98653 9.28555 4.05296 9.21994 4.12473 9.1597C4.2132 9.08535 4.30913 9.01959 4.41125 8.96372L7.44426 7.23057C8.28341 6.75106 9.35241 7.0426 9.83193 7.88176Z" fill="currentColor"/>
<path d="M25.1681 7.88176C25.6476 7.0426 26.7166 6.75106 27.5557 7.23057L30.5887 8.96371C30.6909 9.01958 30.7868 9.08534 30.8753 9.1597C31.2572 9.48072 31.5 9.96201 31.5 10.5V14C31.5 14.9665 30.7165 15.75 29.75 15.75C28.7835 15.75 28 14.9665 28 14V13.5156L27.5557 13.7694C26.7166 14.2489 25.6476 13.9574 25.1681 13.1182C24.6886 12.2791 24.9801 11.2101 25.8193 10.7306L26.2228 10.5L25.8193 10.2694C24.9801 9.78991 24.6886 8.72091 25.1681 7.88176Z" fill="currentColor"/>
<path d="M12.9181 14.8818C13.3976 14.0426 14.4666 13.7511 15.3057 14.2306L17.5 15.4844L19.6943 14.2306C20.5334 13.7511 21.6024 14.0426 22.0819 14.8818C22.5614 15.7209 22.2699 16.7899 21.4307 17.2694L19.25 18.5156V21C19.25 21.9665 18.4665 22.75 17.5 22.75C16.5335 22.75 15.75 21.9665 15.75 21V18.5156L13.5693 17.2694C12.7301 16.7899 12.4386 15.7209 12.9181 14.8818Z" fill="currentColor"/>
<path d="M5.25 19.25C6.2165 19.25 7 20.0335 7 21V23.4844L9.18074 24.7306C10.0199 25.2101 10.3114 26.2791 9.83193 27.1182C9.35241 27.9574 8.28341 28.2489 7.44426 27.7694L4.38176 26.0194C3.8365 25.7078 3.5 25.128 3.5 24.5V21C3.5 20.0335 4.2835 19.25 5.25 19.25Z" fill="currentColor"/>
<path d="M29.75 19.25C30.7165 19.25 31.5 20.0335 31.5 21V24.5C31.5 25.128 31.1635 25.7078 30.6182 26.0194L27.5557 27.7694C26.7166 28.2489 25.6476 27.9574 25.1681 27.1182C24.6886 26.2791 24.9801 25.2101 25.8193 24.7306L28 23.4844V21C28 20.0335 28.7835 19.25 29.75 19.25Z" fill="currentColor"/>
<path d="M12.9181 28.8818C13.3976 28.0426 14.4666 27.7511 15.3057 28.2306L15.75 28.4844V28C15.75 27.0335 16.5335 26.25 17.5 26.25C18.4665 26.25 19.25 27.0335 19.25 28V28.4844L19.6943 28.2306C20.5334 27.7511 21.6024 28.0426 22.0819 28.8818C22.5614 29.7209 22.2699 30.7899 21.4307 31.2694L18.3948 33.0042C18.133 33.1603 17.827 33.25 17.5 33.25C17.173 33.25 16.867 33.1603 16.6052 33.0042L13.5693 31.2694C12.7301 30.7899 12.4386 29.7209 12.9181 28.8818Z" fill="currentColor"/>
</svg>
