<svg viewBox="0 0 35 35" fill="none" xmlns="http://www.w3.org/2000/svg">
<path d="M19.25 29.75C19.25 30.3565 19.564 30.9198 20.08 31.2386C20.5959 31.5575 21.2401 31.5865 21.7826 31.3152L28.7826 27.8152C29.3755 27.5188 29.75 26.9129 29.75 26.25V16.1631C29.75 15.5566 29.436 14.9933 28.92 14.6745C28.4041 14.3556 27.7599 14.3266 27.2174 14.5979L20.2174 18.0979C19.6245 18.3943 19.25 19.0003 19.25 19.6631V29.75Z" fill="currentColor"/>
<path d="M26.6195 10.9837C27.2124 10.6873 27.5869 10.0813 27.5869 9.41844C27.5869 8.75559 27.2124 8.14963 26.6195 7.85319L18.2826 3.68475C17.79 3.43842 17.21 3.43842 16.7174 3.68475L8.3805 7.85319C7.78762 8.14963 7.41312 8.75559 7.41312 9.41844C7.41312 10.0813 7.78762 10.6873 8.3805 10.9837L16.7174 15.1521C17.21 15.3985 17.79 15.3985 18.2826 15.1521L26.6195 10.9837Z" fill="currentColor"/>
<path d="M7.78262 14.5979C7.24014 14.3266 6.5959 14.3556 6.07997 14.6745C5.56404 14.9933 5.25 15.5566 5.25 16.1631V26.25C5.25 26.9129 5.6245 27.5188 6.21738 27.8152L13.2174 31.3152C13.7599 31.5865 14.4041 31.5575 14.92 31.2386C15.436 30.9198 15.75 30.3565 15.75 29.75V19.6631C15.75 19.0003 15.3755 18.3943 14.7826 18.0979L7.78262 14.5979Z" fill="currentColor"/>
</svg>
