<svg viewBox="0 0 35 35" fill="none" xmlns="http://www.w3.org/2000/svg">
<path fill-rule="evenodd" clip-rule="evenodd" d="M12.5344 31.5514H6.84479C5.27423 31.5514 4 30.2772 4 28.7066V7.84479C4 6.27423 5.27423 5 6.84479 5H12.5344C14.1049 5 15.3792 6.27423 15.3792 7.84479V28.7066C15.3792 30.2772 14.1049 31.5514 12.5344 31.5514ZM30.551 28.7066V7.8448C30.551 6.27424 29.2768 5.00001 27.7062 5.00001H22.0167C20.4461 5.00001 19.1719 6.27424 19.1719 7.8448V28.7066C19.1719 30.2772 20.4461 31.5514 22.0167 31.5514H27.7062C29.2768 31.5514 30.551 30.2772 30.551 28.7066Z" fill="currentColor"/>
</svg>
