<svg viewBox="0 0 35 35" fill="none" xmlns="http://www.w3.org/2000/svg">
<path fill-rule="evenodd" clip-rule="evenodd" d="M31.5 17.5C31.5 25.232 25.232 31.5 17.5 31.5C9.76801 31.5 3.5 25.232 3.5 17.5C3.5 9.76801 9.76801 3.5 17.5 3.5C25.232 3.5 31.5 9.76801 31.5 17.5ZM12.25 14C12.25 13.0335 13.0335 12.25 14 12.25C14.9665 12.25 15.75 13.0335 15.75 14V21C15.75 21.9665 14.9665 22.75 14 22.75C13.0335 22.75 12.25 21.9665 12.25 21V14ZM21 12.25C20.0335 12.25 19.25 13.0335 19.25 14V21C19.25 21.9665 20.0335 22.75 21 22.75C21.9665 22.75 22.75 21.9665 22.75 21V14C22.75 13.0335 21.9665 12.25 21 12.25Z" fill="currentColor"/>
</svg>
