<svg viewBox="0 0 35 35" fill="none" xmlns="http://www.w3.org/2000/svg">
<path d="M7 7C5.067 7 3.5 8.567 3.5 10.5V12.25H31.5V10.5C31.5 8.567 29.933 7 28 7H7Z" fill="currentColor"/>
<path fill-rule="evenodd" clip-rule="evenodd" d="M31.5 15.75H3.5V24.5C3.5 26.433 5.067 28 7 28H28C29.933 28 31.5 26.433 31.5 24.5V15.75ZM7 22.75C7 21.7835 7.7835 21 8.75 21H10.5C11.4665 21 12.25 21.7835 12.25 22.75C12.25 23.7165 11.4665 24.5 10.5 24.5H8.75C7.7835 24.5 7 23.7165 7 22.75ZM15.75 21C14.7835 21 14 21.7835 14 22.75C14 23.7165 14.7835 24.5 15.75 24.5H17.5C18.4665 24.5 19.25 23.7165 19.25 22.75C19.25 21.7835 18.4665 21 17.5 21H15.75Z" fill="currentColor"/>
</svg>
