<svg viewBox="0 0 35 35" fill="none" xmlns="http://www.w3.org/2000/svg">
<path d="M25.8991 3.07699C27.2926 1.63239 29.5539 1.63042 30.9499 3.07258C32.3458 4.51474 32.3479 6.85492 30.9544 8.29951L29.5398 9.76602L24.4845 4.54349L25.8991 3.07699Z" fill="currentColor"/>
<path d="M21.9614 7.15916L7.013 22.656L7.01756 27.883L12.0683 27.8786L27.0167 12.3817L21.9614 7.15916Z" fill="currentColor"/>
<path d="M2 31.5C2 30.6716 2.44772 30 3 30H32C32.5523 30 33 30.6716 33 31.5C33 32.3284 32.5523 33 32 33H3C2.44772 33 2 32.3284 2 31.5Z" fill="currentColor"/>
</svg>
