<svg viewBox="0 0 35 35" fill="none" xmlns="http://www.w3.org/2000/svg">
<path d="M17.5243 10.25C16.127 10.25 14.9681 10.6913 14.0476 11.5752C13.1267 12.4578 12.6667 13.613 12.6667 15.0385C12.6667 16.4934 13.1267 17.6711 14.0476 18.5691C14.9681 19.4671 16.127 19.9167 17.5243 19.9167C18.8782 19.9167 20.0181 19.46 20.9441 18.5467C21.8704 17.6333 22.3333 16.4687 22.3333 15.0527C22.3333 13.6484 21.8784 12.4956 20.9685 11.5976C20.0586 10.6996 18.9107 10.25 17.5243 10.25Z" fill="currentColor"/>
<path fill-rule="evenodd" clip-rule="evenodd" d="M3 5.41667C3 4.08207 4.082 3 5.41667 3H29.5833C30.918 3 32 4.08207 32 5.41667V29.5833C32 30.9179 30.918 32 29.5833 32H5.41667C4.082 32 3 30.9179 3 29.5833V5.41667ZM13.1133 28.375V21.0058C13.9145 21.7327 14.7208 22.2578 15.5322 22.5788C16.3432 22.8997 17.2197 23.0602 18.1611 23.0602C20.2744 23.0602 22.1024 22.2767 23.6448 20.7108C25.1871 19.1449 25.9583 17.1979 25.9583 14.8709C25.9583 12.4578 25.2124 10.4801 23.72 8.93783C22.2276 7.39555 20.4149 6.625 18.2813 6.625C17.2998 6.625 16.3783 6.802 15.517 7.15601C14.6557 7.51119 13.8544 8.0422 13.1133 8.75138V7.02738H9.04167V28.375H13.1133Z" fill="currentColor"/>
</svg>
