<svg viewBox="0 0 36 36" fill="none" xmlns="http://www.w3.org/2000/svg">
<path d="M20.1403 3.36585C20.0239 3.24986 19.8857 3.15785 19.7336 3.09508C19.5815 3.03231 19.4184 3 19.2538 3C19.0891 3 18.9261 3.03231 18.774 3.09508C18.6218 3.15785 18.4836 3.24986 18.3672 3.36585C18.2508 3.48183 18.1584 3.61953 18.0954 3.77108C18.0324 3.92262 18 4.08505 18 4.24908C18 4.41311 18.0324 4.57553 18.0954 4.72708C18.1584 4.87862 18.2508 5.01632 18.3672 5.13231L19.9869 6.74591L14.0192 12.6942C12.6348 11.9226 11.0359 11.6209 9.46414 11.8346C7.89237 12.0483 6.43314 12.7659 5.30693 13.8789L4.58296 14.6019C4.46648 14.7178 4.37409 14.8555 4.31105 15.0071C4.24801 15.1586 4.21556 15.321 4.21556 15.4851C4.21556 15.6491 4.24801 15.8116 4.31105 15.9631C4.37409 16.1147 4.46648 16.2524 4.58296 16.3683L11.256 23.0128L3.36723 30.8677C3.1321 31.1019 3 31.4196 3 31.7509C3 32.0822 3.1321 32.3999 3.36723 32.6341C3.60236 32.8684 3.92127 33 4.2538 33C4.58633 33 4.90523 32.8684 5.14037 32.6341L13.0257 24.7789L19.6047 31.3335C19.7211 31.4495 19.8593 31.5416 20.0114 31.6044C20.1635 31.6672 20.3266 31.6995 20.4913 31.6995C20.6559 31.6995 20.819 31.6672 20.9711 31.6044C21.1232 31.5416 21.2614 31.4495 21.3778 31.3335L22.1015 30.6105C23.219 29.4884 23.9398 28.0346 24.1551 26.4685C24.3704 24.9025 24.0685 23.3092 23.2951 21.929L29.2476 15.9993L30.8673 17.6173C31.1033 17.8482 31.4213 17.9768 31.7521 17.9752C32.0829 17.9736 32.3997 17.8418 32.6334 17.6086C32.8671 17.3754 32.9989 17.0597 33 16.7301C33.0011 16.4006 32.8715 16.0839 32.6394 15.8492L20.1403 3.36585Z" fill="currentColor"/>
</svg>
