<svg viewBox="0 0 35 35" fill="none" xmlns="http://www.w3.org/2000/svg">
<path d="M5 16.08C5 15.2847 5.64574 14.64 6.44231 14.64H28.5577C29.3543 14.64 30 15.2847 30 16.08C30 16.8753 29.3543 17.52 28.5577 17.52H6.44231C5.64574 17.52 5 16.8753 5 16.08Z" fill="currentColor"/>
<path d="M5 24.72C5 23.9247 5.64574 23.28 6.44231 23.28H15.0962C15.8927 23.28 16.5385 23.9247 16.5385 24.72C16.5385 25.5153 15.8927 26.16 15.0962 26.16H6.44231C5.64574 26.16 5 25.5153 5 24.72Z" fill="currentColor"/>
<path d="M23.2692 28.56C23.2692 29.3552 23.915 30 24.7115 30C25.5081 30 26.1538 29.3552 26.1538 28.56V26.16H28.5577C29.3543 26.16 30 25.5152 30 24.72C30 23.9248 29.3543 23.28 28.5577 23.28H26.1538V20.88C26.1538 20.0848 25.5081 19.44 24.7115 19.44C23.915 19.44 23.2692 20.0848 23.2692 20.88V23.28H20.8654C20.0688 23.28 19.4231 23.9248 19.4231 24.72C19.4231 25.5152 20.0688 26.16 20.8654 26.16H23.2692V28.56Z" fill="currentColor"/>
<path d="M5 7.44C5 6.64471 5.64574 6 6.44231 6H28.5577C29.3543 6 30 6.64471 30 7.44C30 8.23529 29.3543 8.88 28.5577 8.88H6.44231C5.64574 8.88 5 8.23529 5 7.44Z" fill="currentColor"/>
</svg>
