<svg viewBox="0 0 35 35" fill="none" xmlns="http://www.w3.org/2000/svg">
<path d="M31.5 5.25002C31.5 4.72573 31.2649 4.22906 30.8595 3.89667C30.454 3.56427 29.9209 3.43118 29.4068 3.534L11.9068 7.034C11.0888 7.1976 10.5 7.91582 10.5 8.75002V24.6992C9.95264 24.5702 9.36361 24.5 8.75 24.5C5.85051 24.5 3.5 26.067 3.5 28C3.5 29.933 5.85051 31.5 8.75 31.5C11.6495 31.5 14 29.933 14 28V13.6847L28 10.8847V21.1992C27.4526 21.0702 26.8636 21 26.25 21C23.3505 21 21 22.567 21 24.5C21 26.433 23.3505 28 26.25 28C29.1495 28 31.5 26.433 31.5 24.5V5.25002Z" fill="currentColor"/>
</svg>
