<svg viewBox="0 0 35 35" fill="none" xmlns="http://www.w3.org/2000/svg">
<path d="M23.8885 22.9338C25.1456 21.8304 26.0859 20.3979 26.6453 18.8227C27.2047 17.2474 27.3056 15.547 27.0362 13.9041C26.5711 11.0663 24.7342 8.5065 22.2508 7.10493C20.953 6.37649 19.508 5.95445 18.0247 5.87066C16.5012 5.77911 14.9949 6.08776 13.5997 6.68891C10.984 7.8175 8.96597 10.1905 8.19073 12.9391C7.7493 14.5039 7.71555 16.174 8.06274 17.7594C8.41996 19.3888 9.22528 20.9028 10.324 22.1451C10.5732 22.4257 10.84 22.6899 11.1226 22.9361C11.3281 23.1159 11.5607 23.2347 11.8371 23.2347C12.0867 23.2347 12.3797 23.1226 12.5515 22.9361C12.902 22.5524 12.9762 21.8701 12.5515 21.4969C12.3071 21.283 12.0738 21.0565 11.8528 20.8183C11.7381 20.6927 11.6269 20.5638 11.5156 20.4316C11.4955 20.4043 11.4718 20.377 11.4518 20.3535C11.4317 20.3299 11.3235 20.1872 11.4347 20.3363C11.5427 20.479 11.4448 20.3501 11.4214 20.3161C11.3948 20.2824 11.37 20.2472 11.3472 20.2108C10.9616 19.6724 10.6379 19.0916 10.3825 18.4797L10.4827 18.724C10.1937 18.0236 9.99437 17.289 9.88959 16.5379C9.90295 16.6294 9.91331 16.7176 9.92668 16.8095C9.82265 16.0209 9.82152 15.222 9.92334 14.4332C9.90997 14.5247 9.89961 14.6133 9.88624 14.7048C9.99014 13.949 10.1895 13.2097 10.4794 12.5049L10.3791 12.7496C10.5466 12.3504 10.7421 11.9638 10.9642 11.5927C11.0789 11.4025 11.2002 11.2157 11.3318 11.036C11.389 10.9545 11.6182 10.6691 11.3856 10.9579C11.4565 10.8731 11.5236 10.7845 11.5945 10.6997C11.8696 10.3715 12.1682 10.0638 12.4877 9.77914C12.5652 9.71183 12.6427 9.64451 12.7236 9.57719C12.764 9.54353 12.8044 9.5129 12.8449 9.47891C12.9628 9.38365 12.7446 9.56036 12.7446 9.55699C12.7653 9.53526 12.7892 9.51687 12.8155 9.50247C12.9909 9.37019 13.1727 9.24127 13.3615 9.12246C13.7753 8.85968 14.2094 8.63085 14.6597 8.43817L14.4171 8.53915C15.1149 8.24503 15.8481 8.0445 16.5978 7.94271C16.5069 7.95617 16.419 7.96661 16.3281 7.98007C17.1046 7.87805 17.8908 7.87805 18.6672 7.98007C18.5764 7.96661 18.4888 7.95617 18.3976 7.94271C19.1479 8.04736 19.8818 8.24813 20.5816 8.54016L20.339 8.43918C20.7356 8.60827 21.1196 8.80568 21.4882 9.02989C21.6767 9.14535 21.8621 9.26753 22.0409 9.40014C22.1218 9.4577 22.4048 9.6886 22.1184 9.45434C22.2026 9.52569 22.2902 9.59335 22.3744 9.6647C22.7001 9.94192 23.0053 10.2426 23.2877 10.5644C23.3545 10.6425 23.4213 10.7206 23.4865 10.802C23.5199 10.8428 23.5506 10.8835 23.5844 10.9242C23.6786 11.043 23.5035 10.8232 23.5069 10.8232C23.5283 10.8441 23.5465 10.8682 23.5607 10.8946C23.692 11.0713 23.8203 11.2544 23.9383 11.4446C24.1994 11.8612 24.4271 12.2983 24.6189 12.7516L24.5187 12.5072C24.8116 13.2109 25.011 13.9505 25.1118 14.7068C25.0985 14.6153 25.0884 14.5268 25.0747 14.4352C25.1782 15.224 25.1771 16.0231 25.0714 16.8115C25.0851 16.7196 25.0951 16.6314 25.1085 16.5399C25.0049 17.2913 24.8055 18.026 24.5153 18.7261L24.6156 18.4817C24.3585 19.0923 24.0341 19.6718 23.6485 20.2094C23.6048 20.2707 23.561 20.3387 23.5105 20.3962C23.5476 20.3521 23.6622 20.2027 23.5577 20.3316C23.5306 20.3652 23.5039 20.3989 23.4768 20.4302C23.3765 20.5558 23.2679 20.6779 23.16 20.7968C22.9352 21.0427 22.6967 21.2756 22.4456 21.4942C22.0446 21.8435 22.0613 22.5803 22.4456 22.9334C22.8837 23.3272 23.4601 23.3067 23.8878 22.9334L23.8885 22.9338Z" fill="currentColor"/>
<path d="M12.3493 25.948C11.8477 25.6895 11.3636 25.3981 10.9001 25.0755C10.7891 24.9974 10.6779 24.916 10.5699 24.8345C10.5058 24.7871 10.2936 24.6174 10.5632 24.8345C10.4991 24.7837 10.4386 24.7362 10.3744 24.6851C10.1622 24.5121 9.95674 24.3354 9.75791 24.1489C9.34531 23.7673 8.95902 23.3579 8.60173 22.9234C8.55461 22.8692 8.51084 22.8113 8.46372 22.7551C8.4166 22.6989 8.24785 22.4666 8.46038 22.7517C8.37249 22.6363 8.28829 22.5208 8.20408 22.402C8.04569 22.1778 7.89398 21.9506 7.74929 21.7164C7.40897 21.1631 7.11147 20.5842 6.85943 19.9849L6.95967 20.2293C6.53166 19.2042 6.23955 18.1269 6.09086 17.025C6.10423 17.1165 6.11425 17.2047 6.12795 17.2966C5.97959 16.1723 5.97959 15.0331 6.12795 13.9088C6.11425 14.0004 6.10423 14.0885 6.09086 14.1801C6.24041 13.0747 6.53387 11.9939 6.96368 10.9657L6.86344 11.21C7.10818 10.632 7.39431 10.0727 7.71955 9.5365C7.88128 9.2716 8.05371 9.01041 8.23516 8.75898C8.27893 8.69805 8.3227 8.64016 8.36648 8.57924C8.3902 8.54861 8.41727 8.49442 8.44735 8.47388C8.45069 8.47052 8.28027 8.69132 8.36982 8.57486C8.47007 8.44561 8.57232 8.32006 8.67658 8.19451C9.07526 7.71877 9.509 7.27399 9.97411 6.86397C10.0854 6.76535 10.1967 6.67043 10.3113 6.57518C10.3684 6.52772 10.4256 6.48363 10.483 6.43617C10.5068 6.419 10.5302 6.39881 10.5539 6.38198C10.2775 6.60244 10.4627 6.453 10.5235 6.40554C10.7728 6.21873 11.0247 6.03899 11.2884 5.87271C11.876 5.49307 12.4948 5.16471 13.1379 4.89122L12.8953 4.99219C13.9157 4.55772 14.989 4.26206 16.0869 4.11302C15.9956 4.12648 15.9081 4.13658 15.8172 4.15005C16.9357 4.00094 18.0687 4.00094 19.1872 4.15005C19.0963 4.13658 19.0087 4.12648 18.9175 4.11302C20.0151 4.26366 21.0882 4.55926 22.1091 4.99219L21.8665 4.89122C22.4403 5.13775 22.9956 5.42595 23.5279 5.75356C23.7909 5.91647 24.0502 6.09015 24.2995 6.27292C24.3603 6.31701 24.4174 6.36111 24.4782 6.4052C24.5087 6.4291 24.5625 6.45603 24.5828 6.48666C24.5862 6.49002 24.367 6.31836 24.4826 6.40857C24.6106 6.50954 24.7352 6.6122 24.8602 6.71756C25.3321 7.11938 25.7733 7.55638 26.1801 8.02487C26.2777 8.13696 26.3723 8.24904 26.4665 8.36416C26.5136 8.42205 26.5577 8.47961 26.6048 8.5375C26.6215 8.56106 26.6419 8.58496 26.6586 8.60886C26.4398 8.3305 26.5878 8.51697 26.6352 8.57823C26.8204 8.82932 26.9991 9.08311 27.1642 9.34868C27.5409 9.9409 27.8668 10.5644 28.1383 11.2124L28.038 10.968C28.4692 11.9958 28.7627 13.0767 28.9108 14.1825C28.8975 14.0909 28.8875 14.0027 28.8738 13.9112C29.0221 15.0355 29.0221 16.1746 28.8738 17.2989C28.8875 17.2071 28.8975 17.1189 28.9108 17.0273C28.7625 18.1293 28.4704 19.2067 28.042 20.2317L28.1423 19.9873C27.9212 20.5108 27.6655 21.0189 27.3771 21.508C27.229 21.7594 27.074 22.0038 26.9092 22.2414L26.6867 22.5572C26.6496 22.608 26.6092 22.6581 26.5721 22.7133C26.4641 22.8591 26.7057 22.54 26.6259 22.642C26.6025 22.6726 26.5754 22.7063 26.5517 22.7369C26.2021 23.1768 25.8239 23.5928 25.4196 23.9823C25.2107 24.1826 24.9982 24.3761 24.776 24.5629C24.6781 24.6444 24.5755 24.7258 24.4752 24.8073C24.3539 24.9022 24.5661 24.7399 24.5661 24.7359C24.5361 24.7632 24.5023 24.7837 24.4719 24.8073C24.4148 24.8514 24.3573 24.8921 24.2968 24.9362C23.7749 25.3151 23.2251 25.6533 22.6521 25.948C22.1802 26.1923 22.0048 26.8985 22.2882 27.3398C22.5979 27.8251 23.1677 27.9641 23.6699 27.7063C25.8199 26.5956 27.6531 24.8854 28.9406 22.8281C30.2685 20.7099 30.979 18.2114 30.9997 15.7099C31.0159 13.3683 30.4344 11.0619 29.3112 9.01176C28.2392 7.03664 26.656 5.35605 24.7783 4.13759C22.8465 2.8848 20.5993 2.1719 18.3107 2.02616C15.9853 1.87671 13.6465 2.37218 11.5537 3.39406C9.53503 4.38196 7.80944 5.90435 6.49854 7.73238C5.1619 9.59944 4.36861 11.7957 4.0926 14.0737C3.79186 16.5584 4.23428 19.0889 5.26549 21.3549C6.27231 23.5753 7.91403 25.469 9.90227 26.8507C10.3587 27.1693 10.8361 27.4563 11.3311 27.7097C11.803 27.9507 12.4502 27.8487 12.7129 27.3428C12.9555 26.8746 12.8512 26.2058 12.349 25.9476L12.3493 25.948Z" fill="currentColor"/>
<path d="M22.8198 15.5816V15.5796C22.8081 14.5183 22.495 13.4322 21.8765 12.5668C21.2281 11.6437 20.3159 10.9415 19.2614 10.5536C17.2564 9.81011 14.8228 10.4688 13.4647 12.1322C12.7328 13.0148 12.2922 14.1052 12.2043 15.2518C12.1167 16.3245 12.3964 17.448 12.9491 18.3679C13.4818 19.2505 14.2804 20.0111 15.2174 20.4386C16.2957 20.931 17.4449 21.0781 18.6074 20.8459C20.6702 20.4386 22.4168 18.6395 22.736 16.5375C22.7875 16.2313 22.8157 15.9215 22.8202 15.6109V15.6042C22.8202 15.5981 22.8202 15.5894 22.8198 15.5816ZM20.7881 15.9721C20.7788 16.0394 20.7708 16.1043 20.7611 16.1717C20.7658 16.1346 20.7698 16.0979 20.7734 16.0613C20.7264 16.3392 20.6531 16.6119 20.5546 16.8758C20.5723 16.8371 20.588 16.7984 20.606 16.759L20.5058 17.0034C20.5232 16.961 20.5392 16.9186 20.5556 16.8758C20.4595 17.0886 20.3471 17.2936 20.2194 17.4887C20.186 17.5386 20.1526 17.5897 20.1148 17.6382C20.1319 17.6177 20.1482 17.5941 20.169 17.5709C20.1733 17.5648 20.1783 17.5592 20.1837 17.554C20.1763 17.5668 20.0289 17.76 20.1048 17.6523L20.1131 17.6409C20.0258 17.749 19.933 17.8526 19.8351 17.9512C19.7409 18.0461 19.643 18.1343 19.5421 18.2205L19.5344 18.2269L19.5554 18.2138C19.6463 18.1596 19.3399 18.3905 19.4746 18.2784C19.4926 18.2602 19.5133 18.2447 19.5344 18.2269C19.4856 18.2585 19.4408 18.2966 19.3937 18.3279C19.1925 18.4646 18.9801 18.5837 18.7588 18.684C18.8043 18.6665 18.8494 18.6486 18.8941 18.6301L18.6515 18.7311C18.6876 18.7156 18.7234 18.6998 18.7588 18.6833C18.5013 18.7803 18.2352 18.8525 17.9642 18.899C17.9976 18.8957 18.034 18.8916 18.0688 18.8873C17.9775 18.9011 17.89 18.9112 17.7991 18.9246C17.8542 18.9172 17.9094 18.9088 17.9642 18.899C17.6607 18.9307 17.3548 18.9307 17.0513 18.899C17.1057 18.9088 17.1609 18.9172 17.216 18.9246C17.1251 18.9112 17.0376 18.9011 16.9463 18.8873C16.9814 18.8916 17.0162 18.8957 17.0513 18.899C16.7792 18.8519 16.5122 18.7792 16.2536 18.6819C16.29 18.6991 16.3268 18.7156 16.3636 18.7311L16.1206 18.6301C16.1644 18.648 16.2082 18.6655 16.252 18.6819C16.0389 18.585 15.8339 18.4711 15.6388 18.3413C15.5893 18.3077 15.5385 18.274 15.4904 18.2363C15.5108 18.2531 15.5345 18.27 15.5572 18.2905C15.5633 18.2949 15.5689 18.2999 15.5739 18.3053C15.5612 18.2979 15.3694 18.1495 15.4764 18.2262L15.4877 18.2346C15.3805 18.1465 15.2778 18.0531 15.18 17.9546C15.0854 17.8593 14.9979 17.761 14.9126 17.6591L14.9063 17.6513L14.9193 17.6729C14.9731 17.7644 14.7442 17.4554 14.8552 17.5914C14.8732 17.6092 14.8886 17.6304 14.9063 17.6513C14.8749 17.6022 14.8371 17.5574 14.8061 17.5099C14.6714 17.309 14.5539 17.0968 14.4549 16.8758C14.4712 16.9199 14.4883 16.9637 14.5063 17.0074L14.4061 16.763C14.4219 16.8005 14.4383 16.8375 14.4552 16.8741C14.3576 16.6134 14.285 16.3439 14.2383 16.0693C14.2417 16.103 14.2457 16.1397 14.25 16.1747C14.24 16.1074 14.232 16.0401 14.2229 15.9744C14.2276 16.0064 14.2326 16.038 14.2383 16.0693C14.2069 15.7637 14.2069 15.4557 14.2383 15.1501C14.2326 15.1814 14.2276 15.2131 14.2229 15.2447C14.232 15.1774 14.24 15.1121 14.25 15.0444C14.2457 15.0798 14.2417 15.1148 14.2383 15.1501C14.2855 14.8738 14.3585 14.6027 14.4565 14.3403C14.4388 14.379 14.4231 14.4177 14.4051 14.4571L14.5053 14.2127C14.4879 14.2551 14.4719 14.2975 14.4555 14.3403C14.5521 14.1275 14.6651 13.9227 14.7934 13.7277C14.8268 13.6758 14.8639 13.6247 14.902 13.5732L14.8976 13.5782C14.8809 13.5984 14.8642 13.6223 14.8438 13.6456C14.8394 13.6517 14.8345 13.6574 14.8291 13.6627C14.8328 13.6543 14.9848 13.4547 14.908 13.5641L14.902 13.5725C14.9886 13.4654 15.0806 13.3629 15.1776 13.2652C15.2719 13.1703 15.3694 13.0821 15.4707 12.9959L15.4767 12.9909L15.4573 13.003C15.3661 13.0572 15.6729 12.8263 15.5382 12.9384C15.5195 12.9569 15.4984 12.972 15.4767 12.9909C15.5262 12.9589 15.5713 12.9205 15.6191 12.8876C15.8185 12.7524 16.029 12.6345 16.2483 12.5351C16.2042 12.552 16.1604 12.5688 16.117 12.5873L16.3596 12.4863C16.3225 12.5022 16.2857 12.52 16.2493 12.5355C16.5086 12.4375 16.7765 12.3646 17.0496 12.318C17.0138 12.3214 16.9784 12.3254 16.9427 12.3302C17.0335 12.3164 17.1214 12.3063 17.2123 12.2928C17.1579 12.3002 17.1034 12.3083 17.0496 12.318C17.3514 12.2866 17.6557 12.2866 17.9575 12.318C17.9037 12.3086 17.8496 12.3005 17.7954 12.2931C17.8863 12.3066 17.9739 12.3167 18.0651 12.3305C18.0293 12.3258 17.9932 12.3217 17.9575 12.318C18.2311 12.3654 18.4996 12.4388 18.7595 12.5372C18.722 12.5197 18.6843 12.5035 18.6465 12.4867L18.8891 12.5877C18.846 12.5698 18.8029 12.554 18.7595 12.5365C18.9721 12.6329 19.1767 12.7462 19.3713 12.8754C19.4204 12.9091 19.4692 12.9428 19.5187 12.9801C19.4986 12.9636 19.4752 12.9465 19.4518 12.9266C19.3606 12.8519 19.6607 13.0828 19.5327 12.9909L19.519 12.9808C19.6271 13.0693 19.7306 13.1633 19.8291 13.2625C19.9237 13.3574 20.0112 13.4561 20.0964 13.5577L20.1018 13.5644L20.0898 13.5442C20.0356 13.4527 20.2649 13.7617 20.1536 13.6257C20.1355 13.6075 20.1202 13.586 20.1018 13.5644C20.1352 13.6143 20.1716 13.6594 20.2044 13.7071C20.3389 13.9081 20.4564 14.1201 20.5556 14.3409C20.5392 14.2969 20.5222 14.2531 20.5041 14.2097L20.6044 14.454C20.5885 14.4166 20.5722 14.3795 20.5552 14.343C20.655 14.611 20.7287 14.8882 20.7751 15.1706C20.7708 15.1276 20.7654 15.0845 20.7594 15.0414C20.7691 15.1087 20.7771 15.173 20.7861 15.239C20.7828 15.2171 20.7795 15.1956 20.7754 15.1737C20.79 15.3169 20.7971 15.4608 20.7965 15.6048C20.7961 15.7573 20.7879 15.9097 20.7718 16.0613C20.7788 16.0316 20.7835 16.002 20.7881 15.9721Z" fill="currentColor"/>
<path d="M14.2383 16.0693C14.2417 16.103 14.2457 16.1397 14.25 16.1747C14.24 16.1074 14.232 16.0401 14.2229 15.9744C14.2276 16.0064 14.2326 16.038 14.2383 16.0693Z" fill="currentColor"/>
<path d="M14.2229 15.2447C14.232 15.1774 14.24 15.1121 14.25 15.0444C14.2457 15.0798 14.2417 15.1148 14.2383 15.1501C14.235 15.1855 14.2276 15.2131 14.2229 15.2447Z" fill="currentColor"/>
<path d="M14.4549 16.8751C14.4712 16.9192 14.4883 16.963 14.5063 17.0067L14.4061 16.7624C14.4219 16.7999 14.4383 16.8369 14.4552 16.8735C14.4552 16.8735 14.4545 16.8745 14.4549 16.8751Z" fill="currentColor"/>
<path d="M14.4051 14.4571L14.5053 14.2127C14.4879 14.2551 14.4719 14.2975 14.4555 14.3403C14.4391 14.383 14.4218 14.4177 14.4051 14.4571Z" fill="currentColor"/>
<path d="M14.9073 13.5648L14.9013 13.5732L14.8969 13.5782C14.8802 13.5984 14.8635 13.6223 14.8431 13.6456C14.8387 13.6517 14.8338 13.6574 14.8284 13.6627C14.8321 13.655 14.9842 13.4554 14.9073 13.5648Z" fill="currentColor"/>
<path d="M14.9207 17.6722C14.9745 17.7637 14.7456 17.4547 14.8565 17.5907C14.8746 17.6086 14.8899 17.6298 14.9076 17.6506L14.9207 17.6722Z" fill="currentColor"/>
<path d="M15.5743 18.3046C15.5616 18.2972 15.3698 18.1488 15.4767 18.2255L15.4881 18.234L15.4901 18.2356C15.5105 18.2525 15.5342 18.2693 15.5569 18.2898C15.5632 18.2942 15.569 18.2992 15.5743 18.3046Z" fill="currentColor"/>
<path d="M15.4567 13.0064C15.3654 13.0606 15.6722 12.8297 15.5375 12.9417C15.5188 12.9603 15.4978 12.9754 15.476 12.9943L15.4567 13.0064Z" fill="currentColor"/>
<path d="M16.2483 12.5351C16.2042 12.552 16.1604 12.5688 16.117 12.5873L16.3596 12.4863C16.3225 12.5022 16.2857 12.52 16.2493 12.5355L16.2483 12.5351Z" fill="currentColor"/>
<path d="M16.2536 18.6819C16.29 18.6991 16.3268 18.7156 16.3636 18.7311L16.1206 18.6301C16.1644 18.648 16.2082 18.6655 16.252 18.6819C16.2522 18.6821 16.2522 18.6821 16.2525 18.6821C16.2527 18.6821 16.2534 18.6821 16.2536 18.6819Z" fill="currentColor"/>
<path d="M17.0496 12.317C17.0138 12.3204 16.9784 12.3244 16.9427 12.3292C17.0335 12.3154 17.1214 12.3053 17.2123 12.2918C17.1579 12.2995 17.1034 12.3073 17.0496 12.317Z" fill="currentColor"/>
<path d="M17.0513 18.899C17.1057 18.9088 17.1609 18.9172 17.216 18.9246C17.1251 18.9112 17.0376 18.9011 16.9463 18.8873C16.9814 18.8916 17.0162 18.8967 17.0513 18.899Z" fill="currentColor"/>
<path d="M17.9575 12.3167C17.9037 12.3073 17.8496 12.2992 17.7954 12.2918C17.8863 12.3053 17.9739 12.3154 18.0651 12.3292C18.0293 12.3244 17.9933 12.3204 17.9575 12.3167Z" fill="currentColor"/>
<path d="M17.9642 18.899C17.9976 18.8957 18.034 18.8916 18.0688 18.8873C17.9775 18.9011 17.89 18.9112 17.7991 18.9246C17.8542 18.9172 17.9094 18.9088 17.9642 18.899Z" fill="currentColor"/>
<path d="M18.7608 12.5351C18.7234 12.5176 18.6856 12.5015 18.6479 12.4847L18.8905 12.5856C18.8474 12.5688 18.8033 12.552 18.7608 12.5351Z" fill="currentColor"/>
<path d="M18.7588 18.6833C18.8043 18.6658 18.849 18.648 18.8938 18.6294L18.6512 18.7304C18.6873 18.7156 18.7234 18.6998 18.7588 18.6833Z" fill="currentColor"/>
<path d="M19.4535 12.9266C19.3623 12.8519 19.6624 13.0828 19.5344 12.9909L19.5207 12.9808C19.5 12.9636 19.4766 12.9465 19.4535 12.9266Z" fill="currentColor"/>
<path d="M19.4736 18.2764C19.4916 18.2582 19.5123 18.2427 19.5334 18.2249L19.5544 18.2117C19.6453 18.1562 19.3379 18.3884 19.4736 18.2764Z" fill="currentColor"/>
<path d="M20.1542 13.6257C20.1362 13.6075 20.1208 13.586 20.1025 13.5644L20.0904 13.5442C20.0363 13.4527 20.2655 13.7617 20.1542 13.6257Z" fill="currentColor"/>
<path d="M20.1826 17.5534C20.1753 17.5662 20.0279 17.7594 20.1038 17.6517L20.1121 17.6402L20.1138 17.6382C20.1309 17.6177 20.1472 17.5941 20.1679 17.5709C20.1723 17.5646 20.1772 17.5587 20.1826 17.5534Z" fill="currentColor"/>
<path d="M20.5546 16.8772C20.5723 16.8385 20.588 16.7997 20.606 16.7604L20.5058 17.0047C20.5222 16.961 20.5385 16.9186 20.5546 16.8772Z" fill="currentColor"/>
<path d="M20.5048 14.2097L20.605 14.454C20.5892 14.4166 20.5728 14.3795 20.5559 14.343C20.5561 14.3423 20.5557 14.3416 20.5556 14.3409C20.5405 14.2969 20.5225 14.2518 20.5048 14.2097Z" fill="currentColor"/>
<path d="M20.7881 15.9721C20.7788 16.0394 20.7708 16.1043 20.7611 16.1717C20.7658 16.1346 20.7698 16.0979 20.7734 16.0613C20.7788 16.0316 20.7835 16.002 20.7881 15.9721Z" fill="currentColor"/>
<path d="M20.7768 15.1706C20.7724 15.1276 20.7671 15.0845 20.7611 15.0414C20.7708 15.1087 20.7788 15.173 20.7878 15.239C20.7845 15.2171 20.7811 15.1956 20.7771 15.1737C20.7772 15.1727 20.7771 15.1716 20.7768 15.1706Z" fill="currentColor"/>
<path d="M21.1758 26.7184C21.1758 26.1381 21.2229 25.5302 21.152 24.9533C21.0274 23.9247 20.5285 23.066 19.6961 22.4514C19.0525 21.9762 18.2843 21.8301 17.5024 21.8301C16.7271 21.8301 15.9689 21.9728 15.3253 22.438C14.5872 22.9708 14.0278 23.7618 13.8885 24.6817C13.7882 25.3505 13.8313 26.0428 13.8313 26.7184V29.7497C13.8313 30.3472 13.828 30.9446 13.8313 31.5421C13.838 32.4172 14.1681 33.2361 14.7446 33.8878C15.3644 34.5838 16.288 34.9773 17.208 34.9985C17.3868 35.0019 17.5685 34.9985 17.7473 34.9985C17.7823 34.9985 17.8172 34.9965 17.8519 34.9924C18.7441 34.9568 19.6206 34.5798 20.2311 33.9191C20.8314 33.2745 21.1687 32.4258 21.1758 31.5421C21.1791 30.955 21.1758 30.3677 21.1758 29.7803V26.7184ZM18.8367 24.3787C18.8236 24.3633 18.8139 24.3518 18.8123 24.3495C18.8176 24.3495 18.827 24.3626 18.8367 24.3787ZM16.3639 24.1896L16.3362 24.2128C16.3365 24.2088 16.3485 24.1993 16.3639 24.1896ZM16.1764 32.4495C16.1895 32.465 16.1992 32.4764 16.2008 32.4788C16.1968 32.4785 16.1871 32.4657 16.1764 32.4495ZM18.6492 32.6397L18.6783 32.6151C18.6776 32.6195 18.6652 32.6296 18.6492 32.6397ZM19.1538 25.8224V30.8632C19.1538 31.1519 19.1685 31.4478 19.1451 31.7363C19.1538 31.6935 19.1608 31.6504 19.1671 31.6067C19.1538 31.6982 19.1434 31.7868 19.1301 31.8783C19.1361 31.8312 19.1411 31.7837 19.1451 31.7363C19.1224 31.8522 19.0916 31.9664 19.0529 32.0779C19.0689 32.0442 19.0846 32.0106 19.0997 31.9769C19.0662 32.0584 19.0328 32.1402 18.9994 32.2216C19.0188 32.1745 19.0368 32.1267 19.0532 32.0786C19.0053 32.1799 18.9501 32.2775 18.8881 32.3707C18.8781 32.3859 18.8674 32.401 18.8547 32.4158L18.8881 32.3822C19.0027 32.2529 18.7702 32.5505 18.824 32.4636C18.8343 32.4485 18.845 32.433 18.8574 32.4175C18.8183 32.4609 18.7809 32.505 18.7411 32.5451C18.7013 32.5852 18.6532 32.6289 18.6094 32.668C18.6218 32.6602 18.6375 32.6504 18.6509 32.6414C18.5981 32.6855 18.5005 32.7659 18.5794 32.6942L18.6084 32.6686L18.5894 32.6807C18.4969 32.7441 18.3999 32.8004 18.299 32.849C18.3401 32.8349 18.3809 32.8191 18.421 32.8023L18.1784 32.9032C18.2191 32.8861 18.2592 32.8675 18.299 32.848C18.1763 32.8927 18.0503 32.9274 17.9221 32.9517C17.9598 32.949 17.9973 32.9453 18.0347 32.9403L17.8639 32.9635L17.8111 32.9709C17.8272 32.9685 17.8446 32.9662 17.8596 32.9631C17.8244 32.9594 17.789 32.9574 17.7537 32.9574C17.5288 32.9574 17.3015 32.9665 17.0777 32.949C17.1194 32.9578 17.1615 32.9648 17.2043 32.9709C17.1134 32.9574 17.0259 32.9473 16.9346 32.9339C16.9821 32.9403 17.0299 32.9453 17.0777 32.949C16.9619 32.9262 16.8478 32.8951 16.7365 32.8558C16.7699 32.8723 16.8033 32.8877 16.8367 32.9032L16.5941 32.8023C16.6406 32.8218 16.6874 32.8396 16.7348 32.8561C16.6347 32.8077 16.5381 32.7522 16.4458 32.6902C16.4311 32.6804 16.416 32.6696 16.4013 32.6585L16.4347 32.6902C16.5627 32.8056 16.2677 32.5714 16.3539 32.6259C16.3689 32.636 16.3839 32.6471 16.3993 32.6595C16.3562 32.6205 16.3124 32.5825 16.273 32.5427C16.2336 32.503 16.1901 32.4549 16.1517 32.4111C16.1594 32.4233 16.1684 32.4384 16.1771 32.4515C16.1337 32.3983 16.0538 32.3004 16.1246 32.3798L16.1517 32.4111C16.1457 32.4014 16.1407 32.3933 16.138 32.3899C16.0752 32.2966 16.0194 32.1987 15.9709 32.0971C15.9853 32.1385 16.001 32.1796 16.0177 32.2203L15.9175 31.9756C15.9345 32.0166 15.9525 32.057 15.9716 32.0971C15.9292 31.9794 15.8957 31.8587 15.8713 31.7359C15.8747 31.7834 15.8797 31.8305 15.8857 31.8773C15.872 31.7858 15.862 31.6972 15.8486 31.6057C15.855 31.6491 15.8623 31.6925 15.8713 31.7359C15.8526 31.4953 15.862 31.2492 15.862 31.0082V25.9651C15.862 25.6766 15.8473 25.3808 15.8707 25.0923C15.862 25.1351 15.855 25.1781 15.8486 25.2219C15.862 25.13 15.872 25.0418 15.8857 24.9503C15.8797 24.9974 15.8747 25.0449 15.8707 25.0923C15.8933 24.9763 15.9242 24.862 15.9629 24.7503C15.9469 24.784 15.9312 24.8177 15.9161 24.8513L16.0164 24.607C15.997 24.6541 15.9789 24.7019 15.9626 24.75C16.0105 24.6487 16.0657 24.5511 16.1276 24.4578C16.1377 24.4427 16.1484 24.4275 16.1594 24.4127L16.1276 24.4464C16.013 24.5756 16.2456 24.2781 16.1918 24.3649C16.1814 24.3801 16.1708 24.3956 16.1584 24.4111C16.1972 24.3676 16.2349 24.3235 16.2747 24.2835C16.3144 24.2434 16.3622 24.1997 16.4063 24.1606C16.394 24.1684 16.3783 24.1781 16.3646 24.1872C16.4174 24.1435 16.5149 24.0623 16.4364 24.134L16.407 24.1603L16.4264 24.1478C16.5189 24.0845 16.6159 24.0282 16.7168 23.9795C16.6757 23.9937 16.6349 24.0095 16.5948 24.0263L16.8374 23.9254C16.7966 23.9425 16.7565 23.961 16.7168 23.9806C16.8373 23.9374 16.961 23.9036 17.0867 23.8796C17.0356 23.8843 16.9864 23.89 16.935 23.8964C17.0262 23.8829 17.1137 23.8728 17.2046 23.859C17.1652 23.8648 17.1258 23.8715 17.0867 23.8796C17.3678 23.8543 17.6506 23.8543 17.9318 23.8796C17.892 23.8715 17.8519 23.8644 17.8115 23.8587C17.9024 23.8725 17.9899 23.8826 18.0808 23.8961C18.0317 23.8897 17.9822 23.8843 17.9318 23.8796C18.0496 23.9025 18.1657 23.9341 18.279 23.9742C18.2455 23.9577 18.2121 23.9422 18.1787 23.9267L18.4213 24.0277C18.3745 24.0082 18.3271 23.99 18.2793 23.9735C18.38 24.0216 18.4771 24.0772 18.5697 24.1398C18.584 24.1492 18.5984 24.1596 18.6128 24.1704L18.5794 24.1398C18.4514 24.0243 18.7464 24.2582 18.6602 24.2041C18.6442 24.1933 18.6271 24.1818 18.6128 24.1704C18.6566 24.2101 18.701 24.2485 18.7411 24.2889C18.7812 24.3293 18.824 24.3767 18.8624 24.4205C18.8547 24.4084 18.8457 24.3932 18.837 24.3801C18.8804 24.4333 18.9603 24.5312 18.8895 24.4518L18.8624 24.4205C18.8684 24.4302 18.8734 24.4383 18.8761 24.4417C18.9389 24.535 18.9947 24.6329 19.0432 24.7345C19.0288 24.6931 19.0131 24.6521 18.9964 24.6113C19.0298 24.6928 19.0632 24.7742 19.0966 24.856C19.0796 24.815 19.0616 24.7746 19.0425 24.7345C19.0849 24.8522 19.1184 24.9729 19.1428 25.0957C19.1394 25.0482 19.1344 25.0011 19.1284 24.9543C19.1418 25.0459 19.1521 25.1341 19.1655 25.2259C19.1591 25.1825 19.1518 25.1391 19.1428 25.0957C19.1628 25.3353 19.1538 25.5814 19.1538 25.8224Z" fill="currentColor"/>
<path d="M15.8473 25.2216C15.8607 25.1297 15.8707 25.0415 15.8844 24.9499C15.8784 24.9971 15.8734 25.0445 15.8693 25.092C15.8653 25.1394 15.8536 25.1778 15.8473 25.2216Z" fill="currentColor"/>
<path d="M15.87 31.7336C15.8734 31.781 15.8784 31.8282 15.8844 31.8749C15.8707 31.7834 15.8607 31.6949 15.8473 31.6033C15.8536 31.6467 15.8627 31.6902 15.87 31.7336Z" fill="currentColor"/>
<path d="M15.9689 32.0947C15.9833 32.1361 15.999 32.1772 16.0157 32.2179L15.9155 31.9732C15.9318 32.0143 15.9499 32.0547 15.9689 32.0947Z" fill="currentColor"/>
<path d="M15.9148 24.8513L16.015 24.607C15.9957 24.6541 15.9776 24.7019 15.9612 24.75C15.9455 24.7837 15.9295 24.8173 15.9148 24.8513Z" fill="currentColor"/>
<path d="M16.1507 32.4088C16.1584 32.4209 16.1674 32.436 16.1761 32.4492C16.1327 32.396 16.0528 32.298 16.1236 32.3775L16.1507 32.4088Z" fill="currentColor"/>
<path d="M16.1911 24.366C16.1808 24.3811 16.1701 24.3966 16.1577 24.4121L16.126 24.4457C16.0124 24.5767 16.2449 24.2778 16.1911 24.366Z" fill="currentColor"/>
<path d="M16.3529 32.6252C16.3679 32.6353 16.3829 32.6464 16.3983 32.6589L16.4317 32.6905C16.5617 32.8049 16.2637 32.5707 16.3529 32.6252Z" fill="currentColor"/>
<path d="M16.4371 24.1351L16.4077 24.1613C16.3953 24.169 16.3796 24.1788 16.3659 24.1879C16.418 24.1445 16.5156 24.0634 16.4371 24.1351Z" fill="currentColor"/>
<path d="M16.7341 32.8561C16.7676 32.8726 16.801 32.8881 16.8344 32.9036L16.5918 32.8026C16.6382 32.8221 16.685 32.84 16.7325 32.8564L16.7341 32.8561Z" fill="currentColor"/>
<path d="M16.5955 24.0267L16.8381 23.9257C16.7973 23.9429 16.7572 23.9614 16.7174 23.9809C16.6763 23.994 16.6356 24.0098 16.5955 24.0267Z" fill="currentColor"/>
<path d="M17.0753 32.9493C17.1171 32.9581 17.1592 32.9652 17.202 32.9712C17.1111 32.9578 17.0235 32.9477 16.9323 32.9342C16.9798 32.9406 17.0275 32.9456 17.0753 32.9493Z" fill="currentColor"/>
<path d="M16.9356 23.8941C17.0269 23.8806 17.1144 23.8705 17.2053 23.8567C17.1659 23.8624 17.1264 23.8691 17.0873 23.8772C17.0362 23.8819 16.9854 23.8877 16.9356 23.8941Z" fill="currentColor"/>
<path d="M17.9197 32.952C17.9575 32.9493 17.9949 32.9456 18.0324 32.9406L17.8616 32.9638L17.8088 32.9712C17.8248 32.9689 17.8422 32.9665 17.8573 32.9635C17.8221 32.9597 17.7867 32.9578 17.7513 32.9578C17.8081 32.9578 17.8643 32.9561 17.9197 32.952Z" fill="currentColor"/>
<path d="M17.8121 23.8567C17.903 23.8705 17.9906 23.8806 18.0815 23.8941C18.0324 23.8877 17.9829 23.8823 17.9324 23.8776C17.8927 23.8695 17.8526 23.8624 17.8121 23.8567Z" fill="currentColor"/>
<path d="M18.2967 32.8484C18.3378 32.8342 18.3785 32.8184 18.4186 32.8016L18.176 32.9026C18.2168 32.8864 18.2569 32.8679 18.2967 32.8484Z" fill="currentColor"/>
<path d="M18.1794 23.9247L18.422 24.0257C18.3752 24.0061 18.3277 23.988 18.28 23.9715C18.2465 23.9557 18.2131 23.9402 18.1794 23.9247Z" fill="currentColor"/>
<path d="M18.6071 32.6666C18.6195 32.6589 18.6352 32.6491 18.6485 32.64C18.5957 32.6841 18.4982 32.7646 18.577 32.6929L18.6061 32.6673L18.6071 32.6666Z" fill="currentColor"/>
<path d="M18.6612 24.203C18.6452 24.1923 18.6278 24.1808 18.6134 24.1694L18.58 24.1388C18.4524 24.0233 18.7488 24.2572 18.6612 24.203Z" fill="currentColor"/>
<path d="M18.8634 24.4195C18.8557 24.4074 18.8467 24.3922 18.838 24.3791C18.8814 24.4323 18.9613 24.5302 18.8905 24.4508L18.8634 24.4195Z" fill="currentColor"/>
<path d="M18.823 32.4613C18.8333 32.4461 18.844 32.4307 18.8564 32.4152L18.8898 32.3815C19.0017 32.2516 18.7698 32.5505 18.823 32.4613Z" fill="currentColor"/>
<path d="M19.0529 32.0779C19.0689 32.0442 19.0846 32.0106 19.0997 31.9769C19.0662 32.0584 19.0328 32.1402 18.9994 32.2216C19.0188 32.1745 19.0368 32.1267 19.0532 32.0786L19.0529 32.0779Z" fill="currentColor"/>
<path d="M18.9984 24.6103C19.0318 24.6918 19.0652 24.7732 19.0986 24.855C19.0816 24.814 19.0636 24.7736 19.0445 24.7335C19.0255 24.6935 19.0151 24.6524 18.9984 24.6103Z" fill="currentColor"/>
<path d="M19.1451 31.7363C19.1538 31.6935 19.1608 31.6504 19.1671 31.6067C19.1538 31.6982 19.1434 31.7868 19.1301 31.8783C19.1377 31.8312 19.1411 31.7837 19.1451 31.7363Z" fill="currentColor"/>
<path d="M19.1441 25.0947C19.1408 25.0472 19.1357 25.0001 19.1297 24.9533C19.1431 25.0449 19.1534 25.133 19.1668 25.2249C19.1605 25.1815 19.1531 25.1381 19.1441 25.0947Z" fill="currentColor"/>
</svg>
