<svg viewBox="0 0 35 35" fill="none" xmlns="http://www.w3.org/2000/svg">
<path fill-rule="evenodd" clip-rule="evenodd" d="M8.75 7V12.25H7C5.067 12.25 3.5 13.817 3.5 15.75V21C3.5 22.933 5.067 24.5 7 24.5H8.75V28C8.75 29.933 10.317 31.5 12.25 31.5H22.75C24.683 31.5 26.25 29.933 26.25 28V24.5H28C29.933 24.5 31.5 22.933 31.5 21V15.75C31.5 13.817 29.933 12.25 28 12.25H26.25V7C26.25 5.067 24.683 3.5 22.75 3.5H12.25C10.317 3.5 8.75 5.067 8.75 7ZM22.75 7H12.25V12.25H22.75V7ZM22.75 21H12.25V28H22.75V21Z" fill="currentColor"/>
</svg>
