<svg viewBox="0 0 35 35" fill="none" xmlns="http://www.w3.org/2000/svg">
<path d="M3.5 19.25C3.5 18.2835 4.2835 17.5 5.25 17.5H8.75C9.7165 17.5 10.5 18.2835 10.5 19.25V28C10.5 28.9665 9.7165 29.75 8.75 29.75H5.25C4.2835 29.75 3.5 28.9665 3.5 28V19.25Z" fill="currentColor"/>
<path d="M14 12.25C14 11.2835 14.7835 10.5 15.75 10.5H19.25C20.2165 10.5 21 11.2835 21 12.25V28C21 28.9665 20.2165 29.75 19.25 29.75H15.75C14.7835 29.75 14 28.9665 14 28V12.25Z" fill="currentColor"/>
<path d="M24.5 7C24.5 6.0335 25.2835 5.25 26.25 5.25H29.75C30.7165 5.25 31.5 6.0335 31.5 7V28C31.5 28.9665 30.7165 29.75 29.75 29.75H26.25C25.2835 29.75 24.5 28.9665 24.5 28V7Z" fill="currentColor"/>
</svg>
