<svg viewBox="0 0 35 35" fill="none" xmlns="http://www.w3.org/2000/svg">
<path d="M17.5 6.125C17.5 4.67525 18.6753 3.5 20.125 3.5C21.5747 3.5 22.75 4.67525 22.75 6.125V7C22.75 7.9665 23.5335 8.75 24.5 8.75H29.75C30.7165 8.75 31.5 9.5335 31.5 10.5V15.75C31.5 16.7165 30.7165 17.5 29.75 17.5H28.875C27.4253 17.5 26.25 18.6753 26.25 20.125C26.25 21.5747 27.4253 22.75 28.875 22.75H29.75C30.7165 22.75 31.5 23.5335 31.5 24.5V29.75C31.5 30.7165 30.7165 31.5 29.75 31.5H24.5C23.5335 31.5 22.75 30.7165 22.75 29.75V28.875C22.75 27.4253 21.5747 26.25 20.125 26.25C18.6753 26.25 17.5 27.4253 17.5 28.875V29.75C17.5 30.7165 16.7165 31.5 15.75 31.5H10.5C9.5335 31.5 8.75 30.7165 8.75 29.75V24.5C8.75 23.5335 7.9665 22.75 7 22.75H6.125C4.67525 22.75 3.5 21.5747 3.5 20.125C3.5 18.6753 4.67525 17.5 6.125 17.5H7C7.9665 17.5 8.75 16.7165 8.75 15.75V10.5C8.75 9.5335 9.5335 8.75 10.5 8.75H15.75C16.7165 8.75 17.5 7.9665 17.5 7V6.125Z" fill="currentColor"/>
</svg>
