<svg viewBox="0 0 35 35" fill="none" xmlns="http://www.w3.org/2000/svg">
<path fill-rule="evenodd" clip-rule="evenodd" d="M31.5 17.5C31.5 25.232 25.232 31.5 17.5 31.5C9.76801 31.5 3.5 25.232 3.5 17.5C3.5 9.76801 9.76801 3.5 17.5 3.5C25.232 3.5 31.5 9.76801 31.5 17.5ZM17.5 12.25C16.8545 12.25 16.2883 12.5986 15.9831 13.1263C15.4991 13.9629 14.4286 14.2488 13.592 13.7648C12.7554 13.2809 12.4695 12.2103 12.9535 11.3737C13.8586 9.80907 15.5546 8.75 17.5 8.75C20.3995 8.75 22.75 11.1005 22.75 14C22.75 16.2859 21.2891 18.2306 19.25 18.9513V19.25C19.25 20.2165 18.4665 21 17.5 21C16.5335 21 15.75 20.2165 15.75 19.25V17.5C15.75 16.5335 16.5335 15.75 17.5 15.75C18.4665 15.75 19.25 14.9665 19.25 14C19.25 13.0335 18.4665 12.25 17.5 12.25ZM17.5 26.25C18.4665 26.25 19.25 25.4665 19.25 24.5C19.25 23.5335 18.4665 22.75 17.5 22.75C16.5335 22.75 15.75 23.5335 15.75 24.5C15.75 25.4665 16.5335 26.25 17.5 26.25Z" fill="currentColor"/>
</svg>
