<svg viewBox="0 0 35 35" fill="none" xmlns="http://www.w3.org/2000/svg">
<path d="M19.25 5.25C19.25 4.2835 18.4665 3.5 17.5 3.5C16.5335 3.5 15.75 4.2835 15.75 5.25V7C15.75 7.9665 16.5335 8.75 17.5 8.75C18.4665 8.75 19.25 7.9665 19.25 7V5.25Z" fill="currentColor"/>
<path d="M27.3994 10.0753C28.0828 9.39187 28.0828 8.28383 27.3994 7.60041C26.716 6.917 25.608 6.917 24.9246 7.60041L23.6871 8.83785C23.0037 9.52127 23.0037 10.6293 23.6871 11.3127C24.3705 11.9961 25.4786 11.9961 26.162 11.3127L27.3994 10.0753Z" fill="currentColor"/>
<path d="M31.5 17.5C31.5 18.4665 30.7165 19.25 29.75 19.25H28C27.0335 19.25 26.25 18.4665 26.25 17.5C26.25 16.5335 27.0335 15.75 28 15.75H29.75C30.7165 15.75 31.5 16.5335 31.5 17.5Z" fill="currentColor"/>
<path d="M8.83783 11.3128C9.52125 11.9962 10.6293 11.9962 11.3127 11.3128C11.9961 10.6293 11.9961 9.5213 11.3127 8.83788L10.0753 7.60044C9.39185 6.91703 8.28381 6.91703 7.60039 7.60044C6.91698 8.28386 6.91698 9.3919 7.60039 10.0753L8.83783 11.3128Z" fill="currentColor"/>
<path d="M8.75 17.5C8.75 18.4665 7.9665 19.25 7 19.25H5.25C4.2835 19.25 3.5 18.4665 3.5 17.5C3.5 16.5335 4.2835 15.75 5.25 15.75H7C7.9665 15.75 8.75 16.5335 8.75 17.5Z" fill="currentColor"/>
<path d="M14 28V26.25H21V28C21 29.933 19.433 31.5 17.5 31.5C15.567 31.5 14 29.933 14 28Z" fill="currentColor"/>
<path d="M21.0016 24.5C21.0271 23.9044 21.3633 23.369 21.8344 22.997C23.458 21.715 24.5 19.7292 24.5 17.5C24.5 13.634 21.366 10.5 17.5 10.5C13.634 10.5 10.5 13.634 10.5 17.5C10.5 19.7292 11.542 21.715 13.1656 22.997C13.6367 23.369 13.9729 23.9044 13.9984 24.5H21.0016Z" fill="currentColor"/>
</svg>
