<svg viewBox="0 0 35 35" fill="none" xmlns="http://www.w3.org/2000/svg">
<path d="M11.5883 10.5042C8.59477 10.5042 6.16807 12.9309 6.16807 15.9244C6.16807 18.9179 8.59477 21.3446 11.5883 21.3446C13.9799 21.3446 16.0097 19.7956 16.7293 17.6461H14.5995C14.5168 17.6461 14.4349 17.6428 14.3539 17.6363C13.7804 18.5608 12.7562 19.1765 11.5883 19.1765C9.79217 19.1765 8.33615 17.7205 8.33615 15.9244C8.33615 14.1283 9.79217 12.6723 11.5883 12.6723V10.5042Z" fill="currentColor"/>
<path fill-rule="evenodd" clip-rule="evenodd" d="M11.5883 22.4286C7.39738 22.4286 4 25.826 4 30.0169V31.1009C4 31.6996 4.48534 32.185 5.08404 32.185H18.0925C18.6912 32.185 19.1765 31.6996 19.1765 31.1009V30.0169C19.1765 25.826 15.7791 22.4286 11.5883 22.4286Z" fill="currentColor"/>
<path d="M17.0084 15.9244C17.0084 18.9179 14.5817 21.3446 11.5883 21.3446C8.59477 21.3446 6.16807 18.9179 6.16807 15.9244C6.16807 12.9309 8.59477 10.5042 11.5883 10.5042C14.5817 10.5042 17.0084 12.9309 17.0084 15.9244Z" fill="currentColor"/>
<path fill-rule="evenodd" clip-rule="evenodd" d="M13.9731 4H28.716C30.0169 4 31.1009 5.08404 30.9925 6.49329V16.2496C30.9925 17.5505 29.9085 18.6345 28.6076 18.6345H22.537L16.4664 23.5127V20.2606C17.442 19.0681 18.0925 17.5505 18.0925 15.9244C18.0925 12.3471 15.1656 9.42018 11.5882 9.42018V6.38488C11.5882 5.08404 12.6723 4 13.9731 4ZM23.7837 12.0577C24.145 11.849 24.145 11.3275 23.7837 11.1189L20.5316 9.24124C20.1702 9.03263 19.7185 9.29341 19.7185 9.71065V13.4659C19.7185 13.8831 20.1702 14.1439 20.5316 13.9353L23.7837 12.0577Z" fill="currentColor"/>
</svg>
