<svg viewBox="0 0 35 35" fill="none" xmlns="http://www.w3.org/2000/svg">
<path d="M14.7793 25.9562C15.3163 26.3142 16.0067 26.3476 16.5757 26.0431C17.1448 25.7385 17.5 25.1455 17.5 24.5001L17.5 19.6034L27.0293 25.9562C27.5663 26.3142 28.2567 26.3476 28.8257 26.0431C29.3948 25.7385 29.75 25.1455 29.75 24.5001V10.5001C29.75 9.85473 29.3948 9.26173 28.8258 8.95719C28.2567 8.65266 27.5663 8.68604 27.0293 9.04404L17.5 15.3969V10.5001C17.5 9.85473 17.1448 9.26173 16.5758 8.95719C16.0067 8.65266 15.3163 8.68604 14.7793 9.04404L4.27927 16.044C3.79243 16.3686 3.5 16.915 3.5 17.5001C3.5 18.0852 3.79243 18.6316 4.27927 18.9562L14.7793 25.9562Z" fill="currentColor"/>
</svg>
