<svg viewBox="0 0 35 35" fill="none" xmlns="http://www.w3.org/2000/svg">
<path fill-rule="evenodd" clip-rule="evenodd" d="M31.5 17C31.5 24.732 25.232 31 17.5 31C9.76801 31 3.5 24.732 3.5 17C3.5 9.26801 9.76801 3 17.5 3C25.232 3 31.5 9.26801 31.5 17ZM17.5 11C18.0523 11 18.5 11.4477 18.5 12V17H22.5C23.0523 17 23.5 17.4477 23.5 18C23.5 18.5523 23.0523 19 22.5 19H17.5C16.9477 19 16.5 18.5523 16.5 18V12C16.5 11.4477 16.9477 11 17.5 11ZM17.5 9.13379C18.0523 9.13379 18.5 8.68607 18.5 8.13379C18.5 7.5815 18.0523 7.13379 17.5 7.13379C16.9477 7.13379 16.5 7.5815 16.5 8.13379C16.5 8.68607 16.9477 9.13379 17.5 9.13379ZM17.5 26.8662C18.0523 26.8662 18.5 26.4185 18.5 25.8662C18.5 25.3139 18.0523 24.8662 17.5 24.8662C16.9477 24.8662 16.5 25.3139 16.5 25.8662C16.5 26.4185 16.9477 26.8662 17.5 26.8662ZM9.50001 17.8662C9.50001 18.4185 9.0523 18.8662 8.50001 18.8662C7.94773 18.8662 7.50001 18.4185 7.50001 17.8662C7.50001 17.3139 7.94773 16.8662 8.50001 16.8662C9.0523 16.8662 9.50001 17.3139 9.50001 17.8662ZM26.5 18.8662C27.0523 18.8662 27.5 18.4185 27.5 17.8662C27.5 17.3139 27.0523 16.8662 26.5 16.8662C25.9477 16.8662 25.5 17.3139 25.5 17.8662C25.5 18.4185 25.9477 18.8662 26.5 18.8662Z" fill="currentColor"/>
</svg>
