<svg viewBox="0 0 35 35" fill="none" xmlns="http://www.w3.org/2000/svg">
<path d="M29.4007 26.2096L22.063 23.4288L24.3865 28.9438L24.6354 28.7914C25.1548 29.1895 25.7894 29.398 26.4364 29.398C26.567 29.398 26.6977 29.3886 26.8283 29.3731C27.6059 29.2704 28.312 28.8629 28.7911 28.2377C29.2359 27.6591 29.4536 26.9375 29.4007 26.2096ZM27.8672 26.782C27.805 27.0464 27.6682 27.2859 27.4753 27.4787C27.2856 27.6716 27.046 27.8053 26.7816 27.8675C26.5204 27.9298 26.2435 27.9173 25.9885 27.8302C26.6634 27.2734 27.2824 26.6544 27.8392 25.9794C27.9232 26.2376 27.9325 26.5176 27.8672 26.782ZM32.6823 16.1656C32.2593 15.3257 31.4661 14.7347 30.5392 14.5729C30.2032 13.0768 29.6091 11.6521 28.7848 10.3581C29.3354 9.58981 29.4847 8.60375 29.1923 7.7048C28.8968 6.80584 28.1938 6.09974 27.2949 5.80735C26.3959 5.51184 25.4099 5.66426 24.6416 6.21483C23.3507 5.39053 21.923 4.79641 20.4268 4.46047C20.2651 3.53351 19.6741 2.74032 18.8342 2.31728C17.9944 1.89424 17.0052 1.89424 16.1654 2.31728C15.3255 2.74032 14.7345 3.53351 14.5728 4.46047C13.0766 4.79641 11.652 5.39053 10.358 6.21483C9.58971 5.66426 8.60367 5.51495 7.70473 5.80735C6.80578 6.10285 6.09969 6.80584 5.8073 7.7048C5.5118 8.60375 5.66421 9.58981 6.21478 10.3581C5.39049 11.649 4.79637 13.0768 4.46043 14.5729C3.53349 14.7347 2.74031 15.3257 2.31727 16.1656C1.89424 17.0054 1.89424 17.9946 2.31727 18.8344C2.74031 19.6743 3.53349 20.2653 4.46043 20.4271C4.79637 21.9232 5.39049 23.3479 6.21478 24.6419C5.66421 25.4102 5.51491 26.3962 5.8073 27.2952C6.1028 28.1942 6.80578 28.9003 7.70473 29.1927C8.60367 29.4882 9.58971 29.3357 10.358 28.7852C11.6489 29.6095 13.0766 30.2036 14.5728 30.5395C14.7345 31.4665 15.3255 32.2597 16.1654 32.6827C17.0052 33.1058 17.9944 33.1058 18.8342 32.6827C19.6741 32.2597 20.2651 31.4665 20.4268 30.5395C21.2791 30.3467 22.1127 30.0729 22.9121 29.7183L19.9198 22.6138L15.0549 20.7692C14.6568 20.6199 14.4577 20.1751 14.607 19.7769L14.6879 19.5685C14.8372 19.1704 15.282 18.9713 15.6801 19.1237L18.9742 20.3742L16.0596 13.45C15.901 13.0768 16.0783 12.6475 16.4516 12.4889L16.632 12.4142C17.0052 12.2587 17.4345 12.4329 17.5931 12.8061L21.1236 21.1891L29.0586 24.2002C29.746 23.0275 30.2437 21.7584 30.5423 20.4333C31.4692 20.2715 32.2624 19.6805 32.6854 18.8407C33.1054 17.9946 33.1054 17.0054 32.6823 16.1656ZM4.18982 18.8127C3.9472 18.6882 3.7419 18.5016 3.60193 18.2683C3.45573 18.0412 3.37797 17.7737 3.37797 17.5C3.38108 17.2294 3.45884 16.965 3.60193 16.7317C3.74501 16.5015 3.9472 16.3149 4.18982 16.1904C4.09961 17.0614 4.09961 17.9417 4.18982 18.8127ZM7.12305 8.22115C7.18527 7.95364 7.32213 7.71413 7.51809 7.52127C7.71095 7.33153 7.95046 7.20088 8.21174 7.13867C8.47303 7.07646 8.74675 7.08579 9.00493 7.16667C8.32683 7.72657 7.70472 8.34869 7.14794 9.02368C7.06706 8.76239 7.05773 8.48555 7.12305 8.22115ZM8.21796 27.8769C7.95357 27.8116 7.71095 27.6747 7.51809 27.4818C7.33146 27.289 7.20082 27.0495 7.13861 26.7882C7.0764 26.5269 7.08884 26.2532 7.16971 25.9981C7.72339 26.6731 8.34239 27.2952 9.02048 27.8489C8.76231 27.9298 8.48236 27.9422 8.21796 27.8769ZM18.8093 30.807C18.6849 31.0497 18.4983 31.255 18.265 31.3949C18.0348 31.5411 17.7673 31.6189 17.4967 31.6189C17.2261 31.6158 16.9617 31.538 16.7284 31.3949C16.4982 31.2519 16.3116 31.0497 16.1872 30.807C17.0581 30.9004 17.9384 30.9004 18.8093 30.807ZM14.6008 19.5281C14.6008 19.525 14.6008 19.525 14.6039 19.5219C14.607 19.5188 14.607 19.5157 14.6101 19.5125C14.607 19.5157 14.6039 19.5219 14.6008 19.5281ZM17.4967 4.12141C17.0581 4.12141 16.6195 4.14319 16.1809 4.18985C16.3054 3.94722 16.492 3.74192 16.7253 3.60195C16.9586 3.45886 17.223 3.38421 17.4967 3.3811C17.7673 3.38421 18.0286 3.46197 18.2588 3.60506C18.489 3.74814 18.6725 3.95033 18.7969 4.18985C18.3645 4.1463 17.9322 4.12141 17.4967 4.12141ZM27.8299 9.01124C27.27 8.33313 26.6479 7.71102 25.9729 7.15422C26.2342 7.07335 26.511 7.06402 26.7754 7.12934C27.0429 7.19466 27.2824 7.33153 27.4753 7.52438C27.665 7.71724 27.7957 7.95675 27.8579 8.21804C27.9201 8.47622 27.9108 8.74995 27.8299 9.01124ZM31.3915 18.2652C31.2484 18.4954 31.0462 18.6789 30.8067 18.8033C30.8502 18.371 30.8751 17.9386 30.8751 17.5031C30.8751 17.0645 30.8533 16.6259 30.8067 16.1873C31.0493 16.3118 31.2546 16.4984 31.3946 16.7317C31.5377 16.965 31.6123 17.2325 31.6154 17.5031C31.6123 17.7706 31.5345 18.035 31.3915 18.2652Z" fill="currentColor"/>
</svg>
