<svg viewBox="0 0 35 35" fill="none" xmlns="http://www.w3.org/2000/svg">
<path fill-rule="evenodd" clip-rule="evenodd" d="M10.5 3.5C9.5335 3.5 8.75 4.2835 8.75 5.25V7H7C5.067 7 3.5 8.567 3.5 10.5V28C3.5 29.933 5.067 31.5 7 31.5H28C29.933 31.5 31.5 29.933 31.5 28V10.5C31.5 8.567 29.933 7 28 7H26.25V5.25C26.25 4.2835 25.4665 3.5 24.5 3.5C23.5335 3.5 22.75 4.2835 22.75 5.25V7H12.25V5.25C12.25 4.2835 11.4665 3.5 10.5 3.5ZM10.5 12.25C9.5335 12.25 8.75 13.0335 8.75 14C8.75 14.9665 9.5335 15.75 10.5 15.75H24.5C25.4665 15.75 26.25 14.9665 26.25 14C26.25 13.0335 25.4665 12.25 24.5 12.25H10.5Z" fill="currentColor"/>
</svg>
