<svg viewBox="0 0 35 35" fill="none" xmlns="http://www.w3.org/2000/svg">
<path d="M7 7C7 5.06701 8.567 3.5 10.5 3.5H18.5251C19.4534 3.5 20.3436 3.86875 21 4.52513L26.9749 10.5C27.6313 11.1564 28 12.0466 28 12.9749V28C28 29.933 26.433 31.5 24.5 31.5H21.8264C23.489 29.6424 24.5 27.1892 24.5 24.5C24.5 18.701 19.799 14 14 14C11.3108 14 8.85765 15.011 7 16.6736V7Z" fill="currentColor"/>
<path fill-rule="evenodd" clip-rule="evenodd" d="M14 17.5C10.134 17.5 7 20.634 7 24.5C7 25.7974 7.35401 27.0137 7.96944 28.0557L5.76256 30.2626C5.07915 30.946 5.07915 32.054 5.76256 32.7374C6.44598 33.4209 7.55402 33.4209 8.23744 32.7374L10.4443 30.5306C11.4863 31.146 12.7026 31.5 14 31.5C17.866 31.5 21 28.366 21 24.5C21 20.634 17.866 17.5 14 17.5ZM10.5 24.5C10.5 22.567 12.067 21 14 21C15.933 21 17.5 22.567 17.5 24.5C17.5 26.433 15.933 28 14 28C13.033 28 12.1604 27.6102 11.5251 26.9749C10.8898 26.3396 10.5 25.467 10.5 24.5Z" fill="currentColor"/>
</svg>
