<svg viewBox="0 0 35 35" fill="none" xmlns="http://www.w3.org/2000/svg">
<path d="M15.75 15.75C15.75 13.817 17.317 12.25 19.25 12.25C21.183 12.25 22.75 13.817 22.75 15.75C22.75 17.683 21.183 19.25 19.25 19.25C18.283 19.25 17.4104 18.8602 16.7751 18.2249C16.1398 17.5896 15.75 16.717 15.75 15.75Z" fill="currentColor"/>
<path fill-rule="evenodd" clip-rule="evenodd" d="M17.5 31.5C25.232 31.5 31.5 25.232 31.5 17.5C31.5 9.76801 25.232 3.5 17.5 3.5C9.76801 3.5 3.5 9.76801 3.5 17.5C3.5 25.232 9.76801 31.5 17.5 31.5ZM19.25 8.75C15.384 8.75 12.25 11.884 12.25 15.75C12.25 17.0474 12.604 18.2637 13.2194 19.3057L9.26256 23.2626C8.57915 23.946 8.57915 25.054 9.26256 25.7374C9.94598 26.4209 11.054 26.4209 11.7374 25.7374L15.6943 21.7806C16.7363 22.396 17.9526 22.75 19.25 22.75C23.116 22.75 26.25 19.616 26.25 15.75C26.25 11.884 23.116 8.75 19.25 8.75Z" fill="currentColor"/>
</svg>
