<svg viewBox="0 0 35 35" fill="none" xmlns="http://www.w3.org/2000/svg">
<path fill-rule="evenodd" clip-rule="evenodd" d="M14 5.5C10.134 5.5 7 8.63401 7 12.5C7 16.366 10.134 19.5 14 19.5C17.866 19.5 21 16.366 21 12.5C21 8.63401 17.866 5.5 14 5.5ZM3.5 12.5C3.5 6.70101 8.20101 2 14 2C19.799 2 24.5 6.70101 24.5 12.5C24.5 14.7677 23.7811 16.8675 22.5588 18.5839L30.9874 27.0126C31.6709 27.696 31.6709 28.804 30.9874 29.4874C30.304 30.1709 29.196 30.1709 28.5126 29.4874L20.0839 21.0588C18.3675 22.2811 16.2677 23 14 23C8.20101 23 3.5 18.299 3.5 12.5Z" fill="currentColor"/>
</svg>
