<svg viewBox="0 0 35 35" fill="none" xmlns="http://www.w3.org/2000/svg">
<path d="M19.0653 4.46738C18.7688 3.8745 18.1629 3.5 17.5 3.5C16.8372 3.5 16.2312 3.8745 15.9348 4.46738L3.68477 28.9674C3.37441 29.5881 3.46017 30.3336 3.90338 30.8676C4.34659 31.4016 5.06349 31.6233 5.73078 31.4327L14.4808 28.9327C15.232 28.718 15.75 28.0313 15.75 27.25V19.25C15.75 18.2835 16.5335 17.5 17.5 17.5C18.4665 17.5 19.25 18.2835 19.25 19.25V27.25C19.25 28.0313 19.768 28.718 20.5192 28.9327L29.2693 31.4327C29.9365 31.6233 30.6535 31.4016 31.0967 30.8676C31.5399 30.3336 31.6256 29.5881 31.3153 28.9674L19.0653 4.46738Z" fill="currentColor"/>
</svg>
