<svg viewBox="0 0 35 35" fill="none" xmlns="http://www.w3.org/2000/svg">
<path fill-rule="evenodd" clip-rule="evenodd" d="M13.7099 5.68515C14.5791 2.10495 19.6709 2.10495 20.54 5.68515C20.782 6.68161 21.9237 7.15463 22.7994 6.62094C25.9455 4.70395 29.546 8.30441 27.629 11.4505C27.0953 12.3263 27.5683 13.468 28.5648 13.7099C32.145 14.5791 32.145 19.6709 28.5648 20.54C27.5683 20.782 27.0953 21.9237 27.629 22.7994C29.546 25.9455 25.9455 29.546 22.7994 27.629C21.9237 27.0953 20.782 27.5683 20.54 28.5648C19.6709 32.145 14.5791 32.145 13.7099 28.5648C13.468 27.5683 12.3263 27.0953 11.4505 27.629C8.30441 29.546 4.70395 25.9455 6.62094 22.7994C7.15463 21.9237 6.68161 20.782 5.68515 20.54C2.10495 19.6709 2.10495 14.5791 5.68515 13.7099C6.68161 13.468 7.15463 12.3263 6.62094 11.4505C4.70395 8.30441 8.30441 4.70395 11.4505 6.62094C12.3263 7.15463 13.468 6.68161 13.7099 5.68515ZM22.7762 17.0842C23.0746 17.269 23.0746 17.7309 22.7762 17.9157L14.6714 22.9349C14.373 23.1197 14 22.8888 14 22.5191V12.4808C14 12.1112 14.373 11.8802 14.6714 12.065L22.7762 17.0842Z" fill="currentColor"/>
</svg>
