<svg viewBox="0 0 35 35" fill="none" xmlns="http://www.w3.org/2000/svg">
<path fill-rule="evenodd" clip-rule="evenodd" d="M20.1061 5.54915C19.4428 2.81695 15.5572 2.81695 14.8939 5.54915C14.4654 7.31411 12.4433 8.15169 10.8923 7.20665C8.49132 5.74372 5.74372 8.49132 7.20665 10.8923C8.15169 12.4433 7.31411 14.4654 5.54915 14.8939C2.81695 15.5572 2.81695 19.4428 5.54915 20.1061C7.31411 20.5346 8.1517 22.5567 7.20666 24.1077C5.74372 26.5087 8.49132 29.2563 10.8923 27.7933C12.4433 26.8483 14.4654 27.6859 14.8939 29.4509C15.5572 32.1831 19.4428 32.1831 20.1061 29.4509C20.5346 27.6859 22.5567 26.8483 24.1077 27.7933C26.5087 29.2563 29.2563 26.5087 27.7933 24.1077C26.8483 22.5567 27.6859 20.5346 29.4509 20.1061C32.1831 19.4428 32.1831 15.5572 29.4509 14.8939C27.6859 14.4654 26.8483 12.4433 27.7933 10.8923C29.2563 8.49132 26.5087 5.74372 24.1077 7.20666C22.5567 8.15169 20.5346 7.31411 20.1061 5.54915ZM17.5 22.75C20.3995 22.75 22.75 20.3995 22.75 17.5C22.75 14.6005 20.3995 12.25 17.5 12.25C14.6005 12.25 12.25 14.6005 12.25 17.5C12.25 20.3995 14.6005 22.75 17.5 22.75Z" fill="currentColor"/>
</svg>
