<svg viewBox="0 0 35 35" fill="none" xmlns="http://www.w3.org/2000/svg">
<path d="M26.25 14C29.1495 14 31.5 11.6495 31.5 8.75C31.5 5.85051 29.1495 3.5 26.25 3.5C23.3505 3.5 21 5.85051 21 8.75C21 8.9696 21.0135 9.18605 21.0397 9.39856L12.3945 13.7211C11.4503 12.8103 10.1656 12.25 8.75 12.25C5.85051 12.25 3.5 14.6005 3.5 17.5C3.5 20.3995 5.85051 22.75 8.75 22.75C10.1656 22.75 11.4504 22.1897 12.3946 21.2788L21.0397 25.6014C21.0135 25.8139 21 26.0304 21 26.25C21 29.1495 23.3505 31.5 26.25 31.5C29.1495 31.5 31.5 29.1495 31.5 26.25C31.5 23.3505 29.1495 21 26.25 21C24.8344 21 23.5497 21.5603 22.6055 22.4711L13.9603 18.1486C13.9865 17.936 14 17.7196 14 17.5C14 17.2804 13.9865 17.0639 13.9603 16.8514L22.6054 12.5288C23.5496 13.4397 24.8344 14 26.25 14Z" fill="currentColor"/>
</svg>
