<svg viewBox="0 0 35 35" fill="none" xmlns="http://www.w3.org/2000/svg">
<path d="M5.25 1.75C4.2835 1.75 3.5 2.5335 3.5 3.5C3.5 4.4665 4.2835 5.25 5.25 5.25H7.38364L7.91837 7.38892C7.92398 7.41366 7.93012 7.43819 7.93677 7.46251L10.3119 16.9631L8.74992 18.5251C6.54504 20.73 8.10662 24.5 11.2248 24.5H26.2499C27.2164 24.5 27.9999 23.7165 27.9999 22.75C27.9999 21.7835 27.2164 21 26.2499 21L11.2248 21L12.9748 19.25H24.5C25.1629 19.25 25.7688 18.8755 26.0652 18.2826L31.3153 7.78262C31.5865 7.24014 31.5575 6.5959 31.2386 6.07997C30.9198 5.56404 30.3565 5.25 29.75 5.25H10.9914L10.4477 3.07556C10.253 2.29652 9.55302 1.75 8.75 1.75H5.25Z" fill="currentColor"/>
<path d="M28 28.875C28 30.3247 26.8247 31.5 25.375 31.5C23.9253 31.5 22.75 30.3247 22.75 28.875C22.75 27.4253 23.9253 26.25 25.375 26.25C26.8247 26.25 28 27.4253 28 28.875Z" fill="currentColor"/>
<path d="M11.375 31.5C12.8247 31.5 14 30.3247 14 28.875C14 27.4253 12.8247 26.25 11.375 26.25C9.92525 26.25 8.75 27.4253 8.75 28.875C8.75 30.3247 9.92525 31.5 11.375 31.5Z" fill="currentColor"/>
</svg>
