<svg viewBox="0 0 35 35" fill="none" xmlns="http://www.w3.org/2000/svg">
<path fill-rule="evenodd" clip-rule="evenodd" d="M17.5 3.5C13.634 3.5 10.5 6.63401 10.5 10.5V12.25H8.75001C7.8583 12.25 7.10919 12.9205 7.01071 13.8067L5.26071 29.5567C5.20574 30.0515 5.36406 30.5462 5.69603 30.9171C6.02801 31.288 6.50223 31.5 7.00001 31.5H28C28.4978 31.5 28.972 31.288 29.304 30.9171C29.636 30.5462 29.7943 30.0515 29.7393 29.5567L27.9893 13.8067C27.8908 12.9205 27.1417 12.25 26.25 12.25H24.5V10.5C24.5 6.63401 21.366 3.5 17.5 3.5ZM21 12.25V10.5C21 8.567 19.433 7 17.5 7C15.567 7 14 8.567 14 10.5V12.25H21ZM10.5 17.5C10.5 16.5335 11.2835 15.75 12.25 15.75C13.2165 15.75 14 16.5335 14 17.5C14 18.4665 13.2165 19.25 12.25 19.25C11.2835 19.25 10.5 18.4665 10.5 17.5ZM22.75 15.75C21.7835 15.75 21 16.5335 21 17.5C21 18.4665 21.7835 19.25 22.75 19.25C23.7165 19.25 24.5 18.4665 24.5 17.5C24.5 16.5335 23.7165 15.75 22.75 15.75Z" fill="currentColor"/>
</svg>
