<svg viewBox="0 0 35 35" fill="none" xmlns="http://www.w3.org/2000/svg">
<path d="M4.13636 30C3.50877 30 3 29.4912 3 28.8636C3 28.236 3.50877 27.7273 4.13636 27.7273H9.43939C10.067 27.7273 10.5758 28.236 10.5758 28.8636C10.5758 29.4912 10.067 30 9.43939 30H4.13636Z" fill="currentColor"/>
<path d="M16.2576 30C15.63 30 15.1212 29.4912 15.1212 28.8636C15.1212 28.236 15.63 27.7273 16.2576 27.7273H29.8939C30.5215 27.7273 31.0303 28.236 31.0303 28.8636C31.0303 29.4912 30.5215 30 29.8939 30H16.2576Z" fill="currentColor"/>
<path fill-rule="evenodd" clip-rule="evenodd" d="M4.51515 5C3.67836 5 3 5.67836 3 6.51515V23.1818C3 24.0186 3.67836 24.697 4.51515 24.697H29.5152C30.3519 24.697 31.0303 24.0186 31.0303 23.1818V6.51515C31.0303 5.67836 30.3519 5 29.5152 5H4.51515ZM20.803 15.5046C21.3081 15.213 21.3081 14.484 20.803 14.1924L15.1212 10.912C14.6162 10.6204 13.9848 10.9849 13.9848 11.5681L13.9848 18.1289C13.9848 18.7121 14.6162 19.0766 15.1212 18.785L20.803 15.5046Z" fill="currentColor"/>
</svg>
