<svg viewBox="0 0 35 35" fill="none" xmlns="http://www.w3.org/2000/svg">
<path d="M33.003 23.1638L27.3625 19.9625C27.2251 19.8939 27.0731 19.8582 26.9189 19.8582C26.7648 19.8582 26.6128 19.8939 26.4754 19.9625C26.1915 20.1015 26.0142 20.415 26.0142 20.728V23.0593H22.7858C21.8838 23.0628 20.9992 22.8164 20.2337 22.3486C19.4682 21.8808 18.8529 21.2106 18.4586 20.415L14.5223 12.7255C13.3843 10.4993 11.1137 9.14286 8.59504 9.14286H2.3868C2.15161 9.14286 1.92604 9.23449 1.75974 9.39759C1.59343 9.56069 1.5 9.7819 1.5 10.0126C1.5 10.2432 1.59343 10.4644 1.75974 10.6275C1.92604 10.7906 2.15161 10.8823 2.3868 10.8823H8.59536C9.4972 10.8789 10.3817 11.1252 11.1471 11.5929C11.9125 12.0607 12.5278 12.7308 12.9221 13.5262L16.8601 21.2157C17.9956 23.4441 20.2662 24.7993 22.7848 24.7993H26.0142V27.13C26.0142 27.4439 26.1915 27.7216 26.4754 27.8955C26.619 27.9643 26.7768 28 26.9367 28C27.0966 28 27.2543 27.9643 27.398 27.8955L33.0388 24.6942C33.3227 24.5551 33.5 24.2419 33.5 23.929C33.5 23.6161 33.2513 23.3377 33.003 23.1638Z" fill="currentColor"/>
<path d="M33.0044 9.28756L27.3804 6.10371C27.2434 6.03554 27.0919 6 26.9382 6C26.7844 6 26.6329 6.03554 26.4959 6.10371C26.2129 6.24199 26.0361 6.55382 26.0361 6.86502V9.18424H22.8171C21.6047 9.18374 20.4155 9.50967 19.3799 10.1263C18.3443 10.743 17.5022 11.6265 16.9457 12.6802L16.9103 12.7492C16.6981 13.1644 16.8752 13.7169 17.2996 13.9257C17.441 13.995 17.5472 14.0296 17.6886 14.0296C17.8523 14.0309 18.0128 13.9858 18.1509 13.8999C18.289 13.8139 18.3987 13.6907 18.4669 13.5452L18.5023 13.5105C18.9034 12.7279 19.5198 12.0703 20.2822 11.6118C21.0446 11.1534 21.9228 10.9121 22.8177 10.9154H26.0361V13.2337C26.0361 13.5458 26.2129 13.822 26.4959 13.995C26.6392 14.0634 26.7965 14.0989 26.9559 14.0989C27.1153 14.0989 27.2726 14.0634 27.4158 13.995L33.0402 10.8111C33.3229 10.6728 33.5 10.361 33.5 10.0498C33.5 9.73861 33.2521 9.46049 33.0044 9.28756Z" fill="currentColor"/>
<path d="M2.37287 24.7363H8.59996C11.1264 24.7363 13.3682 23.4093 14.5061 21.2654C14.7195 20.8572 14.5417 20.3464 14.1148 20.1085C13.6879 19.9044 13.1541 20.0744 12.905 20.4827C12.5016 21.2523 11.8816 21.8989 11.1147 22.3498C10.3478 22.8007 9.46454 23.0379 8.56433 23.0348H2.37287C2.13986 23.039 1.91788 23.1305 1.75466 23.2896C1.59144 23.4487 1.5 23.6626 1.5 23.8855C1.5 24.1084 1.59144 24.3224 1.75466 24.4815C1.91788 24.6405 2.13986 24.732 2.37287 24.7363Z" fill="currentColor"/>
<path d="M33.0332 9.24638L33.0331 9.24657C33.2843 9.42204 33.55 9.7132 33.55 10.0498C33.55 10.3778 33.3641 10.7076 33.0635 10.8554L27.4405 14.0385L27.4374 14.0402L27.4374 14.0401C27.2874 14.1117 27.1227 14.1489 26.9559 14.1489C26.789 14.1489 26.6244 14.1117 26.4744 14.0401L26.4697 14.0379L26.4698 14.0376C26.1746 13.8572 25.9861 13.5661 25.9861 13.2337V10.9654H22.8177H22.8175C21.9317 10.9622 21.0625 11.2009 20.308 11.6547C19.5535 12.1084 18.9436 12.7591 18.5468 13.5333L18.5431 13.5406L18.5372 13.5463L18.5082 13.5747C18.4356 13.7255 18.3209 13.8529 18.1773 13.9423C18.0311 14.0333 17.8613 14.0809 17.6882 14.0796M33.0332 9.24638L17.6886 14.0296M33.0332 9.24638L33.0291 9.24405L27.4051 6.0602L27.4051 6.06014L27.4027 6.05895C27.2587 5.98731 27.0996 5.95 26.9382 5.95C26.7768 5.95 26.6176 5.98731 26.4736 6.05895L26.4959 6.10371L26.474 6.05878C26.1722 6.20622 25.9861 6.53654 25.9861 6.86502V9.13424M33.0332 9.24638L26.0361 9.13424H25.9861M17.6882 14.0796L17.6886 14.0296M17.6882 14.0796C17.6883 14.0796 17.6885 14.0796 17.6886 14.0796V14.0296M17.6882 14.0796C17.5366 14.0796 17.4227 14.0417 17.2776 13.9706L17.2775 13.9705C16.8278 13.7492 16.6411 13.1661 16.8658 12.7265L16.8658 12.7264L16.9013 12.6574L16.9015 12.6569C17.4623 11.595 18.3109 10.7046 19.3543 10.0834C20.3977 9.46207 21.5957 9.13374 22.8171 9.13424H25.9861M17.6886 14.0296C17.5472 14.0296 17.441 13.995 17.2996 13.9257C16.8752 13.7169 16.6981 13.1644 16.9103 12.7492L16.9457 12.6802C17.5022 11.6265 18.3443 10.743 19.3799 10.1263C20.4155 9.50967 21.6047 9.18374 22.8171 9.18424H25.9861V9.13424M33.0317 23.1228L33.0318 23.1227L33.0277 23.1203L27.3872 19.919L27.3872 19.9189L27.3848 19.9177C27.2404 19.8457 27.0808 19.8082 26.9189 19.8082C26.7572 19.8082 26.5977 19.8456 26.4534 19.9175C26.1508 20.0658 25.9642 20.3978 25.9642 20.728V23.0093L22.7858 23.0093L22.7856 23.0093C21.8928 23.0127 21.0173 22.7689 20.2598 22.306C19.5022 21.843 18.8935 21.1799 18.5035 20.3928L18.5032 20.3923L14.5668 12.7028C13.42 10.4594 11.1319 9.09286 8.59504 9.09286H2.3868C2.13866 9.09286 1.90048 9.18952 1.72473 9.36189C1.54894 9.53429 1.45 9.76832 1.45 10.0126C1.45 10.2568 1.54894 10.4908 1.72473 10.6632C1.90048 10.8356 2.13866 10.9323 2.3868 10.9323H8.59536L8.59555 10.9323C9.48817 10.9289 10.3636 11.1728 11.121 11.6356C11.8785 12.0985 12.4872 12.7615 12.8773 13.5484L12.8776 13.549L16.8156 21.2384C17.9598 23.484 20.2479 24.8493 22.7848 24.8493H25.9642V27.13C25.9642 27.4641 26.1532 27.7568 26.4493 27.9381L26.4491 27.9384L26.4538 27.9406C26.6042 28.0126 26.7694 28.05 26.9367 28.05C27.104 28.05 27.2692 28.0126 27.4196 27.9406L27.4196 27.9407L27.4227 27.939L33.0622 24.7384C33.364 24.5898 33.55 24.2586 33.55 23.929C33.55 23.5907 33.2836 23.2992 33.0317 23.1228ZM20.2337 22.3486C20.9992 22.8164 21.8838 23.0628 22.7858 23.0593L18.4586 20.415C18.8529 21.2106 19.4682 21.8808 20.2337 22.3486ZM2.37196 24.7863H2.37287H8.59996C11.1442 24.7863 13.4033 23.4497 14.5502 21.2889L14.5504 21.2886C14.778 20.8532 14.5865 20.3141 14.1391 20.0648L14.1392 20.0647L14.1364 20.0634C13.6852 19.8476 13.1241 20.0276 12.8623 20.4566L12.8622 20.4566L12.8607 20.4595C12.4618 21.2206 11.8484 21.8605 11.0893 22.3067C10.3303 22.753 9.45586 22.9879 8.56451 22.9848H8.56433L2.37287 22.9848L2.37196 22.9848C2.12654 22.9892 1.89232 23.0856 1.71976 23.2538C1.54713 23.422 1.45 23.6488 1.45 23.8855C1.45 24.1222 1.54713 24.349 1.71976 24.5173C1.89232 24.6854 2.12654 24.7818 2.37196 24.7863Z" stroke="currentColor" stroke-width="0.1"/>
</svg>
