<svg viewBox="0 0 35 35" fill="none" xmlns="http://www.w3.org/2000/svg">
<path fill-rule="evenodd" clip-rule="evenodd" d="M3 5.41667C3 4.08207 4.082 3 5.41667 3H29.5833C30.918 3 32 4.08207 32 5.41667V29.5833C32 30.9179 30.918 32 29.5833 32H5.41667C4.082 32 3 30.9179 3 29.5833V5.41667ZM16.2982 28.6912C13.3354 28.6912 10.7168 28.0493 9.04167 27.1903L10.3726 21.7339C11.5751 22.4655 14.3229 23.3245 16.2123 23.3245C17.8867 23.3245 18.5309 22.98 18.5309 22.167C18.5309 21.3905 18.0583 21.0471 15.7824 20.3604C11.1027 18.8606 9.51404 16.3294 9.55748 13.8809C9.55748 9.67061 13.1637 6.625 18.7452 6.625C21.3213 6.625 23.6398 7.22209 25.0141 7.82743L23.769 13.0667C22.7814 12.59 20.8062 11.9032 19.0884 11.9032C17.7575 11.9032 16.9849 12.2466 16.9849 13.1045C16.9849 13.7912 17.6716 14.2243 20.162 15.0385C24.3267 16.412 25.9151 18.5608 25.9583 21.6076C25.9583 25.6456 22.8239 28.6912 16.2982 28.6912Z" fill="currentColor"/>
</svg>
