<svg viewBox="0 0 35 35" fill="none" xmlns="http://www.w3.org/2000/svg">
<path fill-rule="evenodd" clip-rule="evenodd" d="M17.5 19.7095C20.4363 19.7095 22.8166 17.3291 22.8166 14.3929C22.8166 11.4564 20.4363 9.07622 17.5 9.07622C14.5637 9.07622 12.1834 11.4564 12.1834 14.3929C12.1834 17.3291 14.5637 19.7095 17.5 19.7095ZM16.5161 17.3528L20.5553 15.0207C21.0386 14.7416 21.0386 14.0442 20.5553 13.765L16.5161 11.4329C16.0328 11.154 15.4286 11.5027 15.4286 12.0607V16.725C15.4286 17.283 16.0328 17.6317 16.5161 17.3528Z" fill="currentColor"/>
<path fill-rule="evenodd" clip-rule="evenodd" d="M5.07143 3C3.92736 3 3 3.92749 3 5.07143V29.9286C3 31.0725 3.92736 32 5.07143 32H29.9286C31.0726 32 32 31.0725 32 29.9286V5.07143C32 3.92749 31.0726 3 29.9286 3H5.07143ZM22.6786 27.8571C22.1066 27.8571 21.6429 27.3934 21.6429 26.8214V25.7857H8.17857C7.6066 25.7857 7.14286 25.322 7.14286 24.75C7.14286 24.178 7.6066 23.7143 8.17857 23.7143H21.6429V22.6786C21.6429 22.1066 22.1066 21.6429 22.6786 21.6429C23.2505 21.6429 23.7143 22.1066 23.7143 22.6786V23.7143H26.8214C27.3934 23.7143 27.8571 24.178 27.8571 24.75C27.8571 25.322 27.3934 25.7857 26.8214 25.7857H23.7143V26.8214C23.7143 27.3934 23.2505 27.8571 22.6786 27.8571ZM17.5 21.6429C21.504 21.6429 24.75 18.3969 24.75 14.3929C24.75 10.3888 21.504 7.14286 17.5 7.14286C13.496 7.14286 10.25 10.3888 10.25 14.3929C10.25 18.3969 13.496 21.6429 17.5 21.6429Z" fill="currentColor"/>
</svg>
