<svg viewBox="0 0 35 35" fill="none" xmlns="http://www.w3.org/2000/svg">
<path d="M32.0205 14.2928C31.7574 13.2019 31.3691 12.1451 30.8631 11.1432C29.179 7.78922 26.2906 5.19267 22.7742 3.87153C19.2579 2.55039 15.372 2.60178 11.8919 4.01544C9.71049 4.86918 7.76611 6.23328 6.22209 7.99316C4.67807 9.75303 3.57952 11.8573 3.01871 14.1291C2.88248 14.5077 2.88311 14.922 3.02049 15.3002C3.15788 15.6784 3.42338 15.9967 3.77101 16.2C3.83151 16.2658 3.86581 16.3514 3.86745 16.4408C3.86745 16.7105 3.86745 16.9898 3.86745 17.2691C3.86745 17.6929 3.86745 18.1264 3.86745 18.5502C3.95028 20.6252 4.52194 22.6514 5.536 24.4643C5.57536 24.5098 5.59703 24.5679 5.59703 24.628C5.59703 24.6881 5.57536 24.7463 5.536 24.7918C5.31518 25.1134 5.18291 25.4874 5.15244 25.8763C5.12197 26.2651 5.19437 26.6551 5.36239 27.0071C5.63245 27.6236 5.9025 28.24 6.1822 28.8469L6.53905 29.6559C6.73196 30.1876 7.11333 30.6302 7.61098 30.9C8.10863 31.1698 8.68805 31.2481 9.23959 31.12C9.59644 31.0526 9.84721 31.0333 10.0305 31.3512C10.0823 31.424 10.1478 31.4862 10.2234 31.5342C10.6407 31.8336 11.1356 32.0065 11.6488 32.0321C12.1619 32.0577 12.6717 31.935 13.1168 31.6787C13.6714 31.4553 14.1278 31.0414 14.4037 30.5115C14.6796 29.9816 14.7568 29.3708 14.6214 28.7891C14.5334 28.4787 14.4205 28.1759 14.2838 27.8837V27.8066C13.3193 25.7261 12.5381 23.8382 11.6797 21.9214C11.399 21.3857 10.9223 20.9786 10.3487 20.7848C9.9125 20.6309 9.44622 20.5813 8.98729 20.6398C8.52836 20.6983 8.08956 20.8635 7.70607 21.122C7.43032 21.263 7.18629 21.4587 6.98894 21.6972C6.79159 21.9357 6.64506 22.2119 6.55834 22.509C6.49494 22.7166 6.44976 22.9293 6.42332 23.1447C5.47392 21.1468 5.07126 18.9335 5.2563 16.7297C5.2563 16.5756 5.31417 16.5082 5.46848 16.4793C5.8191 16.4208 6.14288 16.255 6.39511 16.0048C6.64734 15.7546 6.81558 15.4324 6.87662 15.0827C7.12964 14.0337 7.54277 13.0298 8.1015 12.1064C9.41808 9.94603 11.4439 8.30836 13.8339 7.47236C16.2239 6.63636 18.8301 6.65373 21.2087 7.52151C22.907 8.11113 24.4309 9.11513 25.6419 10.4423C26.8529 11.7695 27.7128 13.3778 28.1433 15.1212C28.2141 15.4615 28.3835 15.7735 28.6304 16.0184C28.8773 16.2633 29.1909 16.4303 29.5322 16.4986C29.6865 16.4986 29.7154 16.5949 29.7251 16.7586C29.7347 16.9224 29.7251 17.0283 29.7251 17.1632C29.7251 17.298 29.7251 17.7411 29.7251 18.0301C29.6982 19.6275 29.371 21.2056 28.7606 22.6823C28.6931 22.8365 28.6256 22.9809 28.5484 23.1351C28.5531 23.0452 28.5531 22.9552 28.5484 22.8654C28.4578 22.416 28.2519 21.9978 27.951 21.6517C27.6501 21.3056 27.2644 21.0434 26.8316 20.8908C26.5111 20.7196 26.1575 20.619 25.7948 20.5956C25.4321 20.5723 25.0685 20.6268 24.7286 20.7554C24.3887 20.8841 24.0803 21.084 23.8242 21.3416C23.5681 21.5992 23.3702 21.9085 23.2438 22.2489C22.4529 24.0405 21.662 25.8224 20.8808 27.614L20.5143 28.4423C20.3273 28.8818 20.2742 29.3665 20.3617 29.836C20.4492 30.3054 20.6734 30.7387 21.0062 31.0815C21.4153 31.4783 21.9152 31.7692 22.4626 31.9291C22.7508 32.0301 23.054 32.0822 23.3595 32.0832C23.6652 32.0856 23.9681 32.0243 24.2487 31.9032C24.5294 31.7822 24.7817 31.604 24.9895 31.3801C25.0926 31.2509 25.2336 31.1573 25.3928 31.1124C25.552 31.0674 25.7213 31.0735 25.8768 31.1297H26.0118C26.5095 31.2057 27.0184 31.1169 27.4607 30.8768C27.9031 30.6368 28.2546 30.2588 28.4616 29.8004C28.8667 28.9046 29.3007 27.9414 29.7251 26.959C29.8849 26.609 29.9512 26.2235 29.9174 25.8403C29.8836 25.4571 29.7508 25.0892 29.5322 24.7725C29.5001 24.7293 29.4827 24.677 29.4827 24.6232C29.4827 24.5694 29.5001 24.5171 29.5322 24.4739C30.0798 23.5006 30.5011 22.4616 30.786 21.382C31.2114 19.7912 31.3389 18.1356 31.1621 16.4986C31.1621 16.4986 31.1621 16.4408 31.1621 16.4215C31.1621 16.4023 31.1621 16.2578 31.2393 16.2096C31.5643 16.0223 31.8176 15.7322 31.9591 15.385C32.1006 15.0379 32.1222 14.6536 32.0205 14.2928Z" fill="currentColor"/>
</svg>
