<svg viewBox="0 0 35 35" fill="none" xmlns="http://www.w3.org/2000/svg">
<path d="M8.3125 9C7.58763 9 7 9.58763 7 10.3125C7 11.0374 7.58763 11.625 8.3125 11.625H22.75C23.4749 11.625 24.0625 11.0374 24.0625 10.3125C24.0625 9.58763 23.4749 9 22.75 9H8.3125Z" fill="currentColor"/>
<path d="M8.3125 14.25C7.58763 14.25 7 14.8376 7 15.5625C7 16.2874 7.58763 16.875 8.3125 16.875H14.875C15.5999 16.875 16.1875 16.2874 16.1875 15.5625C16.1875 14.8376 15.5999 14.25 14.875 14.25H8.3125Z" fill="currentColor"/>
<path d="M8.3125 19.5C7.58763 19.5 7 20.0876 7 20.8125C7 21.5374 7.58763 22.125 8.3125 22.125H13.5625C14.2874 22.125 14.875 21.5374 14.875 20.8125C14.875 20.0876 14.2874 19.5 13.5625 19.5H8.3125Z" fill="currentColor"/>
<path d="M21.4375 26.0625C21.4375 26.7874 22.0251 27.375 22.75 27.375C23.4749 27.375 24.0625 26.7874 24.0625 26.0625L24.0625 18.7312L25.7594 20.4281C26.272 20.9406 27.103 20.9406 27.6156 20.4281C28.1281 19.9155 28.1281 19.0845 27.6156 18.5719L23.6781 14.6344C23.4319 14.3883 23.0981 14.25 22.75 14.25C22.4019 14.25 22.0681 14.3883 21.8219 14.6344L17.8844 18.5719C17.3719 19.0845 17.3719 19.9155 17.8844 20.4281C18.397 20.9406 19.228 20.9406 19.7406 20.4281L21.4375 18.7312L21.4375 26.0625Z" fill="currentColor"/>
</svg>
