<svg viewBox="0 0 35 35" fill="none" xmlns="http://www.w3.org/2000/svg">
<path fill-rule="evenodd" clip-rule="evenodd" d="M24 5C24.5523 5 25 5.44772 25 6V25.5041L30.2766 19.9762C30.658 19.5767 31.291 19.562 31.6905 19.9433C32.09 20.3246 32.1047 20.9576 31.7234 21.3571L24.7234 28.6905C24.5347 28.8882 24.2733 29 24 29C23.7267 29 23.4653 28.8882 23.2766 28.6905L16.2766 21.3571C15.8953 20.9576 15.91 20.3246 16.3095 19.9433C16.709 19.562 17.342 19.5767 17.7234 19.9762L23 25.5041V6C23 5.44772 23.4477 5 24 5Z" fill="currentColor"/>
<path fill-rule="evenodd" clip-rule="evenodd" d="M3.78493 15.5526L3.79083 15.559L3.79697 15.5652C4.00859 15.7768 4.27827 15.8763 4.57089 15.8763C4.77914 15.8763 4.97914 15.8231 5.15775 15.7094L5.16545 15.7043C5.34481 15.5847 5.48304 15.4239 5.57348 15.2279L5.5769 15.2205L6.38722 13.2757H10.6128L11.4231 15.2205L11.4265 15.2279C11.5125 15.4141 11.639 15.5728 11.8059 15.6942L11.8236 15.7071L11.8425 15.7181C12.0226 15.8232 12.2208 15.8763 12.4291 15.8763C12.7186 15.8763 12.9891 15.7783 13.1949 15.5591C13.398 15.353 13.5 15.0926 13.5 14.8054C13.5 14.6478 13.453 14.4925 13.3959 14.3555L9.79091 5.84471L9.78781 5.83773C9.68571 5.60802 9.53505 5.41322 9.33537 5.26333C9.11622 5.08107 8.85145 5 8.57067 5H8.42933C8.14316 5 7.87581 5.08391 7.65035 5.26371C7.45771 5.41549 7.31292 5.61092 7.21213 5.8377L3.6051 14.3531L3.60412 14.3555C3.54703 14.4925 3.5 14.6478 3.5 14.8054C3.5 15.0849 3.59193 15.3435 3.78493 15.5526ZM8.5 8.20802L9.75648 11.2329H7.24352L8.5 8.20802Z" fill="currentColor"/>
<path fill-rule="evenodd" clip-rule="evenodd" d="M9.71626 20.1725L4.3136 26.8408L4.31191 26.8429C4.12598 27.0753 4.0436 27.3529 4.0436 27.6476C4.0436 27.9937 4.17129 28.3013 4.41599 28.5459C4.66068 28.7906 4.96831 28.9182 5.31442 28.9182H11.6851C11.9629 28.9182 12.2182 28.822 12.4197 28.6237C12.6317 28.425 12.7411 28.166 12.7411 27.8766C12.7411 27.5902 12.6339 27.3336 12.4262 27.1356C12.2282 26.9279 11.9715 26.8207 11.6851 26.8207H6.99556L12.3235 20.2295C12.4227 20.1143 12.4977 19.9832 12.5512 19.8414C12.6155 19.6953 12.6552 19.5383 12.6552 19.3742C12.6552 19.022 12.5367 18.7038 12.2961 18.4467C12.0464 18.1689 11.7098 18.0463 11.3415 18.0463H5.12831C4.83692 18.0463 4.57774 18.1567 4.37304 18.3614L4.36681 18.3676L4.36084 18.3741C4.16976 18.5811 4.07223 18.8362 4.07223 19.1166C4.07223 19.3969 4.16976 19.652 4.36084 19.859L4.37279 19.872L4.38574 19.8839C4.59274 20.075 4.84792 20.1725 5.12831 20.1725H9.71626Z" fill="currentColor"/>
</svg>
