<svg viewBox="0 0 35 35" fill="none" xmlns="http://www.w3.org/2000/svg">
<path fill-rule="evenodd" clip-rule="evenodd" d="M24 5C24.5523 5 25 5.44772 25 6V25.5041L30.2766 19.9762C30.658 19.5767 31.291 19.562 31.6905 19.9433C32.09 20.3246 32.1047 20.9576 31.7234 21.3571L24.7234 28.6905C24.5347 28.8882 24.2733 29 24 29C23.7267 29 23.4653 28.8882 23.2766 28.6905L16.2766 21.3571C15.8953 20.9576 15.91 20.3246 16.3095 19.9433C16.709 19.562 17.342 19.5767 17.7234 19.9762L23 25.5041V6C23 5.44772 23.4477 5 24 5Z" fill="currentColor"/>
<path fill-rule="evenodd" clip-rule="evenodd" d="M3.28493 28.6753L3.29083 28.6817L3.29697 28.6879C3.50859 28.9002 3.77827 29 4.07089 29C4.27914 29 4.47914 28.9466 4.65775 28.8326L4.66545 28.8275C4.84481 28.7075 4.98304 28.5461 5.07348 28.3495L5.0769 28.3421L5.88722 26.391H10.1128L10.9231 28.3421L10.9265 28.3495C11.0125 28.5364 11.139 28.6955 11.3059 28.8173L11.3236 28.8302L11.3425 28.8413C11.5226 28.9467 11.7208 29 11.9291 29C12.2186 29 12.4891 28.9017 12.6949 28.6818C12.898 28.475 13 28.2138 13 27.9257C13 27.7676 12.953 27.6117 12.8959 27.4743L9.29091 18.936L9.28781 18.929C9.18571 18.6985 9.03505 18.5031 8.83537 18.3527C8.61622 18.1699 8.35145 18.0885 8.07067 18.0885H7.92933C7.64316 18.0885 7.37581 18.1727 7.15035 18.3531C6.95771 18.5054 6.81292 18.7014 6.71213 18.9289L3.1051 27.4719L3.10412 27.4743C3.04703 27.6117 3 27.7676 3 27.9257C3 28.2061 3.09193 28.4655 3.28493 28.6753ZM8 21.3069L9.25648 24.3416H6.74352L8 21.3069Z" fill="currentColor"/>
<path fill-rule="evenodd" clip-rule="evenodd" d="M9.75986 7.13304L4.3572 13.8229L4.35551 13.825C4.16958 14.0582 4.08719 14.3367 4.08719 14.6324C4.08719 14.9795 4.21489 15.2881 4.45958 15.5336C4.70428 15.779 5.01191 15.9071 5.35802 15.9071H11.7287C12.0065 15.9071 12.2618 15.8106 12.4633 15.6116C12.6753 15.4122 12.7847 15.1524 12.7847 14.8621C12.7847 14.5748 12.6775 14.3173 12.4698 14.1187C12.2718 13.9103 12.0151 13.8028 11.7287 13.8028H7.03916L12.3671 7.1903C12.4663 7.07468 12.5413 6.94315 12.5948 6.80086C12.6591 6.65431 12.6988 6.49682 12.6988 6.33218C12.6988 5.97888 12.5803 5.65966 12.3397 5.40172C12.09 5.12297 11.7534 5 11.3851 5H5.17191C4.88052 5 4.62134 5.11076 4.41664 5.3161L4.41041 5.32234L4.40443 5.32883C4.21336 5.53647 4.11583 5.79244 4.11583 6.0737C4.11583 6.35495 4.21336 6.61093 4.40443 6.81856L4.41639 6.83155L4.42933 6.84354C4.63633 7.0352 4.89152 7.13304 5.17191 7.13304H9.75986Z" fill="currentColor"/>
</svg>
