<svg viewBox="0 0 35 35" fill="none" xmlns="http://www.w3.org/2000/svg">
<path d="M8.3125 9C7.58763 9 7 9.58763 7 10.3125C7 11.0374 7.58763 11.625 8.3125 11.625H22.75C23.4749 11.625 24.0625 11.0374 24.0625 10.3125C24.0625 9.58763 23.4749 9 22.75 9H8.3125Z" fill="currentColor"/>
<path d="M8.3125 14.25C7.58763 14.25 7 14.8376 7 15.5625C7 16.2874 7.58763 16.875 8.3125 16.875H17.5C18.2249 16.875 18.8125 16.2874 18.8125 15.5625C18.8125 14.8376 18.2249 14.25 17.5 14.25H8.3125Z" fill="currentColor"/>
<path d="M8.3125 19.5C7.58763 19.5 7 20.0876 7 20.8125C7 21.5374 7.58763 22.125 8.3125 22.125H13.5625C14.2874 22.125 14.875 21.5374 14.875 20.8125C14.875 20.0876 14.2874 19.5 13.5625 19.5H8.3125Z" fill="currentColor"/>
<path d="M24.0625 15.5625C24.0625 14.8376 23.4749 14.25 22.75 14.25C22.0251 14.25 21.4375 14.8376 21.4375 15.5625L21.4375 22.8938L19.7406 21.1969C19.228 20.6844 18.397 20.6844 17.8844 21.1969C17.3719 21.7095 17.3719 22.5405 17.8844 23.0531L21.8219 26.9906C22.0681 27.2367 22.4019 27.375 22.75 27.375C23.0981 27.375 23.4319 27.2367 23.6781 26.9906L27.6156 23.0531C28.1281 22.5405 28.1281 21.7095 27.6156 21.1969C27.103 20.6844 26.272 20.6844 25.7594 21.1969L24.0625 22.8938L24.0625 15.5625Z" fill="currentColor"/>
</svg>
