<svg viewBox="0 0 35 35" fill="none" xmlns="http://www.w3.org/2000/svg">
<path d="M31.5 5.25C31.5 4.64349 31.186 4.08022 30.67 3.76136C30.1541 3.4425 29.5099 3.41351 28.9674 3.68475L15.3369 10.5H8.75C5.85051 10.5 3.5 12.8505 3.5 15.75C3.5 18.6495 5.85051 21 8.75 21H9.23868L12.3398 30.3034C12.578 31.018 13.2468 31.5 14 31.5H15.75C16.7165 31.5 17.5 30.7165 17.5 29.75V22.0816L28.9674 27.8153C29.5099 28.0865 30.1541 28.0575 30.67 27.7386C31.186 27.4198 31.5 26.8565 31.5 26.25V5.25Z" fill="currentColor"/>
</svg>
