<svg viewBox="0 0 35 35" fill="none" xmlns="http://www.w3.org/2000/svg">
<path fill-rule="evenodd" clip-rule="evenodd" d="M8.75 3.5C9.7165 3.5 10.5 4.2835 10.5 5.25V7H12.25C13.2165 7 14 7.7835 14 8.75C14 9.7165 13.2165 10.5 12.25 10.5H10.5V12.25C10.5 13.2165 9.7165 14 8.75 14C7.7835 14 7 13.2165 7 12.25V10.5H5.25C4.2835 10.5 3.5 9.7165 3.5 8.75C3.5 7.7835 4.2835 7 5.25 7H7V5.25C7 4.2835 7.7835 3.5 8.75 3.5ZM8.75 21C9.7165 21 10.5 21.7835 10.5 22.75V24.5H12.25C13.2165 24.5 14 25.2835 14 26.25C14 27.2165 13.2165 28 12.25 28H10.5V29.75C10.5 30.7165 9.7165 31.5 8.75 31.5C7.7835 31.5 7 30.7165 7 29.75V28H5.25C4.2835 28 3.5 27.2165 3.5 26.25C3.5 25.2835 4.2835 24.5 5.25 24.5H7V22.75C7 21.7835 7.7835 21 8.75 21Z" fill="currentColor"/>
<path fill-rule="evenodd" clip-rule="evenodd" d="M20.9999 3.5C21.7939 3.5 22.4885 4.03459 22.6916 4.80219L24.7553 12.5981L30.6244 15.9842C31.1661 16.2967 31.4999 16.8746 31.4999 17.5C31.4999 18.1254 31.1661 18.7033 30.6244 19.0158L24.7553 22.4019L22.6916 30.1978C22.4885 30.9654 21.7939 31.5 20.9999 31.5C20.2059 31.5 19.5114 30.9654 19.3082 30.1978L17.2445 22.4019L11.3755 19.0158C10.8338 18.7033 10.5 18.1254 10.5 17.5C10.5 16.8746 10.8338 16.2967 11.3755 15.9842L17.2445 12.5981L19.3082 4.80219C19.5114 4.03459 20.2059 3.5 20.9999 3.5Z" fill="currentColor"/>
</svg>
