<svg viewBox="0 0 35 35" fill="none" xmlns="http://www.w3.org/2000/svg">
<path d="M16.0812 4.39409C16.6852 2.5353 19.3148 2.53531 19.9188 4.39409L22.0767 11.0354C22.3468 11.8667 23.1214 12.4295 23.9955 12.4295H30.9786C32.933 12.4295 33.7456 14.9305 32.1645 16.0793L26.515 20.1838C25.8079 20.6976 25.512 21.6082 25.7821 22.4395L27.94 29.0808C28.544 30.9396 26.4165 32.4853 24.8353 31.3365L19.1859 27.2319C18.4788 26.7182 17.5212 26.7182 16.8141 27.2319L11.1647 31.3365C9.58349 32.4853 7.45604 30.9396 8.05999 29.0808L10.2179 22.4395C10.488 21.6082 10.1921 20.6976 9.48498 20.1838L3.83553 16.0793C2.25435 14.9305 3.06697 12.4295 5.02141 12.4295H12.0045C12.8786 12.4295 13.6532 11.8667 13.9233 11.0354L16.0812 4.39409Z" fill="currentColor"/>
</svg>
