<svg viewBox="0 0 35 35" fill="none" xmlns="http://www.w3.org/2000/svg">
<path d="M12.7931 15.2077C15.8837 15.2077 18.3891 12.6987 18.3891 9.60383C18.3891 6.50892 15.8837 4 12.7931 4C9.70246 4 7.19703 6.50892 7.19703 9.60383C7.19703 12.6987 9.70246 15.2077 12.7931 15.2077Z" fill="currentColor"/>
<path d="M3 29.2172C3 23.8011 7.3845 19.4105 12.7931 19.4105C14.7778 19.4105 16.6246 20.0017 18.1674 21.0179C17.2192 22.1774 16.6503 23.6599 16.6503 25.2755C16.6503 26.7478 17.1229 28.1097 17.9243 29.2172H3Z" fill="currentColor"/>
<path fill-rule="evenodd" clip-rule="evenodd" d="M25.2847 27.1969C26.3444 27.1969 27.2034 26.3367 27.2034 25.2756C27.2034 24.2145 26.3444 23.3543 25.2847 23.3543C24.2251 23.3543 23.3661 24.2145 23.3661 25.2756C23.3661 26.3367 24.2251 27.1969 25.2847 27.1969ZM26.2441 25.2756C26.2441 25.8061 25.8146 26.2362 25.2847 26.2362C24.7549 26.2362 24.3254 25.8061 24.3254 25.2756C24.3254 24.745 24.7549 24.3149 25.2847 24.3149C25.8146 24.3149 26.2441 24.745 26.2441 25.2756Z" fill="currentColor"/>
<path fill-rule="evenodd" clip-rule="evenodd" d="M25.2848 32C28.9935 32 32 28.9893 32 25.2754C32 21.5615 28.9935 18.5508 25.2848 18.5508C21.576 18.5508 18.5695 21.5615 18.5695 25.2754C18.5695 28.9893 21.576 32 25.2848 32ZM25.2847 21.9133C23.137 21.9133 21.3189 23.3269 20.7077 25.2756C21.3189 27.2243 23.137 28.6379 25.2847 28.6379C27.4325 28.6379 29.2505 27.2243 29.8617 25.2756C29.2505 23.3268 27.4325 21.9133 25.2847 21.9133Z" fill="currentColor"/>
</svg>
