<svg viewBox="0 0 35 35" fill="none" xmlns="http://www.w3.org/2000/svg">
<path d="M17.5 3.5C18.4665 3.5 19.25 4.2835 19.25 5.25V7C19.25 7.9665 18.4665 8.75 17.5 8.75C16.5335 8.75 15.75 7.9665 15.75 7V5.25C15.75 4.2835 16.5335 3.5 17.5 3.5Z" fill="currentColor"/>
<path d="M24.5 17.5C24.5 21.366 21.366 24.5 17.5 24.5C13.634 24.5 10.5 21.366 10.5 17.5C10.5 13.634 13.634 10.5 17.5 10.5C21.366 10.5 24.5 13.634 24.5 17.5Z" fill="currentColor"/>
<path d="M23.6873 26.162L24.9247 27.3994C25.6081 28.0828 26.7162 28.0828 27.3996 27.3994C28.083 26.716 28.083 25.608 27.3996 24.9246L26.1622 23.6871C25.4787 23.0037 24.3707 23.0037 23.6873 23.6871C23.0039 24.3705 23.0039 25.4786 23.6873 26.162Z" fill="currentColor"/>
<path d="M27.3994 7.60041C28.0828 8.28383 28.0828 9.39187 27.3994 10.0753L26.162 11.3127C25.4786 11.9961 24.3705 11.9961 23.6871 11.3127C23.0037 10.6293 23.0037 9.52127 23.6871 8.83785L24.9246 7.60041C25.608 6.917 26.716 6.917 27.3994 7.60041Z" fill="currentColor"/>
<path d="M29.75 19.25C30.7165 19.25 31.5 18.4665 31.5 17.5C31.5 16.5335 30.7165 15.75 29.75 15.75H28C27.0335 15.75 26.25 16.5335 26.25 17.5C26.25 18.4665 27.0335 19.25 28 19.25H29.75Z" fill="currentColor"/>
<path d="M17.5 26.25C18.4665 26.25 19.25 27.0335 19.25 28V29.75C19.25 30.7165 18.4665 31.5 17.5 31.5C16.5335 31.5 15.75 30.7165 15.75 29.75V28C15.75 27.0335 16.5335 26.25 17.5 26.25Z" fill="currentColor"/>
<path d="M8.83804 11.3128C9.52146 11.9962 10.6295 11.9962 11.3129 11.3128C11.9963 10.6293 11.9963 9.5213 11.3129 8.83788L10.0755 7.60044C9.39206 6.91703 8.28402 6.91703 7.60061 7.60044C6.91719 8.28386 6.91719 9.3919 7.60061 10.0753L8.83804 11.3128Z" fill="currentColor"/>
<path d="M11.3128 26.162L10.0753 27.3994C9.3919 28.0828 8.28386 28.0828 7.60044 27.3994C6.91703 26.716 6.91703 25.6079 7.60044 24.9245L8.83788 23.6871C9.5213 23.0037 10.6293 23.0037 11.3128 23.6871C11.9962 24.3705 11.9962 25.4785 11.3128 26.162Z" fill="currentColor"/>
<path d="M7 19.25C7.9665 19.25 8.75 18.4665 8.75 17.5C8.75 16.5335 7.9665 15.75 7 15.75H5.25C4.2835 15.75 3.5 16.5335 3.5 17.5C3.5 18.4665 4.2835 19.25 5.25 19.25H7Z" fill="currentColor"/>
</svg>
