<svg viewBox="0 0 35 35" fill="none" xmlns="http://www.w3.org/2000/svg">
<path fill-rule="evenodd" clip-rule="evenodd" d="M31.5 17.5C31.5 25.232 25.232 31.5 17.5 31.5C9.76801 31.5 3.5 25.232 3.5 17.5C3.5 9.76801 9.76801 3.5 17.5 3.5C25.232 3.5 31.5 9.76801 31.5 17.5ZM28 17.5C28 19.2371 27.5782 20.8756 26.8314 22.3188L24.1634 19.6508C24.3819 18.9731 24.5 18.2504 24.5 17.5C24.5 16.9249 24.4306 16.366 24.2998 15.8312L27.0347 13.0963C27.6543 14.4355 28 15.9274 28 17.5ZM18.9605 24.3474L21.7274 27.1143C20.434 27.6838 19.0039 28 17.5 28C15.9274 28 14.4355 27.6543 13.0963 27.0347L15.8312 24.2998C16.366 24.4306 16.9249 24.5 17.5 24.5C18.0009 24.5 18.4894 24.4474 18.9605 24.3474ZM10.7766 19.4549C10.5965 18.8345 10.5 18.1785 10.5 17.5C10.5 16.9191 10.5708 16.3548 10.7041 15.8151L10.5662 15.9531L7.8857 13.2726C7.31618 14.566 7 15.9961 7 17.5C7 19.1693 7.38952 20.7475 8.08262 22.1489L10.7766 19.4549ZM12.6812 8.16861C14.1244 7.42182 15.7629 7 17.5 7C19.1693 7 20.7475 7.38952 22.1489 8.08262L19.4549 10.7766C18.8345 10.5965 18.1785 10.5 17.5 10.5C16.7496 10.5 16.0269 10.6181 15.3492 10.8366L12.6812 8.16861ZM21 17.5C21 19.433 19.433 21 17.5 21C15.567 21 14 19.433 14 17.5C14 15.567 15.567 14 17.5 14C19.433 14 21 15.567 21 17.5Z" fill="currentColor"/>
</svg>
