<svg viewBox="0 0 35 35" fill="none" xmlns="http://www.w3.org/2000/svg">
<path d="M3.5 5.25C3.5 4.2835 4.2835 3.5 5.25 3.5H9.01753C9.873 3.5 10.6031 4.11847 10.7437 4.9623L12.0375 12.7251C12.1638 13.4829 11.7811 14.2345 11.0939 14.578L8.3847 15.9326C10.3382 20.7871 14.2129 24.6618 19.0674 26.6153L20.422 23.9061C20.7655 23.2189 21.5171 22.8362 22.2749 22.9625L30.0377 24.2563C30.8815 24.3969 31.5 25.127 31.5 25.9825V29.75C31.5 30.7165 30.7165 31.5 29.75 31.5H26.25C13.6855 31.5 3.5 21.3145 3.5 8.75V5.25Z" fill="currentColor"/>
</svg>
