<svg viewBox="0 0 35 35" fill="none" xmlns="http://www.w3.org/2000/svg">
<path fill-rule="evenodd" clip-rule="evenodd" d="M5 1C6.10457 1 7 1.89543 7 3V7.20251C9.54019 4.60977 13.081 3 17 3C23.0988 3 28.2819 6.89864 30.2029 12.3335C30.5709 13.3749 30.0251 14.5176 28.9837 14.8857C27.9422 15.2538 26.7996 14.7079 26.4315 13.6665C25.0578 9.77982 21.3509 7 17 7C13.7301 7 10.8241 8.57004 8.9987 11H15C16.1046 11 17 11.8954 17 13C17 14.1046 16.1046 15 15 15H5C3.89543 15 3 14.1046 3 13V3C3 1.89543 3.89543 1 5 1ZM5.01633 19.1143C6.05776 18.7462 7.20041 19.2921 7.5685 20.3335C8.94224 24.2202 12.6491 27 17 27C20.2699 27 23.1759 25.43 25.0013 23L19 23C17.8954 23 17 22.1046 17 21C17 19.8954 17.8954 19 19 19H29C29.5304 19 30.0391 19.2107 30.4142 19.5858C30.7893 19.9609 31 20.4696 31 21V31C31 32.1046 30.1046 33 29 33C27.8954 33 27 32.1046 27 31V26.7975C24.4598 29.3902 20.919 31 17 31C10.9012 31 5.71809 27.1014 3.79714 21.6665C3.42905 20.6251 3.9749 19.4824 5.01633 19.1143Z" fill="currentColor"/>
</svg>
