<svg viewBox="0 0 35 35" fill="none" xmlns="http://www.w3.org/2000/svg">
<path fill-rule="evenodd" clip-rule="evenodd" d="M30.9874 16.2626C31.6709 16.946 31.6709 18.054 30.9874 18.7374L18.7374 30.9874C18.054 31.6709 16.946 31.6709 16.2626 30.9874L4.01256 18.7374C3.6708 18.3957 3.49995 17.9477 3.5 17.4998V8.75C3.5 5.85051 5.85051 3.5 8.75 3.5H17.5005C17.9482 3.50012 18.3959 3.67098 18.7374 4.01256L30.9874 16.2626ZM8.75 10.5C9.7165 10.5 10.5 9.7165 10.5 8.75C10.5 7.7835 9.7165 7 8.75 7C7.7835 7 7 7.7835 7 8.75C7 9.7165 7.7835 10.5 8.75 10.5Z" fill="currentColor"/>
</svg>
