<svg viewBox="0 0 35 35" fill="none" xmlns="http://www.w3.org/2000/svg">
<path fill-rule="evenodd" clip-rule="evenodd" d="M7 7C7 5.06701 8.567 3.5 10.5 3.5H18.5251C19.4534 3.5 20.3436 3.86875 21 4.52513L26.9749 10.5C27.6313 11.1564 28 12.0466 28 12.9749V28C28 29.933 26.433 31.5 24.5 31.5H10.5C8.567 31.5 7 29.933 7 28V7ZM10.5 17.5C10.5 16.5335 11.2835 15.75 12.25 15.75H22.75C23.7165 15.75 24.5 16.5335 24.5 17.5C24.5 18.4665 23.7165 19.25 22.75 19.25H12.25C11.2835 19.25 10.5 18.4665 10.5 17.5ZM12.25 22.75C11.2835 22.75 10.5 23.5335 10.5 24.5C10.5 25.4665 11.2835 26.25 12.25 26.25H22.75C23.7165 26.25 24.5 25.4665 24.5 24.5C24.5 23.5335 23.7165 22.75 22.75 22.75H12.25Z" fill="currentColor"/>
</svg>
