<svg viewBox="0 0 35 35" fill="none" xmlns="http://www.w3.org/2000/svg">
<path fill-rule="evenodd" clip-rule="evenodd" d="M15.75 3.5C15.0872 3.5 14.4812 3.8745 14.1848 4.46738L12.9184 7H7C6.0335 7 5.25 7.7835 5.25 8.75C5.25 9.7165 6.0335 10.5 7 10.5L7 28C7 29.933 8.567 31.5 10.5 31.5H24.5C26.433 31.5 28 29.933 28 28V10.5C28.9665 10.5 29.75 9.7165 29.75 8.75C29.75 7.7835 28.9665 7 28 7H22.0816L20.8152 4.46738C20.5188 3.8745 19.9129 3.5 19.25 3.5H15.75ZM12.25 14C12.25 13.0335 13.0335 12.25 14 12.25C14.9665 12.25 15.75 13.0335 15.75 14V24.5C15.75 25.4665 14.9665 26.25 14 26.25C13.0335 26.25 12.25 25.4665 12.25 24.5V14ZM21 12.25C20.0335 12.25 19.25 13.0335 19.25 14V24.5C19.25 25.4665 20.0335 26.25 21 26.25C21.9665 26.25 22.75 25.4665 22.75 24.5V14C22.75 13.0335 21.9665 12.25 21 12.25Z" fill="currentColor"/>
</svg>
