<svg viewBox="0 0 35 35" fill="none" xmlns="http://www.w3.org/2000/svg">
<path d="M6 5C6 4.44771 5.55225 4 5 4C4.44775 4 4 4.44771 4 5V12.2917C4 12.8439 4.44775 13.2917 5 13.2917H12.2916C12.844 13.2917 13.2916 12.8439 13.2916 12.2917C13.2916 11.7394 12.844 11.2917 12.2916 11.2917H7.59521C9.52502 8.11899 13.0151 6 17 6C23.0751 6 28 10.9249 28 17C28 23.0751 23.0751 28 17 28C12.9531 28 9.41663 25.8146 7.50635 22.5595C7.30811 22.2217 6.953 22 6.56128 22C5.81689 22 5.31726 22.7572 5.68457 23.4046C7.91846 27.3429 12.1489 30 17 30C24.1797 30 30 24.1797 30 17C30 9.8203 24.1797 4 17 4C12.3684 4 8.30261 6.42207 6 10.0687V5Z" fill="currentColor"/>
</svg>
