<svg viewBox="0 0 35 35" fill="none" xmlns="http://www.w3.org/2000/svg">
<path d="M17.5 3.5C12.6675 3.5 8.75 7.41751 8.75 12.25V15.75C6.817 15.75 5.25 17.317 5.25 19.25V28C5.25 29.933 6.817 31.5 8.75 31.5H26.25C28.183 31.5 29.75 29.933 29.75 28V19.25C29.75 17.317 28.183 15.75 26.25 15.75H12.25V12.25C12.25 9.35051 14.6005 7 17.5 7C19.9439 7 22.0018 8.67147 22.5847 10.9362C22.8256 11.8722 23.7797 12.4357 24.7157 12.1948C25.6517 11.9539 26.2151 10.9998 25.9742 10.0638C25.003 6.29024 21.5795 3.5 17.5 3.5Z" fill="currentColor"/>
</svg>
