<svg viewBox="0 0 35 35" fill="none" xmlns="http://www.w3.org/2000/svg">
<path fill-rule="evenodd" clip-rule="evenodd" d="M5.25 29.75C5.25 28.7835 6.0335 28 7 28H28C28.9665 28 29.75 28.7835 29.75 29.75C29.75 30.7165 28.9665 31.5 28 31.5H7C6.0335 31.5 5.25 30.7165 5.25 29.75ZM11.0126 11.7374C10.3291 11.054 10.3291 9.94598 11.0126 9.26256L16.2626 4.01256C16.5908 3.68438 17.0359 3.5 17.5 3.5C17.9641 3.5 18.4092 3.68438 18.7374 4.01256L23.9874 9.26256C24.6709 9.94598 24.6709 11.054 23.9874 11.7374C23.304 12.4209 22.196 12.4209 21.5126 11.7374L19.25 9.47487L19.25 22.75C19.25 23.7165 18.4665 24.5 17.5 24.5C16.5335 24.5 15.75 23.7165 15.75 22.75L15.75 9.47487L13.4874 11.7374C12.804 12.4209 11.696 12.4209 11.0126 11.7374Z" fill="currentColor"/>
</svg>
