<svg viewBox="0 0 35 35" fill="none" xmlns="http://www.w3.org/2000/svg">
<path fill-rule="evenodd" clip-rule="evenodd" d="M31.5 17.5C31.5 25.232 25.232 31.5 17.5 31.5C9.76801 31.5 3.5 25.232 3.5 17.5C3.5 9.76801 9.76801 3.5 17.5 3.5C25.232 3.5 31.5 9.76801 31.5 17.5ZM21 12.25C21 14.183 19.433 15.75 17.5 15.75C15.567 15.75 14 14.183 14 12.25C14 10.317 15.567 8.75 17.5 8.75C19.433 8.75 21 10.317 21 12.25ZM17.4999 19.25C13.9692 19.25 10.9269 21.3412 9.54404 24.3525C11.4696 26.5861 14.3196 28 17.5 28C20.6802 28 23.5303 26.5861 25.4558 24.3526C24.0729 21.3412 21.0306 19.25 17.4999 19.25Z" fill="currentColor"/>
</svg>
