<svg viewBox="0 0 35 35" fill="none" xmlns="http://www.w3.org/2000/svg">
<path d="M22.75 10.5C22.75 13.3995 20.3995 15.75 17.5 15.75C14.6005 15.75 12.25 13.3995 12.25 10.5C12.25 7.60051 14.6005 5.25 17.5 5.25C20.3995 5.25 22.75 7.60051 22.75 10.5Z" fill="currentColor"/>
<path d="M31.5 14C31.5 15.933 29.933 17.5 28 17.5C26.067 17.5 24.5 15.933 24.5 14C24.5 12.067 26.067 10.5 28 10.5C29.933 10.5 31.5 12.067 31.5 14Z" fill="currentColor"/>
<path d="M24.5 26.25C24.5 22.384 21.366 19.25 17.5 19.25C13.634 19.25 10.5 22.384 10.5 26.25V31.5H24.5V26.25Z" fill="currentColor"/>
<path d="M10.5 14C10.5 15.933 8.933 17.5 7 17.5C5.067 17.5 3.5 15.933 3.5 14C3.5 12.067 5.067 10.5 7 10.5C8.933 10.5 10.5 12.067 10.5 14Z" fill="currentColor"/>
<path d="M28 31.5V26.25C28 24.4052 27.5243 22.6716 26.6888 21.1651C27.1079 21.0573 27.5473 21 28 21C30.8995 21 33.25 23.3505 33.25 26.25V31.5H28Z" fill="currentColor"/>
<path d="M8.31121 21.1651C7.47573 22.6716 7 24.4052 7 26.25V31.5H1.75V26.25C1.75 23.3505 4.10051 21 7 21C7.45274 21 7.8921 21.0573 8.31121 21.1651Z" fill="currentColor"/>
</svg>
