<svg viewBox="0 0 35 35" fill="none" xmlns="http://www.w3.org/2000/svg">
<path fill-rule="evenodd" clip-rule="evenodd" d="M8.88833 2C6.74087 2 5 3.74087 5 5.88833V29.2183C5 31.3658 6.74086 33.1067 8.88833 33.1067H24.4417C26.5891 33.1067 28.33 31.3658 28.33 29.2183V12.5261C28.33 11.4949 27.9203 10.5059 27.1911 9.77667L20.5533 3.13887C19.8241 2.40966 18.8351 2 17.8039 2H8.88833ZM11.2491 13.665C10.2521 13.665 9.44381 14.4111 9.44381 15.3314V21.9971C9.44381 22.9175 10.2521 23.6636 11.2491 23.6636H16.665C17.662 23.6636 18.4703 22.9175 18.4703 21.9971V15.3314C18.4703 14.4111 17.662 13.665 16.665 13.665H11.2491ZM20.2756 16.9979C20.2756 16.6823 20.4688 16.3937 20.7746 16.2526L22.5799 15.4194C22.8597 15.2903 23.192 15.3041 23.4581 15.4559C23.7242 15.6077 23.8862 15.8759 23.8862 16.1646V21.1639C23.8862 21.4527 23.7242 21.7209 23.4581 21.8727C23.192 22.0245 22.8597 22.0383 22.5799 21.9092L20.7746 21.076C20.4688 20.9348 20.2756 20.6463 20.2756 20.3307V16.9979Z" fill="currentColor"/>
</svg>
