<svg viewBox="0 0 35 35" fill="none" xmlns="http://www.w3.org/2000/svg">
<path d="M3.5 10.5C3.5 8.567 5.067 7 7 7H17.5C19.433 7 21 8.567 21 10.5V24.5C21 26.433 19.433 28 17.5 28H7C5.067 28 3.5 26.433 3.5 24.5V10.5Z" fill="currentColor"/>
<path d="M25.4674 12.4348C24.8745 12.7312 24.5 13.3372 24.5 14V21C24.5 21.6629 24.8745 22.2688 25.4674 22.5652L28.9674 24.3153C29.5099 24.5865 30.1541 24.5575 30.67 24.2386C31.186 23.9198 31.5 23.3565 31.5 22.75V12.25C31.5 11.6435 31.186 11.0802 30.67 10.7614C30.1541 10.4425 29.5099 10.4135 28.9674 10.6848L25.4674 12.4348Z" fill="currentColor"/>
</svg>
