<svg viewBox="0 0 35 35" fill="none" xmlns="http://www.w3.org/2000/svg">
<path fill-rule="evenodd" clip-rule="evenodd" d="M16.4197 5.38332C17.0736 5.65419 17.5 6.2923 17.5 7.00011V28.0001C17.5 28.7079 17.0736 29.346 16.4197 29.6169C15.7658 29.8878 15.0131 29.738 14.5126 29.2375L8.02513 22.7501H3.5C2.5335 22.7501 1.75 21.9666 1.75 21.0001V14.0001C1.75 13.0336 2.5335 12.2501 3.5 12.2501H8.02513L14.5126 5.76268C15.0131 5.26218 15.7658 5.11246 16.4197 5.38332Z" fill="currentColor"/>
<path fill-rule="evenodd" clip-rule="evenodd" d="M25.6495 5.1256C26.3329 4.44218 27.4409 4.44218 28.1243 5.1256C31.2893 8.29056 33.25 12.668 33.25 17.5C33.25 22.332 31.2893 26.7094 28.1243 29.8743C27.4409 30.5578 26.3329 30.5578 25.6495 29.8743C24.9661 29.1909 24.9661 28.0829 25.6495 27.3995C28.1849 24.864 29.75 21.3664 29.75 17.5C29.75 13.6335 28.1849 10.1359 25.6495 7.60047C24.9661 6.91706 24.9661 5.80902 25.6495 5.1256ZM20.6997 10.0753C21.3831 9.39193 22.4912 9.39193 23.1746 10.0753C24.0949 10.9956 24.8459 12.0871 25.3755 13.2993C25.9385 14.5879 26.25 16.0099 26.25 17.5C26.25 20.399 25.0728 23.0264 23.1746 24.9246C22.4912 25.608 21.3831 25.608 20.6997 24.9246C20.0163 24.2412 20.0163 23.1331 20.6997 22.4497C21.9684 21.181 22.75 19.4334 22.75 17.5C22.75 16.5012 22.5419 15.5556 22.1683 14.7006C21.816 13.8943 21.3153 13.1658 20.6997 12.5502C20.0163 11.8668 20.0163 10.7588 20.6997 10.0753Z" fill="currentColor"/>
</svg>
