<svg viewBox="0 0 35 35" fill="none" xmlns="http://www.w3.org/2000/svg">
<path fill-rule="evenodd" clip-rule="evenodd" d="M19.6697 6.13326C20.3236 6.40413 20.75 7.04224 20.75 7.75005V28.75C20.75 29.4579 20.3236 30.096 19.6697 30.3668C19.0158 30.6377 18.2631 30.488 17.7626 29.9875L11.2751 23.5H6.75C5.7835 23.5 5 22.7166 5 21.7501V14.7501C5 13.7836 5.7835 13.0001 6.75 13.0001H11.2751L17.7626 6.51261C18.2631 6.01212 19.0158 5.8624 19.6697 6.13326Z" fill="currentColor"/>
<path fill-rule="evenodd" clip-rule="evenodd" d="M23.9497 10.8253C24.6331 10.1419 25.7412 10.1419 26.4246 10.8253C27.3449 11.7456 28.0959 12.837 28.6255 14.0493C29.1885 15.3379 29.5 16.7598 29.5 18.2499C29.5 21.1489 28.3228 23.7763 26.4246 25.6745C25.7412 26.3579 24.6331 26.3579 23.9497 25.6745C23.2663 24.9911 23.2663 23.8831 23.9497 23.1997C25.2184 21.931 26 20.1834 26 18.2499C26 17.2511 25.7919 16.3056 25.4183 15.4506C25.066 14.6443 24.5653 13.9157 23.9497 13.3002C23.2663 12.6167 23.2663 11.5087 23.9497 10.8253Z" fill="currentColor"/>
</svg>
