<svg viewBox="0 0 35 35" fill="none" xmlns="http://www.w3.org/2000/svg">
<path fill-rule="evenodd" clip-rule="evenodd" d="M17.5 3.4028C13.8517 6.66808 9.05515 8.67666 3.79069 8.74809C3.59951 9.88694 3.5 11.0569 3.5 12.2501C3.5 21.3936 9.34366 29.1722 17.5 32.055C25.6563 29.1722 31.5 21.3936 31.5 12.2501C31.5 11.0569 31.4005 9.88694 31.2093 8.74809C25.9448 8.67666 21.1483 6.66808 17.5 3.4028ZM19.25 24.5C19.25 25.4665 18.4665 26.25 17.5 26.25C16.5335 26.25 15.75 25.4665 15.75 24.5C15.75 23.5335 16.5335 22.75 17.5 22.75C18.4665 22.75 19.25 23.5335 19.25 24.5ZM19.25 12.25C19.25 11.2835 18.4665 10.5 17.5 10.5C16.5335 10.5 15.75 11.2835 15.75 12.25V17.5C15.75 18.4665 16.5335 19.25 17.5 19.25C18.4665 19.25 19.25 18.4665 19.25 17.5V12.25Z" fill="currentColor"/>
</svg>
