<svg viewBox="0 0 35 35" fill="none" xmlns="http://www.w3.org/2000/svg">
<path fill-rule="evenodd" clip-rule="evenodd" d="M31.5 17.5C31.5 25.232 25.232 31.5 17.5 31.5C9.76801 31.5 3.5 25.232 3.5 17.5C3.5 9.76801 9.76801 3.5 17.5 3.5C25.232 3.5 31.5 9.76801 31.5 17.5ZM19.25 24.5C19.25 25.4665 18.4665 26.25 17.5 26.25C16.5335 26.25 15.75 25.4665 15.75 24.5C15.75 23.5335 16.5335 22.75 17.5 22.75C18.4665 22.75 19.25 23.5335 19.25 24.5ZM17.5 8.75C16.5335 8.75 15.75 9.5335 15.75 10.5V17.5C15.75 18.4665 16.5335 19.25 17.5 19.25C18.4665 19.25 19.25 18.4665 19.25 17.5V10.5C19.25 9.5335 18.4665 8.75 17.5 8.75Z" fill="currentColor"/>
</svg>
