<svg viewBox="0 0 34 34" fill="none" xmlns="http://www.w3.org/2000/svg">
<path d="M2 11.75C1.30964 11.75 0.75 12.3096 0.75 13V21C0.75 21.6904 1.30964 22.25 2 22.25C2.69036 22.25 3.25 21.6904 3.25 21V13C3.25 12.3096 2.69036 11.75 2 11.75ZM8 5.25C7.30964 5.25 6.75 5.80964 6.75 6.5V27.5C6.75 28.1904 7.30964 28.75 8 28.75C8.69036 28.75 9.25 28.1904 9.25 27.5V6.5C9.25 5.80964 8.69036 5.25 8 5.25ZM14 0.75C13.3096 0.75 12.75 1.30964 12.75 2V32C12.75 32.6904 13.3096 33.25 14 33.25C14.6904 33.25 15.25 32.6904 15.25 32V2C15.25 1.30964 14.6904 0.75 14 0.75ZM20 8.25C19.3096 8.25 18.75 8.80964 18.75 9.5V24.5C18.75 25.1904 19.3096 25.75 20 25.75C20.6904 25.75 21.25 25.1904 21.25 24.5V9.5C21.25 8.80964 20.6904 8.25 20 8.25ZM26 3.25C25.3096 3.25 24.75 3.80964 24.75 4.5V29.5C24.75 30.1904 25.3096 30.75 26 30.75C26.6904 30.75 27.25 30.1904 27.25 29.5V4.5C27.25 3.80964 26.6904 3.25 26 3.25ZM32 12.75C31.3096 12.75 30.75 13.3096 30.75 14V20C30.75 20.6904 31.3096 21.25 32 21.25C32.6904 21.25 33.25 20.6904 33.25 20V14C33.25 13.3096 32.6904 12.75 32 12.75Z" fill="currentColor" stroke="currentColor" stroke-width="0.5"/>
</svg>
