<svg viewBox="0 0 35 35" fill="none" xmlns="http://www.w3.org/2000/svg">
<path fill-rule="evenodd" clip-rule="evenodd" d="M5.25 8.75C5.25 6.817 6.817 5.25 8.75 5.25H26.25C28.183 5.25 29.75 6.817 29.75 8.75V22.75C29.75 24.683 28.183 26.25 26.25 26.25H22.3664L22.5802 27.1053L23.9875 28.5126C24.488 29.013 24.6377 29.7658 24.3668 30.4197C24.096 31.0736 23.4579 31.5 22.75 31.5H12.2501C11.5422 31.5 10.9041 31.0736 10.6333 30.4197C10.3624 29.7658 10.5121 29.013 11.0126 28.5126L12.4199 27.1053L12.6337 26.25H8.75C6.817 26.25 5.25 24.683 5.25 22.75V8.75ZM15.3498 21C15.324 20.9994 15.2983 20.9994 15.2727 21H8.75V8.75H26.25V21H19.7274C19.7018 20.9994 19.6761 20.9994 19.6503 21H15.3498Z" fill="currentColor"/>
</svg>
