<svg viewBox="0 0 35 35" fill="none" xmlns="http://www.w3.org/2000/svg">
<g clip-path="url(#clip0_1_1253)">
<path d="M26.9496 12.8578L27.5171 12.2933L27.8947 12.6828C28.1384 12.9343 28.5408 12.9417 28.7936 12.6992L29.5426 11.9807C29.7954 11.7382 29.8027 11.3379 29.559 11.0864L27.7729 9.24333C27.5292 8.99183 27.1268 8.98475 26.874 9.22695L26.125 9.9455C25.8722 10.188 25.8648 10.5883 26.1085 10.8398L26.4871 11.2306L25.9135 11.8013C23.9592 10.0308 21.4385 8.86841 18.6537 8.61472L18.6098 5.96977L19.9683 5.27957C20.0933 5.20453 20.1668 5.06742 20.1601 4.92225V3.38543C20.1795 3.19528 20.0432 3.02444 19.8528 3H15.048C14.8573 3.02444 14.7212 3.19528 14.7406 3.38543V4.92249C14.734 5.06767 14.8077 5.20478 14.9327 5.27981L16.2912 5.97001L16.3352 8.61618C9.97779 9.20031 5 14.521 5 20.9985C5.00786 27.8636 10.5996 33.4267 17.4999 33.4348C24.4034 33.4348 30 27.867 30 20.9987C30 17.8855 28.8501 15.0391 26.9499 12.8578H26.9496ZM14.9644 21.1613C14.9671 20.5546 15.2081 19.9859 15.6424 19.5597C16.0743 19.1361 16.6465 18.9032 17.2547 18.9032C17.2591 18.9032 17.2633 18.9032 17.2677 18.9032C17.8802 18.9066 18.4528 19.1454 18.8802 19.5758C19.3045 20.003 19.5384 20.572 19.5384 21.1774V21.1901C19.5352 21.7923 19.2952 22.361 18.863 22.7914C18.4319 23.2209 17.8647 23.4572 17.2655 23.4572H17.2645C16.6487 23.4569 16.0696 23.2169 15.6339 22.7812C15.202 22.3493 14.9642 21.7779 14.9642 21.1718V21.161L14.9644 21.1613ZM14.7151 26.5778C12.4368 25.509 11.3424 23.3213 11.2466 21.6386H13.3708C13.5408 22.757 14.0864 23.6517 14.9949 24.3006C15.6587 24.7748 16.4136 25.0138 17.2444 25.0138C17.3918 25.0138 17.5419 25.0062 17.6939 24.9911C19.5536 24.8068 21.0457 23.2519 21.1649 21.3746C21.2359 20.2538 20.8801 19.2693 20.1073 18.4486C19.4767 17.7789 18.6891 17.3776 17.763 17.2527V15.1408C18.5434 15.1792 19.3819 15.4278 20.1547 15.8528C21.1943 16.4249 22.0352 17.2654 22.586 18.2841C23.1844 19.3908 23.4114 20.6441 23.2419 21.9086C23.0722 23.1761 22.5209 24.3297 21.6473 25.2445C20.7654 26.1684 19.6322 26.7838 18.3705 27.0245C17.1137 27.2643 15.8495 27.1098 14.7151 26.5778ZM25.385 25.881C24.5193 27.373 23.3822 28.523 22.0053 29.2992C20.7983 29.9796 19.377 30.3902 17.7767 30.521V28.4377C18.5847 28.3864 19.3745 28.1955 20.1282 27.8694C21.0008 27.4918 21.7866 26.951 22.4639 26.262C23.155 25.5591 23.692 24.7442 24.0605 23.8397C24.4437 22.899 24.6223 21.9125 24.5916 20.908C24.5346 19.0276 23.7534 17.2561 22.3914 15.9202C21.1383 14.6909 19.5047 13.954 17.7647 13.8274V11.7196C19.2094 11.8242 20.5146 12.1698 21.6481 12.7483C22.952 13.4136 24.0663 14.4066 24.9605 15.6993C26.0911 17.3339 26.7008 19.0261 26.7733 20.7287C26.8457 22.4351 26.3787 24.1687 25.385 25.8807V25.881Z" fill="currentColor"/>
</g>
<defs>
<clipPath id="clip0_1_1253">
<rect fill="white" transform="translate(5 3)"/>
</clipPath>
</defs>
</svg>
