<svg viewBox="0 0 35 35" fill="none" xmlns="http://www.w3.org/2000/svg">
<path d="M23.7891 16.1328H11.2109V18.8672H23.7891V16.1328Z" fill="currentColor"/>
<path d="M33.6328 16.1328H32.8125V18.8672H33.6328C34.3848 18.8672 35 18.252 35 17.5C35 16.748 34.3848 16.1328 33.6328 16.1328Z" fill="currentColor"/>
<path d="M0 17.5C0 18.252 0.615234 18.8672 1.36719 18.8672H2.1875V16.1328H1.36719C0.615234 16.1328 0 16.748 0 17.5Z" fill="currentColor"/>
<path d="M4.92188 12.0312H4.375C3.62305 12.0312 3.00781 12.6465 3.00781 13.3984V21.6016C3.00781 22.3535 3.62305 22.9688 4.375 22.9688H4.92188C5.67383 22.9688 6.28906 22.3535 6.28906 21.6016V13.3984C6.28906 12.6465 5.67383 12.0312 4.92188 12.0312Z" fill="currentColor"/>
<path d="M9.02344 9.29688H8.47656C7.72461 9.29688 7.10938 9.91211 7.10938 10.6641V24.3359C7.10938 25.0879 7.72461 25.7031 8.47656 25.7031H9.02344C9.77539 25.7031 10.3906 25.0879 10.3906 24.3359V10.6641C10.3906 9.91211 9.77539 9.29688 9.02344 9.29688Z" fill="currentColor"/>
<path d="M26.5234 9.29688H25.9766C25.2246 9.29688 24.6094 9.91211 24.6094 10.6641V24.3359C24.6094 25.0879 25.2246 25.7031 25.9766 25.7031H26.5234C27.2754 25.7031 27.8906 25.0879 27.8906 24.3359V10.6641C27.8906 9.91211 27.2754 9.29688 26.5234 9.29688Z" fill="currentColor"/>
<path d="M30.625 12.0312H30.0781C29.3262 12.0312 28.7109 12.6465 28.7109 13.3984V21.6016C28.7109 22.3535 29.3262 22.9688 30.0781 22.9688H30.625C31.377 22.9688 31.9922 22.3535 31.9922 21.6016V13.3984C31.9922 12.6465 31.377 12.0312 30.625 12.0312Z" fill="currentColor"/>
</svg>
