<svg viewBox="0 0 35 35" fill="none" xmlns="http://www.w3.org/2000/svg">
<path fill-rule="evenodd" clip-rule="evenodd" d="M29.6258 9.37008C30.0283 9.78505 30.3142 10.2989 30.4546 10.8597C30.8295 12.938 31.0114 15.0465 30.9982 17.1582C31.0057 19.2384 30.8237 21.315 30.4546 23.3622C30.3142 23.923 30.0283 24.4368 29.6258 24.8518C29.2233 25.2668 28.7184 25.5682 28.1621 25.7256C26.1296 26.2692 17.9994 26.2692 17.9994 26.2692C17.9994 26.2692 9.8693 26.2692 7.83677 25.7256C7.29179 25.5765 6.79448 25.2893 6.39289 24.8919C5.99131 24.4944 5.69901 24.0001 5.54426 23.4567C5.16938 21.3784 4.98742 19.27 5.00068 17.1582C4.99032 15.0622 5.17228 12.9697 5.54426 10.907C5.68463 10.3462 5.97052 9.83232 6.37304 9.41734C6.77557 9.00237 7.28048 8.70097 7.83677 8.54358C9.8693 8 17.9994 8 17.9994 8C17.9994 8 26.1296 8 28.1621 8.49632C28.7184 8.6537 29.2233 8.9551 29.6258 9.37008ZM15.5875 12.8594C15.4327 12.7714 15.2428 12.7723 15.0889 12.8618C14.935 12.9514 14.8403 13.116 14.8403 13.294V21.0224C14.8403 21.2004 14.935 21.3651 15.0889 21.4546C15.2428 21.5441 15.4327 21.545 15.5875 21.457L22.3823 17.5928C22.5386 17.504 22.6351 17.338 22.6351 17.1582C22.6351 16.9784 22.5386 16.8125 22.3823 16.7236L15.5875 12.8594ZM21.1237 17.1582L15.8403 20.1628V14.1536L21.1237 17.1582Z" fill="currentColor"/>
</svg>
