<svg viewBox="0 0 35 35" fill="none" xmlns="http://www.w3.org/2000/svg">
<path fill-rule="evenodd" clip-rule="evenodd" d="M17.5 31.5C25.232 31.5 31.5 25.232 31.5 17.5C31.5 9.76801 25.232 3.5 17.5 3.5C9.76801 3.5 3.5 9.76801 3.5 17.5C3.5 25.232 9.76801 31.5 17.5 31.5ZM19.25 12.25C19.25 11.2835 18.4665 10.5 17.5 10.5C16.5335 10.5 15.75 11.2835 15.75 12.25V15.75H12.25C11.2835 15.75 10.5 16.5335 10.5 17.5C10.5 18.4665 11.2835 19.25 12.25 19.25H15.75V22.75C15.75 23.7165 16.5335 24.5 17.5 24.5C18.4665 24.5 19.25 23.7165 19.25 22.75V19.25H22.75C23.7165 19.25 24.5 18.4665 24.5 17.5C24.5 16.5335 23.7165 15.75 22.75 15.75H19.25V12.25Z" fill="currentColor"/>
</svg>
