<svg viewBox="0 0 35 35" fill="none" xmlns="http://www.w3.org/2000/svg">
<path fill-rule="evenodd" clip-rule="evenodd" d="M14 7C10.134 7 7 10.134 7 14C7 17.866 10.134 21 14 21C17.866 21 21 17.866 21 14C21 10.134 17.866 7 14 7ZM3.5 14C3.5 8.20101 8.20101 3.5 14 3.5C19.799 3.5 24.5 8.20101 24.5 14C24.5 16.2677 23.7811 18.3675 22.5588 20.0839L30.9874 28.5126C31.6709 29.196 31.6709 30.304 30.9874 30.9874C30.304 31.6709 29.196 31.6709 28.5126 30.9874L20.0839 22.5588C18.3675 23.7811 16.2677 24.5 14 24.5C8.20101 24.5 3.5 19.799 3.5 14Z" fill="currentColor"/>
<path fill-rule="evenodd" clip-rule="evenodd" d="M8.75 14C8.75 13.0335 9.5335 12.25 10.5 12.25H17.5C18.4665 12.25 19.25 13.0335 19.25 14C19.25 14.9665 18.4665 15.75 17.5 15.75H10.5C9.5335 15.75 8.75 14.9665 8.75 14Z" fill="currentColor"/>
</svg>
