<svg viewBox="0 0 35 35" fill="none" xmlns="http://www.w3.org/2000/svg">
<path fill-rule="evenodd" clip-rule="evenodd" d="M31 13.8C30.3373 13.8 29.8 14.3373 29.8 15V25.803C28.9252 25.3867 27.8859 25.16 26.8 25.16C25.4432 25.16 24.1592 25.5139 23.1779 26.1494C22.2083 26.7773 21.4 27.7864 21.4 29.08C21.4 30.3736 22.2083 31.3827 23.1779 32.0106C24.1592 32.6461 25.4432 33 26.8 33C28.1568 33 29.4408 32.6461 30.4221 32.0106C31.3917 31.3827 32.2 30.3736 32.2 29.08V15C32.2 14.3373 31.6627 13.8 31 13.8ZM29.1175 28.1639C29.6681 28.5205 29.8 28.8714 29.8 29.08C29.8 29.2886 29.6681 29.6395 29.1175 29.9961C28.5788 30.345 27.7628 30.6 26.8 30.6C25.8372 30.6 25.0212 30.345 24.4824 29.9961C23.9319 29.6395 23.8 29.2886 23.8 29.08C23.8 28.8714 23.9319 28.5205 24.4824 28.1639C25.0212 27.815 25.8372 27.56 26.8 27.56C27.7628 27.56 28.5788 27.815 29.1175 28.1639Z" fill="currentColor"/>
<path d="M1 7.65C1 5.03426 3.19768 3 5.8 3H27.4C30.0023 3 32.2 5.03426 32.2 7.65V10.2C32.2 10.8627 31.6627 11.4 31 11.4C30.3373 11.4 29.8 10.8627 29.8 10.2V7.65C29.8 6.45498 28.7741 5.4 27.4 5.4H5.8C4.42587 5.4 3.4 6.45498 3.4 7.65V28.35C3.4 29.545 4.42587 30.6 5.8 30.6H19C19.6627 30.6 20.2 31.1373 20.2 31.8C20.2 32.4627 19.6627 33 19 33H5.8C3.19768 33 1 30.9657 1 28.35V7.65Z" fill="currentColor"/>
<path d="M6.44997 23.2432C6.26089 23.2059 6.10332 23.1125 5.97726 22.9632C5.85909 22.8139 5.8 22.6421 5.8 22.448V22.1008C5.8 21.944 5.86697 21.8208 6.0009 21.7312C6.13483 21.6416 6.28058 21.6155 6.43815 21.6528C7.0763 21.8096 7.58446 21.888 7.96262 21.888C9.12075 21.888 9.69981 21.4288 9.69981 20.5104C9.69981 19.7637 9.30589 19.3904 8.51805 19.3904C8.33685 19.3904 8.17928 19.4165 8.04535 19.4688C7.99807 19.4837 7.89959 19.5211 7.74991 19.5808C7.60809 19.6331 7.4978 19.6741 7.41901 19.704C7.34811 19.7264 7.25356 19.7525 7.13539 19.7824C7.02509 19.8048 6.91873 19.816 6.81631 19.816H6.44997C6.26876 19.816 6.11514 19.7525 5.98908 19.6256C5.86303 19.4987 5.80394 19.3493 5.81182 19.1776L5.97726 15.7504C5.99302 15.5712 6.06787 15.4219 6.2018 15.3024C6.33573 15.1755 6.49724 15.112 6.68632 15.112H10.5979C10.7792 15.112 10.9367 15.1755 11.0707 15.3024C11.2046 15.4293 11.2716 15.5787 11.2716 15.7504V16.008C11.2716 16.1797 11.2046 16.3291 11.0707 16.456C10.9367 16.5829 10.7792 16.6464 10.5979 16.6464H7.92717C7.85626 16.6464 7.82081 16.6763 7.82081 16.736L7.74991 18.1584C7.74991 18.1659 7.75384 18.1696 7.76172 18.1696H7.78536C8.16352 18.0203 8.53774 17.9456 8.90803 17.9456C9.79041 17.9456 10.468 18.1696 10.9407 18.6176C11.4212 19.0581 11.6615 19.6891 11.6615 20.5104C11.6615 22.4368 10.4561 23.4 8.04535 23.4C7.51749 23.4 6.9857 23.3477 6.44997 23.2432Z" fill="currentColor"/>
<path d="M17.3268 17.0608C17.1062 16.6501 16.7595 16.4448 16.2868 16.4448C15.8141 16.4448 15.4635 16.6501 15.2351 17.0608C15.0145 17.4715 14.9042 18.1845 14.9042 19.2C14.9042 20.2155 15.0145 20.9285 15.2351 21.3392C15.4635 21.7499 15.8141 21.9552 16.2868 21.9552C16.7595 21.9552 17.1062 21.7499 17.3268 21.3392C17.5553 20.9285 17.6695 20.2155 17.6695 19.2C17.6695 18.1845 17.5553 17.4715 17.3268 17.0608ZM18.8631 22.4144C18.3037 23.0715 17.445 23.4 16.2868 23.4C15.1287 23.4 14.266 23.0715 13.6988 22.4144C13.1394 21.7573 12.8597 20.6859 12.8597 19.2C12.8597 17.7141 13.1394 16.6427 13.6988 15.9856C14.266 15.3285 15.1287 15 16.2868 15C17.445 15 18.3037 15.3285 18.8631 15.9856C19.4303 16.6427 19.7139 17.7141 19.7139 19.2C19.7139 20.6859 19.4303 21.7573 18.8631 22.4144Z" fill="currentColor"/>
<path d="M25.0128 17.0608C24.7922 16.6501 24.4456 16.4448 23.9729 16.4448C23.5002 16.4448 23.1496 16.6501 22.9211 17.0608C22.7005 17.4715 22.5902 18.1845 22.5902 19.2C22.5902 20.2155 22.7005 20.9285 22.9211 21.3392C23.1496 21.7499 23.5002 21.9552 23.9729 21.9552C24.4456 21.9552 24.7922 21.7499 25.0128 21.3392C25.2413 20.9285 25.3556 20.2155 25.3556 19.2C25.3556 18.1845 25.2413 17.4715 25.0128 17.0608ZM26.5491 22.4144C25.9898 23.0715 25.131 23.4 23.9729 23.4C22.8148 23.4 21.9521 23.0715 21.3848 22.4144C20.8255 21.7573 20.5458 20.6859 20.5458 19.2C20.5458 17.7141 20.8255 16.6427 21.3848 15.9856C21.9521 15.3285 22.8148 15 23.9729 15C25.131 15 25.9898 15.3285 26.5491 15.9856C27.1164 16.6427 27.4 17.7141 27.4 19.2C27.4 20.6859 27.1164 21.7573 26.5491 22.4144Z" fill="currentColor"/>
</svg>
