<svg viewBox="0 0 35 35" fill="none" xmlns="http://www.w3.org/2000/svg">
<path fill-rule="evenodd" clip-rule="evenodd" d="M15.2125 26.7825C14.9899 26.5593 14.7996 26.3032 14.6492 26.0209C14.2986 25.3626 14.187 24.6031 14.3334 23.8718C14.4799 23.1405 14.8753 22.4825 15.4525 22.01C16.0296 21.5375 16.7526 21.2797 17.4985 21.2805C17.9224 21.281 18.3421 21.365 18.7335 21.5278C19.1249 21.6907 19.4803 21.9291 19.7795 22.2294C20.3827 22.8332 20.722 23.6515 20.7229 24.505C20.7237 25.2512 20.4656 25.9745 19.9928 26.5518C19.5199 27.129 18.8615 27.5244 18.1297 27.6705C17.398 27.8165 16.6382 27.7043 15.9799 27.3529C15.6951 27.2008 15.437 27.0081 15.2125 26.7825ZM18.639 25.6455C18.3753 25.9089 18.0275 26.0727 17.6566 26.1091C17.2856 26.1454 16.9136 26.0521 16.6037 25.8449C16.2939 25.6377 16.0655 25.3295 15.9574 24.9728C15.9425 24.9237 15.93 24.874 15.9199 24.8241C15.8581 24.5127 15.8894 24.1887 16.0118 23.8932C16.1545 23.5489 16.4121 23.2647 16.7408 23.089C17.0695 22.9133 17.449 22.857 17.8145 22.9297C18.1801 23.0024 18.5092 23.1995 18.7457 23.4876C18.9142 23.6929 19.0283 23.9354 19.08 24.1927C19.1003 24.2949 19.1106 24.3995 19.1107 24.505C19.1109 24.7167 19.0693 24.9265 18.9884 25.1222C18.9074 25.3179 18.7887 25.4957 18.639 25.6455Z" fill="currentColor"/>
<path d="M13.9999 30C13.9999 29.4477 14.4476 29 14.9999 29H19.9999C20.5521 29 20.9999 29.4477 20.9999 30C20.9999 30.5523 20.5521 31 19.9999 31H14.9999C14.4476 31 13.9999 30.5523 13.9999 30Z" fill="currentColor"/>
<path fill-rule="evenodd" clip-rule="evenodd" d="M12.9999 1C12.9999 0.447715 13.4476 0 13.9999 0H20.9999C21.5521 0 21.9999 0.447715 21.9999 1V5C21.9999 5.55228 21.5521 6 20.9999 6H20.7242L20.7321 12.0577C24.1251 12.9329 25.7216 14.9486 25.2536 17.7696C24.8906 19.9349 25.5339 21.0081 26.3186 22.3172L26.3665 22.3971V22.3925C27.0486 23.3424 27.5322 24.4202 27.7883 25.5613C28.0445 26.7025 28.0678 27.8835 27.8571 29.0339C27.1717 33.8015 22.1499 34.9991 18.7237 34.9991C18.3146 35.002 17.9056 34.9833 17.4985 34.9429C14.2105 35.2497 7.94692 34.4031 7.14082 29.0348C6.93116 27.8838 6.95584 26.7022 7.21338 25.5609C7.47092 24.4196 7.95604 23.342 8.6397 22.3925C9.46975 21.0456 10.1202 19.9815 9.75165 17.7576C9.28365 14.944 10.8802 12.9366 14.2741 12.0503V6H13.9999C13.4476 6 12.9999 5.55228 12.9999 5V1ZM15.8872 6V8H19.1116V6H15.8872ZM14.9999 2H19.9999V4H14.9999V2ZM19.1116 9V11H15.8872V9H19.1116ZM19.1116 14V12H15.8872V14H19.1116ZM19.1116 15V17.2546H15.8872V15H19.1116ZM17.6082 33.3785C18.133 33.4123 25.5362 33.8897 26.2615 28.8146V28.81C26.4447 27.8444 26.4262 26.8514 26.2071 25.8933C25.988 24.9352 25.573 24.0328 24.9883 23.2428C24.3751 22.4323 23.939 21.5019 23.7082 20.5121C23.4775 19.5223 23.4572 18.495 23.6488 17.4969C23.9473 15.6783 22.9717 14.4125 20.7229 13.7197V18.0561C20.7226 18.2698 20.6376 18.4747 20.4865 18.6258C20.3354 18.7769 20.1305 18.8619 19.9168 18.8622H15.0802C14.9743 18.8623 14.8694 18.8415 14.7716 18.8011C14.6737 18.7606 14.5848 18.7012 14.5099 18.6263C14.435 18.5515 14.3757 18.4626 14.3352 18.3647C14.2947 18.2668 14.274 18.162 14.2741 18.0561V13.7537C12.0262 14.4447 11.0423 15.7105 11.3491 17.5291C11.5408 18.5275 11.5207 19.555 11.2902 20.5451C11.0596 21.5353 10.6236 22.4659 10.0105 23.2769C9.42549 24.0672 9.01028 24.9701 8.79102 25.9287C8.57175 26.8872 8.55317 27.8808 8.73643 28.8469C9.46265 33.9368 16.8494 33.4167 17.388 33.3787C17.4053 33.3775 17.4158 33.3768 17.4183 33.3768H17.5796L17.5887 33.3772L17.6082 33.3785Z" fill="currentColor"/>
</svg>
