<svg viewBox="0 0 35 35" fill="none" xmlns="http://www.w3.org/2000/svg">
<path d="M24.7918 20.4166V29.1666M20.4168 24.7916H29.1668M8.75016 14.5833H11.6668C13.2777 14.5833 14.5835 13.2775 14.5835 11.6666V8.74998C14.5835 7.13915 13.2777 5.83331 11.6668 5.83331H8.75016C7.13933 5.83331 5.8335 7.13915 5.8335 8.74998V11.6666C5.8335 13.2775 7.13933 14.5833 8.75016 14.5833ZM23.3335 14.5833H26.2502C27.861 14.5833 29.1668 13.2775 29.1668 11.6666V8.74998C29.1668 7.13915 27.861 5.83331 26.2502 5.83331H23.3335C21.7227 5.83331 20.4168 7.13915 20.4168 8.74998V11.6666C20.4168 13.2775 21.7227 14.5833 23.3335 14.5833ZM8.75016 29.1666H11.6668C13.2777 29.1666 14.5835 27.8608 14.5835 26.25V23.3333C14.5835 21.7225 13.2777 20.4166 11.6668 20.4166H8.75016C7.13933 20.4166 5.8335 21.7225 5.8335 23.3333V26.25C5.8335 27.8608 7.13933 29.1666 8.75016 29.1666Z" stroke="currentColor" stroke-width="2" stroke-linecap="round" stroke-linejoin="round"/>
</svg>
