<svg viewBox="0 0 35 35" fill="none" xmlns="http://www.w3.org/2000/svg">
<path d="M27.7083 29.1667H7.29167C5.68084 29.1667 4.375 27.8608 4.375 26.25L4.375 8.75001C4.375 7.13918 5.68084 5.83334 7.29167 5.83334L21.875 5.83334C23.4858 5.83334 24.7917 7.13918 24.7917 8.75001V10.2083M27.7083 29.1667C26.0975 29.1667 24.7917 27.8608 24.7917 26.25L24.7917 10.2083M27.7083 29.1667C29.3192 29.1667 30.625 27.8608 30.625 26.25V13.125C30.625 11.5142 29.3192 10.2083 27.7083 10.2083L24.7917 10.2083M18.9583 5.83334L13.125 5.83334M10.2083 23.3333H18.9583M10.2083 11.6667H18.9583V17.5H10.2083V11.6667Z" stroke="currentColor" stroke-width="2" stroke-linecap="round" stroke-linejoin="round"/>
</svg>
