<svg viewBox="0 0 35 35" fill="none" xmlns="http://www.w3.org/2000/svg">
<g clip-path="url(#clip0_1_679)">
<path d="M21.2803 16.4487C22.9074 17.9018 22.9074 20.2577 21.2803 21.7108M25.834 33.5416H9.16732C7.32637 33.5416 5.83398 32.0182 5.83398 30.1388V6.3194C5.83398 4.4401 7.32637 2.91663 9.16732 2.91663H18.477C18.919 2.91663 19.3429 3.09588 19.6555 3.41495L28.6792 12.6266C28.9917 12.9457 29.1673 13.3785 29.1673 13.8297V30.1388C29.1673 32.0181 27.6749 33.5416 25.834 33.5416ZM12.9888 21.3123H11.6673C11.2071 21.3123 10.834 20.9792 10.834 20.5682V17.5915C10.834 17.1805 11.2071 16.8473 11.6673 16.8473H12.9888L16.9114 13.3444C17.4364 12.8756 18.334 13.2076 18.334 13.8706V24.289C18.334 24.952 17.4364 25.284 16.9114 24.8152L12.9888 21.3123Z" stroke="currentColor" stroke-width="1.5" stroke-linecap="round" stroke-linejoin="round"/>
</g>
<defs>
<clipPath id="clip0_1_679">
<rect fill="white"/>
</clipPath>
</defs>
</svg>
