<svg viewBox="0 0 36 35" fill="none" xmlns="http://www.w3.org/2000/svg">
<path fill-rule="evenodd" clip-rule="evenodd" d="M4.25 6C3.55969 6 3 6.57213 3 7.27778V27.7222C3 28.4279 3.55969 29 4.25 29H31.75C32.4403 29 33 28.4279 33 27.7222V7.27778C33 6.57213 32.4403 6 31.75 6H4.25ZM30.5 8.55556H5.5V26.4444H30.5V8.55556Z" fill="currentColor"/>
<path d="M14.1411 18.8035L13.1362 15.7709C13.0618 15.5783 12.9824 15.3528 12.898 15.0944C12.8137 14.8309 12.7293 14.5472 12.645 14.2431C12.5705 14.5522 12.4911 14.8385 12.4068 15.102C12.3224 15.3655 12.243 15.5935 12.1686 15.7861L11.1712 18.8035H14.1411ZM18.1382 23.037H16.188C15.9697 23.037 15.7935 22.9864 15.6595 22.885C15.5255 22.7786 15.4238 22.6443 15.3544 22.4822L14.7142 20.5516H10.5906L9.95048 22.4822C9.8959 22.6241 9.79665 22.7533 9.65275 22.8698C9.5138 22.9813 9.34013 23.037 9.13171 23.037H7.16667L11.3647 11.963H13.9401L18.1382 23.037Z" fill="currentColor"/>
<path d="M28.8333 17.4962C28.8333 18.2968 28.6969 19.0366 28.4239 19.7156C28.156 20.3895 27.7764 20.9747 27.2851 21.4713C26.7939 21.9628 26.2009 22.3479 25.5062 22.6266C24.8164 22.9002 24.0497 23.037 23.2062 23.037H18.9932V11.963H23.2062C24.0497 11.963 24.8164 12.1023 25.5062 12.381C26.2009 12.6597 26.7939 13.0448 27.2851 13.5363C27.7764 14.0278 28.156 14.613 28.4239 15.292C28.6969 15.9659 28.8333 16.7007 28.8333 17.4962ZM26.2579 17.4962C26.2579 16.949 26.1885 16.4549 26.0495 16.0141C25.9106 15.5732 25.7096 15.2008 25.4466 14.8968C25.1886 14.5877 24.871 14.3521 24.4939 14.1899C24.1167 14.0227 23.6875 13.9391 23.2062 13.9391H21.524V21.0609H23.2062C23.6875 21.0609 24.1167 20.9798 24.4939 20.8177C24.871 20.6504 25.1886 20.4148 25.4466 20.1108C25.7096 19.8017 25.9106 19.4268 26.0495 18.9859C26.1885 18.5451 26.2579 18.0485 26.2579 17.4962Z" fill="currentColor"/>
</svg>
