<svg viewBox="0 0 35 35" fill="none" xmlns="http://www.w3.org/2000/svg">
<path fill-rule="evenodd" clip-rule="evenodd" d="M13.5872 7.10871C13.6828 5.03053 15.3979 3.375 17.4997 3.375C19.6015 3.375 21.3166 5.03054 21.4122 7.10871C24.8479 8.61562 27.2497 12.047 27.2497 16.0417V20.6477C27.2497 21.1683 27.4565 21.6676 27.8246 22.0357L29.8735 24.0846C30.1595 24.3706 30.245 24.8007 30.0902 25.1744C29.9355 25.548 29.5708 25.7917 29.1664 25.7917H22.8747V26.25C22.8747 29.2185 20.4682 31.625 17.4997 31.625C14.5312 31.625 12.1247 29.2185 12.1247 26.25V25.7917H5.83304C5.42857 25.7917 5.06394 25.548 4.90916 25.1744C4.75438 24.8007 4.83993 24.3706 5.12593 24.0846L7.17479 22.0357C7.5429 21.6676 7.7497 21.1683 7.7497 20.6477V16.0417C7.7497 12.047 10.1515 8.61562 13.5872 7.10871ZM14.1247 25.7917V26.25C14.1247 28.114 15.6357 29.625 17.4997 29.625C19.3637 29.625 20.8747 28.114 20.8747 26.25V25.7917H14.1247ZM17.4997 5.375C16.4412 5.375 15.583 6.23312 15.583 7.29167V7.78956C15.583 8.21338 15.3159 8.59117 14.9163 8.7324C11.9049 9.79679 9.7497 12.6688 9.7497 16.0417V20.6477C9.7497 21.6988 9.33219 22.7067 8.589 23.4499L8.24725 23.7917H26.7522L26.4104 23.4499C25.6672 22.7067 25.2497 21.6988 25.2497 20.6477V16.0417C25.2497 12.6688 23.0946 9.79679 20.0831 8.7324C19.6835 8.59117 19.4164 8.21338 19.4164 7.78956V7.29167C19.4164 6.23312 18.5582 5.375 17.4997 5.375Z" fill="currentColor"/>
<path d="M5.20714 7.12117C4.81661 6.73065 4.81661 6.09748 5.20714 5.70696C5.59766 5.31643 6.23083 5.31643 6.62135 5.70696L30 29.0856C30.3906 29.4762 30.3906 30.1093 30 30.4999C29.6095 30.8904 28.9764 30.8904 28.5858 30.4999L5.20714 7.12117Z" fill="currentColor"/>
</svg>
