<svg viewBox="0 0 35 35" fill="none" xmlns="http://www.w3.org/2000/svg">
<path d="M21.8747 24.7917H29.1663L27.1175 22.7428C26.5618 22.1872 26.2497 21.4335 26.2497 20.6477V16.0417C26.2497 12.2319 23.8148 8.99075 20.4163 7.78956V7.29167C20.4163 5.68084 19.1105 4.375 17.4997 4.375C15.8888 4.375 14.583 5.68084 14.583 7.29167V7.78956C11.1845 8.99075 8.74967 12.2319 8.74967 16.0417V20.6477C8.74967 21.4335 8.43752 22.1872 7.88187 22.7428L5.83301 24.7917H13.1247M21.8747 24.7917V26.25C21.8747 28.6662 19.9159 30.625 17.4997 30.625C15.0834 30.625 13.1247 28.6662 13.1247 26.25V24.7917M21.8747 24.7917H13.1247" stroke="currentColor" stroke-width="2" stroke-linecap="round" stroke-linejoin="round"/>
</svg>
