<svg viewBox="0 0 35 35" fill="none" xmlns="http://www.w3.org/2000/svg">
<path d="M13.8319 19.7096C13.4414 19.319 12.8083 19.319 12.4177 19.7096C12.0272 20.1001 12.0272 20.7332 12.4177 21.1238L13.8319 19.7096ZM16.0415 23.3333L15.3344 24.0404C15.7249 24.431 16.3581 24.431 16.7486 24.0404L16.0415 23.3333ZM22.5819 18.2071C22.9725 17.8166 22.9725 17.1834 22.5819 16.7929C22.1914 16.4024 21.5583 16.4024 21.1677 16.7929L22.5819 18.2071ZM26.7082 10.2083V27.7083H28.7082V10.2083H26.7082ZM24.7915 29.625H10.2082V31.625H24.7915V29.625ZM8.2915 27.7083V10.2083H6.2915V27.7083H8.2915ZM10.2082 8.29167H13.1248V6.29167H10.2082V8.29167ZM21.8748 8.29167H24.7915V6.29167H21.8748V8.29167ZM10.2082 29.625C9.14962 29.625 8.2915 28.7669 8.2915 27.7083H6.2915C6.2915 29.8714 8.04506 31.625 10.2082 31.625V29.625ZM26.7082 27.7083C26.7082 28.7669 25.85 29.625 24.7915 29.625V31.625C26.9546 31.625 28.7082 29.8714 28.7082 27.7083H26.7082ZM28.7082 10.2083C28.7082 8.04522 26.9546 6.29167 24.7915 6.29167V8.29167C25.85 8.29167 26.7082 9.14979 26.7082 10.2083H28.7082ZM8.2915 10.2083C8.2915 9.14979 9.14962 8.29167 10.2082 8.29167V6.29167C8.04506 6.29167 6.2915 8.04522 6.2915 10.2083H8.2915ZM12.4177 21.1238L15.3344 24.0404L16.7486 22.6262L13.8319 19.7096L12.4177 21.1238ZM16.7486 24.0404L22.5819 18.2071L21.1677 16.7929L15.3344 22.6262L16.7486 24.0404ZM16.0415 5.375H18.9582V3.375H16.0415V5.375ZM18.9582 9.20833H16.0415V11.2083H18.9582V9.20833ZM16.0415 9.20833C14.983 9.20833 14.1248 8.35021 14.1248 7.29167H12.1248C12.1248 9.45478 13.8784 11.2083 16.0415 11.2083V9.20833ZM20.8748 7.29167C20.8748 8.35021 20.0167 9.20833 18.9582 9.20833V11.2083C21.1213 11.2083 22.8748 9.45478 22.8748 7.29167H20.8748ZM18.9582 5.375C20.0167 5.375 20.8748 6.23312 20.8748 7.29167H22.8748C22.8748 5.12855 21.1213 3.375 18.9582 3.375V5.375ZM16.0415 3.375C13.8784 3.375 12.1248 5.12855 12.1248 7.29167H14.1248C14.1248 6.23312 14.983 5.375 16.0415 5.375V3.375Z" fill="currentColor"/>
</svg>
