<svg viewBox="0 0 35 35" fill="none" xmlns="http://www.w3.org/2000/svg">
<path fill-rule="evenodd" clip-rule="evenodd" d="M6.07692 4C4.92982 4 4 4.89543 4 6V28C4 29.1046 4.92982 30 6.07692 30H28.9231C30.0702 30 31 29.1046 31 28V6C31 4.89543 30.0702 4 28.9231 4H6.07692ZM6.90052 5.7931C6.32703 5.7931 5.86206 6.24082 5.86206 6.7931V27.2069C5.86206 27.7592 6.32703 28.2069 6.90052 28.2069H12.3077V19C11.7342 19 11.2692 18.5523 11.2692 18V6C11.2692 5.92907 11.277 5.85986 11.2915 5.7931H6.90052ZM14.3846 28.2069V19C14.9581 19 15.4231 18.5523 15.4231 18V6C15.4231 5.95413 15.4199 5.90899 15.4137 5.86476C15.4103 5.84059 15.406 5.81669 15.4008 5.7931H19.5992C19.5847 5.85986 19.5769 5.92907 19.5769 6V18C19.5769 18.5523 20.0419 19 20.6154 19V28.2069H14.3846ZM22.6923 19V28.2069H28.0995C28.673 28.2069 29.1379 27.7592 29.1379 27.2069V6.7931C29.1379 6.24082 28.673 5.7931 28.0995 5.7931H23.7085C23.723 5.85986 23.7308 5.92907 23.7308 6V18C23.7308 18.5523 23.2658 19 22.6923 19Z" fill="currentColor"/>
</svg>
