<svg viewBox="0 0 35 35" fill="none" xmlns="http://www.w3.org/2000/svg">
<path d="M30.625 19.3308C26.5719 20.9715 22.1414 21.875 17.5 21.875C12.8586 21.875 8.42814 20.9715 4.375 19.3308M23.3333 8.74999V5.83332C23.3333 4.22249 22.0275 2.91666 20.4167 2.91666H14.5833C12.9725 2.91666 11.6667 4.22249 11.6667 5.83332V8.74999M17.5 17.5H17.5146M7.29167 29.1667H27.7083C29.3192 29.1667 30.625 27.8608 30.625 26.25V11.6667C30.625 10.0558 29.3192 8.74999 27.7083 8.74999H7.29167C5.68084 8.74999 4.375 10.0558 4.375 11.6667V26.25C4.375 27.8608 5.68084 29.1667 7.29167 29.1667Z" stroke="currentColor" stroke-width="2" stroke-linecap="round" stroke-linejoin="round"/>
</svg>
