<svg viewBox="0 0 35 35" fill="none" xmlns="http://www.w3.org/2000/svg">
<path d="M30.625 22.671C29.8624 22.671 29.0998 22.8918 28.4375 23.3333C27.1129 24.2164 25.3871 24.2164 24.0625 23.3333C22.7379 22.4502 21.0121 22.4502 19.6875 23.3333C18.3629 24.2164 16.6371 24.2164 15.3125 23.3333C13.9879 22.4502 12.2621 22.4502 10.9375 23.3333C9.61286 24.2164 7.88714 24.2164 6.5625 23.3333C5.90018 22.8918 5.13759 22.671 4.375 22.671M13.125 8.75V11.6667M17.5 8.75V11.6667M21.875 8.75V11.6667M13.125 4.375H13.1396M17.5 4.375H17.5146M21.875 4.375H21.8896M30.625 30.625V20.4167C30.625 18.8058 29.3192 17.5 27.7083 17.5H7.29167C5.68084 17.5 4.375 18.8058 4.375 20.4167V30.625H30.625ZM26.25 17.5V14.5833C26.25 12.9725 24.9442 11.6667 23.3333 11.6667H11.6667C10.0558 11.6667 8.75 12.9725 8.75 14.5833V17.5H26.25Z" stroke="currentColor" stroke-width="2" stroke-linecap="round" stroke-linejoin="round"/>
</svg>
