<svg viewBox="0 0 35 35" fill="none" xmlns="http://www.w3.org/2000/svg">
<path d="M11.6667 10.2083V4.375M23.3333 10.2083V4.375M22.1875 21.125V26M19.375 23.5625H25M7.29167 30.625H27.7083C29.3192 30.625 30.625 29.3192 30.625 27.7083V10.2083C30.625 8.5975 29.3192 7.29167 27.7083 7.29167H7.29167C5.68084 7.29167 4.375 8.5975 4.375 10.2083V27.7083C4.375 29.3192 5.68084 30.625 7.29167 30.625ZM11.875 17.875H13.75C14.7855 17.875 15.625 17.1475 15.625 16.25V14.625C15.625 13.7275 14.7855 13 13.75 13H11.875C10.8395 13 10 13.7275 10 14.625V16.25C10 17.1475 10.8395 17.875 11.875 17.875ZM21.25 17.875H23.125C24.1605 17.875 25 17.1475 25 16.25V14.625C25 13.7275 24.1605 13 23.125 13H21.25C20.2145 13 19.375 13.7275 19.375 14.625V16.25C19.375 17.1475 20.2145 17.875 21.25 17.875ZM11.875 26H13.75C14.7855 26 15.625 25.2725 15.625 24.375V22.75C15.625 21.8525 14.7855 21.125 13.75 21.125H11.875C10.8395 21.125 10 21.8525 10 22.75V24.375C10 25.2725 10.8395 26 11.875 26Z" stroke="currentColor" stroke-width="2" stroke-linecap="round" stroke-linejoin="round"/>
</svg>
