<svg viewBox="0 0 35 35" fill="none" xmlns="http://www.w3.org/2000/svg">
<path d="M4.375 13.125C4.375 11.5141 5.68084 10.2083 7.29167 10.2083H8.64738C9.62258 10.2083 10.5333 9.72093 11.0742 8.90952L12.2591 7.1321C12.8001 6.32069 13.7108 5.83331 14.686 5.83331H20.314C21.2892 5.83331 22.1999 6.32069 22.7409 7.1321L23.9258 8.90952C24.4667 9.72093 25.3774 10.2083 26.3526 10.2083H27.7083C29.3192 10.2083 30.625 11.5141 30.625 13.125V26.25C30.625 27.8608 29.3192 29.1666 27.7083 29.1666H7.29167C5.68084 29.1666 4.375 27.8608 4.375 26.25V13.125Z" stroke="currentColor" stroke-width="2" stroke-linecap="round" stroke-linejoin="round"/>
<path d="M21.875 18.9583C21.875 21.3746 19.9162 23.3333 17.5 23.3333C15.0838 23.3333 13.125 21.3746 13.125 18.9583C13.125 16.5421 15.0838 14.5833 17.5 14.5833C19.9162 14.5833 21.875 16.5421 21.875 18.9583Z" stroke="currentColor" stroke-width="2" stroke-linecap="round" stroke-linejoin="round"/>
</svg>
