<svg viewBox="0 0 35 35" fill="none" xmlns="http://www.w3.org/2000/svg">
<path fill-rule="evenodd" clip-rule="evenodd" d="M5.18519 3.04349C4.00236 3.04349 3.04349 4.00236 3.04349 5.18519V29.8148C3.04349 30.9977 4.00236 31.9565 5.18519 31.9565H29.8148C30.9977 31.9565 31.9565 30.9977 31.9565 29.8148V5.18519C31.9565 4.00236 30.9977 3.04349 29.8148 3.04349H5.18519ZM26.6023 29.9625H28.8917C29.4831 29.9625 29.9625 29.4831 29.9625 28.8917V6.10834C29.9625 5.51693 29.4831 5.03749 28.8917 5.03749H26.6023V9.65141C27.85 10.0924 28.744 11.2824 28.744 12.6812C28.744 14.0799 27.85 15.2699 26.6023 15.7109V29.9625ZM24.4606 15.7109C23.2128 15.2699 22.3188 14.0799 22.3188 12.6812C22.3188 11.2824 23.2128 10.0924 24.4606 9.65141V5.03749H21.248V20.3599C22.4958 20.801 23.3897 21.9909 23.3897 23.3897C23.3897 24.7885 22.4958 25.9784 21.248 26.4195V29.9625H24.4606V15.7109ZM19.1063 29.9625H15.8937V5.03749H19.1063V20.3599C17.8585 20.801 16.9646 21.9909 16.9646 23.3897C16.9646 24.7885 17.8585 25.9784 19.1063 26.4195V29.9625ZM6.10833 5.03749C5.51692 5.03749 5.03748 5.51693 5.03748 6.10834V28.8917C5.03748 29.4831 5.51692 29.9625 6.10833 29.9625H8.39775V26.4195C7.14999 25.9784 6.25605 24.7885 6.25605 23.3897C6.25605 21.9855 7.157 20.7916 8.41242 20.3548C8.40278 20.297 8.39775 20.2377 8.39775 20.1771V5.18519C8.39775 5.13508 8.4012 5.08577 8.40786 5.03749H6.10833ZM10.5248 20.3548C10.5344 20.297 10.5395 20.2377 10.5395 20.1771V5.18519C10.5395 5.13508 10.536 5.08577 10.5294 5.03749H13.752V29.9625H10.5395V26.4195C11.7872 25.9784 12.6812 24.7885 12.6812 23.3897C12.6812 21.9855 11.7802 20.7916 10.5248 20.3548ZM25.5314 11.0749C24.6443 11.0749 23.9251 11.794 23.9251 12.6812C23.9251 13.5683 24.6443 14.2874 25.5314 14.2874C26.4185 14.2874 27.1377 13.5683 27.1377 12.6812C27.1377 11.794 26.4185 11.0749 25.5314 11.0749ZM7.86233 23.3897C7.86233 22.5025 8.5815 21.7834 9.46861 21.7834C10.3557 21.7834 11.0749 22.5025 11.0749 23.3897C11.0749 24.2769 10.3557 24.996 9.46861 24.996C8.5815 24.996 7.86233 24.2769 7.86233 23.3897ZM20.1771 21.7834C19.29 21.7834 18.5709 22.5025 18.5709 23.3897C18.5709 24.2769 19.29 24.996 20.1771 24.996C21.0643 24.996 21.7834 24.2769 21.7834 23.3897C21.7834 22.5025 21.0643 21.7834 20.1771 21.7834Z" fill="currentColor"/>
</svg>
