<svg viewBox="0 0 35 35" fill="none" xmlns="http://www.w3.org/2000/svg">
<path d="M13.1253 7.29167H10.2087C8.59783 7.29167 7.29199 8.5975 7.29199 10.2083V27.7083C7.29199 29.3192 8.59783 30.625 10.2087 30.625H24.792C26.4028 30.625 27.7087 29.3192 27.7087 27.7083V10.2083C27.7087 8.5975 26.4028 7.29167 24.792 7.29167H21.8753M13.1253 7.29167C13.1253 8.9025 14.4312 10.2083 16.042 10.2083H18.9587C20.5695 10.2083 21.8753 8.9025 21.8753 7.29167M13.1253 7.29167C13.1253 5.68084 14.4312 4.375 16.042 4.375H18.9587C20.5695 4.375 21.8753 5.68084 21.8753 7.29167M17.5003 17.5H21.8753M17.5003 23.3333H21.8753M13.1253 17.5H13.1399M13.1253 23.3333H13.1399" stroke="currentColor" stroke-width="2" stroke-linecap="round"/>
</svg>
