<svg viewBox="0 0 35 35" fill="none" xmlns="http://www.w3.org/2000/svg">
<path fill-rule="evenodd" clip-rule="evenodd" d="M3.25 7C2.55969 7 2 7.54725 2 8.22222V27.7778C2 28.4527 2.55969 29 3.25 29H30.75C31.4403 29 32 28.4527 32 27.7778V8.22222C32 7.54725 31.4403 7 30.75 7H3.25ZM29.5 9.44444H4.5V26.5556H29.5V9.44444Z" fill="currentColor"/>
<path d="M15.3351 15.0387C15.2577 15.1322 15.1804 15.2057 15.103 15.2592C15.0326 15.3126 14.9271 15.3393 14.7865 15.3393C14.6528 15.3393 14.5227 15.3026 14.3961 15.2291C14.2695 15.1489 14.1182 15.0621 13.9424 14.9685C13.7666 14.8683 13.5555 14.7815 13.3094 14.708C13.0702 14.6278 12.7713 14.5877 12.4125 14.5877C11.9553 14.5877 11.5544 14.6679 11.2098 14.8282C10.8651 14.9819 10.5767 15.2057 10.3446 15.4997C10.1195 15.7936 9.95069 16.1511 9.83815 16.572C9.72561 16.9862 9.66934 17.4572 9.66934 17.985C9.66934 18.5328 9.72913 19.0205 9.8487 19.4481C9.97531 19.8757 10.1547 20.2364 10.3868 20.5304C10.6189 20.8177 10.9003 21.0381 11.2309 21.1918C11.5614 21.3388 11.9342 21.4123 12.3492 21.4123C12.7642 21.4123 13.0983 21.3655 13.3516 21.272C13.6118 21.1718 13.8299 21.0649 14.0057 20.9513C14.1815 20.831 14.3328 20.7241 14.4594 20.6306C14.593 20.5304 14.7407 20.4803 14.9025 20.4803C15.1135 20.4803 15.2718 20.5571 15.3773 20.7108L16.1264 21.6127C15.838 21.9334 15.525 22.204 15.1874 22.4244C14.8498 22.6382 14.4981 22.8119 14.1323 22.9455C13.7736 23.0725 13.4008 23.1627 13.0139 23.2161C12.6341 23.2696 12.2543 23.2963 11.8744 23.2963C11.2062 23.2963 10.5767 23.1794 9.98586 22.9455C9.39502 22.705 8.87803 22.3576 8.4349 21.9033C7.99177 21.449 7.64008 20.8945 7.37983 20.2398C7.12661 19.5784 7 18.8268 7 17.985C7 17.23 7.11254 16.5319 7.33762 15.8905C7.56974 15.2425 7.90736 14.6846 8.3505 14.2169C8.79363 13.7426 9.34227 13.3718 9.99641 13.1046C10.6506 12.8373 11.4032 12.7037 12.2543 12.7037C13.0632 12.7037 13.7701 12.8273 14.375 13.0745C14.9869 13.3217 15.5356 13.6758 16.0209 14.1368L15.3351 15.0387Z" fill="currentColor"/>
<path d="M26.2087 15.0387C26.1313 15.1322 26.0539 15.2057 25.9766 15.2592C25.9062 15.3126 25.8007 15.3393 25.6601 15.3393C25.5264 15.3393 25.3963 15.3026 25.2697 15.2291C25.1431 15.1489 24.9918 15.0621 24.816 14.9685C24.6401 14.8683 24.4291 14.7815 24.1829 14.708C23.9438 14.6278 23.6449 14.5877 23.2861 14.5877C22.8289 14.5877 22.428 14.6679 22.0833 14.8282C21.7387 14.9819 21.4503 15.2057 21.2182 15.4997C20.9931 15.7936 20.8243 16.1511 20.7118 16.572C20.5992 16.9862 20.5429 17.4572 20.5429 17.985C20.5429 18.5328 20.6027 19.0205 20.7223 19.4481C20.8489 19.8757 21.0283 20.2364 21.2604 20.5304C21.4925 20.8177 21.7739 21.0381 22.1044 21.1918C22.435 21.3388 22.8078 21.4123 23.2228 21.4123C23.6378 21.4123 23.9719 21.3655 24.2252 21.272C24.4854 21.1718 24.7035 21.0649 24.8793 20.9513C25.0551 20.831 25.2064 20.7241 25.333 20.6306C25.4666 20.5304 25.6143 20.4803 25.7761 20.4803C25.9871 20.4803 26.1454 20.5571 26.2509 20.7108L27 21.6127C26.7116 21.9334 26.3986 22.204 26.061 22.4244C25.7234 22.6382 25.3717 22.8119 25.0059 22.9455C24.6472 23.0725 24.2744 23.1627 23.8875 23.2161C23.5077 23.2696 23.1279 23.2963 22.748 23.2963C22.0798 23.2963 21.4503 23.1794 20.8595 22.9455C20.2686 22.705 19.7516 22.3576 19.3085 21.9033C18.8654 21.449 18.5137 20.8945 18.2534 20.2398C18.0002 19.5784 17.8736 18.8268 17.8736 17.985C17.8736 17.23 17.9861 16.5319 18.2112 15.8905C18.4433 15.2425 18.781 14.6846 19.2241 14.2169C19.6672 13.7426 20.2159 13.3718 20.87 13.1046C21.5242 12.8373 22.2768 12.7037 23.1279 12.7037C23.9368 12.7037 24.6437 12.8273 25.2486 13.0745C25.8605 13.3217 26.4092 13.6758 26.8945 14.1368L26.2087 15.0387Z" fill="currentColor"/>
</svg>
