<svg viewBox="0 0 35 35" fill="none" xmlns="http://www.w3.org/2000/svg">
<path d="M18.0167 16.6416C17.8149 16.7215 17.6471 16.8703 17.5423 17.0621C17.4375 17.2539 17.4024 17.4767 17.4429 17.692C17.4835 17.9072 17.5972 18.1014 17.7644 18.2408C17.9316 18.3803 18.1418 18.4563 18.3586 18.4556C18.472 18.4551 18.5843 18.4331 18.6897 18.3908L21.8944 17.1383C22.1131 17.0405 22.286 16.8612 22.3773 16.6378C22.4686 16.4144 22.4712 16.164 22.3845 15.9387C22.2979 15.7134 22.1286 15.5305 21.912 15.4281C21.6953 15.3258 21.448 15.3117 21.2214 15.389L18.0167 16.6416ZM4.47167 14.2012C3.53218 14.8964 2.76927 15.807 2.2456 16.8582C1.72193 17.9094 1.45245 19.0712 1.45929 20.2481C1.43057 21.7847 1.88597 23.2908 2.75967 24.5486C3.63338 25.8064 4.88012 26.7507 6.3197 27.2452H6.4372C6.74698 27.3424 17.974 29.6424 22.781 30.625H22.9626H23.1335H23.1869H23.2831L31.6686 27.3856C31.8421 27.3162 31.9908 27.1957 32.0956 27.0397C32.2004 26.8838 32.2563 26.6995 32.2561 26.5109V22.1917C32.2614 22.1235 32.2614 22.0549 32.2561 21.9866C32.2394 21.9308 32.2179 21.8766 32.192 21.8246V21.7706L32.1173 21.6518L32.0638 21.587L21.3496 11.5449L21.2641 11.4801C20.0326 10.3407 18.4256 9.70561 16.7562 9.69843C15.8555 9.69656 14.9642 9.8841 14.1391 10.2491L10.4217 11.6529C10.3267 11.1662 10.1255 10.707 9.83287 10.3088C9.5402 9.91059 9.16337 9.58337 8.72981 9.35094C8.29625 9.11851 7.81688 8.98673 7.32658 8.96519C6.83629 8.94365 6.34742 9.0329 5.89555 9.22643C5.44368 9.41996 5.04018 9.71291 4.71444 10.084C4.3887 10.455 4.1489 10.8948 4.01251 11.3713C3.87612 11.8479 3.84656 12.3491 3.92599 12.8387C4.00542 13.3282 4.19184 13.7937 4.47167 14.2012ZM8.63774 12.29V12.3439L6.14878 13.3158C6.00946 13.1745 5.90054 13.0057 5.82885 12.8199C5.75715 12.6341 5.72424 12.4353 5.73217 12.236C5.73217 11.8465 5.88523 11.473 6.15768 11.1976C6.43013 10.9222 6.79965 10.7674 7.18496 10.7674C7.57026 10.7674 7.93978 10.9222 8.21223 11.1976C8.48468 11.473 8.63774 11.8465 8.63774 12.236V12.29ZM23.8919 26.0574L30.4295 23.5091V25.8199L23.8919 28.3682V26.0574ZM12.964 14.7843L12.8786 14.7087C12.3027 14.1865 11.6459 13.7633 10.9344 13.4561L14.7907 11.9552C15.3972 11.6886 16.0521 11.5525 16.7135 11.5557C17.9535 11.5624 19.1448 12.0448 20.0463 12.9054L20.1211 12.9702L29.5856 21.8246L23.1762 24.3513L12.964 14.7843ZM6.9179 25.4743C5.90336 25.0931 5.02202 24.4189 4.38338 23.5356C3.74473 22.6522 3.37696 21.5986 3.32574 20.5058C3.27453 19.4129 3.54214 18.3289 4.09532 17.3885C4.6485 16.4481 5.46286 15.6927 6.4372 15.2162L6.59743 15.1514C7.45231 14.8055 8.38776 14.7163 9.29155 14.8944C10.1954 15.0726 11.0291 15.5105 11.6929 16.1556L11.789 16.2312L22.0439 25.8199V28.595C15.8482 27.3316 7.44133 25.5823 6.9179 25.4743ZM27.4598 14.5575C27.4598 14.6809 27.4838 14.8031 27.5305 14.917C27.5773 15.031 27.6457 15.1346 27.732 15.2218C27.8183 15.309 27.9208 15.3782 28.0335 15.4255C28.1463 15.4727 28.2671 15.497 28.3892 15.497H32.5125C32.6422 15.5111 32.7734 15.4974 32.8975 15.4569C33.0216 15.4164 33.1359 15.35 33.233 15.2619C33.33 15.1738 33.4076 15.066 33.4608 14.9456C33.5139 14.8252 33.5413 14.6948 33.5413 14.5629C33.5413 14.4311 33.5139 14.3007 33.4608 14.1803C33.4076 14.0599 33.33 13.9521 33.233 13.864C33.1359 13.7759 33.0216 13.7094 32.8975 13.6689C32.7734 13.6284 32.6422 13.6148 32.5125 13.6289H28.3892C28.2676 13.6275 28.147 13.6504 28.0343 13.6965C27.9216 13.7425 27.8191 13.8107 27.7326 13.897C27.6462 13.9834 27.5776 14.0863 27.5307 14.1997C27.4839 14.313 27.4598 14.4347 27.4598 14.5575ZM24.2551 9.49326V5.31443C24.2551 5.19106 24.2311 5.0689 24.1844 4.95492C24.1377 4.84095 24.0692 4.73739 23.9829 4.65015C23.8966 4.56292 23.7942 4.49372 23.6814 4.44651C23.5687 4.3993 23.4478 4.375 23.3258 4.375C23.2037 4.375 23.0829 4.3993 22.9701 4.44651C22.8574 4.49372 22.7549 4.56292 22.6686 4.65015C22.5823 4.73739 22.5139 4.84095 22.4672 4.95492C22.4205 5.0689 22.3964 5.19106 22.3964 5.31443V9.49326C22.3964 9.61663 22.4205 9.73879 22.4672 9.85277C22.5139 9.96674 22.5823 10.0703 22.6686 10.1575C22.7549 10.2448 22.8574 10.314 22.9701 10.3612C23.0829 10.4084 23.2037 10.4327 23.3258 10.4327C23.4478 10.4327 23.5687 10.4084 23.6814 10.3612C23.7942 10.314 23.8966 10.2448 23.9829 10.1575C24.0692 10.0703 24.1377 9.96674 24.1844 9.85277C24.2311 9.73879 24.2551 9.61663 24.2551 9.49326ZM30.9422 8.1867C31.1164 8.01054 31.2142 7.77168 31.2142 7.52262C31.2142 7.27357 31.1164 7.03471 30.9422 6.85855C30.8568 6.7717 30.7553 6.70278 30.6435 6.65575C30.5316 6.60872 30.4117 6.58451 30.2906 6.58451C30.1695 6.58451 30.0495 6.60872 29.9377 6.65575C29.8259 6.70278 29.7244 6.7717 29.639 6.85855L26.7548 9.8172C26.6689 9.90351 26.6007 10.0061 26.5542 10.1192C26.5076 10.2322 26.4837 10.3534 26.4837 10.4759C26.4837 10.5983 26.5076 10.7195 26.5542 10.8326C26.6007 10.9456 26.6689 11.0483 26.7548 11.1346C26.8403 11.223 26.9425 11.2934 27.0553 11.3414C27.1682 11.3893 27.2893 11.4141 27.4117 11.4141C27.5341 11.4141 27.6553 11.3893 27.7681 11.3414C27.8809 11.2934 27.9831 11.223 28.0687 11.1346L30.9422 8.1867Z" fill="currentColor"/>
</svg>
