<svg viewBox="0 0 35 35" fill="none" xmlns="http://www.w3.org/2000/svg">
<path fill-rule="evenodd" clip-rule="evenodd" d="M30.9038 21.0069C31.4506 19.6587 31.75 18.1985 31.75 16.6667C31.75 9.56359 25.3121 4 17.625 4C9.93797 4 3.50002 9.56359 3.50002 16.6667C3.50002 18.9966 4.20161 21.1755 5.41599 23.0427L3.56369 27.9822C3.4362 28.3222 3.503 28.7045 3.73822 28.9811C3.97343 29.2577 4.34009 29.3851 4.69613 29.3139L11.2951 27.9941C13.2027 28.8524 15.3538 29.3333 17.625 29.3333C19.6222 29.3333 21.5351 28.9578 23.2727 28.2772C24.0765 28.7371 25.0075 29 26 29C29.0376 29 31.5 26.5376 31.5 23.5C31.5 22.6025 31.2851 21.7553 30.9038 21.0069ZM17.625 6C10.8146 6 5.50002 10.8831 5.50002 16.6667C5.50002 18.74 6.17247 20.6801 7.34831 22.3274C7.54171 22.5984 7.58759 22.9478 7.4707 23.2595L6.06804 26.9999L11.2232 25.9689C11.4353 25.9265 11.6554 25.954 11.8505 26.0472C13.5635 26.8658 15.5294 27.3333 17.625 27.3333C19.0126 27.3333 20.338 27.1306 21.5691 26.7589C20.8971 25.8468 20.5 24.7198 20.5 23.5C20.5 20.4624 22.9624 18 26 18C27.287 18 28.4707 18.442 29.4076 19.1825C29.6317 18.3728 29.75 17.5298 29.75 16.6667C29.75 10.8831 24.4354 6 17.625 6ZM22.5 23.5C22.5 21.567 24.067 20 26 20C27.933 20 29.5 21.567 29.5 23.5C29.5 25.433 27.933 27 26 27C24.067 27 22.5 25.433 22.5 23.5Z" fill="currentColor"/>
</svg>
