<svg viewBox="0 0 35 35" fill="none" xmlns="http://www.w3.org/2000/svg">
<path d="M17.5007 8.75016V5.8335M17.5007 8.75016C15.8898 8.75016 14.584 10.056 14.584 11.6668C14.584 13.2777 15.8898 14.5835 17.5007 14.5835M17.5007 8.75016C19.1115 8.75016 20.4173 10.056 20.4173 11.6668C20.4173 13.2777 19.1115 14.5835 17.5007 14.5835M8.75065 26.2502C10.3615 26.2502 11.6673 24.9443 11.6673 23.3335C11.6673 21.7227 10.3615 20.4168 8.75065 20.4168M8.75065 26.2502C7.13982 26.2502 5.83398 24.9443 5.83398 23.3335C5.83398 21.7227 7.13982 20.4168 8.75065 20.4168M8.75065 26.2502V29.1668M8.75065 20.4168V5.8335M17.5007 14.5835V29.1668M26.2506 26.2502C27.8615 26.2502 29.1673 24.9443 29.1673 23.3335C29.1673 21.7227 27.8615 20.4168 26.2506 20.4168M26.2506 26.2502C24.6398 26.2502 23.334 24.9443 23.334 23.3335C23.334 21.7227 24.6398 20.4168 26.2506 20.4168M26.2506 26.2502V29.1668M26.2506 20.4168V5.8335" stroke="currentColor" stroke-width="2" stroke-linecap="round" stroke-linejoin="round"/>
</svg>
