<svg viewBox="0 0 35 35" fill="none" xmlns="http://www.w3.org/2000/svg">
<path d="M11.6668 7.29167H8.75016C7.13933 7.29167 5.8335 8.5975 5.8335 10.2083V27.7083C5.8335 29.3192 7.13933 30.625 8.75016 30.625H23.3335C24.9443 30.625 26.2502 29.3192 26.2502 27.7083V26.25M11.6668 7.29167C11.6668 8.9025 12.9727 10.2083 14.5835 10.2083H17.5002C19.111 10.2083 20.4168 8.9025 20.4168 7.29167M11.6668 7.29167C11.6668 5.68084 12.9727 4.375 14.5835 4.375H17.5002C19.111 4.375 20.4168 5.68084 20.4168 7.29167M20.4168 7.29167H23.3335C24.9443 7.29167 26.2502 8.5975 26.2502 10.2083V14.5833M29.1668 20.4167H14.5835M14.5835 20.4167L18.9585 16.0417M14.5835 20.4167L18.9585 24.7917" stroke="currentColor" stroke-width="2" stroke-linecap="round" stroke-linejoin="round"/>
</svg>
