<svg viewBox="0 0 35 35" fill="none" xmlns="http://www.w3.org/2000/svg">
<path d="M7.42425 4.6637L1.59059 12.4731C1.39806 12.7325 1.41796 13.1211 1.63616 13.3607L16.9545 30.399C17.2272 30.7003 17.7756 30.7003 18.0487 30.399L33.3638 13.3607C33.582 13.1214 33.6022 12.7325 33.4094 12.4731L27.5757 4.6637C27.5086 4.57517 27.4199 4.50282 27.3168 4.45267C27.2137 4.40251 27.0993 4.37599 26.983 4.37531H8.01884C7.76214 4.36723 7.55067 4.51891 7.42617 4.6637H7.42425ZM9.07808 5.79425H15.9498L11.2428 11.3973L9.07808 5.79425ZM19.0402 5.79425H25.9219L23.7572 11.4084L19.0402 5.79425ZM17.5 6.2047L22.526 12.185H12.4743L17.5 6.2047ZM7.81316 6.56101L9.99003 12.1853H3.61954L7.81316 6.56101ZM27.1871 6.56101L31.3807 12.1853H25.0102L27.1871 6.56101ZM3.8018 13.6045H10.5368L15.6424 26.7827L3.8018 13.6045ZM12.0982 13.6045H22.902L17.5 27.5486L12.0982 13.6045ZM24.4635 13.6045H31.1991L19.3698 26.772L24.4635 13.6045Z" fill="currentColor"/>
</svg>
