<svg viewBox="0 0 35 35" fill="none" xmlns="http://www.w3.org/2000/svg">
<path fill-rule="evenodd" clip-rule="evenodd" d="M32.0005 5.93578C32.0005 7.56877 30.6767 8.89256 29.0437 8.89256C28.811 8.89256 28.5845 8.86567 28.3673 8.81483C28.3093 8.91271 28.2382 9.005 28.154 9.08916L5.3703 31.8729C4.8281 32.4151 3.94901 32.4151 3.40681 31.8729C2.86461 31.3307 2.86461 30.4516 3.40681 29.9094L26.1905 7.12568C26.2244 7.09174 26.2597 7.05994 26.2961 7.03025C26.1611 6.69174 26.0869 6.32243 26.0869 5.93578C26.0869 4.3028 27.4107 2.979 29.0437 2.979C30.6767 2.979 32.0005 4.3028 32.0005 5.93578ZM28.0741 7.05169C28.3337 7.2774 28.6727 7.41405 29.0437 7.41405C29.8602 7.41405 30.5221 6.75216 30.5221 5.93567C30.5221 5.11917 29.8602 4.45728 29.0437 4.45728C28.2272 4.45728 27.5653 5.11917 27.5653 5.93567C27.5653 6.38117 27.7624 6.78064 28.0741 7.05169Z" fill="currentColor"/>
<path fill-rule="evenodd" clip-rule="evenodd" d="M3.00048 5.93578C3.00048 7.56877 4.32428 8.89256 5.95726 8.89256C6.18969 8.89256 6.41585 8.86575 6.63283 8.81503C6.69084 8.91284 6.76189 9.00506 6.846 9.08916L29.6297 31.8729C30.1719 32.4151 31.051 32.4151 31.5932 31.8729C32.1354 31.3307 32.1354 30.4516 31.5932 29.9094L8.80949 7.12568C8.77578 7.09197 8.74078 7.06037 8.70463 7.03085C8.83974 6.69218 8.91404 6.32266 8.91404 5.93578C8.91404 4.3028 7.59025 2.979 5.95726 2.979C4.32428 2.979 3.00048 4.3028 3.00048 5.93578ZM6.89719 7.07699C6.91352 7.06222 6.93012 7.04791 6.94697 7.03405C7.24696 6.76347 7.43553 6.37171 7.43553 5.93591C7.43553 5.11942 6.77363 4.45752 5.95714 4.45752C5.14065 4.45752 4.47875 5.11942 4.47875 5.93591C4.47875 6.7524 5.14065 7.4143 5.95714 7.4143C6.31419 7.4143 6.64168 7.28772 6.89719 7.07699Z" fill="currentColor"/>
</svg>
