<svg viewBox="0 0 35 35" fill="none" xmlns="http://www.w3.org/2000/svg">
<g clip-path="url(#clip0_1_61)">
<path d="M15.3221 14.9482H15.3681L15.381 14.9034L15.3221 14.9482ZM15.3221 14.9482H15.3681L15.381 14.9034L15.3221 14.9482ZM15.3221 14.9482H15.3681L15.381 14.9034L15.3221 14.9482ZM15.3221 14.9482H15.3681L15.381 14.9034L15.3221 14.9482ZM15.3221 14.9482H15.3681L15.381 14.9034L15.3221 14.9482ZM15.3221 14.9482H15.3681L15.381 14.9034L15.3221 14.9482ZM15.3221 14.9482H15.3681L15.381 14.9034L15.3221 14.9482Z" fill="currentColor"/>
<path d="M19.9653 13.3279L31.0874 4.64951C31.2836 4.49647 31.4133 4.26853 31.4481 4.01583C31.483 3.76313 31.42 3.50637 31.273 3.30204C31.1261 3.09771 30.9073 2.96254 30.6647 2.92627C30.4221 2.89 30.1756 2.9556 29.9794 3.10864L17.4981 12.8947L5.01143 3.1338C4.91445 3.05802 4.80408 3.00289 4.68664 2.97154C4.5692 2.94018 4.44698 2.93323 4.32695 2.95108C4.20693 2.96893 4.09146 3.01123 3.98714 3.07556C3.88281 3.13989 3.79167 3.225 3.71892 3.32602C3.64617 3.42704 3.59323 3.54199 3.56313 3.66432C3.53303 3.78665 3.52636 3.91396 3.5435 4.03897C3.56063 4.16399 3.60124 4.28426 3.663 4.39293C3.72476 4.5016 3.80647 4.59653 3.90345 4.67231L14.9983 13.3287C13.0488 13.4277 10.0796 13.673 7.55344 14.2768C4.47707 15.0119 2.91699 16.092 2.91699 17.4867V30.4237C2.91699 31.9528 4.77595 33.0966 8.44103 33.8254C12.1484 34.562 16.3139 34.6194 17.5026 34.6194C18.6913 34.6194 22.8568 34.562 26.5596 33.8254C30.2255 33.0966 32.0837 31.9528 32.0837 30.4237V17.4867C32.0837 14.3546 24.1897 13.5394 19.9653 13.3279ZM15.381 14.9002L15.3681 14.945H15.3221L15.381 14.9002ZM7.41985 16.2626C8.73915 15.9159 10.983 15.4828 14.3779 15.3027L12.602 16.7178C12.4114 16.8709 12.2858 17.0955 12.2519 17.3437C12.218 17.5919 12.2786 17.8441 12.4206 18.0465C12.5626 18.2489 12.7749 18.3855 13.0123 18.4272C13.2496 18.4689 13.4932 18.4124 13.6911 18.2697L17.4996 15.2949L21.2794 18.25C21.4753 18.403 21.7216 18.4686 21.964 18.4324C22.2064 18.3962 22.4251 18.2612 22.5719 18.057C22.7187 17.8529 22.7817 17.5964 22.7469 17.3439C22.7122 17.0914 22.5826 16.8637 22.3866 16.7107L20.5707 15.2894C23.8961 15.4702 26.1475 15.9104 27.4865 16.2642C29.3899 16.7666 30.1424 17.2862 30.2338 17.4804C30.1107 17.7029 29.1771 18.2893 26.8834 18.831C25.0939 19.2547 22.013 19.7595 17.5011 19.7595C12.9182 19.7595 9.84034 19.2626 8.06667 18.8467C5.50957 18.2469 4.82123 17.6298 4.76463 17.4812C4.79557 17.353 5.30654 16.8177 7.41985 16.2626ZM30.2375 30.4135C30.19 30.5558 29.5115 31.1776 26.9347 31.7822C25.1988 32.1886 22.2183 32.6729 17.8022 32.6933H17.5003C12.9167 32.6933 9.83958 32.1972 8.06591 31.7806C5.48994 31.1768 4.81142 30.555 4.76387 30.4127V19.7437C8.49159 21.6258 16.5524 21.6824 17.4981 21.6824C20.8884 21.6824 27.1883 21.2657 30.236 19.7422L30.2375 30.4135Z" fill="currentColor"/>
<path d="M18.4211 23.3082V31.0707C18.4211 31.3256 18.324 31.5701 18.1511 31.7506C17.9782 31.931 17.7436 32.0325 17.4988 32.0329C17.3776 32.0328 17.2577 32.0079 17.1457 31.9594C17.0338 31.911 16.9322 31.8401 16.8466 31.7507C16.761 31.6614 16.6932 31.5553 16.647 31.4386C16.6007 31.3219 16.5771 31.1969 16.5773 31.0707V23.3082C16.5841 23.058 16.6844 22.8205 16.8566 22.6461C17.0289 22.4718 17.2597 22.3742 17.4999 22.3742C17.7402 22.3742 17.971 22.4718 18.1433 22.6461C18.3155 22.8205 18.4158 23.058 18.4226 23.3082H18.4211Z" fill="currentColor"/>
<path d="M11.5921 23.3082V29.7767C11.5919 30.0313 11.4948 30.2754 11.322 30.4555C11.1493 30.6356 10.915 30.7369 10.6706 30.7374C10.4261 30.7371 10.1916 30.636 10.0186 30.4561C9.84559 30.2761 9.7481 30.0321 9.7475 29.7775V23.3082C9.7479 23.0543 9.84457 22.8109 10.0165 22.631C10.1884 22.451 10.4216 22.3491 10.6653 22.3475H10.6691C10.9137 22.3475 11.1484 22.4487 11.3215 22.6288C11.4946 22.809 11.5919 23.0533 11.5921 23.3082Z" fill="currentColor"/>
<path d="M25.2524 23.3082V29.7767C25.2526 29.9033 25.2288 30.0287 25.1823 30.1457C25.1358 30.2627 25.0675 30.369 24.9814 30.4584C24.8954 30.5478 24.7932 30.6186 24.6808 30.6668C24.5683 30.7149 24.4479 30.7394 24.3263 30.7389C24.2051 30.7388 24.0851 30.7138 23.9732 30.6654C23.8613 30.617 23.7597 30.5461 23.6741 30.4567C23.5885 30.3674 23.5207 30.2613 23.4745 30.1446C23.4282 30.0279 23.4046 29.9029 23.4048 29.7767V23.3082C23.4116 23.058 23.5118 22.8205 23.6841 22.6461C23.8564 22.4718 24.0872 22.3742 24.3274 22.3742C24.5677 22.3742 24.7985 22.4718 24.9707 22.6461C25.143 22.8205 25.2432 23.058 25.2501 23.3082H25.2524Z" fill="currentColor"/>
</g>
<defs>
<clipPath id="clip0_1_61">
<rect fill="white"/>
</clipPath>
</defs>
</svg>
