<svg viewBox="0 0 35 35" fill="none" xmlns="http://www.w3.org/2000/svg">
<g clip-path="url(#clip0_1_86)">
<mask id="path-1-inside-1_1_86" fill="white">
<path d="M27.6609 20.6419C27.6635 18.9362 27.2201 17.2584 26.3731 15.7688C25.5262 14.2793 24.304 13.028 22.8234 12.1344C21.3428 11.2408 19.6533 10.7349 17.9166 10.6651C16.1799 10.5952 14.4539 10.9638 12.9038 11.7355C11.3537 12.5072 10.0312 13.6563 9.06291 15.0728C8.09461 16.4894 7.51284 18.126 7.37322 19.8261C7.2336 21.5263 7.54081 23.2332 8.26548 24.7836C8.99014 26.334 10.108 27.6761 11.5122 28.6814L9.16987 31.3629L10.0266 32.0833L12.4644 29.2929C13.9959 30.1592 15.7326 30.6152 17.5003 30.6152C19.268 30.6152 21.0047 30.1592 22.5362 29.2929L24.9741 32.0833L25.8307 31.3629L23.4884 28.6814C24.7801 27.7586 25.8312 26.5494 26.5562 25.1523C27.2812 23.7552 27.6601 22.2097 27.6609 20.6419ZM8.46929 20.6419C8.46777 18.589 9.19175 16.5992 10.5178 15.0115C11.8439 13.4238 13.6901 12.3365 15.7416 11.9349C17.7932 11.5333 19.9231 11.8423 21.7685 12.8091C23.6139 13.776 25.0606 15.3409 25.8618 17.2372C26.6631 19.1335 26.7695 21.2438 26.1628 23.2084C25.556 25.1731 24.2738 26.8704 22.5347 28.0112C20.7955 29.1521 18.7069 29.6658 16.625 29.4647C14.5431 29.2637 12.5967 28.3605 11.1174 26.9089C10.2782 26.0862 9.61241 25.1092 9.15804 24.0339C8.70367 22.9586 8.46963 21.806 8.46929 20.6419Z"/>
<path d="M17.5006 12.8872C15.6699 12.885 13.895 13.506 12.4785 14.6442C11.0621 15.7825 10.0918 17.3675 9.73298 19.1292C9.37418 20.8909 9.64911 22.7202 10.5109 24.3052C11.3727 25.8903 12.768 27.133 14.459 27.8215C16.15 28.51 18.032 28.6017 19.7842 28.081C21.5363 27.5603 23.0502 26.4593 24.0678 24.9659C25.0854 23.4724 25.5437 21.6788 25.3645 19.8909C25.1853 18.103 24.3798 16.4314 23.0852 15.1611C21.6043 13.7069 19.5957 12.8891 17.5006 12.8872ZM17.5006 27.2887C15.9316 27.2903 14.4105 26.7579 13.1968 25.7821C11.983 24.8064 11.1516 23.4478 10.8443 21.9379C10.5371 20.428 10.773 18.8603 11.5118 17.5019C12.2506 16.1436 13.4465 15.0787 14.8959 14.4888C16.3452 13.8989 17.9582 13.8205 19.4598 14.267C20.9614 14.7134 22.2588 15.6571 23.1308 16.9372C24.0028 18.2172 24.3954 19.7544 24.2417 21.2867C24.088 22.819 23.3975 24.2516 22.2879 25.3403C21.0185 26.5868 19.2965 27.2877 17.5006 27.2887Z"/>
<path d="M33.3055 19.636V6.56639C33.3616 6.51131 33.4184 6.4613 33.4745 6.4075C34.5241 5.37755 35.4827 3.91461 34.7324 3.17902C33.9822 2.44344 32.492 3.38286 31.4424 4.41407C30.3929 5.44529 29.4349 6.90696 30.1845 7.64255C30.2734 7.72898 30.3793 7.79678 30.4958 7.84183C30.6122 7.88688 30.7368 7.90824 30.8619 7.90462C31.3345 7.86771 31.7885 7.70727 32.1766 7.43997V19.5309H29.9187V13.2132C29.9749 13.1582 30.0316 13.1082 30.0877 13.0543C31.1373 12.0244 32.0959 10.5621 31.3457 9.82588C30.5954 9.08966 29.1046 10.0297 28.0557 11.0603C27.0068 12.0909 26.0475 13.5525 26.7978 14.2888C26.8867 14.3753 26.9925 14.4431 27.109 14.4883C27.2254 14.5334 27.35 14.5549 27.4751 14.5515C27.9483 14.5148 28.4029 14.3546 28.7917 14.0875V19.636C28.4626 19.7499 28.1773 19.961 27.9752 20.2402C27.7731 20.5195 27.664 20.8533 27.6628 21.1958V23.4114C27.6626 23.7332 27.7577 24.048 27.9365 24.3178C28.1152 24.5875 28.37 24.8004 28.6698 24.9307C28.324 25.2648 28.0556 25.6682 27.8831 26.1134C27.7106 26.5585 27.6379 27.035 27.67 27.5102C27.7022 27.9854 27.8384 28.4482 28.0694 28.8671C28.3004 29.286 28.6207 29.651 29.0085 29.9374L27.7944 31.3655L28.6621 32.0745L30.0348 30.459C30.6963 30.6628 31.4055 30.6628 32.0669 30.459L33.4377 32.0745L34.306 31.3655L33.0913 29.9342C33.479 29.6477 33.7991 29.2826 34.03 28.8638C34.2608 28.4449 34.3969 27.9821 34.4291 27.507C34.4612 27.0318 34.3886 26.5555 34.2162 26.1103C34.0438 25.6652 33.7756 25.2618 33.43 24.9275C33.7297 24.797 33.9844 24.584 34.1632 24.3144C34.342 24.0447 34.4374 23.73 34.4376 23.4083V21.1926C34.4361 20.8502 34.3268 20.5166 34.1248 20.2374C33.9227 19.9582 33.6377 19.7471 33.3087 19.6328L33.3055 19.636ZM32.2398 5.1946C32.6864 4.72743 33.2206 4.34915 33.8132 4.08046C33.539 4.66208 33.1533 5.18648 32.6772 5.62507C32.2301 6.09176 31.696 6.46998 31.1038 6.73921C31.378 6.15759 31.7636 5.63319 32.2398 5.1946ZM28.853 11.8415C29.2996 11.3743 29.8338 10.996 30.4264 10.7273C30.1522 11.3089 29.7665 11.8333 29.2904 12.2719C28.8434 12.7386 28.3093 13.1168 27.717 13.3861C27.9912 12.8044 28.3769 12.28 28.853 11.8415ZM31.0464 29.5031C30.524 29.5031 30.0178 29.3253 29.614 29.0001C29.2103 28.6749 28.9339 28.2223 28.832 27.7196C28.7302 27.2168 28.8091 26.695 29.0554 26.2429C29.3016 25.7909 29.7 25.4366 30.1826 25.2405C30.6652 25.0443 31.2022 25.0185 31.7021 25.1673C32.2019 25.3161 32.6337 25.6304 32.9239 26.0567C33.2141 26.4829 33.3447 26.9946 33.2935 27.5048C33.2422 28.0149 33.0124 28.4918 32.643 28.8542C32.22 29.2699 31.6462 29.5037 31.0476 29.5044L31.0464 29.5031ZM29.353 23.9641C29.2033 23.9641 29.0597 23.9057 28.9538 23.8018C28.848 23.6979 28.7885 23.5571 28.7885 23.4101V21.1945C28.7885 21.0476 28.848 20.9067 28.9538 20.8029C29.0597 20.699 29.2033 20.6406 29.353 20.6406H32.7397C32.8894 20.6408 33.0329 20.6992 33.1387 20.803C33.2445 20.9069 33.304 21.0477 33.3042 21.1945V23.4101C33.304 23.557 33.2445 23.6978 33.1387 23.8016C33.0329 23.9055 32.8894 23.9639 32.7397 23.9641H29.353Z"/>
<path d="M22.4111 10.8375C23.2013 11.6129 24.238 12.3333 25.0231 12.3333C25.1482 12.3368 25.2728 12.3153 25.3892 12.2701C25.5056 12.225 25.6115 12.1571 25.7004 12.0706C26.4507 11.3344 25.4921 9.87019 24.4431 8.84214C23.3942 7.8141 21.9028 6.87214 21.1532 7.60773C20.4036 8.34331 21.3628 9.81005 22.4137 10.8394L22.4111 10.8375ZM23.6471 9.62457C24.1227 10.0636 24.508 10.5882 24.7818 11.1698C24.1888 10.9009 23.6542 10.5224 23.2071 10.055C22.7314 9.61663 22.3462 9.09243 22.0724 8.51107C22.6648 8.78033 23.199 9.15878 23.6458 9.62584L23.6471 9.62457Z"/>
<path d="M9.97882 12.3333C10.7639 12.3333 11.8025 11.6104 12.5908 10.8381C13.6404 9.80752 14.599 8.34521 13.8487 7.60963C13.0985 6.87404 11.6077 7.81283 10.5588 8.84341C9.50984 9.87399 8.55058 11.3363 9.30082 12.0719C9.39003 12.1586 9.49636 12.2265 9.61328 12.2715C9.7302 12.3164 9.85525 12.3375 9.98075 12.3333H9.97882ZM11.3548 9.62394C11.8016 9.15742 12.3358 8.77979 12.9282 8.5117C12.654 9.09331 12.2683 9.61772 11.7922 10.0563C11.3453 10.5231 10.8111 10.9014 10.2188 11.1704C10.493 10.5888 10.8787 10.0644 11.3548 9.62584V9.62394Z"/>
<path d="M6.21146 19.636V14.0875C6.5991 14.3538 7.05245 14.5131 7.52423 14.5489C7.64941 14.5527 7.77406 14.5313 7.89053 14.4862C8.007 14.441 8.11285 14.373 8.20158 14.2862C8.95183 13.5506 7.99322 12.0864 6.94365 11.0578C5.89407 10.0291 4.40519 9.09029 3.65366 9.82651C2.90212 10.5627 3.86202 12.0263 4.91224 13.055C4.96901 13.1101 5.02513 13.1607 5.0819 13.2139V19.5353H2.82406V7.44441C3.21171 7.7107 3.66505 7.87007 4.13683 7.90589C4.26201 7.90965 4.38666 7.88829 4.50313 7.84312C4.61961 7.79794 4.72545 7.72991 4.81418 7.64318C5.56636 6.90886 4.6084 5.44528 3.55754 4.4147C2.50668 3.38413 1.0178 2.44407 0.267549 3.17902C-0.482698 3.91398 0.475915 5.37945 1.52613 6.4075C1.5829 6.46257 1.63902 6.51321 1.69579 6.56639V19.6385C1.36697 19.7524 1.08203 19.9632 0.879955 20.2421C0.677878 20.5209 0.568531 20.8543 0.566873 21.1964V23.412C0.566428 23.7339 0.661394 24.0488 0.840196 24.3186C1.019 24.5884 1.27391 24.8013 1.57387 24.9313C1.22802 25.2655 0.959679 25.6689 0.787142 26.114C0.614604 26.5592 0.541931 27.0356 0.574077 27.5108C0.606223 27.986 0.742433 28.4489 0.973417 28.8677C1.2044 29.2866 1.52472 29.6516 1.91254 29.938L0.700409 31.3655L1.56806 32.0745L2.94083 30.459C3.60225 30.6628 4.31145 30.6628 4.97288 30.459L6.34371 32.0745L7.212 31.3655L5.99729 29.9342C6.38492 29.6477 6.70508 29.2826 6.93594 28.8638C7.16679 28.4449 7.30293 27.9821 7.33507 27.507C7.36721 27.0318 7.29461 26.5555 7.12219 26.1103C6.94978 25.6652 6.68161 25.2618 6.33596 24.9275C6.63564 24.797 6.89033 24.584 7.06918 24.3144C7.24802 24.0447 7.34334 23.73 7.34361 23.4083V21.1926C7.34206 20.8502 7.23279 20.5166 7.03073 20.2374C6.82866 19.9582 6.54366 19.7471 6.21469 19.6328L6.21146 19.636ZM4.57421 10.7273C5.167 10.9962 5.70142 11.3747 6.14824 11.8421C6.62397 12.2806 7.0094 12.8048 7.28361 13.3861C6.69082 13.1171 6.1564 12.7387 5.70958 12.2713C5.23365 11.8329 4.84818 11.3087 4.57421 10.7273ZM1.18746 4.08046C1.78139 4.34902 2.31694 4.72754 2.76471 5.19524C3.24044 5.6338 3.62588 6.15795 3.90008 6.7392C3.3073 6.4703 2.77287 6.0918 2.32605 5.62443C1.84896 5.18634 1.46238 4.66212 1.18746 4.08046ZM3.95363 29.5044C3.43127 29.5043 2.92508 29.3266 2.52131 29.0013C2.11755 28.6761 1.84118 28.2236 1.73931 27.7208C1.63744 27.2181 1.71636 26.6962 1.96263 26.2442C2.20889 25.7921 2.60727 25.4379 3.08988 25.2417C3.57249 25.0456 4.10947 25.0197 4.60933 25.1686C5.10919 25.3174 5.541 25.6317 5.83118 26.0579C6.12136 26.4841 6.25197 26.9959 6.20074 27.506C6.14951 28.0162 5.91962 28.4931 5.55024 28.8555C5.34056 29.0612 5.09164 29.2244 4.8177 29.3358C4.54375 29.4471 4.25014 29.5044 3.95363 29.5044ZM2.26025 23.9653C2.11055 23.9653 1.96697 23.907 1.86112 23.8031C1.75526 23.6992 1.69579 23.5583 1.69579 23.4114V21.1958C1.69579 21.0489 1.75526 20.908 1.86112 20.8041C1.96697 20.7002 2.11055 20.6419 2.26025 20.6419H5.647C5.79665 20.6421 5.94013 20.7005 6.04595 20.8043C6.15177 20.9082 6.21129 21.0489 6.21146 21.1958V23.4114C6.21129 23.5583 6.15177 23.6991 6.04595 23.8029C5.94013 23.9067 5.79665 23.9652 5.647 23.9653H2.26025Z"/>
</mask>
<path d="M27.6609 20.6419C27.6635 18.9362 27.2201 17.2584 26.3731 15.7688C25.5262 14.2793 24.304 13.028 22.8234 12.1344C21.3428 11.2408 19.6533 10.7349 17.9166 10.6651C16.1799 10.5952 14.4539 10.9638 12.9038 11.7355C11.3537 12.5072 10.0312 13.6563 9.06291 15.0728C8.09461 16.4894 7.51284 18.126 7.37322 19.8261C7.2336 21.5263 7.54081 23.2332 8.26548 24.7836C8.99014 26.334 10.108 27.6761 11.5122 28.6814L9.16987 31.3629L10.0266 32.0833L12.4644 29.2929C13.9959 30.1592 15.7326 30.6152 17.5003 30.6152C19.268 30.6152 21.0047 30.1592 22.5362 29.2929L24.9741 32.0833L25.8307 31.3629L23.4884 28.6814C24.7801 27.7586 25.8312 26.5494 26.5562 25.1523C27.2812 23.7552 27.6601 22.2097 27.6609 20.6419ZM8.46929 20.6419C8.46777 18.589 9.19175 16.5992 10.5178 15.0115C11.8439 13.4238 13.6901 12.3365 15.7416 11.9349C17.7932 11.5333 19.9231 11.8423 21.7685 12.8091C23.6139 13.776 25.0606 15.3409 25.8618 17.2372C26.6631 19.1335 26.7695 21.2438 26.1628 23.2084C25.556 25.1731 24.2738 26.8704 22.5347 28.0112C20.7955 29.1521 18.7069 29.6658 16.625 29.4647C14.5431 29.2637 12.5967 28.3605 11.1174 26.9089C10.2782 26.0862 9.61241 25.1092 9.15804 24.0339C8.70367 22.9586 8.46963 21.806 8.46929 20.6419Z" fill="currentColor"/>
<path d="M17.5006 12.8872C15.6699 12.885 13.895 13.506 12.4785 14.6442C11.0621 15.7825 10.0918 17.3675 9.73298 19.1292C9.37418 20.8909 9.64911 22.7202 10.5109 24.3052C11.3727 25.8903 12.768 27.133 14.459 27.8215C16.15 28.51 18.032 28.6017 19.7842 28.081C21.5363 27.5603 23.0502 26.4593 24.0678 24.9659C25.0854 23.4724 25.5437 21.6788 25.3645 19.8909C25.1853 18.103 24.3798 16.4314 23.0852 15.1611C21.6043 13.7069 19.5957 12.8891 17.5006 12.8872ZM17.5006 27.2887C15.9316 27.2903 14.4105 26.7579 13.1968 25.7821C11.983 24.8064 11.1516 23.4478 10.8443 21.9379C10.5371 20.428 10.773 18.8603 11.5118 17.5019C12.2506 16.1436 13.4465 15.0787 14.8959 14.4888C16.3452 13.8989 17.9582 13.8205 19.4598 14.267C20.9614 14.7134 22.2588 15.6571 23.1308 16.9372C24.0028 18.2172 24.3954 19.7544 24.2417 21.2867C24.088 22.819 23.3975 24.2516 22.2879 25.3403C21.0185 26.5868 19.2965 27.2877 17.5006 27.2887Z" fill="currentColor"/>
<path d="M33.3055 19.636V6.56639C33.3616 6.51131 33.4184 6.4613 33.4745 6.4075C34.5241 5.37755 35.4827 3.91461 34.7324 3.17902C33.9822 2.44344 32.492 3.38286 31.4424 4.41407C30.3929 5.44529 29.4349 6.90696 30.1845 7.64255C30.2734 7.72898 30.3793 7.79678 30.4958 7.84183C30.6122 7.88688 30.7368 7.90824 30.8619 7.90462C31.3345 7.86771 31.7885 7.70727 32.1766 7.43997V19.5309H29.9187V13.2132C29.9749 13.1582 30.0316 13.1082 30.0877 13.0543C31.1373 12.0244 32.0959 10.5621 31.3457 9.82588C30.5954 9.08966 29.1046 10.0297 28.0557 11.0603C27.0068 12.0909 26.0475 13.5525 26.7978 14.2888C26.8867 14.3753 26.9925 14.4431 27.109 14.4883C27.2254 14.5334 27.35 14.5549 27.4751 14.5515C27.9483 14.5148 28.4029 14.3546 28.7917 14.0875V19.636C28.4626 19.7499 28.1773 19.961 27.9752 20.2402C27.7731 20.5195 27.664 20.8533 27.6628 21.1958V23.4114C27.6626 23.7332 27.7577 24.048 27.9365 24.3178C28.1152 24.5875 28.37 24.8004 28.6698 24.9307C28.324 25.2648 28.0556 25.6682 27.8831 26.1134C27.7106 26.5585 27.6379 27.035 27.67 27.5102C27.7022 27.9854 27.8384 28.4482 28.0694 28.8671C28.3004 29.286 28.6207 29.651 29.0085 29.9374L27.7944 31.3655L28.6621 32.0745L30.0348 30.459C30.6963 30.6628 31.4055 30.6628 32.0669 30.459L33.4377 32.0745L34.306 31.3655L33.0913 29.9342C33.479 29.6477 33.7991 29.2826 34.03 28.8638C34.2608 28.4449 34.3969 27.9821 34.4291 27.507C34.4612 27.0318 34.3886 26.5555 34.2162 26.1103C34.0438 25.6652 33.7756 25.2618 33.43 24.9275C33.7297 24.797 33.9844 24.584 34.1632 24.3144C34.342 24.0447 34.4374 23.73 34.4376 23.4083V21.1926C34.4361 20.8502 34.3268 20.5166 34.1248 20.2374C33.9227 19.9582 33.6377 19.7471 33.3087 19.6328L33.3055 19.636ZM32.2398 5.1946C32.6864 4.72743 33.2206 4.34915 33.8132 4.08046C33.539 4.66208 33.1533 5.18648 32.6772 5.62507C32.2301 6.09176 31.696 6.46998 31.1038 6.73921C31.378 6.15759 31.7636 5.63319 32.2398 5.1946ZM28.853 11.8415C29.2996 11.3743 29.8338 10.996 30.4264 10.7273C30.1522 11.3089 29.7665 11.8333 29.2904 12.2719C28.8434 12.7386 28.3093 13.1168 27.717 13.3861C27.9912 12.8044 28.3769 12.28 28.853 11.8415ZM31.0464 29.5031C30.524 29.5031 30.0178 29.3253 29.614 29.0001C29.2103 28.6749 28.9339 28.2223 28.832 27.7196C28.7302 27.2168 28.8091 26.695 29.0554 26.2429C29.3016 25.7909 29.7 25.4366 30.1826 25.2405C30.6652 25.0443 31.2022 25.0185 31.7021 25.1673C32.2019 25.3161 32.6337 25.6304 32.9239 26.0567C33.2141 26.4829 33.3447 26.9946 33.2935 27.5048C33.2422 28.0149 33.0124 28.4918 32.643 28.8542C32.22 29.2699 31.6462 29.5037 31.0476 29.5044L31.0464 29.5031ZM29.353 23.9641C29.2033 23.9641 29.0597 23.9057 28.9538 23.8018C28.848 23.6979 28.7885 23.5571 28.7885 23.4101V21.1945C28.7885 21.0476 28.848 20.9067 28.9538 20.8029C29.0597 20.699 29.2033 20.6406 29.353 20.6406H32.7397C32.8894 20.6408 33.0329 20.6992 33.1387 20.803C33.2445 20.9069 33.304 21.0477 33.3042 21.1945V23.4101C33.304 23.557 33.2445 23.6978 33.1387 23.8016C33.0329 23.9055 32.8894 23.9639 32.7397 23.9641H29.353Z" fill="currentColor"/>
<path d="M22.4111 10.8375C23.2013 11.6129 24.238 12.3333 25.0231 12.3333C25.1482 12.3368 25.2728 12.3153 25.3892 12.2701C25.5056 12.225 25.6115 12.1571 25.7004 12.0706C26.4507 11.3344 25.4921 9.87019 24.4431 8.84214C23.3942 7.8141 21.9028 6.87214 21.1532 7.60773C20.4036 8.34331 21.3628 9.81005 22.4137 10.8394L22.4111 10.8375ZM23.6471 9.62457C24.1227 10.0636 24.508 10.5882 24.7818 11.1698C24.1888 10.9009 23.6542 10.5224 23.2071 10.055C22.7314 9.61663 22.3462 9.09243 22.0724 8.51107C22.6648 8.78033 23.199 9.15878 23.6458 9.62584L23.6471 9.62457Z" fill="currentColor"/>
<path d="M9.97882 12.3333C10.7639 12.3333 11.8025 11.6104 12.5908 10.8381C13.6404 9.80752 14.599 8.34521 13.8487 7.60963C13.0985 6.87404 11.6077 7.81283 10.5588 8.84341C9.50984 9.87399 8.55058 11.3363 9.30082 12.0719C9.39003 12.1586 9.49636 12.2265 9.61328 12.2715C9.7302 12.3164 9.85525 12.3375 9.98075 12.3333H9.97882ZM11.3548 9.62394C11.8016 9.15742 12.3358 8.77979 12.9282 8.5117C12.654 9.09331 12.2683 9.61772 11.7922 10.0563C11.3453 10.5231 10.8111 10.9014 10.2188 11.1704C10.493 10.5888 10.8787 10.0644 11.3548 9.62584V9.62394Z" fill="currentColor"/>
<path d="M6.21146 19.636V14.0875C6.5991 14.3538 7.05245 14.5131 7.52423 14.5489C7.64941 14.5527 7.77406 14.5313 7.89053 14.4862C8.007 14.441 8.11285 14.373 8.20158 14.2862C8.95183 13.5506 7.99322 12.0864 6.94365 11.0578C5.89407 10.0291 4.40519 9.09029 3.65366 9.82651C2.90212 10.5627 3.86202 12.0263 4.91224 13.055C4.96901 13.1101 5.02513 13.1607 5.0819 13.2139V19.5353H2.82406V7.44441C3.21171 7.7107 3.66505 7.87007 4.13683 7.90589C4.26201 7.90965 4.38666 7.88829 4.50313 7.84312C4.61961 7.79794 4.72545 7.72991 4.81418 7.64318C5.56636 6.90886 4.6084 5.44528 3.55754 4.4147C2.50668 3.38413 1.0178 2.44407 0.267549 3.17902C-0.482698 3.91398 0.475915 5.37945 1.52613 6.4075C1.5829 6.46257 1.63902 6.51321 1.69579 6.56639V19.6385C1.36697 19.7524 1.08203 19.9632 0.879955 20.2421C0.677878 20.5209 0.568531 20.8543 0.566873 21.1964V23.412C0.566428 23.7339 0.661394 24.0488 0.840196 24.3186C1.019 24.5884 1.27391 24.8013 1.57387 24.9313C1.22802 25.2655 0.959679 25.6689 0.787142 26.114C0.614604 26.5592 0.541931 27.0356 0.574077 27.5108C0.606223 27.986 0.742433 28.4489 0.973417 28.8677C1.2044 29.2866 1.52472 29.6516 1.91254 29.938L0.700409 31.3655L1.56806 32.0745L2.94083 30.459C3.60225 30.6628 4.31145 30.6628 4.97288 30.459L6.34371 32.0745L7.212 31.3655L5.99729 29.9342C6.38492 29.6477 6.70508 29.2826 6.93594 28.8638C7.16679 28.4449 7.30293 27.9821 7.33507 27.507C7.36721 27.0318 7.29461 26.5555 7.12219 26.1103C6.94978 25.6652 6.68161 25.2618 6.33596 24.9275C6.63564 24.797 6.89033 24.584 7.06918 24.3144C7.24802 24.0447 7.34334 23.73 7.34361 23.4083V21.1926C7.34206 20.8502 7.23279 20.5166 7.03073 20.2374C6.82866 19.9582 6.54366 19.7471 6.21469 19.6328L6.21146 19.636ZM4.57421 10.7273C5.167 10.9962 5.70142 11.3747 6.14824 11.8421C6.62397 12.2806 7.0094 12.8048 7.28361 13.3861C6.69082 13.1171 6.1564 12.7387 5.70958 12.2713C5.23365 11.8329 4.84818 11.3087 4.57421 10.7273ZM1.18746 4.08046C1.78139 4.34902 2.31694 4.72754 2.76471 5.19524C3.24044 5.6338 3.62588 6.15795 3.90008 6.7392C3.3073 6.4703 2.77287 6.0918 2.32605 5.62443C1.84896 5.18634 1.46238 4.66212 1.18746 4.08046ZM3.95363 29.5044C3.43127 29.5043 2.92508 29.3266 2.52131 29.0013C2.11755 28.6761 1.84118 28.2236 1.73931 27.7208C1.63744 27.2181 1.71636 26.6962 1.96263 26.2442C2.20889 25.7921 2.60727 25.4379 3.08988 25.2417C3.57249 25.0456 4.10947 25.0197 4.60933 25.1686C5.10919 25.3174 5.541 25.6317 5.83118 26.0579C6.12136 26.4841 6.25197 26.9959 6.20074 27.506C6.14951 28.0162 5.91962 28.4931 5.55024 28.8555C5.34056 29.0612 5.09164 29.2244 4.8177 29.3358C4.54375 29.4471 4.25014 29.5044 3.95363 29.5044ZM2.26025 23.9653C2.11055 23.9653 1.96697 23.907 1.86112 23.8031C1.75526 23.6992 1.69579 23.5583 1.69579 23.4114V21.1958C1.69579 21.0489 1.75526 20.908 1.86112 20.8041C1.96697 20.7002 2.11055 20.6419 2.26025 20.6419H5.647C5.79665 20.6421 5.94013 20.7005 6.04595 20.8043C6.15177 20.9082 6.21129 21.0489 6.21146 21.1958V23.4114C6.21129 23.5583 6.15177 23.6991 6.04595 23.8029C5.94013 23.9067 5.79665 23.9652 5.647 23.9653H2.26025Z" fill="currentColor"/>
<path d="M27.6609 20.6419C27.6635 18.9362 27.2201 17.2584 26.3731 15.7688C25.5262 14.2793 24.304 13.028 22.8234 12.1344C21.3428 11.2408 19.6533 10.7349 17.9166 10.6651C16.1799 10.5952 14.4539 10.9638 12.9038 11.7355C11.3537 12.5072 10.0312 13.6563 9.06291 15.0728C8.09461 16.4894 7.51284 18.126 7.37322 19.8261C7.2336 21.5263 7.54081 23.2332 8.26548 24.7836C8.99014 26.334 10.108 27.6761 11.5122 28.6814L9.16987 31.3629L10.0266 32.0833L12.4644 29.2929C13.9959 30.1592 15.7326 30.6152 17.5003 30.6152C19.268 30.6152 21.0047 30.1592 22.5362 29.2929L24.9741 32.0833L25.8307 31.3629L23.4884 28.6814C24.7801 27.7586 25.8312 26.5494 26.5562 25.1523C27.2812 23.7552 27.6601 22.2097 27.6609 20.6419ZM8.46929 20.6419C8.46777 18.589 9.19175 16.5992 10.5178 15.0115C11.8439 13.4238 13.6901 12.3365 15.7416 11.9349C17.7932 11.5333 19.9231 11.8423 21.7685 12.8091C23.6139 13.776 25.0606 15.3409 25.8618 17.2372C26.6631 19.1335 26.7695 21.2438 26.1628 23.2084C25.556 25.1731 24.2738 26.8704 22.5347 28.0112C20.7955 29.1521 18.7069 29.6658 16.625 29.4647C14.5431 29.2637 12.5967 28.3605 11.1174 26.9089C10.2782 26.0862 9.61241 25.1092 9.15804 24.0339C8.70367 22.9586 8.46963 21.806 8.46929 20.6419Z" stroke="currentColor" stroke-width="2" mask="url(#path-1-inside-1_1_86)"/>
<path d="M17.5006 12.8872C15.6699 12.885 13.895 13.506 12.4785 14.6442C11.0621 15.7825 10.0918 17.3675 9.73298 19.1292C9.37418 20.8909 9.64911 22.7202 10.5109 24.3052C11.3727 25.8903 12.768 27.133 14.459 27.8215C16.15 28.51 18.032 28.6017 19.7842 28.081C21.5363 27.5603 23.0502 26.4593 24.0678 24.9659C25.0854 23.4724 25.5437 21.6788 25.3645 19.8909C25.1853 18.103 24.3798 16.4314 23.0852 15.1611C21.6043 13.7069 19.5957 12.8891 17.5006 12.8872ZM17.5006 27.2887C15.9316 27.2903 14.4105 26.7579 13.1968 25.7821C11.983 24.8064 11.1516 23.4478 10.8443 21.9379C10.5371 20.428 10.773 18.8603 11.5118 17.5019C12.2506 16.1436 13.4465 15.0787 14.8959 14.4888C16.3452 13.8989 17.9582 13.8205 19.4598 14.267C20.9614 14.7134 22.2588 15.6571 23.1308 16.9372C24.0028 18.2172 24.3954 19.7544 24.2417 21.2867C24.088 22.819 23.3975 24.2516 22.2879 25.3403C21.0185 26.5868 19.2965 27.2877 17.5006 27.2887Z" stroke="currentColor" stroke-width="2" mask="url(#path-1-inside-1_1_86)"/>
<path d="M33.3055 19.636V6.56639C33.3616 6.51131 33.4184 6.4613 33.4745 6.4075C34.5241 5.37755 35.4827 3.91461 34.7324 3.17902C33.9822 2.44344 32.492 3.38286 31.4424 4.41407C30.3929 5.44529 29.4349 6.90696 30.1845 7.64255C30.2734 7.72898 30.3793 7.79678 30.4958 7.84183C30.6122 7.88688 30.7368 7.90824 30.8619 7.90462C31.3345 7.86771 31.7885 7.70727 32.1766 7.43997V19.5309H29.9187V13.2132C29.9749 13.1582 30.0316 13.1082 30.0877 13.0543C31.1373 12.0244 32.0959 10.5621 31.3457 9.82588C30.5954 9.08966 29.1046 10.0297 28.0557 11.0603C27.0068 12.0909 26.0475 13.5525 26.7978 14.2888C26.8867 14.3753 26.9925 14.4431 27.109 14.4883C27.2254 14.5334 27.35 14.5549 27.4751 14.5515C27.9483 14.5148 28.4029 14.3546 28.7917 14.0875V19.636C28.4626 19.7499 28.1773 19.961 27.9752 20.2402C27.7731 20.5195 27.664 20.8533 27.6628 21.1958V23.4114C27.6626 23.7332 27.7577 24.048 27.9365 24.3178C28.1152 24.5875 28.37 24.8004 28.6698 24.9307C28.324 25.2648 28.0556 25.6682 27.8831 26.1134C27.7106 26.5585 27.6379 27.035 27.67 27.5102C27.7022 27.9854 27.8384 28.4482 28.0694 28.8671C28.3004 29.286 28.6207 29.651 29.0085 29.9374L27.7944 31.3655L28.6621 32.0745L30.0348 30.459C30.6963 30.6628 31.4055 30.6628 32.0669 30.459L33.4377 32.0745L34.306 31.3655L33.0913 29.9342C33.479 29.6477 33.7991 29.2826 34.03 28.8638C34.2608 28.4449 34.3969 27.9821 34.4291 27.507C34.4612 27.0318 34.3886 26.5555 34.2162 26.1103C34.0438 25.6652 33.7756 25.2618 33.43 24.9275C33.7297 24.797 33.9844 24.584 34.1632 24.3144C34.342 24.0447 34.4374 23.73 34.4376 23.4083V21.1926C34.4361 20.8502 34.3268 20.5166 34.1248 20.2374C33.9227 19.9582 33.6377 19.7471 33.3087 19.6328L33.3055 19.636ZM32.2398 5.1946C32.6864 4.72743 33.2206 4.34915 33.8132 4.08046C33.539 4.66208 33.1533 5.18648 32.6772 5.62507C32.2301 6.09176 31.696 6.46998 31.1038 6.73921C31.378 6.15759 31.7636 5.63319 32.2398 5.1946ZM28.853 11.8415C29.2996 11.3743 29.8338 10.996 30.4264 10.7273C30.1522 11.3089 29.7665 11.8333 29.2904 12.2719C28.8434 12.7386 28.3093 13.1168 27.717 13.3861C27.9912 12.8044 28.3769 12.28 28.853 11.8415ZM31.0464 29.5031C30.524 29.5031 30.0178 29.3253 29.614 29.0001C29.2103 28.6749 28.9339 28.2223 28.832 27.7196C28.7302 27.2168 28.8091 26.695 29.0554 26.2429C29.3016 25.7909 29.7 25.4366 30.1826 25.2405C30.6652 25.0443 31.2022 25.0185 31.7021 25.1673C32.2019 25.3161 32.6337 25.6304 32.9239 26.0567C33.2141 26.4829 33.3447 26.9946 33.2935 27.5048C33.2422 28.0149 33.0124 28.4918 32.643 28.8542C32.22 29.2699 31.6462 29.5037 31.0476 29.5044L31.0464 29.5031ZM29.353 23.9641C29.2033 23.9641 29.0597 23.9057 28.9538 23.8018C28.848 23.6979 28.7885 23.5571 28.7885 23.4101V21.1945C28.7885 21.0476 28.848 20.9067 28.9538 20.8029C29.0597 20.699 29.2033 20.6406 29.353 20.6406H32.7397C32.8894 20.6408 33.0329 20.6992 33.1387 20.803C33.2445 20.9069 33.304 21.0477 33.3042 21.1945V23.4101C33.304 23.557 33.2445 23.6978 33.1387 23.8016C33.0329 23.9055 32.8894 23.9639 32.7397 23.9641H29.353Z" stroke="currentColor" stroke-width="2" mask="url(#path-1-inside-1_1_86)"/>
<path d="M22.4111 10.8375C23.2013 11.6129 24.238 12.3333 25.0231 12.3333C25.1482 12.3368 25.2728 12.3153 25.3892 12.2701C25.5056 12.225 25.6115 12.1571 25.7004 12.0706C26.4507 11.3344 25.4921 9.87019 24.4431 8.84214C23.3942 7.8141 21.9028 6.87214 21.1532 7.60773C20.4036 8.34331 21.3628 9.81005 22.4137 10.8394L22.4111 10.8375ZM23.6471 9.62457C24.1227 10.0636 24.508 10.5882 24.7818 11.1698C24.1888 10.9009 23.6542 10.5224 23.2071 10.055C22.7314 9.61663 22.3462 9.09243 22.0724 8.51107C22.6648 8.78033 23.199 9.15878 23.6458 9.62584L23.6471 9.62457Z" stroke="currentColor" stroke-width="2" mask="url(#path-1-inside-1_1_86)"/>
<path d="M9.97882 12.3333C10.7639 12.3333 11.8025 11.6104 12.5908 10.8381C13.6404 9.80752 14.599 8.34521 13.8487 7.60963C13.0985 6.87404 11.6077 7.81283 10.5588 8.84341C9.50984 9.87399 8.55058 11.3363 9.30082 12.0719C9.39003 12.1586 9.49636 12.2265 9.61328 12.2715C9.7302 12.3164 9.85525 12.3375 9.98075 12.3333H9.97882ZM11.3548 9.62394C11.8016 9.15742 12.3358 8.77979 12.9282 8.5117C12.654 9.09331 12.2683 9.61772 11.7922 10.0563C11.3453 10.5231 10.8111 10.9014 10.2188 11.1704C10.493 10.5888 10.8787 10.0644 11.3548 9.62584V9.62394Z" stroke="currentColor" stroke-width="2" mask="url(#path-1-inside-1_1_86)"/>
<path d="M6.21146 19.636V14.0875C6.5991 14.3538 7.05245 14.5131 7.52423 14.5489C7.64941 14.5527 7.77406 14.5313 7.89053 14.4862C8.007 14.441 8.11285 14.373 8.20158 14.2862C8.95183 13.5506 7.99322 12.0864 6.94365 11.0578C5.89407 10.0291 4.40519 9.09029 3.65366 9.82651C2.90212 10.5627 3.86202 12.0263 4.91224 13.055C4.96901 13.1101 5.02513 13.1607 5.0819 13.2139V19.5353H2.82406V7.44441C3.21171 7.7107 3.66505 7.87007 4.13683 7.90589C4.26201 7.90965 4.38666 7.88829 4.50313 7.84312C4.61961 7.79794 4.72545 7.72991 4.81418 7.64318C5.56636 6.90886 4.6084 5.44528 3.55754 4.4147C2.50668 3.38413 1.0178 2.44407 0.267549 3.17902C-0.482698 3.91398 0.475915 5.37945 1.52613 6.4075C1.5829 6.46257 1.63902 6.51321 1.69579 6.56639V19.6385C1.36697 19.7524 1.08203 19.9632 0.879955 20.2421C0.677878 20.5209 0.568531 20.8543 0.566873 21.1964V23.412C0.566428 23.7339 0.661394 24.0488 0.840196 24.3186C1.019 24.5884 1.27391 24.8013 1.57387 24.9313C1.22802 25.2655 0.959679 25.6689 0.787142 26.114C0.614604 26.5592 0.541931 27.0356 0.574077 27.5108C0.606223 27.986 0.742433 28.4489 0.973417 28.8677C1.2044 29.2866 1.52472 29.6516 1.91254 29.938L0.700409 31.3655L1.56806 32.0745L2.94083 30.459C3.60225 30.6628 4.31145 30.6628 4.97288 30.459L6.34371 32.0745L7.212 31.3655L5.99729 29.9342C6.38492 29.6477 6.70508 29.2826 6.93594 28.8638C7.16679 28.4449 7.30293 27.9821 7.33507 27.507C7.36721 27.0318 7.29461 26.5555 7.12219 26.1103C6.94978 25.6652 6.68161 25.2618 6.33596 24.9275C6.63564 24.797 6.89033 24.584 7.06918 24.3144C7.24802 24.0447 7.34334 23.73 7.34361 23.4083V21.1926C7.34206 20.8502 7.23279 20.5166 7.03073 20.2374C6.82866 19.9582 6.54366 19.7471 6.21469 19.6328L6.21146 19.636ZM4.57421 10.7273C5.167 10.9962 5.70142 11.3747 6.14824 11.8421C6.62397 12.2806 7.0094 12.8048 7.28361 13.3861C6.69082 13.1171 6.1564 12.7387 5.70958 12.2713C5.23365 11.8329 4.84818 11.3087 4.57421 10.7273ZM1.18746 4.08046C1.78139 4.34902 2.31694 4.72754 2.76471 5.19524C3.24044 5.6338 3.62588 6.15795 3.90008 6.7392C3.3073 6.4703 2.77287 6.0918 2.32605 5.62443C1.84896 5.18634 1.46238 4.66212 1.18746 4.08046ZM3.95363 29.5044C3.43127 29.5043 2.92508 29.3266 2.52131 29.0013C2.11755 28.6761 1.84118 28.2236 1.73931 27.7208C1.63744 27.2181 1.71636 26.6962 1.96263 26.2442C2.20889 25.7921 2.60727 25.4379 3.08988 25.2417C3.57249 25.0456 4.10947 25.0197 4.60933 25.1686C5.10919 25.3174 5.541 25.6317 5.83118 26.0579C6.12136 26.4841 6.25197 26.9959 6.20074 27.506C6.14951 28.0162 5.91962 28.4931 5.55024 28.8555C5.34056 29.0612 5.09164 29.2244 4.8177 29.3358C4.54375 29.4471 4.25014 29.5044 3.95363 29.5044ZM2.26025 23.9653C2.11055 23.9653 1.96697 23.907 1.86112 23.8031C1.75526 23.6992 1.69579 23.5583 1.69579 23.4114V21.1958C1.69579 21.0489 1.75526 20.908 1.86112 20.8041C1.96697 20.7002 2.11055 20.6419 2.26025 20.6419H5.647C5.79665 20.6421 5.94013 20.7005 6.04595 20.8043C6.15177 20.9082 6.21129 21.0489 6.21146 21.1958V23.4114C6.21129 23.5583 6.15177 23.6991 6.04595 23.8029C5.94013 23.9067 5.79665 23.9652 5.647 23.9653H2.26025Z" stroke="currentColor" stroke-width="2" mask="url(#path-1-inside-1_1_86)"/>
</g>
<defs>
<clipPath id="clip0_1_86">
<rect fill="white"/>
</clipPath>
</defs>
</svg>
