<svg viewBox="0 0 35 35" fill="none" xmlns="http://www.w3.org/2000/svg">
<path fill-rule="evenodd" clip-rule="evenodd" d="M5.41667 3C4.082 3 3 4.08207 3 5.41667V29.5833C3 30.9179 4.082 32 5.41667 32H29.5833C30.918 32 32 30.9179 32 29.5833V5.41667C32 4.08207 30.918 3 29.5833 3H5.41667ZM6.625 5.41667C5.95763 5.41667 5.41667 5.95711 5.41667 6.625V28.375C5.41667 29.0429 5.95763 29.5833 6.625 29.5833H28.375C29.0424 29.5833 29.5833 29.0429 29.5833 28.375V6.625C29.5833 5.95711 29.0424 5.41667 28.375 5.41667H6.625Z" fill="currentColor"/>
<path fill-rule="evenodd" clip-rule="evenodd" d="M24.75 6.625V28.1493H20.6445V25.7792H20.5793C19.3647 27.5101 17.8574 28.375 16.0571 28.375C14.4519 28.375 13.0831 27.6817 11.9496 26.2952C10.8163 24.9086 10.25 23.2156 10.25 21.2162C10.25 19.2171 10.8355 17.5108 12.0066 16.0973C13.1776 14.6841 14.5821 13.9769 16.2196 13.9769C17.1523 13.9769 17.9384 14.1463 18.5783 14.485C19.2182 14.8235 19.8741 15.3746 20.5466 16.1375V6.625H24.75ZM15.8541 18.6249C16.4827 17.96 17.1573 17.6274 17.8774 17.6274C18.7692 17.6274 19.5211 17.9628 20.1328 18.6334C20.7442 19.3043 21.0502 20.0867 21.0502 20.9809C21.0502 22.0131 20.7361 22.8758 20.1071 23.5694C19.4785 24.263 18.6949 24.6098 17.7575 24.6098C16.9685 24.6098 16.2969 24.289 15.7423 23.6468C15.1877 23.0048 14.9107 22.2309 14.9107 21.3249C14.9107 20.19 15.2251 19.2901 15.8541 18.6249Z" fill="currentColor"/>
</svg>
