<svg viewBox="0 0 35 35" fill="none" xmlns="http://www.w3.org/2000/svg">
<path d="M11.6668 10.2083V21.875C11.6668 23.4858 12.9727 24.7917 14.5835 24.7917H23.3335M11.6668 10.2083V7.29167C11.6668 5.68084 12.9727 4.375 14.5835 4.375H21.2711C21.6579 4.375 22.0288 4.52865 22.3023 4.80214L28.7397 11.2395C29.0132 11.513 29.1668 11.884 29.1668 12.2707V21.875C29.1668 23.4858 27.861 24.7917 26.2502 24.7917H23.3335M11.6668 10.2083H7.8335C6.72893 10.2083 5.8335 11.1038 5.8335 12.2083V27.7083C5.8335 29.3192 7.13933 30.625 8.75016 30.625H21.3335C22.4381 30.625 23.3335 29.7296 23.3335 28.625V24.7917" stroke="currentColor" stroke-width="2" stroke-linecap="round" stroke-linejoin="round"/>
</svg>
