<svg viewBox="0 0 35 35" fill="none" xmlns="http://www.w3.org/2000/svg">
<path d="M9.11331 30.0769C9.77389 33.3494 12.3778 35 16.8504 35C17.2199 35 17.6008 34.9857 17.9987 34.9651C23.177 35.2626 26.1636 33.619 26.8844 30.0633C27.3348 27.6051 26.3968 25.9545 25.3161 24.3465C24.851 23.6595 24.633 22.8731 24.7006 22.1365C24.7457 21.6134 24.9034 21.3501 25.121 20.9958C25.4905 20.3939 25.9464 19.6427 25.9312 17.709C25.93 17.6614 25.925 17.6139 25.9161 17.567C25.8108 17.0997 25.5407 15.8673 24.1826 15.7254C24.0819 15.714 23.9798 15.7227 23.8828 15.7509C23.7859 15.7792 23.6963 15.8263 23.6199 15.8893C23.5423 15.9509 23.4785 16.0265 23.4321 16.1116C23.3858 16.1968 23.3578 16.2897 23.3499 16.3852C23.2974 17.1221 22.952 17.6755 22.2615 18.1351C21.7361 18.4752 21.0456 18.6931 20.2727 18.7723H20.2424V8.28683L21.5259 6.33391C21.62 6.18225 21.6496 6.0025 21.6086 5.83104L22.9368 5.51229C23.13 5.46531 23.2956 5.34779 23.397 5.1856C23.4985 5.0234 23.5275 4.82982 23.4777 4.64743C23.4279 4.46504 23.3034 4.30878 23.1316 4.21303C22.9598 4.11729 22.7547 4.08989 22.5615 4.13688L21.1808 4.46957L20.8206 3.37873L22.1336 3.05998C22.3252 3.01174 22.4889 2.89399 22.589 2.73237C22.689 2.57076 22.7174 2.37838 22.6679 2.19712C22.6184 2.01586 22.495 1.8604 22.3246 1.7646C22.1543 1.66879 21.9507 1.64041 21.7583 1.68561L20.3698 2.01866L20.2128 1.49555C20.2054 1.48126 20.1981 1.47428 20.1981 1.46731C20.1811 1.41905 20.1561 1.37362 20.1242 1.33269C20.1022 1.29568 20.0775 1.26014 20.0503 1.22633C20.0166 1.1944 19.9794 1.16589 19.9394 1.14124C19.9025 1.11131 19.8622 1.08524 19.8194 1.06347C19.7796 1.04427 19.7364 1.03243 19.6919 1.0286C19.6412 1.01155 19.588 1.0019 19.5341 1C19.5264 1.00697 19.519 1 19.5042 1H16.4983C16.2995 1.00055 16.109 1.07535 15.9684 1.20806C15.8278 1.34077 15.7486 1.5206 15.748 1.70828V17.7512C15.1971 17.3791 14.7456 16.8911 14.4291 16.3259C14.1125 15.7606 13.9397 15.1335 13.9243 14.4943L13.8874 13.0209C13.8832 12.8989 13.8467 12.7798 13.7811 12.6746C13.7155 12.5694 13.623 12.4814 13.512 12.4187C13.3996 12.3595 13.273 12.3284 13.1442 12.3284C13.0155 12.3284 12.8889 12.3595 12.7765 12.4187C12.6261 12.4968 11.5155 13.1698 11.4032 13.2476C9.85148 14.2324 9.24188 16.1097 9.92537 17.8094C10.511 19.2828 11.0138 20.5993 11.2554 21.8401C11.4206 22.6617 11.2325 23.5189 10.7382 24.2628C9.61946 25.9137 8.65925 27.5925 9.11663 30.0786L9.11331 30.0769ZM17.2487 8.79006H18.7498V22.2488H17.2487V8.79006ZM18.9449 2.41447L20.0706 5.85719L19.0797 7.37315H17.2487V2.41447H18.9449ZM12.7251 21.5831C12.4624 20.2373 11.937 18.856 11.3212 17.3187C10.886 16.2349 11.2613 15.052 12.2518 14.4214C12.2744 14.4071 12.3346 14.3719 12.417 14.3221L12.4247 14.5418C12.4469 15.407 12.6831 16.2554 13.1143 17.0193C13.5456 17.7831 14.16 18.4412 14.9086 18.9411C15.1777 19.1161 15.4584 19.2746 15.7491 19.4157V22.9571C15.7494 23.1448 15.8283 23.3247 15.9687 23.4575C16.1091 23.5904 16.2995 23.6653 16.4983 23.6661H19.4998C19.6986 23.6655 19.8891 23.5907 20.0297 23.458C20.1703 23.3253 20.2496 23.1455 20.2501 22.9578V20.1874C20.3104 20.1805 20.3702 20.1874 20.4301 20.1805C21.4583 20.0811 22.3882 19.7766 23.1319 19.295C23.7101 18.9114 24.1523 18.4521 24.4453 17.928C24.4302 19.3163 24.1375 19.7909 23.8298 20.2938C23.5749 20.7123 23.2823 21.1866 23.2146 22.0291C23.1245 23.0635 23.4249 24.1616 24.0552 25.1109C25.1883 26.797 25.7362 28.0507 25.4136 29.8216C24.8506 32.5983 22.434 33.8237 18.0515 33.5618H17.954C13.549 33.8237 11.1475 32.5986 10.5922 29.8356C10.2619 28.0291 10.8098 26.804 12.0028 25.0398C12.7007 23.9772 12.956 22.7587 12.7236 21.5831H12.7251Z" fill="currentColor"/>
<path d="M15.7177 27.9168H20.2198C20.4189 27.9168 20.6097 27.8422 20.7504 27.7094C20.8912 27.5765 20.9702 27.3964 20.9702 27.2085C20.9702 27.0207 20.8912 26.8405 20.7504 26.7077C20.6097 26.5749 20.4189 26.5003 20.2198 26.5003H15.7177C15.5187 26.5003 15.3278 26.5749 15.1871 26.7077C15.0464 26.8405 14.9673 27.0207 14.9673 27.2085C14.9673 27.3964 15.0464 27.5765 15.1871 27.7094C15.3278 27.8422 15.5187 27.9168 15.7177 27.9168Z" fill="currentColor"/>
<path d="M15.7177 30.75H20.2198C20.4189 30.75 20.6097 30.6753 20.7504 30.5425C20.8912 30.4097 20.9702 30.2295 20.9702 30.0417C20.9702 29.8538 20.8912 29.6737 20.7504 29.5408C20.6097 29.408 20.4189 29.3334 20.2198 29.3334H15.7177C15.5187 29.3334 15.3278 29.408 15.1871 29.5408C15.0464 29.6737 14.9673 29.8538 14.9673 30.0417C14.9673 30.2295 15.0464 30.4097 15.1871 30.5425C15.3278 30.6753 15.5187 30.75 15.7177 30.75Z" fill="currentColor"/>
</svg>
