<svg viewBox="0 0 35 35" fill="none" xmlns="http://www.w3.org/2000/svg">
<path d="M17.4997 7.29171L17.4997 7.30629M17.4997 17.5L17.4997 17.5146M17.4997 27.7084L17.4997 27.723M17.4997 8.75004C16.6943 8.75004 16.0413 8.09712 16.0413 7.29171C16.0413 6.48629 16.6943 5.83337 17.4997 5.83337C18.3051 5.83337 18.958 6.48629 18.958 7.29171C18.958 8.09712 18.3051 8.75004 17.4997 8.75004ZM17.4997 18.9584C16.6943 18.9584 16.0413 18.3055 16.0413 17.5C16.0413 16.6946 16.6943 16.0417 17.4997 16.0417C18.3051 16.0417 18.958 16.6946 18.958 17.5C18.958 18.3055 18.3051 18.9584 17.4997 18.9584ZM17.4997 29.1667C16.6943 29.1667 16.0413 28.5138 16.0413 27.7084C16.0413 26.903 16.6943 26.25 17.4997 26.25C18.3051 26.25 18.958 26.903 18.958 27.7084C18.958 28.5138 18.3051 29.1667 17.4997 29.1667Z" stroke="currentColor" stroke-width="2" stroke-linecap="round" stroke-linejoin="round"/>
</svg>
