<svg viewBox="0 0 35 35" fill="none" xmlns="http://www.w3.org/2000/svg">
<path d="M7.29134 17.5H7.30592M17.4997 17.5H17.5143M27.708 17.5H27.7226M8.74967 17.5C8.74967 18.3054 8.09676 18.9583 7.29134 18.9583C6.48593 18.9583 5.83301 18.3054 5.83301 17.5C5.83301 16.6945 6.48593 16.0416 7.29134 16.0416C8.09676 16.0416 8.74967 16.6945 8.74967 17.5ZM18.958 17.5C18.958 18.3054 18.3051 18.9583 17.4997 18.9583C16.6943 18.9583 16.0413 18.3054 16.0413 17.5C16.0413 16.6945 16.6943 16.0416 17.4997 16.0416C18.3051 16.0416 18.958 16.6945 18.958 17.5ZM29.1663 17.5C29.1663 18.3054 28.5134 18.9583 27.708 18.9583C26.9026 18.9583 26.2497 18.3054 26.2497 17.5C26.2497 16.6945 26.9026 16.0416 27.708 16.0416C28.5134 16.0416 29.1663 16.6945 29.1663 17.5Z" stroke="currentColor" stroke-width="2" stroke-linecap="round" stroke-linejoin="round"/>
</svg>
