<svg viewBox="0 0 35 35" fill="none" xmlns="http://www.w3.org/2000/svg">
<path d="M2.85161 3L8.49364 8.64203M31.147 31.2954L25.5055 25.6539M19.9465 27.8757C18.9921 28.0567 18.0071 28.1514 17 28.1514C9.9613 28.1514 4.00308 23.5253 2 17.1476C2.54531 15.4114 3.38373 13.8051 4.45727 12.3865M13.6647 13.813C14.5181 12.9596 15.697 12.4318 16.9993 12.4318C19.6038 12.4318 21.7152 14.5432 21.7152 17.1477C21.7152 18.4499 21.1873 19.6289 20.3339 20.4823M13.6647 13.813L20.3339 20.4823M13.6647 13.813L8.49364 8.64203M20.3339 20.4823L8.49364 8.64203M20.3339 20.4823L25.5055 25.6539M8.49364 8.64203C10.9456 7.06124 13.8657 6.14393 17 6.14393C24.0387 6.14393 29.9969 10.7701 32 17.1477C30.8888 20.6857 28.5603 23.6847 25.5055 25.6539" stroke="currentColor" stroke-width="2" stroke-linecap="round" stroke-linejoin="round"/>
</svg>
