<svg viewBox="0 0 35 35" fill="none" xmlns="http://www.w3.org/2000/svg">
<path d="M27.7083 16.0417H7.29167M27.7083 16.0417C29.3192 16.0417 30.625 17.3475 30.625 18.9583V27.7083C30.625 29.3192 29.3192 30.625 27.7083 30.625H7.29167C5.68084 30.625 4.375 29.3192 4.375 27.7083V18.9583C4.375 17.3475 5.68084 16.0417 7.29167 16.0417M27.7083 16.0417V13.125C27.7083 11.5142 26.4025 10.2083 24.7917 10.2083M7.29167 16.0417V13.125C7.29167 11.5142 8.5975 10.2083 10.2083 10.2083M10.2083 10.2083V7.29167C10.2083 5.68084 11.5142 4.375 13.125 4.375H21.875C23.4858 4.375 24.7917 5.68084 24.7917 7.29167V10.2083M10.2083 10.2083H24.7917" stroke="currentColor" stroke-width="2" stroke-linecap="round" stroke-linejoin="round"/>
</svg>
