<svg viewBox="0 0 35 35" fill="none" xmlns="http://www.w3.org/2000/svg">
<path d="M15.7727 11.6H27M15.7727 11.6C15.7727 12.0243 15.5907 12.4313 15.2668 12.7314C14.9429 13.0314 14.5036 13.2 14.0455 13.2C13.5874 13.2 13.148 13.0314 12.8241 12.7314C12.5002 12.4313 12.3182 12.0243 12.3182 11.6M15.7727 11.6C15.7727 11.1757 15.5907 10.7687 15.2668 10.4686C14.9429 10.1686 14.5036 10 14.0455 10C13.5874 10 13.148 10.1686 12.8241 10.4686C12.5002 10.7687 12.3182 11.1757 12.3182 11.6M12.3182 11.6H8M15.7727 24.4H27M15.7727 24.4C15.7727 24.8243 15.5907 25.2313 15.2668 25.5314C14.9429 25.8314 14.5036 26 14.0455 26C13.5874 26 13.148 25.8314 12.8241 25.5314C12.5002 25.2313 12.3182 24.8243 12.3182 24.4M15.7727 24.4C15.7727 23.9757 15.5907 23.5687 15.2668 23.2686C14.9429 22.9686 14.5036 22.8 14.0455 22.8C13.5874 22.8 13.148 22.9686 12.8241 23.2686C12.5002 23.5687 12.3182 23.9757 12.3182 24.4M12.3182 24.4H8M22.6818 18H27M22.6818 18C22.6818 18.4243 22.4998 18.8313 22.1759 19.1314C21.852 19.4314 21.4126 19.6 20.9545 19.6C20.4964 19.6 20.0571 19.4314 19.7332 19.1314C19.4093 18.8313 19.2273 18.4243 19.2273 18M22.6818 18C22.6818 17.5757 22.4998 17.1687 22.1759 16.8686C21.852 16.5686 21.4126 16.4 20.9545 16.4C20.4964 16.4 20.0571 16.5686 19.7332 16.8686C19.4093 17.1687 19.2273 17.5757 19.2273 18M19.2273 18H8" stroke="currentColor" stroke-width="1.5" stroke-linecap="round" stroke-linejoin="round"/>
</svg>
