<svg viewBox="0 0 35 35" fill="none" xmlns="http://www.w3.org/2000/svg">
<path d="M17.4998 16.0417C17.4998 21.1709 16.0287 25.9566 13.4853 29.9997M8.46837 27.0234C8.49419 26.98 8.52065 26.9367 8.54773 26.8936C10.523 23.7535 11.6665 20.0401 11.6665 16.0417C11.6665 12.82 14.2782 10.2083 17.4999 10.2083C20.7215 10.2083 23.3332 12.82 23.3332 16.0417C23.3332 17.5248 23.2322 18.9854 23.0367 20.4167M19.9489 30.3969C20.8409 28.6163 21.5723 26.7413 22.124 24.7917M27.7224 26.4424C28.6631 23.1374 29.1667 19.6484 29.1667 16.0417C29.1667 9.59834 23.9433 4.375 17.5 4.375C15.375 4.375 13.3827 4.94313 11.6667 5.93579M4.375 22.406C5.30929 20.4828 5.83333 18.3234 5.83333 16.0417C5.83333 13.9167 6.40147 11.9243 7.39413 10.2083" stroke="currentColor" stroke-width="2" stroke-linecap="round" stroke-linejoin="round"/>
</svg>
