<svg viewBox="0 0 35 35" fill="none" xmlns="http://www.w3.org/2000/svg">
<path d="M25.7497 27.2079C21.1936 31.764 13.8067 31.764 9.25058 27.2079C6.97253 24.9298 5.8335 21.9441 5.8335 18.9583C5.83349 15.9726 6.97252 12.9868 9.25058 10.7087C9.25058 10.7087 10.2086 13.1249 13.1252 14.5833C13.1252 11.6666 13.8544 7.2916 17.4796 4.375C20.4168 7.29167 23.4664 8.42544 25.7497 10.7087C28.0278 12.9868 29.1668 15.9726 29.1668 18.9583C29.1668 21.9441 28.0278 24.9298 25.7497 27.2079Z" stroke="currentColor" stroke-width="2" stroke-linecap="round" stroke-linejoin="round"/>
<path d="M14.4066 23.5102C16.1151 25.2187 18.8852 25.2187 20.5938 23.5102C21.448 22.6559 21.8751 21.5363 21.8752 20.4166C21.8752 19.297 21.448 18.1773 20.5938 17.323C19.7449 16.4741 18.634 16.047 17.5214 16.0416L16.0418 20.4166L13.1252 20.4166C13.1252 21.5363 13.5523 22.6559 14.4066 23.5102Z" stroke="currentColor" stroke-width="2" stroke-linecap="round" stroke-linejoin="round"/>
</svg>
