<svg viewBox="0 0 35 35" fill="none" xmlns="http://www.w3.org/2000/svg">
<path d="M24.7917 11.6667H27.7083C29.3192 11.6667 30.625 12.9725 30.625 14.5833V23.3333C30.625 24.9442 29.3192 26.25 27.7083 26.25H24.7917V32.0833L18.9583 26.25H13.125C12.3196 26.25 11.5904 25.9236 11.0626 25.3957M11.0626 25.3957L16.0417 20.4167H21.875C23.4858 20.4167 24.7917 19.1108 24.7917 17.5V8.75001C24.7917 7.13918 23.4858 5.83334 21.875 5.83334H7.29167C5.68084 5.83334 4.375 7.13918 4.375 8.75001V17.5C4.375 19.1108 5.68084 20.4167 7.29167 20.4167H10.2083V26.25L11.0626 25.3957Z" stroke="currentColor" stroke-width="2" stroke-linecap="round" stroke-linejoin="round"/>
</svg>
