<svg viewBox="0 0 35 35" fill="none" xmlns="http://www.w3.org/2000/svg">
<path d="M14 23.2222V11.6667L24 9V20.5556M14 23.2222C14 24.2041 12.8807 25 11.5 25C10.1193 25 9 24.2041 9 23.2222C9 22.2404 10.1193 21.4444 11.5 21.4444C12.8807 21.4444 14 22.2404 14 23.2222ZM24 20.5556C24 21.5374 22.8807 22.3333 21.5 22.3333C20.1193 22.3333 19 21.5374 19 20.5556C19 19.5737 20.1193 18.7778 21.5 18.7778C22.8807 18.7778 24 19.5737 24 20.5556ZM14 15.2222L24 12.5556" stroke="currentColor" stroke-width="2" stroke-linecap="round" stroke-linejoin="round"/>
<path fill-rule="evenodd" clip-rule="evenodd" d="M6.07692 4C4.92987 4 4 4.92987 4 6.07692V28.9231C4 30.0701 4.92987 31 6.07692 31H28.9231C30.0701 31 31 30.0701 31 28.9231V6.07692C31 4.92987 30.0701 4 28.9231 4H6.07692ZM6.90053 5.86207C6.327 5.86207 5.86207 6.327 5.86207 6.90053V28.0995C5.86207 28.673 6.327 29.1379 6.90053 29.1379H28.0995C28.673 29.1379 29.1379 28.673 29.1379 28.0995V6.90053C29.1379 6.327 28.673 5.86207 28.0995 5.86207H6.90053Z" fill="currentColor"/>
<path d="M18 25.8077C18 25.2342 18.4477 24.7692 19 24.7692H24C24.5523 24.7692 25 25.2342 25 25.8077C25 26.3812 24.5523 26.8462 24 26.8462H19C18.4477 26.8462 18 26.3812 18 25.8077Z" fill="currentColor"/>
</svg>
