<svg viewBox="0 0 35 35" fill="none" xmlns="http://www.w3.org/2000/svg">
<path d="M17.5 11.6667V30.625M17.5 11.6667C17.5 11.6667 17.5 9.4897 17.5 8.75C17.5 7.13917 18.8058 5.83333 20.4167 5.83333C22.0275 5.83333 23.3333 7.13917 23.3333 8.75C23.3333 10.3608 22.0275 11.6667 20.4167 11.6667C19.5455 11.6667 17.5 11.6667 17.5 11.6667ZM17.5 11.6667C17.5 11.6667 17.5 8.84175 17.5 8.02083C17.5 6.00729 15.8677 4.375 13.8542 4.375C11.8406 4.375 10.2083 6.00729 10.2083 8.02083C10.2083 10.0344 11.8406 11.6667 13.8542 11.6667C15.0468 11.6667 17.5 11.6667 17.5 11.6667ZM7.29167 17.5H27.7083M7.29167 17.5C5.68084 17.5 4.375 16.1942 4.375 14.5833C4.375 12.9725 5.68084 11.6667 7.29167 11.6667H27.7083C29.3192 11.6667 30.625 12.9725 30.625 14.5833C30.625 16.1942 29.3192 17.5 27.7083 17.5M7.29167 17.5L7.29167 27.7083C7.29167 29.3192 8.5975 30.625 10.2083 30.625H24.7917C26.4025 30.625 27.7083 29.3192 27.7083 27.7083V17.5" stroke="currentColor" stroke-width="2" stroke-linecap="round" stroke-linejoin="round"/>
</svg>
