<svg viewBox="0 0 35 35" fill="none" xmlns="http://www.w3.org/2000/svg">
<path d="M4.4551 16.0417H7.29167C8.9025 16.0417 10.2083 17.3475 10.2083 18.9583V20.4167C10.2083 22.0275 11.5142 23.3333 13.125 23.3333C14.7358 23.3333 16.0417 24.6392 16.0417 26.25V30.5449M11.6667 5.7393V8.02083C11.6667 10.0344 13.299 11.6667 15.3125 11.6667H16.0417C17.6525 11.6667 18.9583 12.9725 18.9583 14.5833C18.9583 16.1942 20.2642 17.5 21.875 17.5C23.4858 17.5 24.7917 16.1942 24.7917 14.5833C24.7917 12.9725 26.0975 11.6667 27.7083 11.6667L29.2607 11.6667M21.875 29.8782V26.25C21.875 24.6392 23.1808 23.3333 24.7917 23.3333H29.2607M30.625 17.5C30.625 24.7487 24.7487 30.625 17.5 30.625C10.2513 30.625 4.375 24.7487 4.375 17.5C4.375 10.2513 10.2513 4.375 17.5 4.375C24.7487 4.375 30.625 10.2513 30.625 17.5Z" stroke="currentColor" stroke-width="2" stroke-linecap="round" stroke-linejoin="round"/>
</svg>
