<svg viewBox="0 0 35 35" fill="none" xmlns="http://www.w3.org/2000/svg">
<path d="M30.625 17.5C30.625 24.7487 24.7487 30.625 17.5 30.625M30.625 17.5C30.625 10.2513 24.7487 4.375 17.5 4.375M30.625 17.5H4.375M17.5 30.625C10.2513 30.625 4.375 24.7487 4.375 17.5M17.5 30.625C19.9162 30.625 21.875 24.7487 21.875 17.5C21.875 10.2513 19.9162 4.375 17.5 4.375M17.5 30.625C15.0838 30.625 13.125 24.7487 13.125 17.5C13.125 10.2513 15.0838 4.375 17.5 4.375M4.375 17.5C4.375 10.2513 10.2513 4.375 17.5 4.375" stroke="currentColor" stroke-width="2" stroke-linecap="round" stroke-linejoin="round"/>
</svg>
