<svg viewBox="0 0 35 35" fill="none" xmlns="http://www.w3.org/2000/svg">
<path d="M5.83333 5.83331V4.83331H4.83333V5.83331H5.83333ZM29.1667 5.83331H30.1667V4.83331H29.1667V5.83331ZM9.50123 16.7929C9.1107 17.1834 9.1107 17.8166 9.50123 18.2071C9.89175 18.5976 10.5249 18.5976 10.9154 18.2071L9.50123 16.7929ZM14.5833 13.125L15.2904 12.4179C14.8999 12.0273 14.2668 12.0273 13.8762 12.4179L14.5833 13.125ZM18.9583 17.5L18.2512 18.2071C18.6418 18.5976 19.2749 18.5976 19.6654 18.2071L18.9583 17.5ZM25.4988 12.3738C25.8893 11.9832 25.8893 11.3501 25.4988 10.9595C25.1082 10.569 24.4751 10.569 24.0846 10.9595L25.4988 12.3738ZM10.9596 29.9179C10.569 30.3084 10.569 30.9416 10.9596 31.3321C11.3501 31.7226 11.9832 31.7226 12.3738 31.3321L10.9596 29.9179ZM17.5 24.7916L18.2071 24.0845C17.8166 23.694 17.1834 23.694 16.7929 24.0845L17.5 24.7916ZM22.6262 31.3321C23.0168 31.7226 23.6499 31.7226 24.0404 31.3321C24.431 30.9416 24.431 30.3084 24.0404 29.9179L22.6262 31.3321ZM4.375 4.83331C3.82272 4.83331 3.375 5.28103 3.375 5.83331C3.375 6.3856 3.82272 6.83331 4.375 6.83331V4.83331ZM30.625 6.83331C31.1773 6.83331 31.625 6.3856 31.625 5.83331C31.625 5.28103 31.1773 4.83331 30.625 4.83331V6.83331ZM5.83333 6.83331H29.1667V4.83331H5.83333V6.83331ZM28.1667 5.83331V23.3333H30.1667V5.83331H28.1667ZM27.7083 23.7916H7.29167V25.7916H27.7083V23.7916ZM6.83333 23.3333V5.83331H4.83333V23.3333H6.83333ZM7.29167 23.7916C7.03854 23.7916 6.83333 23.5864 6.83333 23.3333H4.83333C4.83333 24.691 5.93397 25.7916 7.29167 25.7916V23.7916ZM28.1667 23.3333C28.1667 23.5864 27.9615 23.7916 27.7083 23.7916V25.7916C29.066 25.7916 30.1667 24.691 30.1667 23.3333H28.1667ZM10.9154 18.2071L15.2904 13.8321L13.8762 12.4179L9.50123 16.7929L10.9154 18.2071ZM13.8762 13.8321L18.2512 18.2071L19.6654 16.7929L15.2904 12.4179L13.8762 13.8321ZM19.6654 18.2071L25.4988 12.3738L24.0846 10.9595L18.2512 16.7929L19.6654 18.2071ZM12.3738 31.3321L18.2071 25.4988L16.7929 24.0845L10.9596 29.9179L12.3738 31.3321ZM16.7929 25.4988L22.6262 31.3321L24.0404 29.9179L18.2071 24.0845L16.7929 25.4988ZM4.375 6.83331H30.625V4.83331H4.375V6.83331Z" fill="currentColor"/>
</svg>
