<svg viewBox="0 0 35 35" fill="none" xmlns="http://www.w3.org/2000/svg">
<path d="M5.83301 8.75004C5.83301 7.13921 7.13884 5.83337 8.74967 5.83337H11.6663C13.2772 5.83337 14.583 7.13921 14.583 8.75004V11.6667C14.583 13.2775 13.2772 14.5834 11.6663 14.5834H8.74967C7.13884 14.5834 5.83301 13.2775 5.83301 11.6667V8.75004Z" stroke="currentColor" stroke-width="2" stroke-linecap="round" stroke-linejoin="round"/>
<path d="M20.4163 8.75004C20.4163 7.13921 21.7222 5.83337 23.333 5.83337H26.2497C27.8605 5.83337 29.1663 7.13921 29.1663 8.75004V11.6667C29.1663 13.2775 27.8605 14.5834 26.2497 14.5834H23.333C21.7222 14.5834 20.4163 13.2775 20.4163 11.6667V8.75004Z" stroke="currentColor" stroke-width="2" stroke-linecap="round" stroke-linejoin="round"/>
<path d="M5.83301 23.3334C5.83301 21.7225 7.13884 20.4167 8.74967 20.4167H11.6663C13.2772 20.4167 14.583 21.7225 14.583 23.3334V26.25C14.583 27.8609 13.2772 29.1667 11.6663 29.1667H8.74967C7.13884 29.1667 5.83301 27.8609 5.83301 26.25V23.3334Z" stroke="currentColor" stroke-width="2" stroke-linecap="round" stroke-linejoin="round"/>
<path d="M20.4163 23.3334C20.4163 21.7225 21.7222 20.4167 23.333 20.4167H26.2497C27.8605 20.4167 29.1663 21.7225 29.1663 23.3334V26.25C29.1663 27.8609 27.8605 29.1667 26.2497 29.1667H23.333C21.7222 29.1667 20.4163 27.8609 20.4163 26.25V23.3334Z" stroke="currentColor" stroke-width="2" stroke-linecap="round" stroke-linejoin="round"/>
</svg>
