<svg viewBox="0 0 35 35" fill="none" xmlns="http://www.w3.org/2000/svg">
<path fill-rule="evenodd" clip-rule="evenodd" d="M5.41667 3C4.082 3 3 4.08207 3 5.41667V29.5833C3 30.9179 4.082 32 5.41667 32H29.5833C30.918 32 32 30.9179 32 29.5833V5.41667C32 4.08207 30.918 3 29.5833 3H5.41667ZM6.625 5.41667C5.95763 5.41667 5.41667 5.95711 5.41667 6.625V28.375C5.41667 29.0429 5.95763 29.5833 6.625 29.5833H28.375C29.0424 29.5833 29.5833 29.0429 29.5833 28.375V6.625C29.5833 5.95711 29.0424 5.41667 28.375 5.41667H6.625Z" fill="currentColor"/>
<path fill-rule="evenodd" clip-rule="evenodd" d="M21.4323 6.9683L21.4264 8.155C20.2712 6.89046 19.2723 6.625 17.1806 6.625C13.4344 6.625 10.25 9.74687 10.25 14.6482C10.25 19.0502 12.9348 22.1097 16.7124 22.1097C18.4606 22.1097 19.7621 21.5893 20.8957 20.4236V21.1106C20.8957 23.9202 19.1787 24.6178 16.9308 24.6178C15.1514 24.6178 13.4655 24.0246 12.4979 23.4628L11.4572 27.261C12.8309 28.0414 14.9537 28.4473 16.9518 28.4473C19.1995 28.4473 21.4784 28.0102 23.1643 26.5742C24.8815 25.0444 25.5786 22.9527 25.5786 20.018C25.5786 20.018 25.6041 6.8948 25.5994 6.9683L21.4323 6.9683ZM20.8334 15.4282C20.8334 15.8341 20.8021 16.3335 20.6773 16.6768C20.365 17.8007 19.3972 18.6124 18.1797 18.6124C16.1818 18.6124 15.0578 16.8329 15.0578 14.554C15.0578 11.7754 16.4627 10.2146 18.1797 10.2146C19.4908 10.2146 20.3963 11.0573 20.7396 12.3061C20.8021 12.5558 20.8334 12.8681 20.8334 13.1803V15.4282Z" fill="currentColor"/>
</svg>
