<svg viewBox="0 0 35 35" fill="none" xmlns="http://www.w3.org/2000/svg">
<path d="M4.375 17.5L7.29167 14.5833M7.29167 14.5833L17.5 4.375L27.7083 14.5833M7.29167 14.5833V29.1667C7.29167 29.9721 7.94458 30.625 8.75 30.625H13.125M27.7083 14.5833L30.625 17.5M27.7083 14.5833V29.1667C27.7083 29.9721 27.0554 30.625 26.25 30.625H21.875M13.125 30.625C13.9304 30.625 14.5833 29.9721 14.5833 29.1667V23.3333C14.5833 22.5279 15.2363 21.875 16.0417 21.875H18.9583C19.7637 21.875 20.4167 22.5279 20.4167 23.3333V29.1667C20.4167 29.9721 21.0696 30.625 21.875 30.625M13.125 30.625H21.875" stroke="currentColor" stroke-width="2" stroke-linecap="round" stroke-linejoin="round"/>
</svg>
