<svg viewBox="0 0 35 35" fill="none" xmlns="http://www.w3.org/2000/svg">
<path d="M29.1663 18.9583V8.74998C29.1663 7.13915 27.8605 5.83331 26.2497 5.83331H8.74967C7.13884 5.83331 5.83301 7.13915 5.83301 8.74998V18.9583M29.1663 18.9583V26.25C29.1663 27.8608 27.8605 29.1666 26.2497 29.1666H8.74967C7.13884 29.1666 5.83301 27.8608 5.83301 26.25V18.9583M29.1663 18.9583H25.3954C25.0086 18.9583 24.6377 19.112 24.3642 19.3854L20.8435 22.9062C20.57 23.1797 20.1991 23.3333 19.8123 23.3333H15.1871C14.8003 23.3333 14.4294 23.1797 14.1559 22.9062L10.6351 19.3854C10.3617 19.112 9.99072 18.9583 9.60395 18.9583H5.83301" stroke="currentColor" stroke-width="2" stroke-linecap="round" stroke-linejoin="round"/>
</svg>
