<svg viewBox="0 0 35 35" fill="none" xmlns="http://www.w3.org/2000/svg">
<path d="M11.6663 5.83333H8.74967C7.13884 5.83333 5.83301 7.13917 5.83301 8.75V26.25C5.83301 27.8608 7.13884 29.1667 8.74967 29.1667H26.2497C27.8605 29.1667 29.1663 27.8608 29.1663 26.25V8.75C29.1663 7.13917 27.8605 5.83333 26.2497 5.83333H23.333M17.4997 4.375V16.0417M17.4997 16.0417L21.8747 11.6667M17.4997 16.0417L13.1247 11.6667M5.83301 18.9583H9.60395C9.99072 18.9583 10.3617 19.112 10.6351 19.3855L14.1559 22.9062C14.4294 23.1797 14.8003 23.3333 15.1871 23.3333H19.8123C20.1991 23.3333 20.57 23.1797 20.8435 22.9062L24.3642 19.3855C24.6377 19.112 25.0086 18.9583 25.3954 18.9583H29.1663" stroke="currentColor" stroke-width="2" stroke-linecap="round" stroke-linejoin="round"/>
</svg>
