<svg viewBox="0 0 35 35" fill="none" xmlns="http://www.w3.org/2000/svg">
<path fill-rule="evenodd" clip-rule="evenodd" d="M2.25806 4C1.01099 4 0 5.00745 0 6.25V28.75C0 29.9926 1.01099 31 2.25806 31H32.7419C33.989 31 35 29.9926 35 28.75V6.25C35 5.00745 33.989 4 32.7419 4H2.25806ZM3.3871 6.25C2.76352 6.25 2.25806 6.75372 2.25806 7.375V15.25H32.7419V7.375C32.7419 6.75372 32.2365 6.25 31.6129 6.25H3.3871ZM27.0968 17.5V22C27.0968 22.6213 27.6022 23.125 28.2258 23.125V28.75H24.8387V23.125C25.4623 23.125 25.9677 22.6213 25.9677 22V17.5H27.0968ZM29.3548 28.75H31.6129C32.2365 28.75 32.7419 28.2463 32.7419 27.625V17.5H30.4839V22C30.4839 22.6213 29.9784 23.125 29.3548 23.125V28.75ZM20.3226 28.75H23.7097V23.125C23.0861 23.125 22.5806 22.6213 22.5806 22V17.5H21.4516V22C21.4516 22.6213 20.9462 23.125 20.3226 23.125V28.75ZM19.1935 23.125C18.57 23.125 18.0645 22.6213 18.0645 22V17.5H15.8065V28.75H19.1935V23.125ZM11.2903 28.75H14.6774V17.5H12.4194V22C12.4194 22.6213 11.9139 23.125 11.2903 23.125V28.75ZM10.1613 23.125C9.53772 23.125 9.03226 22.6213 9.03226 22V17.5H7.90323V22C7.90323 22.6213 7.39777 23.125 6.77419 23.125V28.75H10.1613V23.125ZM3.3871 28.75H5.64516V23.125C5.02159 23.125 4.51613 22.6213 4.51613 22V17.5H2.25806V27.625C2.25806 28.2463 2.76352 28.75 3.3871 28.75Z" fill="currentColor"/>
<path fill-rule="evenodd" clip-rule="evenodd" d="M6.77419 8.5C5.52712 8.5 4.51613 9.50745 4.51613 10.75C4.51613 11.9926 5.52712 13 6.77419 13C8.02127 13 9.03226 11.9926 9.03226 10.75C9.03226 9.50745 8.02127 8.5 6.77419 8.5ZM6.77419 9.625C6.15062 9.625 5.64516 10.1287 5.64516 10.75C5.64516 11.3713 6.15062 11.875 6.77419 11.875C7.39777 11.875 7.90323 11.3713 7.90323 10.75C7.90323 10.1287 7.39777 9.625 6.77419 9.625Z" fill="currentColor"/>
<path d="M15.8065 10.75C15.8065 10.1287 16.3119 9.625 16.9355 9.625H20.3226C20.9461 9.625 21.4516 10.1287 21.4516 10.75C21.4516 11.3713 20.9461 11.875 20.3226 11.875H16.9355C16.3119 11.875 15.8065 11.3713 15.8065 10.75Z" fill="currentColor"/>
<path d="M22.5806 10.75C22.5806 10.1287 23.0861 9.625 23.7097 9.625H25.9677C26.5913 9.625 27.0968 10.1287 27.0968 10.75C27.0968 11.3713 26.5913 11.875 25.9677 11.875H23.7097C23.0861 11.875 22.5806 11.3713 22.5806 10.75Z" fill="currentColor"/>
<path d="M28.2258 10.75C28.2258 10.1287 28.7313 9.625 29.3548 9.625C29.9784 9.625 30.4839 10.1287 30.4839 10.75C30.4839 11.3713 29.9784 11.875 29.3548 11.875C28.7313 11.875 28.2258 11.3713 28.2258 10.75Z" fill="currentColor"/>
</svg>
