<svg viewBox="0 0 35 35" fill="none" xmlns="http://www.w3.org/2000/svg">
<path d="M21.5 9.83333C23.1108 9.83333 24.4167 11.1392 24.4167 12.75M30.25 12.75C30.25 17.5825 26.3325 21.5 21.5 21.5C20.616 21.5 19.7626 21.3689 18.9582 21.1251L15.6667 24.4167H12.75V27.3333H9.83333V30.25H5.45833C4.65292 30.25 4 29.5971 4 28.7917V25.0207C4 24.634 4.15364 24.263 4.42713 23.9895L13.1249 15.2918C12.8811 14.4874 12.75 13.634 12.75 12.75C12.75 7.91751 16.6675 4 21.5 4C26.3325 4 30.25 7.91751 30.25 12.75Z" stroke="currentColor" stroke-width="2" stroke-linecap="round" stroke-linejoin="round"/>
</svg>
