<svg viewBox="0 0 35 35" fill="none" xmlns="http://www.w3.org/2000/svg">
<path d="M5.8335 7.29171C5.8335 6.48629 6.48641 5.83337 7.29183 5.83337H27.7085C28.5139 5.83337 29.1668 6.48629 29.1668 7.29171V10.2084C29.1668 11.0138 28.5139 11.6667 27.7085 11.6667H7.29183C6.48641 11.6667 5.8335 11.0138 5.8335 10.2084V7.29171Z" stroke="currentColor" stroke-width="2" stroke-linecap="round" stroke-linejoin="round"/>
<path d="M5.8335 18.9584C5.8335 18.153 6.48641 17.5 7.29183 17.5H16.0418C16.8472 17.5 17.5002 18.153 17.5002 18.9584V27.7084C17.5002 28.5138 16.8472 29.1667 16.0418 29.1667H7.29183C6.48641 29.1667 5.8335 28.5138 5.8335 27.7084V18.9584Z" stroke="currentColor" stroke-width="2" stroke-linecap="round" stroke-linejoin="round"/>
<path d="M23.3335 18.9584C23.3335 18.153 23.9864 17.5 24.7918 17.5H27.7085C28.5139 17.5 29.1668 18.153 29.1668 18.9584V27.7084C29.1668 28.5138 28.5139 29.1667 27.7085 29.1667H24.7918C23.9864 29.1667 23.3335 28.5138 23.3335 27.7084V18.9584Z" stroke="currentColor" stroke-width="2" stroke-linecap="round" stroke-linejoin="round"/>
</svg>
