<svg viewBox="0 0 35 35" fill="none" xmlns="http://www.w3.org/2000/svg">
<path d="M25.8876 10C23.8037 10.0341 21.9284 10.8524 20.4351 12.3489L11.753 20.996C10.9877 21.7462 10.0513 22.1877 9.1831 22.1877C8.56317 22.1906 7.95003 22.0612 7.38628 21.8085C6.82253 21.5557 6.3217 21.1856 5.91859 20.7239C5.08376 19.7693 4.73592 18.5793 4.94462 17.3539C5.25768 15.3794 7.09777 13.8474 9.14692 13.8137C10.1209 13.8137 11.0569 14.2569 11.7864 15.0053C12.1456 15.3664 12.6365 15.5728 13.1509 15.5792C13.6654 15.5855 14.1614 15.3912 14.5298 15.0391C14.8982 14.687 15.1087 14.2058 15.1152 13.7015C15.1217 13.1972 14.9235 12.711 14.5642 12.3499C13.0723 10.8524 11.1971 10.0341 9.28675 10C5.11994 10.0341 1.68185 12.9282 1.09052 16.7746C0.742675 19.0894 1.40358 21.4383 2.96574 23.2085C3.73636 24.0844 4.69055 24.7872 5.76329 25.2689C6.83603 25.7506 8.0021 26 9.18205 26C11.162 26 13.0372 25.1476 14.5653 23.6511L23.2134 15.0046C23.9786 14.2545 24.915 13.813 25.7832 13.813C27.9364 13.813 29.7768 15.379 30.0895 17.3532C30.2635 18.6127 29.9156 19.804 29.1173 20.7233C28.2825 21.6439 27.103 22.187 25.8525 22.187C24.9481 22.187 24.012 21.7438 23.2481 20.9954C22.8877 20.6398 22.3985 20.4381 21.8872 20.4342C21.3758 20.4302 20.8835 20.6243 20.5173 20.9743C20.1512 21.3243 19.9408 21.8018 19.9319 22.303C19.923 22.8042 20.1164 23.2886 20.4699 23.6508C21.9632 25.1486 23.8732 25.9997 25.7832 25.9997C26.9689 26.0034 28.1414 25.7558 29.2203 25.274C30.2993 24.7921 31.2592 24.0873 32.0343 23.2079C33.5972 21.4379 34.257 19.089 33.9096 16.7742C33.2841 12.9619 29.846 10.0341 25.8872 10H25.8876Z" fill="currentColor"/>
</svg>
