<svg viewBox="0 0 35 35" fill="none" xmlns="http://www.w3.org/2000/svg">
<path fill-rule="evenodd" clip-rule="evenodd" d="M19.4375 7.4375C19.4375 8.78371 18.3462 9.875 17 9.875C15.6538 9.875 14.5625 8.78371 14.5625 7.4375C14.5625 6.09129 15.6538 5 17 5C18.3462 5 19.4375 6.09129 19.4375 7.4375ZM17 26.125C15.6538 26.125 14.5625 27.2163 14.5625 28.5625C14.5625 29.9087 15.6538 31 17 31C18.3462 31 19.4375 29.9087 19.4375 28.5625C19.4375 27.2163 18.3462 26.125 17 26.125ZM27.5625 15.5625C26.2163 15.5625 25.125 16.6538 25.125 18C25.125 19.3462 26.2163 20.4375 27.5625 20.4375C28.9087 20.4375 30 19.3462 30 18C30 16.6538 28.9087 15.5625 27.5625 15.5625ZM8.875 18C8.875 16.6538 7.78371 15.5625 6.4375 15.5625C5.09129 15.5625 4 16.6538 4 18C4 19.3462 5.09129 20.4375 6.4375 20.4375C7.78371 20.4375 8.875 19.3462 8.875 18ZM9.53125 23.0312C8.18504 23.0312 7.09375 24.1225 7.09375 25.4688C7.09375 26.815 8.18504 27.9062 9.53125 27.9062C10.8775 27.9062 11.9688 26.815 11.9688 25.4688C11.9688 24.1226 10.8774 23.0312 9.53125 23.0312ZM24.4688 23.0312C23.1225 23.0312 22.0312 24.1225 22.0312 25.4688C22.0312 26.815 23.1225 27.9062 24.4688 27.9062C25.815 27.9062 26.9062 26.815 26.9062 25.4688C26.9062 24.1226 25.815 23.0312 24.4688 23.0312ZM9.53125 8.09375C8.18504 8.09375 7.09375 9.18504 7.09375 10.5312C7.09375 11.8775 8.18504 12.9688 9.53125 12.9688C10.8775 12.9688 11.9688 11.8775 11.9688 10.5312C11.9688 9.18504 10.8774 8.09375 9.53125 8.09375Z" fill="currentColor"/>
</svg>
