<svg viewBox="0 0 35 35" fill="none" xmlns="http://www.w3.org/2000/svg">
<path d="M4.375 27.7082V14.6858C4.375 13.7106 4.86238 12.8 5.67379 12.259L15.8821 5.45348C16.8618 4.80034 18.1382 4.80034 19.1179 5.45348L29.3262 12.259C30.1376 12.8 30.625 13.7106 30.625 14.6858V27.7082M4.375 27.7082C4.375 29.3191 5.68084 30.6249 7.29167 30.6249H27.7083C29.3192 30.6249 30.625 29.3191 30.625 27.7082M4.375 27.7082L14.2188 21.1457M30.625 27.7082L20.7813 21.1457M4.375 14.5832L14.2188 21.1457M30.625 14.5832L20.7813 21.1457M20.7813 21.1457L19.1179 22.2546C18.1382 22.9078 16.8618 22.9078 15.8821 22.2546L14.2188 21.1457" stroke="currentColor" stroke-width="2" stroke-linecap="round" stroke-linejoin="round"/>
</svg>
