<svg viewBox="0 0 35 35" fill="none" xmlns="http://www.w3.org/2000/svg">
<path fill-rule="evenodd" clip-rule="evenodd" d="M25.9334 5.53361C25.2681 5.53361 24.7287 6.09109 24.7287 6.77867V8.02372H22.3193C21.654 8.02372 21.1146 8.5812 21.1146 9.26878C21.1146 9.95636 21.654 10.5138 22.3193 10.5138H24.7287V24.2095C24.7287 24.8971 25.2681 25.4546 25.9334 25.4546H28.3429C29.0082 25.4546 29.5476 26.012 29.5476 26.6996C29.5476 27.3872 29.0082 27.9447 28.3429 27.9447H5.45337V10.5138H15.091C15.7564 10.5138 16.2958 9.95636 16.2958 9.26878C16.2958 8.5812 15.7564 8.02372 15.091 8.02372H4.24866C3.58332 8.02372 3.04395 8.5812 3.04395 9.26878V29.1897C3.04395 29.8773 3.58332 30.4348 4.24866 30.4348H30.7523C31.4176 30.4348 31.957 29.8773 31.957 29.1897V9.26878C31.957 7.20605 30.3389 5.53361 28.3429 5.53361H25.9334ZM29.5476 9.26878C29.5476 8.5812 29.0082 8.02372 28.3429 8.02372H27.1381V22.9644H29.5476V9.26878Z" fill="currentColor"/>
<path fill-rule="evenodd" clip-rule="evenodd" d="M18.7052 3.04349C19.3705 3.04349 19.9099 3.60092 19.9099 4.28855V20.4743C19.9099 21.7078 19.1843 22.672 18.3149 23.2711C17.437 23.8759 16.2937 24.2095 15.091 24.2095C13.8884 24.2095 12.745 23.8759 11.8672 23.271C10.9978 22.672 10.2722 21.7078 10.2722 20.4743C10.2722 19.2409 10.9978 18.2766 11.8672 17.6776C12.745 17.0728 13.8884 16.7391 15.091 16.7391C15.9494 16.7391 16.7775 16.9091 17.5005 17.2263V4.28855C17.5005 3.60092 18.0398 3.04349 18.7052 3.04349ZM17.5005 20.4743C17.5005 20.3325 17.417 20.0517 16.9784 19.7495C16.5481 19.4531 15.8844 19.2293 15.091 19.2293C14.2977 19.2293 13.6339 19.4531 13.2037 19.7495C12.7651 20.0517 12.6816 20.3325 12.6816 20.4743C12.6816 20.6161 12.7651 20.8969 13.2037 21.1991C13.6339 21.4956 14.2977 21.7194 15.091 21.7194C15.8844 21.7194 16.5481 21.4956 16.9784 21.1991C17.417 20.8969 17.5005 20.6161 17.5005 20.4743Z" fill="currentColor"/>
</svg>
