<svg viewBox="0 0 35 35" fill="none" xmlns="http://www.w3.org/2000/svg">
<path fill-rule="evenodd" clip-rule="evenodd" d="M23.8224 12.0461L20.6592 6.78195C19.2551 4.44541 15.7449 4.44541 14.3409 6.78195L2.49419 26.4965C1.09007 28.833 2.84519 31.7537 5.65333 31.7537H29.3467C32.1549 31.7537 33.91 28.833 32.5059 26.4965L25.0172 14.0344L30.2258 5.69495C30.5282 5.21091 30.3808 4.57343 29.8968 4.27111C29.4128 3.96879 28.7753 4.11611 28.473 4.60015L23.8224 12.0461ZM19.0243 23.6296H28.1505L23.6755 16.1826L19.0243 23.6296ZM22.4807 14.1943L16.5877 23.6296H6.84952L15.9205 8.53435C16.6225 7.36607 18.3776 7.36607 19.0796 8.53435L22.4807 14.1943ZM4.86349 26.9346L5.60763 25.6963H29.3924L30.1366 26.9346C30.8386 28.1029 29.961 29.5632 28.557 29.5632H6.44305C5.03904 29.5632 4.16148 28.1029 4.86349 26.9346Z" fill="currentColor"/>
</svg>
