<svg viewBox="0 0 35 35" fill="none" xmlns="http://www.w3.org/2000/svg">
<path fill-rule="evenodd" clip-rule="evenodd" d="M10.0588 7C9.50189 7 9.05042 7.44775 9.05042 8V21.3911C8.44528 21.1367 7.75209 21 7.03361 21C6.0269 21 5.06989 21.2681 4.3351 21.7539C3.60737 22.2349 3 23.0093 3 24C3 24.9907 3.60737 25.7651 4.3351 26.2461C5.06989 26.7319 6.0269 27 7.03361 27C8.04032 27 8.99734 26.7319 9.73213 26.2461C10.4599 25.7651 11.0672 24.9907 11.0672 24V13H19.1345V21.3911C18.5293 21.1367 17.8361 21 17.1176 21C16.1109 21 15.1539 21.2681 14.4191 21.7539C13.6914 22.2349 13.084 23.0093 13.084 24C13.084 24.9907 13.6914 25.7651 14.4191 26.2461C15.1539 26.7319 16.1109 27 17.1176 27C18.1244 27 19.0814 26.7319 19.8162 26.2461C20.5439 25.7651 21.1513 24.9907 21.1513 24V13H29.2185V21.3911C28.6133 21.1367 27.9202 21 27.2017 21C26.195 21 25.238 21.2681 24.5032 21.7539C23.7754 22.2349 23.1681 23.0093 23.1681 24C23.1681 24.9907 23.7754 25.7651 24.5032 26.2461C25.238 26.7319 26.195 27 27.2017 27C28.2084 27 29.1654 26.7319 29.9002 26.2461C30.6279 25.7651 31.2353 24.9907 31.2353 24V8C31.2353 7.44775 30.7838 7 30.2269 7H10.0588ZM29.2185 9H11.0672V11H29.2185V9ZM9.05042 24C9.05042 23.8862 8.98056 23.6606 8.6134 23.418C8.25328 23.1797 7.69769 23 7.03361 23C6.36954 23 5.81395 23.1797 5.45383 23.418C5.08666 23.6606 5.01681 23.8862 5.01681 24C5.01681 24.1138 5.08666 24.3394 5.45383 24.582C5.81395 24.8203 6.36954 25 7.03361 25C7.69769 25 8.25328 24.8203 8.6134 24.582C8.98056 24.3394 9.05042 24.1138 9.05042 24ZM19.1345 24C19.1345 23.8862 19.0646 23.6606 18.6974 23.418C18.3373 23.1797 17.7817 23 17.1176 23C16.4536 23 15.898 23.1797 15.5379 23.418C15.1707 23.6606 15.1008 23.8862 15.1008 24C15.1008 24.1138 15.1707 24.3394 15.5379 24.582C15.898 24.8203 16.4536 25 17.1176 25C17.7817 25 18.3373 24.8203 18.6974 24.582C19.0646 24.3394 19.1345 24.1138 19.1345 24ZM28.7815 23.418C29.1486 23.6606 29.2185 23.8862 29.2185 24C29.2185 24.1138 29.1486 24.3394 28.7815 24.582C28.4213 24.8203 27.8658 25 27.2017 25C26.5376 25 25.982 24.8203 25.6219 24.582C25.2547 24.3394 25.1849 24.1138 25.1849 24C25.1849 23.8862 25.2547 23.6606 25.6219 23.418C25.982 23.1797 26.5376 23 27.2017 23C27.8658 23 28.4213 23.1797 28.7815 23.418Z" fill="currentColor"/>
</svg>
