<svg viewBox="0 0 35 35" fill="none" xmlns="http://www.w3.org/2000/svg">
<path fill-rule="evenodd" clip-rule="evenodd" d="M14 7C13.4477 7 13 7.44775 13 8V21.3911C12.3999 21.1367 11.7125 21 11 21C10.0017 21 9.05264 21.2681 8.32397 21.7539C7.60229 22.2349 7 23.0093 7 24C7 24.9907 7.60229 25.7651 8.32397 26.2461C9.05264 26.7319 10.0017 27 11 27C11.9983 27 12.9474 26.7319 13.676 26.2461C14.3977 25.7651 15 24.9907 15 24V13H25V21.3911C24.3999 21.1367 23.7125 21 23 21C22.0017 21 21.0526 21.2681 20.324 21.7539C19.6023 22.2349 19 23.0093 19 24C19 24.9907 19.6023 25.7651 20.324 26.2461C21.0526 26.7319 22.0017 27 23 27C23.9983 27 24.9474 26.7319 25.676 26.2461C26.3977 25.7651 27 24.9907 27 24V8C27 7.44775 26.5523 7 26 7H14ZM25 11V9H15V11H25ZM12.5666 23.418C12.9307 23.6606 13 23.8862 13 24C13 24.1138 12.9307 24.3394 12.5666 24.582C12.2095 24.8203 11.6585 25 11 25C10.3415 25 9.7905 24.8203 9.43338 24.582C9.06927 24.3394 9 24.1138 9 24C9 23.8862 9.06927 23.6606 9.43338 23.418C9.7905 23.1797 10.3415 23 11 23C11.6585 23 12.2095 23.1797 12.5666 23.418ZM24.5666 23.418C24.9307 23.6606 25 23.8862 25 24C25 24.1138 24.9307 24.3394 24.5666 24.582C24.2095 24.8203 23.6585 25 23 25C22.3415 25 21.7905 24.8203 21.4334 24.582C21.0693 24.3394 21 24.1138 21 24C21 23.8862 21.0693 23.6606 21.4334 23.418C21.7905 23.1797 22.3415 23 23 23C23.6585 23 24.2095 23.1797 24.5666 23.418Z" fill="currentColor"/>
</svg>
