<svg viewBox="0 0 32 32" fill="none" xmlns="http://www.w3.org/2000/svg">
<path d="M22.96 29.5C22.71 29.5 22.46 29.4 22.28 29.22L16.99 23.93H11.82C11.15 23.93 10.5 23.75 9.94 23.43L9.72 23.65C9.44 23.93 9.03 24.01 8.67 23.86C8.31 23.71 8.07 23.36 8.07 22.97V18.36H6.25C4.18 18.36 2.5 16.68 2.5 14.61V6.25C2.5 4.18 4.18 2.5 6.25 2.5H20.18C22.25 2.5 23.93 4.18 23.93 6.25V8.07H25.75C27.82 8.07 29.5 9.75 29.5 11.82V20.18C29.5 22.25 27.82 23.93 25.75 23.93H23.93V28.54C23.93 28.93 23.7 29.28 23.33 29.43C23.21 29.48 23.09 29.5 22.96 29.5ZM11.41 21.95C11.54 21.98 11.68 22 11.82 22H17.39C17.65 22 17.89 22.1 18.07 22.28L22 26.21V22.97C22 22.44 22.43 22.01 22.96 22.01H25.75C26.75 22.01 27.57 21.19 27.57 20.19V11.83C27.57 10.83 26.75 10.01 25.75 10.01H23.93V14.62C23.93 16.69 22.25 18.37 20.18 18.37H15.01L11.41 21.97V21.95ZM6.25 4.43C5.25 4.43 4.43 5.25 4.43 6.25V14.61C4.43 15.61 5.25 16.43 6.25 16.43H9.04C9.57 16.43 10 16.86 10 17.39V20.63L13.93 16.7C14.11 16.52 14.36 16.42 14.61 16.42H20.18C21.18 16.42 22 15.6 22 14.6V6.25C22 5.25 21.18 4.43 20.18 4.43H6.25Z" fill="currentColor"/>
</svg>
