<svg viewBox="0 0 32 32" fill="none" xmlns="http://www.w3.org/2000/svg">
<path fill-rule="evenodd" clip-rule="evenodd" d="M2.5 27.9502C2.5 28.5302 2.94 29.0002 3.49 29.0002H27.53C28.82 29.0002 29.5 27.9802 29.5 26.9802V8.85016C29.5 6.96016 28.04 5.41016 26.23 5.41016H23.96C23.41 5.41016 22.97 5.88016 22.97 6.46016V7.65016C22.97 7.73016 22.9 7.80016 22.82 7.80016H20.55C20 7.80016 19.56 8.27016 19.56 8.85016C19.56 9.43016 20 9.90016 20.55 9.90016H22.82C22.9 9.90016 22.97 9.97016 22.97 10.0502V23.1802C22.97 23.7602 23.41 24.2302 23.96 24.2302H26.23C26.94 24.2302 27.51 24.8302 27.51 25.5702C27.51 26.3102 26.93 26.9102 26.23 26.9102H4.96C4.7 26.9102 4.49 26.7002 4.49 26.4402V10.3702C4.49 10.1102 4.7 9.90016 4.96 9.90016H13.73C14.28 9.90016 14.72 9.43016 14.72 8.85016C14.72 8.27016 14.28 7.80016 13.73 7.80016H3.49C2.94 7.80016 2.5 8.27016 2.5 8.85016V27.9502ZM27.04 22.1302H25.43C25.17 22.1302 24.95 21.9102 24.95 21.6502V7.65016C24.95 7.57016 25.02 7.50016 25.1 7.50016H26.24C26.95 7.50016 27.52 8.10016 27.52 8.84016V21.6402C27.52 21.9002 27.3 22.1202 27.04 22.1202V22.1302Z" fill="currentColor"/>
<path fill-rule="evenodd" clip-rule="evenodd" d="M18.15 19.59V4.07C18.15 3.48 17.69 3 17.13 3C16.57 3 16.11 3.48 16.11 4.07V16.66L15.94 16.58C15.27 16.28 14.5 16.12 13.71 16.12C12.6 16.12 11.55 16.43 10.74 17C9.82004 17.65 9.29004 18.59 9.29004 19.58C9.29004 20.57 9.82004 21.52 10.74 22.16C11.55 22.73 12.6 23.04 13.71 23.04C14.82 23.04 15.87 22.73 16.68 22.16C17.6 21.51 18.13 20.57 18.13 19.58L18.15 19.59ZM15.58 20.39C15.11 20.72 14.43 20.91 13.73 20.91C13.03 20.91 12.35 20.72 11.88 20.39C11.39 20.05 11.34 19.72 11.34 19.6C11.34 19.48 11.39 19.15 11.88 18.8C12.35 18.47 13.03 18.28 13.73 18.28C14.43 18.28 15.11 18.47 15.58 18.8C16.07 19.14 16.12 19.47 16.12 19.6C16.12 19.73 16.07 20.05 15.58 20.39Z" fill="currentColor"/>
</svg>
