<svg viewBox="0 0 32 32" fill="none" xmlns="http://www.w3.org/2000/svg">
    <path d="M18.67 14.61h-5.34c-1.04 0-1.91.78-1.91 1.76v4.87c0 .99.87 1.76 1.91 1.76h5.34c1.04 0 1.91-.77 1.91-1.76v-4.87c0-.98-.87-1.76-1.91-1.76Zm-.14 6.5h-5.06V16.5h5.06v4.61Zm.14-6.5h-5.34c-1.04 0-1.91.78-1.91 1.76v4.87c0 .99.87 1.76 1.91 1.76h5.34c1.04 0 1.91-.77 1.91-1.76v-4.87c0-.98-.87-1.76-1.91-1.76Zm-.14 6.5h-5.06V16.5h5.06v4.61Zm.14-6.5h-5.34c-1.04 0-1.91.78-1.91 1.76v4.87c0 .99.87 1.76 1.91 1.76h5.34c1.04 0 1.91-.77 1.91-1.76v-4.87c0-.98-.87-1.76-1.91-1.76Zm-.14 6.5h-5.06V16.5h5.06v4.61Z" fill="currentColor"/>
    <path d="M31.65 15.29 16.66 3.23c-.19-.15-.42-.23-.65-.23-.23 0-.48.08-.67.23L.35 15.29c-.43.34-.48.94-.09 1.34.2.21.48.31.75.31.24 0 .48-.07.66-.23l1.84-1.48v9.62c0 2.31 2.04 4.16 4.54 4.16h15.87c2.5 0 4.54-1.85 4.54-4.16v-9.62l1.84 1.48c.19.16.43.23.66.23.28 0 .56-.1.75-.31.39-.4.34-.99-.09-1.34h.03Zm-5.21 9.55c0 1.25-1.11 2.29-2.51 2.29H8.06c-1.4 0-2.51-1.04-2.51-2.29V13.58L16 5.18l10.44 8.4v11.26Z" fill="currentColor"/>
</svg>
