<svg viewBox="0 0 32 32" fill="none" xmlns="http://www.w3.org/2000/svg">
<path d="M17.33 27.6698H8C5.24 27.6698 3 25.4298 3 22.6698V9.33984C3 6.57984 5.24 4.33984 8 4.33984H17.33C20.09 4.33984 22.33 6.57984 22.33 9.33984V10.6698C22.33 11.2198 21.88 11.6698 21.33 11.6698C20.78 11.6698 20.33 11.2198 20.33 10.6698V9.33984C20.33 7.68984 18.98 6.33984 17.33 6.33984H8C6.35 6.33984 5 7.68984 5 9.33984V22.6698C5 24.3198 6.35 25.6698 8 25.6698H17.33C18.98 25.6698 20.33 24.3198 20.33 22.6698V21.3398C20.33 20.7898 20.78 20.3398 21.33 20.3398C21.88 20.3398 22.33 20.7898 22.33 21.3398V22.6698C22.33 25.4298 20.09 27.6698 17.33 27.6698ZM14.67 22.3298C14.41 22.3298 14.16 22.2298 13.96 22.0398L8.63 16.7098C8.54 16.6198 8.47 16.5098 8.43 16.3998C8.38 16.2898 8.36 16.1698 8.35 16.0398V15.9898C8.35 15.8598 8.38 15.7398 8.42 15.6298C8.47 15.5098 8.54 15.3998 8.63 15.3098L13.96 9.97984C14.35 9.58984 14.98 9.58984 15.37 9.97984C15.76 10.3698 15.76 10.9998 15.37 11.3898L11.74 15.0198H27.99C28.54 15.0198 28.99 15.4698 28.99 16.0198C28.99 16.5698 28.54 17.0198 27.99 17.0198H11.75L15.38 20.6498C15.77 21.0398 15.77 21.6698 15.38 22.0598C15.18 22.2598 14.93 22.3498 14.67 22.3498V22.3298Z" fill="currentColor"/>
</svg>
