<svg viewBox="0 0 32 32" fill="none" xmlns="http://www.w3.org/2000/svg">
<path d="M25.8334 27.9406C25.8334 28.5306 25.366 29.0006 24.7893 29.0006H7.06064C6.48393 29.0006 6.0166 28.5306 6.0166 27.9406C6.0166 27.3506 6.48393 26.8906 7.06064 26.8906H24.7893C25.366 26.8906 25.8334 27.3606 25.8334 27.9406Z" fill="currentColor"/>
<path d="M26.8276 3H5.01225C3.30202 3 1.91992 4.39 1.91992 6.11V19.84C1.91992 21.56 3.30202 22.96 5.01225 22.96H26.8276C28.5378 22.96 29.9199 21.56 29.9199 19.84V6.11C29.9199 4.39 28.5378 3 26.8276 3ZM27.8219 19.83C27.8219 20.39 27.3745 20.83 26.8276 20.83H5.01225C4.46538 20.83 4.01793 20.39 4.01793 19.83V6.11C4.01793 5.56 4.46538 5.11 5.01225 5.11H26.8276C27.3745 5.11 27.8219 5.56 27.8219 6.11V19.84V19.83Z" fill="currentColor"/>
<path d="M20.3998 11.5701L14.4098 7.64012C14.1298 7.46012 13.8198 7.37012 13.5098 7.37012C13.1998 7.37012 12.9198 7.45012 12.6498 7.61012C12.1498 7.91012 11.8398 8.47012 11.8398 9.07012V16.9201C11.8398 17.5201 12.1498 18.0801 12.6498 18.3801C12.9098 18.5401 13.2098 18.6201 13.4998 18.6201C13.8198 18.6201 14.1398 18.5301 14.4098 18.3501L20.3998 14.4201C20.8798 14.1101 21.1698 13.5701 21.1698 12.9901C21.1698 12.4101 20.8798 11.8801 20.3998 11.5701ZM18.6598 13.1901L14.1998 16.1101C14.0398 16.2201 13.8298 16.1101 13.8298 15.9101V10.0601C13.8298 9.87012 14.0398 9.75012 14.1998 9.86012L18.6598 12.7801C18.8098 12.8801 18.8098 13.0901 18.6598 13.1801V13.1901Z" fill="currentColor"/>
</svg>
