<svg viewBox="0 0 32 32" fill="none" xmlns="http://www.w3.org/2000/svg">
<path d="M29.973 17.3487C30.033 17.0985 29.993 16.8482 29.8531 16.628C29.7231 16.4178 29.5032 16.2677 29.2533 16.2076C28.8435 16.1175 28.4337 16.0675 28.0439 16.0475C28.8935 14.9064 29.3433 13.415 29.2933 11.6734C29.2933 11.4132 29.1734 11.1729 28.9834 11.0028C28.7935 10.8326 28.5336 10.7525 28.2738 10.7726C28.0039 10.7926 27.744 10.8326 27.4841 10.8827C27.5041 10.8326 27.5241 10.7826 27.5441 10.7325C27.9839 9.3112 27.754 7.72973 26.8744 6.15827C26.6345 5.71786 26.0847 5.5477 25.6249 5.77791C24.6753 6.25836 23.9256 6.85892 23.3659 7.56958C22.9761 5.32749 21.4267 3.52582 18.8978 2.56492C18.6579 2.47484 18.3881 2.48485 18.1482 2.59495C17.9183 2.70505 17.7383 2.91525 17.6684 3.16548C16.5589 6.84891 18.0282 10.0018 21.4867 11.5032C21.7166 12.0137 22.1164 13.2949 22.1164 16.0174C22.1164 19.3706 19.3576 23.8447 15.9991 26.1469C12.6506 23.8447 9.88176 19.3706 9.88176 16.0174C9.88176 13.3049 10.2816 12.0237 10.5115 11.5032C13.97 10.0018 15.4393 6.84891 14.3298 3.16548C14.2599 2.91525 14.0799 2.71506 13.85 2.59495C13.6201 2.48485 13.3503 2.46483 13.1004 2.56492C10.7514 3.45575 9.24204 5.07726 8.73226 7.09914C8.23248 6.59868 7.62274 6.14826 6.89306 5.77791C6.44326 5.5477 5.8935 5.71786 5.6436 6.15827C4.76399 7.72973 4.53409 9.32121 4.9739 10.7325C5.00388 10.8226 5.04387 10.9127 5.07385 11.0028C4.64404 10.8927 4.20423 10.8226 3.72444 10.7826C3.47455 10.7626 3.21466 10.8426 3.01475 11.0128C2.81484 11.1829 2.70488 11.4232 2.70488 11.6834C2.65491 13.425 3.10471 14.9064 3.95434 16.0475C3.56451 16.0775 3.16468 16.1275 2.74487 16.2076C2.49498 16.2577 2.27507 16.4078 2.14513 16.628C2.01518 16.8482 1.96521 17.0985 2.02518 17.3487C2.51497 19.3305 3.55451 20.7819 4.98389 21.6127C4.38415 21.9129 3.80441 22.3033 3.24465 22.8038C3.04474 22.9839 2.93478 23.2342 2.93478 23.4944C2.93478 23.7547 3.04474 24.0149 3.24465 24.1851C4.65404 25.4462 6.22335 26.0668 7.80266 26.0668C9.13209 26.0668 10.4715 25.6064 11.691 24.7055C12.4406 25.6064 13.2803 26.4171 14.1799 27.1178C13.3902 27.4381 12.5806 27.6383 11.7909 27.6383C11.2712 27.6383 10.8513 28.0587 10.8513 28.5691C10.8513 29.0796 11.2712 29.5 11.7909 29.5C13.2103 29.5 14.6397 29.0496 15.9891 28.3189C17.3385 29.0596 18.7679 29.5 20.1873 29.5C20.707 29.5 21.1269 29.0796 21.1269 28.5691C21.1269 28.0587 20.707 27.6383 20.1873 27.6383C19.3976 27.6383 18.598 27.4381 17.7983 27.1178C18.6879 26.4171 19.5276 25.6064 20.2872 24.7055C21.5167 25.6064 22.8461 26.0568 24.1755 26.0568C25.7548 26.0568 27.3242 25.4262 28.7336 24.175C28.9335 23.9949 29.0434 23.7446 29.0434 23.4844C29.0434 23.2242 28.9335 22.9639 28.7336 22.7938C28.1738 22.2933 27.594 21.9029 26.9943 21.6026C28.4237 20.7719 29.4632 19.3205 29.953 17.3387L29.973 17.3487ZM12.7805 4.76697C13.0504 6.78885 12.2407 8.43038 10.4615 9.45133C10.1916 7.42945 11.0013 5.78792 12.7805 4.76697ZM6.88306 7.94993C7.56277 8.4504 8.02257 9.06097 8.23248 9.73159C8.44239 10.4022 8.4024 11.1629 8.12252 11.9637C7.44282 11.4632 6.98302 10.8526 6.77311 10.172C6.5632 9.50138 6.60319 8.74067 6.88306 7.93992V7.94993ZM7.9526 16.5079C6.06342 16.0275 4.91392 14.7363 4.65404 12.8145C6.54321 13.2949 7.69271 14.5861 7.9526 16.5079ZM8.4124 20.5417C6.44326 20.6317 4.9639 19.7209 4.19424 17.9092C6.17337 17.8091 7.64273 18.73 8.4124 20.5417ZM5.44369 23.4944C6.99302 22.5435 8.65229 22.5435 10.2016 23.4944C8.65229 24.4453 6.99302 24.4453 5.44369 23.4944ZM24.0656 16.5079C24.3255 14.5861 25.485 13.2949 27.3741 12.8145C27.1143 14.7363 25.9548 16.0275 24.0656 16.5079ZM24.2955 9.7416C24.5054 9.07098 24.9652 8.46041 25.6449 7.95994C25.9248 8.76069 25.9648 9.5214 25.7548 10.192C25.5449 10.8626 25.0851 11.4732 24.4054 11.9737C24.1256 11.1729 24.0856 10.4122 24.2955 9.7416ZM19.2377 4.76697C21.0169 5.78792 21.8266 7.42945 21.5567 9.45133C19.7775 8.43038 18.9678 6.78885 19.2377 4.76697ZM21.8266 23.4944C23.3759 22.5435 25.0352 22.5435 26.5845 23.4944C25.0352 24.4453 23.3759 24.4453 21.8266 23.4944ZM23.6058 20.5317C24.3754 18.72 25.8548 17.7891 27.8239 17.8992C27.0543 19.7109 25.5849 20.6317 23.6058 20.5317Z" fill="currentColor"/>
</svg>
