<svg viewBox="0 0 32 32" fill="none" xmlns="http://www.w3.org/2000/svg">
<path d="M27.6505 3C27.5106 3 27.3806 3.01999 27.2607 3.05998L11.7067 7.84814C11.2868 7.97809 11.0069 8.35794 11.0069 8.79777V21.4529C10.1373 20.9031 9.09765 20.6032 7.99808 20.6032C5.23914 20.6032 3 22.4825 3 24.8016C3 27.1207 5.23914 29 7.99808 29C10.757 29 12.9962 27.1207 12.9962 24.8016V15.6551L27.0108 11.3468V18.2541C26.1411 17.7043 25.1015 17.4045 24.0019 17.4045C21.243 17.4045 19.0038 19.2837 19.0038 21.6028C19.0038 23.922 21.243 25.8012 24.0019 25.8012C26.7609 25.8012 29 23.922 29 21.6028V4.33948C29 3.59977 28.4002 3 27.6605 3H27.6505ZM21.293 20.6332C21.8428 19.8135 23.0523 19.3937 24.0019 19.3937C25.9612 19.3937 27.0108 20.6732 27.0108 21.6028C27.0108 21.9527 26.9008 22.2726 26.7209 22.5425C26.7209 22.5425 26.7109 22.5625 26.7009 22.5725C26.1511 23.3922 24.9416 23.812 23.9919 23.812C22.0327 23.812 20.9831 22.5325 20.9831 21.6028C20.9831 21.253 21.093 20.9331 21.273 20.6632C21.273 20.6632 21.283 20.6432 21.293 20.6332ZM27.0008 5.21915V9.26759L12.9862 13.5759V9.52749L27.0008 5.21915ZM5.28912 23.832C5.83891 23.0123 7.04844 22.5925 7.99808 22.5925C9.95732 22.5925 11.0069 23.872 11.0069 24.8016C11.0069 25.1515 10.897 25.4714 10.717 25.7413C10.717 25.7413 10.707 25.7612 10.697 25.7712C10.1473 26.5909 8.93772 27.0108 7.98808 27.0108C6.02883 27.0108 4.97924 25.7313 4.97924 24.8016C4.97924 24.4517 5.0892 24.1319 5.26913 23.862C5.26913 23.862 5.27912 23.842 5.28912 23.832Z" fill="currentColor"/>
</svg>
