<svg viewBox="0 0 32 32" fill="none" xmlns="http://www.w3.org/2000/svg">
<path d="M16 29C14.4488 29 13.1578 27.99 12.7875 26.48C12.6875 26.07 12.4072 25.75 12.0269 25.59C11.6366 25.43 11.2063 25.46 10.856 25.68C9.52502 26.49 7.90377 26.29 6.80293 25.2C5.70208 24.1 5.51193 22.48 6.32256 21.15C6.54273 20.79 6.57275 20.36 6.41263 19.98C6.2525 19.59 5.92225 19.31 5.52194 19.21C4.01078 18.84 3 17.56 3 16C3 14.45 4.01078 13.16 5.52194 12.79C5.93226 12.69 6.2525 12.41 6.41263 12.02C6.57275 11.63 6.54273 11.21 6.32256 10.85C5.51193 9.52 5.71209 7.9 6.80293 6.8C7.90377 5.7 9.53503 5.51 10.856 6.32C11.2163 6.54 11.6467 6.57 12.0269 6.41C12.4172 6.25 12.6975 5.92 12.7975 5.52C13.1678 4.01 14.4588 3 16.01 3C17.5612 3 18.8522 4.01 19.2125 5.52C19.3125 5.93 19.5928 6.25 19.9731 6.41C20.3634 6.57 20.7937 6.54 21.144 6.32C22.475 5.51 24.0962 5.71 25.1971 6.8C26.2979 7.9 26.4881 9.52 25.6774 10.85C25.4573 11.21 25.4273 11.64 25.5874 12.02C25.7475 12.41 26.0778 12.69 26.4781 12.78C27.9892 13.15 29 14.43 29 15.99C29 17.54 27.9892 18.83 26.4781 19.2C26.0677 19.3 25.7475 19.58 25.5874 19.97C25.4273 20.36 25.4573 20.78 25.6774 21.14C26.4881 22.46 26.2879 24.09 25.1871 25.19C24.0862 26.29 22.465 26.48 21.1339 25.67C20.7737 25.45 20.3433 25.42 19.963 25.58C19.5727 25.74 19.2925 26.07 19.2025 26.47C18.8322 27.98 17.5512 28.99 16 28.99V29ZM11.5266 23.48C11.9569 23.48 12.3872 23.56 12.7975 23.73C13.7783 24.14 14.4888 24.96 14.739 26C14.9192 26.73 15.5096 26.99 16 26.99C16.4904 26.99 17.0808 26.73 17.261 26C17.5112 24.97 18.2217 24.14 19.2025 23.73C20.1932 23.32 21.2741 23.41 22.1848 23.96C22.8253 24.35 23.4257 24.12 23.776 23.77C24.1263 23.42 24.3564 22.82 23.9661 22.18C23.4157 21.27 23.3256 20.18 23.736 19.2C24.1463 18.22 24.9669 17.51 26.0077 17.26C26.7383 17.08 26.9985 16.49 26.9985 16C26.9985 15.51 26.7383 14.92 26.0077 14.74C24.9769 14.49 24.1463 13.78 23.736 12.8C23.3256 11.82 23.4157 10.73 23.9661 9.82C24.3564 9.18 24.1263 8.57 23.776 8.23C23.4257 7.88 22.8253 7.65 22.1848 8.04C21.2741 8.59 20.1832 8.68 19.2025 8.27C18.2217 7.86 17.5112 7.04 17.261 6C17.0808 5.27 16.4904 5.01 16 5.01C15.5096 5.01 14.9192 5.27 14.739 6C14.4888 7.03 13.7783 7.86 12.7975 8.27C11.8168 8.68 10.7259 8.59 9.81524 8.04C9.17475 7.65 8.57429 7.88 8.22402 8.23C7.87375 8.58 7.64357 9.18 8.03387 9.82C8.5843 10.73 8.67437 11.81 8.26405 12.8C7.85373 13.78 7.02309 14.49 5.9923 14.74C5.26174 14.92 5.00154 15.51 5.00154 16C5.00154 16.49 5.26174 17.08 5.9923 17.26C7.02309 17.51 7.85373 18.22 8.26405 19.2C8.67437 20.18 8.5843 21.27 8.03387 22.18C7.64357 22.82 7.87375 23.42 8.22402 23.77C8.57429 24.12 9.17475 24.35 9.81524 23.96C10.3457 23.64 10.9361 23.47 11.5266 23.47V23.48Z" fill="currentColor"/>
<path d="M16 21C13.24 21 11 18.76 11 16C11 13.24 13.24 11 16 11C18.76 11 21 13.24 21 16C21 18.76 18.76 21 16 21ZM16 13C14.35 13 13 14.35 13 16C13 17.65 14.35 19 16 19C17.65 19 19 17.65 19 16C19 14.35 17.65 13 16 13Z" fill="currentColor"/>
</svg>
