<svg viewBox="0 0 35 35" fill="none" xmlns="http://www.w3.org/2000/svg">
<mask id="path-1-inside-1_1_620" fill="white">
<path d="M15.1111 18.6665C15.8889 18.0832 15.8889 16.9165 15.1111 16.3332L7.33334 10.4999C6.37195 9.77883 5 10.4648 5 11.6665L5 23.3332C5 24.5349 6.37195 25.2209 7.33333 24.4999L15.1111 18.6665Z"/>
<path d="M26.7778 18.6665C27.5556 18.0832 27.5556 16.9165 26.7778 16.3332L19 10.4999C18.0386 9.77883 16.6667 10.4648 16.6667 11.6665L16.6667 23.3332C16.6667 24.5349 18.0386 25.2209 19 24.4999L26.7778 18.6665Z"/>
<path d="M29.7088 25C29.7088 25.5523 29.2611 26 28.7088 26C28.1565 26 27.7088 25.5523 27.7088 25L27.7088 10C27.7088 9.44772 28.1565 9 28.7088 9C29.2611 9 29.7088 9.44772 29.7088 10L29.7088 25Z"/>
</mask>
<path d="M19 24.4999L17.8 22.8999L19 24.4999ZM16.6667 23.3332H18.6667H16.6667ZM26.7778 16.3332L27.9778 14.7332L26.7778 16.3332ZM26.7778 18.6665L27.9778 20.2665L26.7778 18.6665ZM19 10.4999L17.8 12.0999L19 10.4999ZM16.6667 11.6665L14.6667 11.6665L16.6667 11.6665ZM7.33333 24.4999L6.13333 22.8999H6.13333L7.33333 24.4999ZM5 23.3332H7H5ZM15.1111 16.3332L16.3111 14.7332L15.1111 16.3332ZM15.1111 18.6665L16.3111 20.2665L15.1111 18.6665ZM7.33334 10.4999L8.53334 8.89987L7.33334 10.4999ZM5 11.6665L3 11.6665L5 11.6665ZM29.7088 25H27.7088H29.7088ZM28.7088 26V24V26ZM27.7088 25H25.7088H27.7088ZM27.7088 10L29.7088 10V10L27.7088 10ZM28.7088 9V7V9ZM29.7088 10L31.7088 10V10L29.7088 10ZM6.13333 12.0999L13.9111 17.9332L16.3111 14.7332L8.53334 8.89987L6.13333 12.0999ZM13.9111 17.0665L6.13333 22.8999L8.53333 26.0999L16.3111 20.2665L13.9111 17.0665ZM3 11.6665L3 23.3332H7L7 11.6665L3 11.6665ZM17.8 12.0999L25.5778 17.9332L27.9778 14.7332L20.2 8.89987L17.8 12.0999ZM25.5778 17.0665L17.8 22.8999L20.2 26.0999L27.9778 20.2665L25.5778 17.0665ZM14.6667 11.6665L14.6667 23.3332H18.6667L18.6667 11.6665L14.6667 11.6665ZM17.8 22.8999C18.1571 22.6321 18.6667 22.8869 18.6667 23.3332H14.6667C14.6667 26.183 17.9201 27.8098 20.2 26.0999L17.8 22.8999ZM25.5778 17.9332C25.2889 17.7165 25.2889 17.2832 25.5778 17.0665L27.9778 20.2665C29.8222 18.8832 29.8222 16.1165 27.9778 14.7332L25.5778 17.9332ZM20.2 8.89987C17.9201 7.18998 14.6667 8.81672 14.6667 11.6665L18.6667 11.6665C18.6667 12.1129 18.1571 12.3677 17.8 12.0999L20.2 8.89987ZM6.13333 22.8999C6.49042 22.6321 7 22.8868 7 23.3332H3C3 26.183 6.25347 27.8098 8.53333 26.0999L6.13333 22.8999ZM13.9111 17.9332C13.6222 17.7165 13.6222 17.2832 13.9111 17.0665L16.3111 20.2665C18.1556 18.8832 18.1556 16.1165 16.3111 14.7332L13.9111 17.9332ZM8.53334 8.89987C6.25348 7.18998 3 8.81671 3 11.6665L7 11.6665C7 12.1129 6.49042 12.3677 6.13333 12.0999L8.53334 8.89987ZM27.7088 25C27.7088 24.4477 28.1565 24 28.7088 24V28C30.3656 28 31.7088 26.6569 31.7088 25H27.7088ZM28.7088 24C29.2611 24 29.7088 24.4477 29.7088 25H25.7088C25.7088 26.6569 27.0519 28 28.7088 28V24ZM29.7088 25L29.7088 10L25.7088 10L25.7088 25H29.7088ZM29.7088 10C29.7088 10.5523 29.2611 11 28.7088 11V7C27.0519 7 25.7088 8.34315 25.7088 10L29.7088 10ZM28.7088 11C28.1565 11 27.7088 10.5523 27.7088 10L31.7088 10C31.7088 8.34315 30.3656 7 28.7088 7V11ZM27.7088 10L27.7088 25H31.7088L31.7088 10L27.7088 10Z" fill="currentColor" mask="url(#path-1-inside-1_1_620)"/>
</svg>
