<svg viewBox="0 0 35 35" fill="none" xmlns="http://www.w3.org/2000/svg">
<path d="M20.4163 14.5833L17.4997 16.0417M17.4997 16.0417L14.583 14.5833M17.4997 16.0417V19.6875M29.1663 10.2083L26.2497 11.6667M29.1663 10.2083L26.2497 8.75M29.1663 10.2083V13.8542M20.4163 5.83333L17.4997 4.375L14.583 5.83333M5.83301 10.2083L8.74967 8.75M5.83301 10.2083L8.74967 11.6667M5.83301 10.2083V13.8542M17.4997 30.625L14.583 29.1667M17.4997 30.625L20.4163 29.1667M17.4997 30.625V26.9792M8.74967 26.25L5.83301 24.7917V21.1458M26.2497 26.25L29.1663 24.7917V21.1458" stroke="currentColor" stroke-width="2" stroke-linecap="round" stroke-linejoin="round"/>
</svg>
