<svg viewBox="0 0 35 35" fill="none" xmlns="http://www.w3.org/2000/svg">
<path fill-rule="evenodd" clip-rule="evenodd" d="M5.85714 4C4.83147 4 4 4.83147 4 5.85714V28.1429C4 29.1685 4.83147 30 5.85714 30H14.2143C15.24 30 16.0714 29.1685 16.0714 28.1429V5.85714C16.0714 4.83147 15.24 4 14.2143 4H5.85714ZM6.78571 5.92593C6.27288 5.92593 5.85714 6.34166 5.85714 6.8545V27.1455C5.85714 27.6583 6.27288 28.0741 6.78571 28.0741H13.2857C13.7986 28.0741 14.2143 27.6583 14.2143 27.1455V6.8545C14.2143 6.34166 13.7986 5.92593 13.2857 5.92593H6.78571Z" fill="currentColor"/>
<path fill-rule="evenodd" clip-rule="evenodd" d="M20.7143 4C19.6886 4 18.8571 4.83147 18.8571 5.85714V28.1429C18.8571 29.1685 19.6886 30 20.7143 30H29.0714C30.0971 30 30.9286 29.1685 30.9286 28.1429V5.85714C30.9286 4.83147 30.0971 4 29.0714 4H20.7143ZM21.6429 5.92593C21.13 5.92593 20.7143 6.34166 20.7143 6.8545V27.1455C20.7143 27.6583 21.13 28.0741 21.6429 28.0741H28.1429C28.6557 28.0741 29.0714 27.6583 29.0714 27.1455V6.8545C29.0714 6.34166 28.6557 5.92593 28.1429 5.92593H21.6429Z" fill="currentColor"/>
</svg>
