<svg viewBox="0 0 35 35" fill="none" xmlns="http://www.w3.org/2000/svg">
<path fill-rule="evenodd" clip-rule="evenodd" d="M13.1133 21.0053V28.375L9.04167 28.375V7.02729H13.1133V8.75107C13.8544 8.04238 14.6557 7.51094 15.517 7.15645C16.3783 6.80196 17.2997 6.625 18.2813 6.625C20.4148 6.625 22.2277 7.396 23.72 8.9377C25.2124 10.4797 25.9583 12.4575 25.9583 14.8709C25.9583 17.1981 25.1872 19.145 23.6448 20.7109C22.1024 22.2767 20.2744 23.0597 18.1611 23.0597C17.2197 23.0597 16.3432 22.8992 15.5322 22.5783C14.7208 22.2574 13.9145 21.7331 13.1133 21.0053ZM14.0476 11.5749C14.9681 10.6916 16.127 10.25 17.5243 10.25C18.9107 10.25 20.0587 10.6991 20.9685 11.5975C21.8784 12.496 22.3333 13.6479 22.3333 15.0532C22.3333 16.4684 21.8704 17.6328 20.9441 18.5465C20.0181 19.4598 18.8782 19.9167 17.5243 19.9167C16.127 19.9167 14.9681 19.4673 14.0476 18.5689C13.1268 17.6707 12.6667 16.4935 12.6667 15.038C12.6667 13.6127 13.1268 12.4584 14.0476 11.5749Z" fill="currentColor"/>
<path fill-rule="evenodd" clip-rule="evenodd" d="M5.41667 3C4.082 3 3 4.08207 3 5.41667V29.5833C3 30.9179 4.082 32 5.41667 32H29.5833C30.918 32 32 30.9179 32 29.5833V5.41667C32 4.08207 30.918 3 29.5833 3H5.41667ZM6.625 5.41667C5.95763 5.41667 5.41667 5.95711 5.41667 6.625V28.375C5.41667 29.0429 5.95763 29.5833 6.625 29.5833H28.375C29.0424 29.5833 29.5833 29.0429 29.5833 28.375V6.625C29.5833 5.95711 29.0424 5.41667 28.375 5.41667H6.625Z" fill="currentColor"/>
</svg>
