<svg viewBox="0 0 35 35" fill="none" xmlns="http://www.w3.org/2000/svg">
<path d="M25.7493 24.2912C24.2236 25.8169 20.8386 29.2019 18.9123 31.1282C18.1313 31.9092 16.8673 31.9084 16.0862 31.1274C14.1917 29.2329 10.8791 25.9203 9.2501 24.2912C4.69398 19.7351 4.69398 12.3482 9.2501 7.79209C13.8062 3.23597 21.1931 3.23597 25.7493 7.79209C30.3054 12.3482 30.3054 19.7351 25.7493 24.2912Z" stroke="currentColor" stroke-width="2" stroke-linecap="round" stroke-linejoin="round"/>
<path d="M21.8747 16.0417C21.8747 18.4579 19.9159 20.4167 17.4997 20.4167C15.0834 20.4167 13.1247 18.4579 13.1247 16.0417C13.1247 13.6254 15.0834 11.6667 17.4997 11.6667C19.9159 11.6667 21.8747 13.6254 21.8747 16.0417Z" stroke="currentColor" stroke-width="2" stroke-linecap="round" stroke-linejoin="round"/>
</svg>
