<svg viewBox="0 0 35 35" fill="none" xmlns="http://www.w3.org/2000/svg">
<path d="M5 6C5 5.44772 5.44772 5 6 5H29C29.5523 5 30 5.44772 30 6C30 6.55228 29.5523 7 29 7H6C5.44772 7 5 6.55228 5 6Z" fill="currentColor"/>
<path d="M5 15C5 14.4477 5.44772 14 6 14H29C29.5523 14 30 14.4477 30 15C30 15.5523 29.5523 16 29 16H6C5.44772 16 5 15.5523 5 15Z" fill="currentColor"/>
<path d="M5 24C5 23.4477 5.44772 23 6 23H15C15.5523 23 16 23.4477 16 24C16 24.5523 15.5523 25 15 25H6C5.44771 25 5 24.5523 5 24Z" fill="currentColor"/>
<path d="M23 29C23 29.5522 23.4477 30 24 30C24.5523 30 25 29.5522 25 29V25H29C29.5523 25 30 24.5522 30 24C30 23.4478 29.5523 23 29 23H25V19C25 18.4478 24.5523 18 24 18C23.4477 18 23 18.4478 23 19V23H19C18.4477 23 18 23.4478 18 24C18 24.5522 18.4477 25 19 25H23V29Z" fill="currentColor"/>
</svg>
