<svg viewBox="0 0 35 35" fill="none" xmlns="http://www.w3.org/2000/svg">
<path d="M13.125 27.7083V8.75L30.625 4.375V23.3333M13.125 27.7083C13.125 29.3192 11.1662 30.625 8.75 30.625C6.33375 30.625 4.375 29.3192 4.375 27.7083C4.375 26.0975 6.33375 24.7917 8.75 24.7917C11.1662 24.7917 13.125 26.0975 13.125 27.7083ZM30.625 23.3333C30.625 24.9442 28.6662 26.25 26.25 26.25C23.8338 26.25 21.875 24.9442 21.875 23.3333C21.875 21.7225 23.8338 20.4167 26.25 20.4167C28.6662 20.4167 30.625 21.7225 30.625 23.3333ZM13.125 14.5833L30.625 10.2083" stroke="currentColor" stroke-width="2" stroke-linecap="round" stroke-linejoin="round"/>
</svg>
