<svg viewBox="0 0 35 35" fill="none" xmlns="http://www.w3.org/2000/svg">
<path d="M23.1447 21.9375C24.3539 20.8273 25.2681 19.4128 25.7997 17.83C26.3054 16.2459 26.4212 14.5555 26.1364 12.9131C25.7763 10.7597 24.7241 8.79672 23.1516 7.34464C21.5792 5.89257 19.5795 5.03714 17.4787 4.91798C15.3649 4.80694 13.2775 5.4458 11.5592 6.72971C9.84089 8.01362 8.59379 9.86629 8.02261 11.9836C7.59115 13.573 7.55272 15.2498 7.91089 16.8587C8.26905 18.4677 9.01223 19.9567 10.0716 21.1879C10.3136 21.466 10.5705 21.7295 10.8411 21.9774C11.0295 22.1598 11.2763 22.2632 11.5338 22.2673C11.7289 22.2727 11.921 22.2164 12.0847 22.1057C12.2482 21.995 12.3755 21.8352 12.4496 21.6476C12.5237 21.4601 12.5411 21.2534 12.4996 21.0553C12.458 20.8571 12.3593 20.6768 12.2168 20.5383C11.9859 20.3185 11.755 20.0986 11.5434 19.8588L11.2259 19.469L11.1586 19.389C11.0335 19.2291 11.1586 19.389 11.1586 19.389C11.1586 19.389 11.2836 19.5489 11.1586 19.389L11.0913 19.2791C10.7093 18.742 10.3865 18.1621 10.1293 17.5502L10.2255 17.79C9.94594 17.0926 9.75511 16.3601 9.65795 15.6114C9.6533 15.7012 9.6533 15.7913 9.65795 15.8812C9.5566 15.0918 9.5566 14.292 9.65795 13.5027V13.7725C9.75675 13.0176 9.94748 12.2788 10.2255 11.5739L10.1293 11.8237C10.3063 11.4026 10.5121 10.9951 10.7449 10.6045C10.8604 10.4146 10.9758 10.2347 11.1009 10.0548C11.2259 9.87491 11.3798 9.68503 11.1586 9.97485C11.2259 9.8849 11.2836 9.79496 11.351 9.71501C11.6174 9.38675 11.9067 9.07943 12.2168 8.79558L12.438 8.5957L12.5534 8.49576L12.4572 8.57571L12.5342 8.51575C12.6977 8.38583 12.8709 8.25591 13.0537 8.13598C13.453 7.87616 13.8711 7.64896 14.3042 7.45641L14.0734 7.55634C14.7439 7.26146 15.4491 7.05984 16.1704 6.95671H15.9107C16.658 6.85674 17.4145 6.85674 18.1617 6.95671H17.902C18.6222 7.06586 19.3266 7.26726 19.9991 7.55634L19.7682 7.45641C20.1355 7.61874 20.4921 7.80569 20.836 8.01606L21.3266 8.41581C21.4035 8.47577 21.6729 8.70563 21.4035 8.41581C21.4805 8.49576 21.5671 8.55573 21.644 8.62568C21.96 8.90239 22.2558 9.20302 22.529 9.52512L22.7214 9.76498L22.808 9.8849C22.9042 10.0048 22.7311 9.78496 22.7407 9.78496V9.85492C22.8657 10.0348 22.9908 10.2147 23.1062 10.4046C23.3563 10.8229 23.5751 11.2606 23.7604 11.7138L23.6642 11.4739C23.945 12.1779 24.1358 12.9171 24.2317 13.6726C24.2364 13.5826 24.2364 13.4926 24.2317 13.4028C24.3376 14.1884 24.3376 14.9856 24.2317 15.7713C24.2364 15.6813 24.2364 15.5913 24.2317 15.5015C24.13 16.2525 23.9395 16.9876 23.6642 17.6901L23.7604 17.4403C23.4993 18.0502 23.1768 18.6297 22.7984 19.1692L22.6637 19.3591C22.6637 19.3591 22.808 19.1592 22.6637 19.2891L22.5868 19.389C22.4906 19.519 22.3848 19.6389 22.2789 19.7588C22.0658 20.0036 21.8376 20.2339 21.5959 20.4484C21.5028 20.5416 21.4288 20.6534 21.3782 20.777C21.3276 20.9006 21.3016 21.0336 21.3016 21.1679C21.3016 21.3023 21.3276 21.4352 21.3782 21.5588C21.4288 21.6824 21.5028 21.7943 21.5959 21.8875C21.6857 21.9842 21.7933 22.0611 21.9123 22.1137C22.0313 22.1662 22.1593 22.1933 22.2886 22.1933C22.4178 22.1933 22.5459 22.1662 22.6649 22.1137C22.7839 22.0611 22.8914 21.9842 22.9812 21.8875L23.1447 21.9375ZM12.0436 25.0056C11.5614 24.7468 11.0954 24.4564 10.6488 24.1361L10.3313 23.8863C10.0619 23.6764 10.2736 23.8863 10.3313 23.8863L10.1485 23.7463C9.94651 23.5665 9.75415 23.3966 9.56176 23.2067C9.15809 22.8083 8.78199 22.3808 8.43625 21.9275L8.30158 21.7676C8.09957 21.4778 8.30158 21.7076 8.30158 21.7676C8.215 21.6576 8.13804 21.5377 8.05147 21.4178C7.96489 21.2979 7.75326 20.9681 7.61858 20.7382C7.29203 20.1849 7.00585 19.607 6.76243 19.0093L6.85863 19.2591C6.44246 18.2197 6.16103 17.1274 6.02172 16.0111C6.01706 16.1043 6.01706 16.1977 6.02172 16.291C5.87748 15.1666 5.87748 14.0274 6.02172 12.9031C6.01706 12.9929 6.01706 13.083 6.02172 13.1729C6.17947 12.085 6.47377 11.0232 6.89711 10.0149L6.80091 10.2547C7.03609 9.67763 7.31263 9.11975 7.6282 8.58571C7.78038 8.31609 7.94739 8.05581 8.12843 7.80619L8.25348 7.6263C8.27349 7.58573 8.29945 7.54865 8.33044 7.51637L8.25348 7.61631L8.55169 7.23654C8.93144 6.7545 9.34286 6.30036 9.78301 5.87738L10.11 5.59756L10.2736 5.45764L10.3409 5.39768C10.0812 5.61754 10.2543 5.46764 10.3409 5.39768C10.5814 5.2078 10.8219 5.02791 11.0816 4.85801C11.6448 4.46997 12.2403 4.13549 12.8613 3.85863L12.5727 4.01853C13.5539 3.58639 14.5857 3.29069 15.6414 3.13908H15.3816C16.4575 2.98923 17.5477 2.98923 18.6235 3.13908H18.3637C19.4195 3.29069 20.4512 3.58639 21.4324 4.01853L21.2015 3.9186C21.7511 4.16905 22.2845 4.45614 22.7984 4.77806C23.0485 4.94796 23.2986 5.11785 23.5391 5.29774L23.7123 5.43765C23.7483 5.45862 23.7809 5.48564 23.8085 5.51761L23.7123 5.43765C23.8373 5.53759 23.9624 5.63753 24.0778 5.74746C24.5283 6.14018 24.9525 6.56423 25.3476 7.01668L25.6266 7.35647L25.7516 7.53636L25.8094 7.60631C25.5977 7.32649 25.742 7.51637 25.8094 7.60631C25.9825 7.85616 26.1557 8.106 26.3096 8.37584C26.6832 8.96428 27.0052 9.5864 27.2715 10.2347L27.0984 10.0149C27.5102 11.0419 27.7915 12.1203 27.9353 13.2229C27.94 13.1329 27.94 13.0429 27.9353 12.953C28.0796 14.0773 28.0796 15.2165 27.9353 16.3409C27.94 16.251 27.94 16.1609 27.9353 16.0711C27.7927 17.1706 27.5114 18.2459 27.0984 19.2691L27.1946 19.0293C26.9839 19.552 26.7397 20.0595 26.4635 20.5483C26.3192 20.7982 26.1653 21.038 26.0114 21.2779L25.7997 21.5977L25.6843 21.7476C25.5785 21.8975 25.819 21.5777 25.742 21.6776L25.6651 21.7776C25.3403 22.2093 24.9901 22.6198 24.6165 23.0068C24.4145 23.2067 24.2125 23.4066 24.0009 23.5864L23.7123 23.8363C23.5872 23.9262 23.7988 23.7663 23.7988 23.7663L23.7026 23.8363L23.5391 23.9662C23.0342 24.339 22.5037 24.673 21.9519 24.9656C21.8399 25.0317 21.7418 25.1205 21.6635 25.2267C21.5851 25.333 21.528 25.4544 21.4958 25.584C21.4635 25.7135 21.4565 25.8485 21.4754 25.981C21.4943 26.1133 21.5385 26.2404 21.6056 26.3547C21.6684 26.4706 21.7528 26.5722 21.854 26.6538C21.9551 26.7352 22.071 26.795 22.1946 26.8294C22.3182 26.8638 22.4472 26.8723 22.574 26.8543C22.7009 26.8362 22.8229 26.7922 22.9331 26.7245C24.9708 25.6211 26.6944 23.9818 27.9318 21.9702C29.1693 19.9587 29.8774 17.6452 29.9854 15.2606C30.0936 12.8759 29.5978 10.5035 28.5477 8.38011C27.4975 6.25669 25.9298 4.45646 24.0009 3.15907C22.1394 1.89839 19.9948 1.16145 17.7769 1.02039C15.5303 0.892117 13.2898 1.37071 11.274 2.40953C8.20878 3.99834 5.86189 6.7679 4.73344 10.1281C3.605 13.4883 3.78421 17.1734 5.2329 20.3984C6.20996 22.6165 7.7496 24.5166 9.68681 25.895C10.1261 26.2134 10.5857 26.5006 11.0624 26.7545C11.2869 26.887 11.5529 26.9214 11.8019 26.8502C12.0508 26.779 12.2624 26.608 12.3899 26.3747C12.5175 26.1415 12.5507 25.8651 12.4821 25.6065C12.4136 25.3479 12.2489 25.1281 12.0244 24.9956L12.0436 25.0056ZM13.8617 15.1317C13.8617 15.1317 13.8617 15.2016 13.8617 15.2316V15.0317C13.8617 15.0317 13.8521 15.0118 13.8617 15.0817V15.1317ZM13.8617 14.3022V14.1023C13.8617 14.1023 13.8617 14.1723 13.8617 14.2123C13.8617 14.2522 13.8521 14.2222 13.8425 14.2522L13.8617 14.3022ZM14.083 15.9412L14.1407 16.0711L14.0445 15.8213C14.0547 15.8603 14.0709 15.8975 14.0926 15.9312L14.083 15.9412ZM14.083 13.5227L14.1792 13.2728C14.1768 13.3161 14.1768 13.3595 14.1792 13.4028C14.1249 13.4182 14.0731 13.4418 14.0253 13.4727L14.083 13.5227ZM14.564 12.6232L14.5062 12.6932C14.5062 12.6932 14.5928 12.4733 14.5062 12.5733L14.564 12.6232ZM14.564 16.7307C14.6121 16.8206 14.4004 16.5108 14.5062 16.6507L14.5543 16.7107L14.564 16.7307ZM15.1892 17.3603L15.1027 17.2903L15.17 17.3403L15.1892 17.3603ZM15.0353 12.0136C14.9487 12.0636 15.2373 11.8337 15.1123 11.9437L15.0546 11.9936L15.0353 12.0136ZM15.7953 11.5439L15.6702 11.5939L15.9011 11.4939H15.7953V11.5439ZM15.7953 17.6801L15.9011 17.7301L15.6702 17.6301L15.7953 17.6801ZM16.5648 11.324H16.459H16.7188H16.5648ZM16.5648 17.9H16.7284H16.4687H16.5648ZM17.4787 11.334H17.3248H17.5845H17.4787ZM17.4787 17.91H17.5845H17.3248H17.4787ZM18.2483 11.5539L18.1425 11.4939L18.3733 11.6039L18.2483 11.5539ZM18.2483 17.6901L18.3733 17.6401L18.1425 17.7401L18.2483 17.6901ZM18.912 11.9437C18.8255 11.8637 19.1141 12.0936 18.989 12.0036L18.912 11.9437ZM18.912 17.2903L18.9698 17.2304C19.066 17.1704 18.7678 17.4003 18.8928 17.2903H18.912ZM19.5662 12.6432V12.5733C19.4027 12.4633 19.6624 12.7731 19.5469 12.6432H19.5662ZM19.5662 16.5608C19.5662 16.5608 19.4219 16.7707 19.4892 16.6607L19.5469 16.5908L19.5662 16.5608ZM19.9221 15.8912L19.9798 15.7713L19.8836 16.0111C19.8836 16.0111 19.9221 15.9312 19.9317 15.8912H19.9221ZM19.874 13.2229L19.9702 13.4627C19.9702 13.4627 19.9702 13.3928 19.9702 13.3528L19.874 13.2229ZM20.1626 15.0118V15.2116C20.1674 15.1752 20.1674 15.1382 20.1626 15.1017C20.1626 15.1017 20.153 15.0118 20.1626 15.0118ZM20.1626 14.2123C20.1626 14.2123 20.1626 14.1223 20.1626 14.0823V14.2822C20.1573 14.2592 20.1573 14.2352 20.1626 14.2123ZM15.4201 24.2061V23.9362C15.4201 23.9862 15.4201 24.0262 15.4201 24.0761C15.4201 24.1261 15.4105 24.1861 15.4105 24.2261L15.4201 24.2061ZM15.4201 30.712C15.4201 30.762 15.4201 30.812 15.4201 30.852V30.5821C15.4162 30.6323 15.4194 30.6828 15.4297 30.732L15.4201 30.712ZM15.5163 31.0718C15.5109 31.1149 15.5109 31.1586 15.5163 31.2017L15.4201 30.9519C15.4574 31.0059 15.5029 31.053 15.5548 31.0918L15.5163 31.0718ZM15.4586 23.8363L15.5644 23.5964L15.5067 23.7364L15.4586 23.8363ZM15.6895 31.3916L15.6317 31.3217L15.6895 31.3916ZM15.6895 23.3966C15.5548 23.5864 15.7857 23.2866 15.7376 23.3766L15.6895 23.3966ZM15.8434 31.6515H15.8915C16.0935 31.8014 15.8049 31.5715 15.8915 31.6315L15.8434 31.6515ZM15.9299 23.1667C15.9588 23.1467 16.055 23.0668 15.978 23.1467L15.9299 23.1667ZM16.2089 31.8813H16.3051L16.0742 31.7814L16.2089 31.8413V31.8813ZM16.132 23.0068L16.3628 22.9069L16.2474 22.9568L16.132 23.0068ZM16.5937 32.0012H16.7091H16.4494H16.5937ZM16.459 22.9468H16.7188H16.6033H16.459ZM17.421 32.0012H17.4787H17.3152H17.3729H17.421ZM17.3152 22.9169H17.5749H17.4306H17.3152ZM17.7865 31.9113L17.902 31.8613L17.6711 31.9613L17.7865 31.9113ZM17.6711 22.9868L17.902 23.0968L17.7481 23.0068L17.6711 22.9868ZM18.0848 31.7314C18.0367 31.7314 17.9405 31.8513 18.0174 31.7814L18.0848 31.7314ZM18.1329 23.2666H18.0848C17.9116 23.0068 18.2002 23.2666 18.1136 23.2067L18.1329 23.2666ZM18.3252 23.4865C18.3252 23.5365 18.4407 23.6364 18.3733 23.5565L18.3252 23.4865ZM18.3252 31.4816C18.4407 31.2517 18.2194 31.5515 18.2675 31.4616L18.3252 31.4816ZM18.5465 31.1018V31.0019L18.4503 31.2417C18.4706 31.1967 18.4868 31.1499 18.4984 31.1018H18.5465ZM18.4407 23.6164L18.5369 23.8563L18.4407 23.7364C18.4448 23.6965 18.4448 23.6563 18.4407 23.6164ZM18.585 30.742C18.5797 30.6988 18.5797 30.6552 18.585 30.6121C18.5804 30.7019 18.5804 30.792 18.585 30.8819C18.5754 30.832 18.5754 30.782 18.585 30.742ZM18.585 24.0961C18.5894 24.0496 18.5894 24.0027 18.585 23.9562C18.5804 24.0461 18.5804 24.1361 18.585 24.2261V24.0961ZM22.125 14.612C22.1233 14.9234 22.0976 15.2342 22.0481 15.5414C21.8728 16.5882 21.4012 17.5571 20.6936 18.3242C19.986 19.0914 19.0744 19.6222 18.0751 19.8488C16.9739 20.0757 15.8315 19.9322 14.8141 19.439C13.9205 18.9857 13.1746 18.2698 12.6689 17.3803C12.1309 16.4404 11.8795 15.3533 11.9474 14.2622C12.0336 13.1181 12.4569 12.0295 13.1595 11.1442C13.8279 10.3272 14.7183 9.73924 15.714 9.45745C16.7096 9.17566 17.7641 9.21319 18.7389 9.5651C19.7557 9.94858 20.6351 10.6461 21.2592 11.5639C21.8424 12.4468 22.1573 13.4912 22.1635 14.562L22.125 14.612ZM20.5378 25.7251V30.5421C20.528 31.4253 20.2021 32.2732 19.6239 32.9207C19.0284 33.5812 18.2051 33.9693 17.3344 34H16.7188C16.2714 33.99 15.8305 33.8866 15.4223 33.6961C15.0142 33.5055 14.647 33.2316 14.3427 32.8907C13.7889 32.2425 13.4781 31.4088 13.4673 30.5421V25.7251C13.4403 25.0582 13.4595 24.3903 13.525 23.7264C13.6011 23.2762 13.7628 22.8465 14.0007 22.4621C14.2385 22.0778 14.5478 21.7465 14.9103 21.4877C15.5242 21.055 16.2567 20.841 16.9977 20.8781C17.7487 20.8446 18.4904 21.0617 19.1141 21.4977C19.5034 21.7904 19.8288 22.165 20.0692 22.5973C20.3096 23.0296 20.4594 23.5096 20.5089 24.0062C20.5504 24.5781 20.56 25.152 20.5378 25.7251Z" fill="currentColor"/>
</svg>
