<svg viewBox="0 0 35 35" fill="none" xmlns="http://www.w3.org/2000/svg">
<path d="M24.7917 24.7917H27.7083C29.3192 24.7917 30.625 23.4858 30.625 21.875V16.0417C30.625 14.4308 29.3192 13.125 27.7083 13.125H7.29167C5.68084 13.125 4.375 14.4308 4.375 16.0417V21.875C4.375 23.4858 5.68084 24.7917 7.29167 24.7917H10.2083M13.125 30.625H21.875C23.4858 30.625 24.7917 29.3192 24.7917 27.7083V21.875C24.7917 20.2642 23.4858 18.9583 21.875 18.9583H13.125C11.5142 18.9583 10.2083 20.2642 10.2083 21.875V27.7083C10.2083 29.3192 11.5142 30.625 13.125 30.625ZM24.7917 13.125V7.29167C24.7917 5.68084 23.4858 4.375 21.875 4.375H13.125C11.5142 4.375 10.2083 5.68084 10.2083 7.29167V13.125H24.7917Z" stroke="currentColor" stroke-width="2" stroke-linecap="round" stroke-linejoin="round"/>
</svg>
