<svg viewBox="0 0 35 35" fill="none" xmlns="http://www.w3.org/2000/svg">
<path d="M13.125 27.7083V18.9583C13.125 17.3475 11.8192 16.0417 10.2083 16.0417H7.29167C5.68084 16.0417 4.375 17.3475 4.375 18.9583V27.7083C4.375 29.3192 5.68084 30.625 7.29167 30.625H10.2083C11.8192 30.625 13.125 29.3192 13.125 27.7083ZM13.125 27.7083V13.125C13.125 11.5142 14.4308 10.2083 16.0417 10.2083H18.9583C20.5692 10.2083 21.875 11.5142 21.875 13.125V27.7083M13.125 27.7083C13.125 29.3192 14.4308 30.625 16.0417 30.625H18.9583C20.5692 30.625 21.875 29.3192 21.875 27.7083M21.875 27.7083V7.29167C21.875 5.68084 23.1808 4.375 24.7917 4.375H27.7083C29.3192 4.375 30.625 5.68084 30.625 7.29167V27.7083C30.625 29.3192 29.3192 30.625 27.7083 30.625H24.7917C23.1808 30.625 21.875 29.3192 21.875 27.7083Z" stroke="currentColor" stroke-width="2" stroke-linecap="round" stroke-linejoin="round"/>
</svg>
