<svg viewBox="0 0 35 35" fill="none" xmlns="http://www.w3.org/2000/svg">
<path d="M16.0415 5.83332C16.0415 4.22249 17.3473 2.91666 18.9582 2.91666C20.569 2.91666 21.8748 4.22249 21.8748 5.83332V7.29166C21.8748 8.09707 22.5278 8.74999 23.3332 8.74999H27.7082C28.5136 8.74999 29.1665 9.40291 29.1665 10.2083V14.5833C29.1665 15.3887 28.5136 16.0417 27.7082 16.0417H26.2498C24.639 16.0417 23.3332 17.3475 23.3332 18.9583C23.3332 20.5692 24.639 21.875 26.2498 21.875H27.7082C28.5136 21.875 29.1665 22.5279 29.1665 23.3333V27.7083C29.1665 28.5137 28.5136 29.1667 27.7082 29.1667H23.3332C22.5278 29.1667 21.8748 28.5137 21.8748 27.7083V26.25C21.8748 24.6392 20.569 23.3333 18.9582 23.3333C17.3473 23.3333 16.0415 24.6392 16.0415 26.25V27.7083C16.0415 28.5137 15.3886 29.1667 14.5832 29.1667H10.2082C9.40276 29.1667 8.74984 28.5137 8.74984 27.7083V23.3333C8.74984 22.5279 8.09692 21.875 7.2915 21.875H5.83317C4.22234 21.875 2.9165 20.5692 2.9165 18.9583C2.9165 17.3475 4.22234 16.0417 5.83317 16.0417H7.2915C8.09692 16.0417 8.74984 15.3887 8.74984 14.5833V10.2083C8.74984 9.40291 9.40276 8.74999 10.2082 8.74999H14.5832C15.3886 8.74999 16.0415 8.09707 16.0415 7.29166V5.83332Z" stroke="currentColor" stroke-width="2" stroke-linecap="round" stroke-linejoin="round"/>
</svg>
