<svg viewBox="0 0 35 35" fill="none" xmlns="http://www.w3.org/2000/svg">
<path d="M14.0926 24.7917H20.9074M17.5 4.375V5.83333M26.7808 8.21922L25.7496 9.25042M30.6251 17.4999H29.1667M5.83341 17.4999H4.37508M9.25042 9.25042L8.21922 8.21922M12.344 22.656C9.49644 19.8084 9.49644 15.1916 12.344 12.344C15.1916 9.49647 19.8084 9.49647 22.656 12.344C25.5036 15.1916 25.5036 19.8084 22.656 22.656L21.8581 23.4539C20.9352 24.3768 20.4167 25.6286 20.4167 26.9339V27.7083C20.4167 29.3192 19.1108 30.625 17.5 30.625C15.8892 30.625 14.5833 29.3192 14.5833 27.7083V26.9339C14.5833 25.6286 14.0648 24.3768 13.1419 23.4539L12.344 22.656Z" stroke="currentColor" stroke-width="2" stroke-linecap="round" stroke-linejoin="round"/>
</svg>
