<svg viewBox="0 0 35 35" fill="none" xmlns="http://www.w3.org/2000/svg">
<path d="M28 5C28 4.44771 28.4478 4 29 4C29.5522 4 30 4.44771 30 5V12.2917C30 12.8439 29.5522 13.2917 29 13.2917H21.7084C21.156 13.2917 20.7084 12.8439 20.7084 12.2917C20.7084 11.7394 21.156 11.2917 21.7084 11.2917H26.4048C24.475 8.11899 20.9849 6 17 6C10.9249 6 6 10.9249 6 17C6 23.0751 10.9249 28 17 28C21.0469 28 24.5834 25.8146 26.4937 22.5595C26.6919 22.2217 27.047 22 27.4387 22C28.1831 22 28.6827 22.7572 28.3154 23.4046C26.0815 27.3429 21.8511 30 17 30C9.82031 30 4 24.1797 4 17C4 9.8203 9.82031 4 17 4C21.6316 4 25.6974 6.42207 28 10.0687V5Z" fill="currentColor"/>
</svg>
