<svg viewBox="0 0 35 35" fill="none" xmlns="http://www.w3.org/2000/svg">
<path d="M11.875 10.625C8.7684 10.625 6.25 13.1434 6.25 16.25C6.25 19.3566 8.7684 21.875 11.875 21.875C14.357 21.875 16.4636 20.2675 17.2103 18.0368H15C14.9142 18.0368 14.8292 18.0333 14.7451 18.0265C14.15 18.986 13.0871 19.625 11.875 19.625C10.011 19.625 8.5 18.114 8.5 16.25C8.5 14.386 10.011 12.875 11.875 12.875V10.625Z" fill="currentColor"/>
<path fill-rule="evenodd" clip-rule="evenodd" d="M11.875 23C7.52576 23 4 26.5258 4 30.875V32C4 32.6213 4.50368 33.125 5.125 33.125H18.625C19.2463 33.125 19.75 32.6213 19.75 32V30.875C19.75 26.5258 16.2242 23 11.875 23ZM6.25 30.875C6.25 27.7684 8.7684 25.25 11.875 25.25C14.9816 25.25 17.5 27.7684 17.5 30.875H6.25Z" fill="currentColor"/>
<path d="M13 6.98529C13 5.88885 13.8954 5 15 5H29C30.1046 5 31 5.88885 31 6.98529V14.9265C31 16.0229 30.1046 16.9118 29 16.9118H24L19 21.875V16.9118H15C13.8954 16.9118 13 16.0229 13 14.9265V6.98529Z" stroke="currentColor" stroke-width="2" stroke-linecap="round" stroke-linejoin="round"/>
<path d="M24.625 10.7545C24.9583 10.9469 24.9583 11.4281 24.625 11.6205L20.2188 14.1645C19.8854 14.3569 19.4688 14.1163 19.4688 13.7314L19.4688 8.64355C19.4688 8.25865 19.8854 8.01809 20.2188 8.21054L24.625 10.7545Z" fill="currentColor"/>
</svg>
