<svg viewBox="0 0 35 35" fill="none" xmlns="http://www.w3.org/2000/svg">
<path d="M17 12V18H22M30.25 17.125C30.25 24.3737 24.3737 30.25 17.125 30.25C9.87626 30.25 4 24.3737 4 17.125C4 9.87626 9.87626 4 17.125 4C24.3737 4 30.25 9.87626 30.25 17.125Z" stroke="currentColor" stroke-width="2" stroke-linecap="round" stroke-linejoin="round"/>
<path d="M18 8C18 8.55228 17.5523 9 17 9C16.4477 9 16 8.55228 16 8C16 7.44772 16.4477 7 17 7C17.5523 7 18 7.44772 18 8Z" fill="currentColor"/>
<path d="M18 26C18 26.5523 17.5523 27 17 27C16.4477 27 16 26.5523 16 26C16 25.4477 16.4477 25 17 25C17.5523 25 18 25.4477 18 26Z" fill="currentColor"/>
<path d="M9 18C9 18.5523 8.55228 19 8 19C7.44772 19 7 18.5523 7 18C7 17.4477 7.44772 17 8 17C8.55228 17 9 17.4477 9 18Z" fill="currentColor"/>
<path d="M27 18C27 18.5523 26.5523 19 26 19C25.4477 19 25 18.5523 25 18C25 17.4477 25.4477 17 26 17C26.5523 17 27 17.4477 27 18Z" fill="currentColor"/>
</svg>
