<svg viewBox="0 0 35 35" fill="none" xmlns="http://www.w3.org/2000/svg">
<path d="M33.0164 25.412L29.2777 23.9431C30.0172 22.7077 30.5517 21.3636 30.8686 19.9587C31.8225 19.7923 32.6387 19.1842 33.0741 18.3201C33.5094 17.456 33.5094 16.4383 33.0741 15.5742C32.6387 14.7102 31.8225 14.1021 30.8686 13.9357C30.5229 12.3963 29.9115 10.9306 29.0633 9.59925C29.6299 8.80877 29.7835 7.79427 29.4826 6.86938C29.1785 5.94449 28.4551 5.21802 27.53 4.91719C26.605 4.61316 25.5903 4.76997 24.7996 5.33643C23.4712 4.48834 22.002 3.87708 20.4624 3.53145C20.2959 2.57776 19.6877 1.76168 18.8235 1.32643C17.9592 0.891189 16.9413 0.891189 16.0771 1.32643C15.2128 1.76168 14.6046 2.57776 14.4382 3.53145C12.8985 3.87708 11.4325 4.48834 10.1009 5.33643C9.31029 4.76997 8.29559 4.61636 7.37052 4.91719C6.44545 5.22122 5.71884 5.94449 5.41795 6.86938C5.11386 7.79427 5.27071 8.80877 5.83727 9.59925C4.98902 10.9274 4.37764 12.3963 4.03194 13.9357C3.07806 14.1021 2.26182 14.7102 1.8265 15.5742C1.39117 16.4383 1.39117 17.456 1.8265 18.3201C2.26182 19.1842 3.07806 19.7923 4.03194 19.9587C4.37764 21.498 4.98902 22.9638 5.83727 24.2951C5.27071 25.0856 5.11706 26.1001 5.41795 27.025C5.72204 27.9499 6.44545 28.6763 7.37052 28.9772C8.29559 29.2812 9.31029 29.1244 10.1009 28.5579C11.4293 29.406 12.8985 30.0173 14.4382 30.3629C14.6046 31.3166 15.2128 32.1327 16.0771 32.5679C16.9413 33.0032 17.9592 33.0032 18.8235 32.5679C19.6877 32.1327 20.2959 31.3166 20.4624 30.3629C21.3682 30.1581 22.2517 29.8636 23.0999 29.4828L24.3931 32.5423C24.5148 32.8207 24.79 33.0032 25.0973 33C25.1998 32.9968 25.3022 32.9776 25.395 32.9391C25.7823 32.7727 25.9648 32.3247 25.8015 31.9375L24.4571 28.7691L24.7932 28.5643C25.4366 29.054 26.2465 29.2684 27.0499 29.1628C27.8501 29.0572 28.5767 28.6379 29.0697 27.9947C29.5626 27.3546 29.7835 26.5449 29.6811 25.7416L32.4883 26.8361C32.5683 26.8682 32.6547 26.8874 32.7412 26.8906C33.1061 26.8874 33.4198 26.6249 33.487 26.2665C33.5542 25.9017 33.3557 25.5464 33.0164 25.412ZM31.9761 16.9472C31.9729 17.2256 31.8929 17.4944 31.7457 17.7313C31.5984 17.9681 31.3904 18.1569 31.1439 18.2849C31.1887 17.8401 31.2143 17.3952 31.2143 16.9472C31.2143 16.4959 31.1919 16.0447 31.1439 15.5934C31.3936 15.7215 31.6048 15.9135 31.7489 16.1535C31.8961 16.3935 31.9729 16.6687 31.9761 16.9472ZM27.7157 6.68056C27.9109 6.87898 28.0454 7.1254 28.1094 7.39423C28.1734 7.66306 28.1638 7.94468 28.0806 8.21031C27.5044 7.51264 26.8642 6.87258 26.1696 6.29972C26.4385 6.21651 26.7234 6.20691 26.9955 6.27412C27.2708 6.34133 27.5172 6.48214 27.7157 6.68056ZM17.4471 2.42094C17.7256 2.42414 17.9944 2.50415 18.2313 2.65136C18.4682 2.79858 18.657 3.0066 18.7851 3.25302C18.3401 3.20822 17.8952 3.18262 17.4471 3.18262C16.9957 3.18262 16.5444 3.20502 16.0931 3.25302C16.2211 3.0034 16.4132 2.79218 16.6532 2.64816C16.8933 2.50095 17.1654 2.42414 17.4471 2.42094ZM7.17847 6.68056C7.37692 6.48534 7.6234 6.35093 7.89227 6.28692C8.16115 6.22292 8.44284 6.23252 8.70851 6.31572C8.01071 6.89178 7.37052 7.53184 6.79755 8.22631C6.71433 7.95749 6.70473 7.67266 6.77195 7.40063C6.83597 7.1254 6.97681 6.87898 7.17847 6.68056ZM2.91802 16.9472C2.92122 16.6687 3.00124 16.3967 3.14848 16.1567C3.29573 15.9199 3.50379 15.7279 3.75346 15.5998C3.66063 16.4959 3.66063 17.4016 3.75346 18.2977C3.50379 18.1697 3.29253 17.9777 3.14848 17.7377C2.99804 17.504 2.91802 17.2288 2.91802 16.9472ZM7.17847 27.2138C6.98641 27.0154 6.85197 26.7689 6.78795 26.5001C6.72393 26.2313 6.73674 25.9497 6.81996 25.6872C7.38973 26.3817 8.02671 27.0218 8.72452 27.5914C8.45884 27.6778 8.17076 27.6874 7.89868 27.6202C7.6266 27.553 7.37692 27.4122 7.17847 27.2138ZM17.4471 31.4734C17.1686 31.4702 16.8965 31.3902 16.6564 31.243C16.4196 31.0958 16.2275 30.8877 16.0995 30.6381C16.9957 30.7309 17.9016 30.7309 18.7979 30.6381C18.6698 30.8877 18.4778 31.099 18.2377 31.243C18.0008 31.3934 17.7256 31.4734 17.4471 31.4734ZM17.4471 29.1788C14.2013 29.1788 11.09 27.8891 8.79494 25.5944C6.49987 23.2998 5.20989 20.1891 5.20989 16.944C5.20989 13.6989 6.49987 10.5913 8.79494 8.29672C11.09 6.00209 14.2013 4.71237 17.4471 4.71237C20.6928 4.71237 23.8041 6.00209 26.0992 8.29672C28.3943 10.5913 29.6843 13.7021 29.6843 16.9472C29.6875 19.2226 29.0441 21.45 27.8341 23.3766L21.0577 20.7684L17.3863 12.1019C17.3126 11.9067 17.1622 11.7499 16.9733 11.6699C16.7813 11.5866 16.5668 11.5866 16.3748 11.6699C16.1827 11.7499 16.0323 11.9067 15.9586 12.1019C15.885 12.2971 15.8914 12.5115 15.981 12.7004L19.0411 19.9939L15.4049 18.5697C15.0208 18.4545 14.6142 18.6529 14.4702 19.0242C14.3262 19.3986 14.4926 19.8179 14.8543 19.9907L19.8926 21.9173L22.5014 28.0331C20.9169 28.7755 19.1948 29.166 17.4471 29.1788ZM21.89 22.6981L26.9283 24.6695C26.064 25.7224 25.0301 26.6281 23.8682 27.345L21.89 22.6981ZM27.7157 27.2138C27.5204 27.4122 27.274 27.5498 27.0019 27.6138C26.733 27.6778 26.4481 27.665 26.1856 27.5754C26.8802 27.0026 27.5172 26.3657 28.0902 25.6712C28.1766 25.9369 28.1862 26.2249 28.119 26.4969C28.055 26.7689 27.9141 27.0154 27.7157 27.2138Z" fill="currentColor"/>
</svg>
