<svg viewBox="0 0 35 35" fill="none" xmlns="http://www.w3.org/2000/svg">
<path d="M14.5837 30.625H24.792C26.4028 30.625 27.7087 29.3192 27.7087 27.7083V13.7291C27.7087 13.3423 27.555 12.9714 27.2815 12.6979L19.3858 4.80214C19.1123 4.52865 18.7414 4.375 18.3546 4.375H10.2087C8.59783 4.375 7.29199 5.68084 7.29199 7.29167V23.3333M7.29199 30.625L14.4067 23.5103M14.4067 23.5103C15.1985 24.302 16.2922 24.7917 17.5003 24.7917C19.9166 24.7917 21.8753 22.8329 21.8753 20.4167C21.8753 18.0004 19.9166 16.0417 17.5003 16.0417C15.0841 16.0417 13.1253 18.0004 13.1253 20.4167C13.1253 21.6248 13.615 22.7185 14.4067 23.5103Z" stroke="currentColor" stroke-width="2" stroke-linecap="round"/>
</svg>
