<svg viewBox="0 0 35 35" fill="none" xmlns="http://www.w3.org/2000/svg">
<path d="M11.6667 23.3333L15.8647 19.1353M15.8647 19.1353C16.6565 19.927 17.7502 20.4167 18.9583 20.4167C21.3746 20.4167 23.3333 18.4579 23.3333 16.0417C23.3333 13.6254 21.3746 11.6667 18.9583 11.6667C16.5421 11.6667 14.5833 13.6254 14.5833 16.0417C14.5833 17.2498 15.073 18.3435 15.8647 19.1353ZM30.625 17.5C30.625 24.7487 24.7487 30.625 17.5 30.625C10.2513 30.625 4.375 24.7487 4.375 17.5C4.375 10.2513 10.2513 4.375 17.5 4.375C24.7487 4.375 30.625 10.2513 30.625 17.5Z" stroke="currentColor" stroke-width="2" stroke-linecap="round"/>
</svg>
