<svg viewBox="0 0 35 35" fill="none" xmlns="http://www.w3.org/2000/svg">
<path d="M15.0567 6.29608C15.6786 3.73464 19.3214 3.73464 19.9433 6.29608C20.345 7.95073 22.2407 8.73596 23.6947 7.84999C25.9456 6.47849 28.5215 9.05436 27.15 11.3053C26.264 12.7593 27.0493 14.655 28.7039 15.0567C31.2654 15.6786 31.2654 19.3214 28.7039 19.9433C27.0493 20.345 26.264 22.2407 27.15 23.6947C28.5215 25.9456 25.9456 28.5215 23.6947 27.15C22.2407 26.264 20.345 27.0493 19.9433 28.7039C19.3214 31.2654 15.6786 31.2654 15.0567 28.7039C14.6551 27.0493 12.7593 26.264 11.3053 27.15C9.05436 28.5215 6.47849 25.9456 7.84999 23.6947C8.73596 22.2407 7.95073 20.345 6.29608 19.9433C3.73464 19.3214 3.73464 15.6786 6.29608 15.0567C7.95073 14.655 8.73596 12.7593 7.84999 11.3053C6.47848 9.05436 9.05436 6.47848 11.3053 7.84999C12.7593 8.73596 14.6551 7.95073 15.0567 6.29608Z" stroke="currentColor" stroke-width="2" stroke-linecap="round" stroke-linejoin="round"/>
<path fill-rule="evenodd" clip-rule="evenodd" d="M23.3034 17.9842C23.6367 17.7918 23.6367 17.3107 23.3034 17.1182L14.25 11.8912C13.9167 11.6988 13.5 11.9393 13.5 12.3242V22.7782C13.5 23.1631 13.9167 23.4037 14.25 23.2112L23.3034 17.9842ZM20.6265 17.7244C20.7598 17.6474 20.7598 17.455 20.6265 17.378L15.3635 14.3394C15.2302 14.2624 15.0635 14.3587 15.0635 14.5126L15.0635 20.5898C15.0635 20.7438 15.2302 20.84 15.3635 20.763L20.6265 17.7244Z" fill="currentColor"/>
</svg>
