<svg viewBox="0 0 35 35" fill="none" xmlns="http://www.w3.org/2000/svg">
<path d="M13.1048 19.9274C13.3577 19.4227 13.5 18.853 13.5 18.25C13.5 17.647 13.3577 17.0773 13.1048 16.5726M13.1048 19.9274C12.4892 21.1564 11.2181 22 9.75 22C7.67893 22 6 20.3211 6 18.25C6 16.1789 7.67893 14.5 9.75 14.5C11.2181 14.5 12.4892 15.3436 13.1048 16.5726M13.1048 19.9274L21.3952 24.0726M13.1048 16.5726L21.3952 12.4274M21.3952 12.4274C22.0108 13.6564 23.2819 14.5 24.75 14.5C26.8211 14.5 28.5 12.8211 28.5 10.75C28.5 8.67893 26.8211 7 24.75 7C22.6789 7 21 8.67893 21 10.75C21 11.353 21.1423 11.9227 21.3952 12.4274ZM21.3952 24.0726C21.1423 24.5773 21 25.147 21 25.75C21 27.8211 22.6789 29.5 24.75 29.5C26.8211 29.5 28.5 27.8211 28.5 25.75C28.5 23.6789 26.8211 22 24.75 22C23.2819 22 22.0108 22.8436 21.3952 24.0726Z" stroke="currentColor" stroke-width="2" stroke-linecap="round" stroke-linejoin="round"/>
</svg>
