<svg viewBox="0 0 35 35" fill="none" xmlns="http://www.w3.org/2000/svg">
<path d="M4.375 4.375H7.29167L7.875 7.29167M10.2083 18.9583H24.7917L30.625 7.29167H7.875M10.2083 18.9583L7.875 7.29167M10.2083 18.9583L6.86453 22.3021C5.94583 23.2208 6.59649 24.7917 7.89573 24.7917H24.7917M24.7917 24.7917C23.1808 24.7917 21.875 26.0975 21.875 27.7083C21.875 29.3192 23.1808 30.625 24.7917 30.625C26.4025 30.625 27.7083 29.3192 27.7083 27.7083C27.7083 26.0975 26.4025 24.7917 24.7917 24.7917ZM13.125 27.7083C13.125 29.3192 11.8192 30.625 10.2083 30.625C8.5975 30.625 7.29167 29.3192 7.29167 27.7083C7.29167 26.0975 8.5975 24.7917 10.2083 24.7917C11.8192 24.7917 13.125 26.0975 13.125 27.7083Z" stroke="currentColor" stroke-width="2" stroke-linecap="round" stroke-linejoin="round"/>
</svg>
