<svg viewBox="0 0 35 35" fill="none" xmlns="http://www.w3.org/2000/svg">
<path fill-rule="evenodd" clip-rule="evenodd" d="M3.21622 5C2.92235 5 2.65282 5.10422 2.44259 5.27772C2.36082 5.34521 2.28802 5.42317 2.22625 5.50955C2.08382 5.70873 2 5.95268 2 6.21622V24.8649C2 25.5366 2.54452 26.0811 3.21622 26.0811H30.7838C31.4555 26.0811 32 25.5366 32 24.8649V6.21622C32 5.54452 31.4555 5 30.7838 5H3.21622ZM29.5676 23.6486V7.43243L4.43243 7.43243V23.6486H29.5676Z" fill="currentColor"/>
<path d="M3.21622 31.7568C2.54452 31.7568 2 31.2122 2 30.5405C2 29.8688 2.54452 29.3243 3.21622 29.3243H8.89189C9.56359 29.3243 10.1081 29.8688 10.1081 30.5405C10.1081 31.2122 9.56359 31.7568 8.89189 31.7568H3.21622Z" fill="currentColor"/>
<path d="M16.1892 31.7568C15.5175 31.7568 14.973 31.2122 14.973 30.5405C14.973 29.8688 15.5175 29.3243 16.1892 29.3243H30.7838C31.4555 29.3243 32 29.8688 32 30.5405C32 31.2122 31.4555 31.7568 30.7838 31.7568H16.1892Z" fill="currentColor"/>
<path d="M21.0541 14.8384C21.5946 15.1504 21.5946 15.9306 21.0541 16.2427L14.973 19.7536C14.4324 20.0657 13.7568 19.6756 13.7568 19.0515L13.7568 12.0296C13.7568 11.4055 14.4324 11.0154 14.973 11.3274L21.0541 14.8384Z" fill="currentColor"/>
</svg>
