<svg viewBox="0 0 35 35" fill="none" xmlns="http://www.w3.org/2000/svg">
<path d="M34.4564 23.7241L28.2871 20.2318C28.1368 20.157 27.9706 20.118 27.802 20.118C27.6333 20.118 27.4671 20.157 27.3168 20.2318C27.0063 20.3834 26.8124 20.7255 26.8124 21.0669V23.6101H23.2813C22.2948 23.6139 21.3272 23.3452 20.49 22.8349C19.6527 22.3246 18.9797 21.5934 18.5485 20.7255L14.2431 12.3369C12.9984 9.90838 10.5149 8.42857 7.7602 8.42857H0.969937C0.712694 8.42857 0.465987 8.52853 0.284088 8.70646C0.10219 8.88438 0 9.12571 0 9.37733C0 9.62896 0.10219 9.87028 0.284088 10.0482C0.465987 10.2261 0.712694 10.3261 0.969937 10.3261H7.76055C8.74693 10.3224 9.71435 10.5912 10.5515 11.1014C11.3887 11.6116 12.0617 12.3427 12.493 13.2104L16.8001 21.5989C18.042 24.0299 20.5255 25.5083 23.2802 25.5083H26.8124V28.0509C26.8124 28.3933 27.0063 28.6963 27.3168 28.886C27.474 28.961 27.6465 29 27.8214 29C27.9962 29 28.1688 28.961 28.326 28.886L34.4956 25.3936C34.8061 25.242 35 24.9002 35 24.5589C35 24.2175 34.728 23.9138 34.4564 23.7241ZM28.7509 26.4191V22.7374L32.01 24.5972L28.7509 26.4191Z" fill="currentColor"/>
<path d="M34.458 8.58643L28.3067 5.11314C28.1569 5.03877 27.9911 5 27.823 5C27.6549 5 27.4891 5.03877 27.3393 5.11314C27.0297 5.26399 26.8363 5.60417 26.8363 5.94366V8.47372H23.3155C21.9895 8.47317 20.6889 8.82873 19.5562 9.50143C18.4235 10.1741 17.5024 11.138 16.8938 12.2875L16.855 12.3628C16.623 12.8157 16.8167 13.4184 17.2808 13.6462C17.4354 13.7218 17.5517 13.7596 17.7063 13.7596C17.8853 13.761 18.0609 13.7118 18.2119 13.618C18.3629 13.5243 18.4829 13.3899 18.5575 13.2311L18.5962 13.1933C19.0349 12.3395 19.7092 11.6222 20.5431 11.122C21.3769 10.6218 22.3374 10.3587 23.3162 10.3622H26.8363V12.8913C26.8363 13.2318 27.0297 13.5331 27.3393 13.7218C27.496 13.7964 27.668 13.8352 27.8424 13.8352C28.0167 13.8352 28.1888 13.7964 28.3455 13.7218L34.4971 10.2485C34.8063 10.0977 35 9.75747 35 9.41798C35 9.07848 34.7288 8.7761 34.458 8.58745V8.58643ZM28.7709 11.266V7.60505L32.0205 9.45475L28.7709 11.266Z" fill="currentColor"/>
<path d="M0.9547 25.4396H7.76558C10.5289 25.4396 12.9808 23.9919 14.2254 21.6532C14.4589 21.2078 14.2644 20.6506 13.7974 20.3911C13.3305 20.1684 12.7467 20.3539 12.4742 20.7993C12.033 21.6389 11.3548 22.3443 10.5161 22.8362C9.67728 23.328 8.71122 23.5868 7.72661 23.5834H0.9547C0.699843 23.588 0.457059 23.6878 0.278535 23.8614C0.100011 24.0349 0 24.2683 0 24.5115C0 24.7546 0.100011 24.988 0.278535 25.1616C0.457059 25.3351 0.699843 25.4349 0.9547 25.4396Z" fill="currentColor"/>
</svg>
