<svg viewBox="0 0 35 35" fill="none" xmlns="http://www.w3.org/2000/svg">
<path fill-rule="evenodd" clip-rule="evenodd" d="M5.41667 3C4.082 3 3 4.08207 3 5.41667V29.5833C3 30.9179 4.082 32 5.41667 32H29.5833C30.918 32 32 30.9179 32 29.5833V5.41667C32 4.08207 30.918 3 29.5833 3H5.41667ZM6.625 5.41667C5.95763 5.41667 5.41667 5.95711 5.41667 6.625V28.375C5.41667 29.0429 5.95763 29.5833 6.625 29.5833H28.375C29.0424 29.5833 29.5833 29.0429 29.5833 28.375V6.625C29.5833 5.95711 29.0424 5.41667 28.375 5.41667H6.625Z" fill="currentColor"/>
<path fill-rule="evenodd" clip-rule="evenodd" d="M9.04167 27.1907C10.7167 28.0492 13.3354 28.6911 16.2982 28.6911C22.8239 28.6911 25.9583 25.6456 25.9583 21.6071C25.9151 18.5614 24.3266 16.4115 20.162 15.038C17.6716 14.2243 16.9849 13.7914 16.9849 13.1045C16.9849 12.2461 17.7575 11.9027 19.0885 11.9027C20.8063 11.9027 22.7814 12.5894 23.7691 13.0673L25.0141 7.82698C23.6397 7.2223 21.3213 6.625 18.7452 6.625C13.1638 6.625 9.55745 9.67071 9.55745 13.881C9.51406 16.3294 11.1027 18.86 15.7824 20.3603C18.0583 21.0472 18.5309 21.3905 18.5309 22.1668C18.5309 22.9806 17.8867 23.324 16.2123 23.324C14.3229 23.324 11.5751 22.4655 10.3726 21.7339L9.04167 27.1907Z" fill="currentColor"/>
</svg>
