<svg viewBox="0 0 35 35" fill="none" xmlns="http://www.w3.org/2000/svg">
<path fill-rule="evenodd" clip-rule="evenodd" d="M5.07143 3C3.92736 3 3 3.92749 3 5.07143V29.9286C3 31.0725 3.92736 32 5.07143 32H29.9286C31.0726 32 32 31.0725 32 29.9286V5.07143C32 3.92749 31.0726 3 29.9286 3H5.07143ZM6.10714 5.07143C5.53517 5.07143 5.07143 5.53517 5.07143 6.10714V28.8929C5.07143 29.4648 5.53517 29.9286 6.10714 29.9286H28.8929C29.4648 29.9286 29.9286 29.4648 29.9286 28.8929V6.10714C29.9286 5.53517 29.4648 5.07143 28.8929 5.07143H6.10714Z" fill="currentColor"/>
<path d="M7.14286 24.75C7.14286 24.178 7.60656 23.7143 8.17857 23.7143H26.8214C27.3934 23.7143 27.8571 24.178 27.8571 24.75C27.8571 25.322 27.3934 25.7857 26.8214 25.7857H8.17857C7.60656 25.7857 7.14286 25.322 7.14286 24.75Z" fill="currentColor"/>
<path d="M22.6786 27.8571C22.1066 27.8571 21.6429 27.3934 21.6429 26.8214V22.6786C21.6429 22.1066 22.1066 21.6429 22.6786 21.6429C23.2506 21.6429 23.7143 22.1066 23.7143 22.6786V26.8214C23.7143 27.3934 23.2506 27.8571 22.6786 27.8571Z" fill="currentColor"/>
<path d="M20.5554 13.765C21.0387 14.044 21.0387 14.7417 20.5554 15.0207L16.5161 17.3528C16.0327 17.6319 15.4286 17.283 15.4286 16.7249V12.0608C15.4286 11.5027 16.0327 11.1539 16.5161 11.4329L20.5554 13.765Z" fill="currentColor"/>
<path fill-rule="evenodd" clip-rule="evenodd" d="M17.5 21.6429C21.504 21.6429 24.75 18.3969 24.75 14.3929C24.75 10.3888 21.504 7.14286 17.5 7.14286C13.496 7.14286 10.25 10.3888 10.25 14.3929C10.25 18.3969 13.496 21.6429 17.5 21.6429ZM17.5 19.5714C20.3601 19.5714 22.6786 17.253 22.6786 14.3929C22.6786 11.5328 20.3601 9.21429 17.5 9.21429C14.6399 9.21429 12.3214 11.5328 12.3214 14.3929C12.3214 17.253 14.6399 19.5714 17.5 19.5714Z" fill="currentColor"/>
</svg>
