<svg viewBox="0 0 35 35" fill="none" xmlns="http://www.w3.org/2000/svg">
<path d="M32.0205 14.2928C31.7574 13.2019 31.3691 12.1451 30.8631 11.1432C29.179 7.78922 26.2906 5.19267 22.7742 3.87153C19.2579 2.55039 15.372 2.60178 11.8919 4.01544C9.71049 4.86918 7.76611 6.23329 6.22209 7.99316C4.67807 9.75303 3.57952 11.8573 3.01871 14.1291C2.88248 14.5077 2.88311 14.922 3.02049 15.3002C3.15788 15.6784 3.42338 15.9967 3.77101 16.2C3.83151 16.2658 3.86581 16.3514 3.86745 16.4408C3.86745 16.7105 3.86745 16.9898 3.86745 17.2691C3.86745 17.6929 3.86745 18.1264 3.86745 18.5502C3.95028 20.6252 4.52194 22.6514 5.536 24.4643C5.57536 24.5098 5.59703 24.5679 5.59703 24.628C5.59703 24.6881 5.57536 24.7463 5.536 24.7918C5.31518 25.1134 5.18291 25.4874 5.15244 25.8763C5.12197 26.2651 5.19437 26.6551 5.36239 27.0071C5.63245 27.6236 5.9025 28.24 6.1822 28.8469L6.53905 29.6559C6.73196 30.1876 7.11333 30.6302 7.61098 30.9C8.10863 31.1698 8.68805 31.2481 9.23959 31.12C9.59644 31.0526 9.84721 31.0333 10.0305 31.3512C10.0823 31.424 10.1478 31.4862 10.2234 31.5342C10.6407 31.8336 11.1356 32.0065 11.6488 32.0321C12.1619 32.0577 12.6717 31.935 13.1168 31.6787C13.6714 31.4553 14.1278 31.0414 14.4037 30.5115C14.6796 29.9816 14.7568 29.3708 14.6214 28.7891C14.5334 28.4787 14.4205 28.1759 14.2838 27.8837V27.8066C13.3193 25.7261 12.5381 23.8382 11.6797 21.9214C11.399 21.3857 10.9223 20.9786 10.3487 20.7848C9.9125 20.6309 9.44622 20.5813 8.98729 20.6398C8.52836 20.6983 8.08956 20.8635 7.70607 21.122C7.43032 21.263 7.18629 21.4587 6.98894 21.6972C6.79159 21.9357 6.64506 22.2119 6.55834 22.509C6.49494 22.7166 6.44976 22.9293 6.42332 23.1447C5.47392 21.1468 5.07126 18.9335 5.2563 16.7297C5.2563 16.5756 5.31417 16.5082 5.46848 16.4793C5.8191 16.4208 6.14288 16.255 6.39511 16.0048C6.64734 15.7546 6.81558 15.4324 6.87662 15.0827C7.12964 14.0337 7.54277 13.0298 8.1015 12.1064C9.41808 9.94603 11.4439 8.30836 13.8339 7.47236C16.2239 6.63636 18.8301 6.65373 21.2087 7.52151C22.907 8.11113 24.4309 9.11513 25.6419 10.4423C26.8529 11.7695 27.7128 13.3778 28.1433 15.1212C28.2141 15.4615 28.3835 15.7735 28.6304 16.0184C28.8773 16.2633 29.1909 16.4303 29.5322 16.4986C29.6865 16.4986 29.7154 16.5949 29.7251 16.7586C29.7347 16.9224 29.7251 17.0283 29.7251 17.1632C29.7251 17.298 29.7251 17.7411 29.7251 18.0301C29.6982 19.6275 29.371 21.2056 28.7606 22.6823C28.6931 22.8365 28.6256 22.9809 28.5484 23.1351C28.5531 23.0452 28.5531 22.9552 28.5484 22.8654C28.4578 22.416 28.2519 21.9978 27.951 21.6517C27.6501 21.3056 27.2644 21.0434 26.8316 20.8908C26.5111 20.7196 26.1575 20.619 25.7948 20.5956C25.4321 20.5723 25.0685 20.6268 24.7286 20.7554C24.3887 20.8841 24.0803 21.084 23.8242 21.3416C23.5681 21.5992 23.3702 21.9085 23.2438 22.2489C22.4529 24.0405 21.662 25.8224 20.8808 27.614L20.5143 28.4423C20.3273 28.8818 20.2742 29.3665 20.3617 29.836C20.4492 30.3054 20.6734 30.7387 21.0062 31.0815C21.4153 31.4783 21.9152 31.7692 22.4626 31.9291C22.7508 32.0301 23.054 32.0822 23.3595 32.0832C23.6652 32.0856 23.9681 32.0243 24.2487 31.9032C24.5294 31.7822 24.7817 31.604 24.9895 31.3801C25.0926 31.2509 25.2336 31.1573 25.3928 31.1124C25.552 31.0674 25.7213 31.0735 25.8768 31.1297H26.0118C26.5095 31.2057 27.0184 31.1169 27.4607 30.8768C27.9031 30.6368 28.2546 30.2588 28.4616 29.8004C28.8667 28.9046 29.3007 27.9414 29.7251 26.959C29.8849 26.609 29.9512 26.2235 29.9174 25.8403C29.8836 25.4571 29.7508 25.0892 29.5322 24.7725C29.5001 24.7293 29.4827 24.677 29.4827 24.6232C29.4827 24.5694 29.5001 24.5171 29.5322 24.4739C30.0798 23.5006 30.5011 22.4616 30.786 21.382C31.2114 19.7912 31.3389 18.1356 31.1621 16.4986C31.1621 16.4986 31.1621 16.4408 31.1621 16.4215C31.1621 16.4023 31.1621 16.2578 31.2393 16.2096C31.5643 16.0223 31.8176 15.7322 31.9591 15.385C32.1006 15.0379 32.1222 14.6536 32.0205 14.2928ZM7.04058 25.2541L8.96953 29.6656C8.25582 29.7908 8.00506 29.6656 7.70607 28.9432L7.09845 27.5658L6.66443 26.6026C6.59678 26.4903 6.55277 26.3654 6.53511 26.2356C6.51744 26.1058 6.52649 25.9737 6.5617 25.8474C6.59691 25.7212 6.65754 25.6035 6.73988 25.5015C6.82223 25.3994 6.92454 25.3153 7.04058 25.2541ZM8.56445 22.3163C8.81691 22.1678 9.10135 22.082 9.3939 22.0659C9.50898 22.0649 9.6233 22.0845 9.73147 22.1237C9.92164 22.2101 10.0908 22.3367 10.2273 22.4946C10.3639 22.6526 10.4645 22.8382 10.5223 23.0387C10.9853 24.1849 11.4868 25.3215 12.0076 26.4196C12.2102 26.8627 12.4031 27.2961 12.6056 27.7295C12.6635 27.874 12.731 28.0089 12.7985 28.1533C12.866 28.2978 12.9818 28.529 13.0686 28.7313C13.1226 28.8728 13.1677 29.0175 13.2036 29.1647V29.261C13.2036 29.7908 13.0396 30.0798 12.7117 30.2242H12.6442C12.4418 30.3342 12.2324 30.4307 12.0173 30.5132C11.7675 30.5933 11.4966 30.5763 11.2587 30.4656C11.0209 30.3549 10.8337 30.1586 10.7345 29.916L9.23959 26.5833L8.3812 24.6569C8.25582 24.3872 8.13044 24.1079 8.0147 23.8382C7.93775 23.7047 7.89085 23.5561 7.87728 23.4027C7.86371 23.2493 7.88379 23.0948 7.93612 22.9499C7.98845 22.805 8.07178 22.6733 8.18029 22.5639C8.28881 22.4545 8.4199 22.37 8.56445 22.3163ZM24.1986 30.022C24.1041 30.2573 23.9204 30.446 23.6875 30.547C23.4546 30.648 23.1912 30.6531 22.9544 30.5614C22.6889 30.473 22.4335 30.3567 22.1925 30.2146C22.0453 30.1297 21.9232 30.0075 21.8385 29.8604C21.7538 29.7132 21.7096 29.5463 21.7103 29.3766C21.7103 29.3092 21.7103 29.2514 21.7585 29.184C21.7859 29.0482 21.828 28.9158 21.8839 28.7891C22.3565 27.7199 22.8483 26.6604 23.3113 25.6009L24.5265 22.8846C24.5846 22.715 24.6758 22.5587 24.7951 22.4247C24.9143 22.2907 25.0591 22.1819 25.221 22.1044C25.5675 22.0165 25.9348 22.0684 26.2433 22.2489C26.4656 22.3421 26.6684 22.476 26.8413 22.6438C26.9767 22.7868 27.0649 22.9677 27.0943 23.1623C27.1236 23.3569 27.0925 23.5558 27.0052 23.7322C26.0793 25.832 25.1438 27.9222 24.2372 30.022H24.1986ZM28.2783 26.5833L27.1981 29.001C26.9184 29.6463 26.6387 29.8004 25.9636 29.6656L27.8926 25.2541C28.0068 25.3145 28.1077 25.3973 28.1893 25.4974C28.2708 25.5976 28.3314 25.7131 28.3674 25.8371C28.4034 25.9611 28.4141 26.091 28.3988 26.2192C28.3835 26.3474 28.3425 26.4713 28.2783 26.5833ZM30.5159 14.9189C30.2558 15.0083 29.9796 15.0412 29.7058 15.0152C29.6307 14.9225 29.5779 14.8137 29.5515 14.6974C29.0581 12.8246 28.1334 11.093 26.8509 9.64056C25.3364 7.90389 23.36 6.63146 21.1509 5.97075C19.9925 5.60835 18.7865 5.42006 17.5727 5.41209C14.8122 5.38375 12.1209 6.27452 9.92376 7.94374C7.72663 9.61296 6.14885 11.9655 5.43955 14.63C5.42163 14.7276 5.37962 14.8193 5.31731 14.8966C5.25501 14.974 5.17437 15.0346 5.08269 15.073C4.98129 15.1052 4.87343 15.1115 4.76897 15.0913C4.6645 15.0711 4.56678 15.0251 4.48472 14.9574C4.34005 14.8515 4.34005 14.7263 4.39792 14.4951C4.942 12.4105 5.97553 10.4853 7.41291 8.87896C8.85028 7.27262 10.6502 6.03137 12.6635 5.25798C14.1986 4.65566 15.8366 4.35794 17.4859 4.38146H17.7173C18.9466 4.36457 20.1708 4.5434 21.3438 4.91122C23.5753 5.5754 25.5978 6.80266 27.2162 8.4746C28.8346 10.1466 29.9943 12.2068 30.5834 14.4566C30.651 14.7648 30.6413 14.8708 30.5159 14.9189Z" fill="currentColor"/>
</svg>
