<svg viewBox="0 0 35 35" fill="none" xmlns="http://www.w3.org/2000/svg">
<path fill-rule="evenodd" clip-rule="evenodd" d="M23 11.2C23.3392 11.2 23.6415 11.4139 23.7544 11.7337L25.9129 17.8496L31.2671 19.7459C31.5865 19.859 31.8 20.1611 31.8 20.5C31.8 20.8389 31.5865 21.141 31.2671 21.2541L25.9129 23.1504L23.7544 29.2663C23.6415 29.5861 23.3392 29.8 23 29.8C22.6608 29.8 22.3585 29.5861 22.2456 29.2663L20.0871 23.1504L14.7329 21.2541C14.4135 21.141 14.2 20.8389 14.2 20.5C14.2 20.1611 14.4135 19.859 14.7329 19.7459L20.0871 17.8496L22.2456 11.7337C22.3585 11.4139 22.6608 11.2 23 11.2ZM23 14.4037L21.4687 18.7424C21.3883 18.9703 21.2091 19.1496 20.9814 19.2303L17.3963 20.5L20.9814 21.7697C21.2091 21.8504 21.3883 22.0297 21.4687 22.2576L23 26.5963L24.5313 22.2576C24.6117 22.0297 24.7909 21.8504 25.0186 21.7697L28.6037 20.5L25.0186 19.2303C24.7909 19.1496 24.6117 18.9703 24.5313 18.7424L23 14.4037Z" fill="currentColor"/>
<path d="M3 7C3 6.44772 3.44772 6 4 6H25C25.5523 6 26 6.44772 26 7C26 7.55228 25.5523 8 25 8H4C3.44772 8 3 7.55228 3 7Z" fill="currentColor"/>
<path d="M3 14C3 13.4477 3.44772 13 4 13H17C17.5523 13 18 13.4477 18 14C18 14.5523 17.5523 15 17 15H4C3.44772 15 3 14.5523 3 14Z" fill="currentColor"/>
<path d="M3 21C3 20.4477 3.44772 20 4 20H11C11.5523 20 12 20.4477 12 21C12 21.5523 11.5523 22 11 22H4C3.44772 22 3 21.5523 3 21Z" fill="currentColor"/>
<path d="M3 28C3 27.4477 3.44772 27 4 27H17C17.5523 27 18 27.4477 18 28C18 28.5523 17.5523 29 17 29H4C3.44772 29 3 28.5523 3 28Z" fill="currentColor"/>
</svg>
