<svg viewBox="0 0 35 35" fill="none" xmlns="http://www.w3.org/2000/svg">
<path d="M16.0417 8.57818V28.0586C16.0417 29.476 14.8926 30.625 13.4753 30.625C12.3907 30.625 11.4232 29.9432 11.0584 28.9218L7.92819 19.9542M26.25 18.9583C28.6662 18.9583 30.625 16.9996 30.625 14.5833C30.625 12.1671 28.6662 10.2083 26.25 10.2083M7.92819 19.9542C5.8396 19.0664 4.375 16.9959 4.375 14.5833C4.375 11.3617 6.98667 8.75 10.2083 8.75H12.8801C18.8602 8.75 23.9996 6.95028 26.25 4.375L26.25 24.7917C23.9996 22.2164 18.8602 20.4167 12.8801 20.4167L10.2083 20.4167C9.39922 20.4167 8.62862 20.2519 7.92819 19.9542Z" stroke="currentColor" stroke-width="2" stroke-linecap="round" stroke-linejoin="round"/>
</svg>
