<svg viewBox="0 0 35 35" fill="none" xmlns="http://www.w3.org/2000/svg">
<g clip-path="url(#clip0_1_1114)">
<path d="M16.549 2.92664C16.8483 2.00538 18.1517 2.00538 18.451 2.92664L21.2048 11.4008C21.3387 11.8128 21.7226 12.0917 22.1558 12.0917L31.0662 12.0921C32.0349 12.0921 32.4376 13.3317 31.654 13.9011L24.4455 19.1387C24.0951 19.3934 23.9484 19.8447 24.0823 20.2567L26.8354 28.7311C27.1347 29.6524 26.0803 30.4185 25.2966 29.8491L18.0878 24.612C17.7373 24.3574 17.2627 24.3574 16.9122 24.612L9.70341 29.8491C8.9197 30.4185 7.86528 29.6524 8.16458 28.7311L10.9177 20.2567C11.0516 19.8447 10.9049 19.3934 10.5545 19.1387L3.34602 13.9011C2.56236 13.3317 2.96511 12.0921 3.9338 12.0921L12.8442 12.0917C13.2774 12.0917 13.6613 11.8128 13.7952 11.4008L16.549 2.92664Z" stroke="currentColor" stroke-width="2"/>
</g>
<defs>
<clipPath id="clip0_1_1114">
<rect fill="white"/>
</clipPath>
</defs>
</svg>
