<svg viewBox="0 0 35 35" fill="none" xmlns="http://www.w3.org/2000/svg">
<path fill-rule="evenodd" clip-rule="evenodd" d="M6 4C4.89543 4 4 4.89543 4 6V28C4 29.1046 4.89543 30 6 30H28C29.1046 30 30 29.1046 30 28V6C30 4.89543 29.1046 4 28 4H6ZM6.79297 5.79321C6.24068 5.79321 5.79297 6.24093 5.79297 6.79321V27.207C5.79297 27.7593 6.24068 28.207 6.79297 28.207H27.2068C27.759 28.207 28.2068 27.7593 28.2068 27.207V6.79321C28.2068 6.24093 27.759 5.79321 27.2068 5.79321H6.79297Z" fill="currentColor"/>
</svg>
