<svg viewBox="0 0 35 35" fill="none" xmlns="http://www.w3.org/2000/svg">
<path fill-rule="evenodd" clip-rule="evenodd" d="M13.4918 4C9.93097 4 7.04433 6.88676 7.04433 10.4478C7.04433 14.0087 9.93097 16.8955 13.4918 16.8955C17.0527 16.8955 19.9393 14.0087 19.9393 10.4478C19.9393 6.88676 17.0527 4 13.4918 4ZM9.15442 10.4478C9.15442 8.05217 11.0963 6.11017 13.4918 6.11017C15.8873 6.11017 17.8292 8.05217 17.8292 10.4478C17.8292 12.8433 15.8873 14.7853 13.4918 14.7853C11.0963 14.7853 9.15442 12.8433 9.15442 10.4478Z" fill="currentColor"/>
<path d="M17.8149 28.267H5.17585C5.69468 24.1358 9.22006 20.94 13.4918 20.94C15.1814 20.94 16.7543 21.44 18.0705 22.3C18.427 21.6821 18.8827 21.1285 19.4158 20.6611C17.73 19.5058 15.6898 18.8298 13.4918 18.8298C7.69735 18.8298 3 23.5274 3 29.3221C3 29.9048 3.47236 30.3772 4.05504 30.3772H19.3937C18.7331 29.7927 18.1929 29.0754 17.8149 28.267Z" fill="currentColor"/>
<path fill-rule="evenodd" clip-rule="evenodd" d="M25.529 27.3779C26.5501 27.3779 27.3779 26.5501 27.3779 25.529C27.3779 24.5078 26.5501 23.6801 25.529 23.6801C24.508 23.6801 23.6802 24.5078 23.6802 25.529C23.6802 26.5501 24.508 27.3779 25.529 27.3779ZM26.4535 25.529C26.4535 26.0395 26.0396 26.4534 25.529 26.4534C25.0185 26.4534 24.6046 26.0395 24.6046 25.529C24.6046 25.0184 25.0185 24.6045 25.529 24.6045C26.0396 24.6045 26.4535 25.0184 26.4535 25.529Z" fill="currentColor"/>
<path fill-rule="evenodd" clip-rule="evenodd" d="M25.5291 32C29.1029 32 32 29.1027 32 25.5288C32 21.9549 29.1029 19.0576 25.5291 19.0576C21.9553 19.0576 19.0581 21.9549 19.0581 25.5288C19.0581 29.1027 21.9553 32 25.5291 32ZM25.529 22.2934C23.4594 22.2934 21.7075 23.6537 21.1185 25.529C21.7075 27.4043 23.4594 28.7646 25.529 28.7646C27.5986 28.7646 29.3505 27.4043 29.9395 25.529C29.3505 23.6537 27.5986 22.2934 25.529 22.2934Z" fill="currentColor"/>
</svg>
