<svg viewBox="0 0 35 35" fill="none" xmlns="http://www.w3.org/2000/svg">
<path d="M29.625 17.5C29.625 24.1965 24.1965 29.625 17.5 29.625V31.625C25.301 31.625 31.625 25.301 31.625 17.5H29.625ZM17.5 29.625C10.8035 29.625 5.375 24.1965 5.375 17.5H3.375C3.375 25.301 9.69898 31.625 17.5 31.625V29.625ZM5.375 17.5C5.375 10.8035 10.8035 5.375 17.5 5.375V3.375C9.69898 3.375 3.375 9.69898 3.375 17.5H5.375ZM17.5 5.375C24.1965 5.375 29.625 10.8035 29.625 17.5H31.625C31.625 9.69898 25.301 3.375 17.5 3.375V5.375ZM22.3333 17.5C22.3333 20.1694 20.1694 22.3333 17.5 22.3333V24.3333C21.2739 24.3333 24.3333 21.2739 24.3333 17.5H22.3333ZM17.5 22.3333C14.8306 22.3333 12.6667 20.1694 12.6667 17.5H10.6667C10.6667 21.2739 13.7261 24.3333 17.5 24.3333V22.3333ZM12.6667 17.5C12.6667 14.8306 14.8306 12.6667 17.5 12.6667V10.6667C13.7261 10.6667 10.6667 13.7261 10.6667 17.5H12.6667ZM17.5 12.6667C20.1694 12.6667 22.3333 14.8306 22.3333 17.5H24.3333C24.3333 13.7261 21.2739 10.6667 17.5 10.6667V12.6667ZM26.0737 7.51212L20.9177 12.6681L22.3319 14.0823L27.4879 8.92633L26.0737 7.51212ZM20.9177 22.3319L26.0737 27.4879L27.4879 26.0737L22.3319 20.9177L20.9177 22.3319ZM14.0823 12.6681L8.92633 7.51212L7.51212 8.92633L12.6681 14.0823L14.0823 12.6681ZM12.6681 20.9177L7.51212 26.0737L8.92633 27.4879L14.0823 22.3319L12.6681 20.9177Z" fill="currentColor"/>
</svg>
