<svg viewBox="0 0 35 35" fill="none" xmlns="http://www.w3.org/2000/svg">
<path d="M4.375 7.29167C4.375 5.68084 5.68084 4.375 7.29167 4.375H12.0739C12.7016 4.375 13.2589 4.77667 13.4574 5.37217L15.6417 11.9251C15.8712 12.6136 15.5595 13.3661 14.9104 13.6906L11.6186 15.3366C13.226 18.9018 16.0982 21.774 19.6634 23.3815L21.3094 20.0896C21.6339 19.4405 22.3864 19.1288 23.0749 19.3583L29.6278 21.5426C30.2233 21.7411 30.625 22.2984 30.625 22.9261V27.7083C30.625 29.3192 29.3192 30.625 27.7083 30.625H26.25C14.1688 30.625 4.375 20.8312 4.375 8.75V7.29167Z" stroke="currentColor" stroke-width="2" stroke-linecap="round" stroke-linejoin="round"/>
</svg>
