<svg viewBox="0 0 35 35" fill="none" xmlns="http://www.w3.org/2000/svg">
<path d="M19.6875 5.36242L18.9378 6.02415C18.9515 6.03972 18.9657 6.05485 18.9804 6.06953L19.6875 5.36242ZM29.6376 19.6875L28.9758 18.9378C28.9603 18.9515 28.9452 18.9657 28.9305 18.9804L29.6376 19.6875ZM29.8958 15.5708L30.6456 14.909C30.6318 14.8935 30.6176 14.8783 30.6029 14.8636L29.8958 15.5708ZM15.5708 29.8958L14.8636 30.6029C14.8783 30.6176 14.8935 30.6318 14.909 30.6456L15.5708 29.8958ZM19.4292 29.8958L20.091 30.6456C20.1065 30.6318 20.1217 30.6176 20.1364 30.6029L19.4292 29.8958ZM5.36242 19.6875L6.06953 18.9804L6.0475 18.9584L6.02415 18.9378L5.36242 19.6875ZM10.2083 9.20833C9.65605 9.20833 9.20833 9.65605 9.20833 10.2083C9.20833 10.7606 9.65605 11.2083 10.2083 11.2083V9.20833ZM10.2229 11.2083C10.7752 11.2083 11.2229 10.7606 11.2229 10.2083C11.2229 9.65605 10.7752 9.20833 10.2229 9.20833V11.2083ZM5.375 10.2083C5.375 7.53896 7.53896 5.375 10.2083 5.375V3.375C6.43439 3.375 3.375 6.43439 3.375 10.2083H5.375ZM5.375 17.5V10.2083H3.375V17.5H5.375ZM10.2083 5.375H17.5V3.375H10.2083V5.375ZM17.5 5.375C18.0723 5.375 18.5851 5.62459 18.9378 6.02415L20.4372 4.70069C19.721 3.88922 18.6699 3.375 17.5 3.375V5.375ZM29.625 17.5C29.625 18.0723 29.3754 18.5851 28.9758 18.9378L30.2993 20.4372C31.1108 19.721 31.625 18.6699 31.625 17.5H29.625ZM29.1461 16.2325C29.4448 16.571 29.625 17.0132 29.625 17.5H31.625C31.625 16.5074 31.2544 15.5989 30.6456 14.909L29.1461 16.2325ZM17.5 29.625C17.0132 29.625 16.571 29.4448 16.2325 29.1461L14.909 30.6456C15.5989 31.2544 16.5074 31.625 17.5 31.625V29.625ZM18.7675 29.1461C18.429 29.4448 17.9868 29.625 17.5 29.625V31.625C18.4926 31.625 19.4011 31.2544 20.091 30.6456L18.7675 29.1461ZM6.02415 18.9378C5.62459 18.5851 5.375 18.0723 5.375 17.5H3.375C3.375 18.6699 3.88922 19.721 4.70069 20.4372L6.02415 18.9378ZM18.9804 6.06953L29.1887 16.2779L30.6029 14.8636L20.3946 4.65531L18.9804 6.06953ZM16.2779 29.1887L6.06953 18.9804L4.65531 20.3946L14.8636 30.6029L16.2779 29.1887ZM28.9305 18.9804L18.7221 29.1887L20.1364 30.6029L30.3447 20.3946L28.9305 18.9804ZM10.2083 11.2083H10.2229V9.20833H10.2083V11.2083Z" fill="currentColor"/>
</svg>
