<svg viewBox="0 0 35 35" fill="none" xmlns="http://www.w3.org/2000/svg">
<path d="M20.4167 14.5833H27.3641C29.5323 14.5833 30.9425 16.8651 29.9728 18.8044L24.8686 29.0127C24.3746 30.0008 23.3647 30.625 22.2599 30.625H16.4007C16.1623 30.625 15.9247 30.5958 15.6933 30.5379L10.2083 29.1667M20.4167 14.5833V7.29167C20.4167 5.68084 19.1108 4.375 17.5 4.375H17.3608C16.6322 4.375 16.0417 4.96558 16.0417 5.6941C16.0417 6.73579 15.7333 7.75418 15.1555 8.62092L10.2083 16.0417V29.1667M20.4167 14.5833H17.5M10.2083 29.1667H7.29167C5.68084 29.1667 4.375 27.8608 4.375 26.25V17.5C4.375 15.8892 5.68084 14.5833 7.29167 14.5833H10.9375" stroke="currentColor" stroke-width="2" stroke-linecap="round" stroke-linejoin="round"/>
</svg>
