<svg viewBox="0 0 35 35" fill="none" xmlns="http://www.w3.org/2000/svg">
<path d="M21.875 7.29166V10.2083M21.875 16.0417V18.9583M21.875 24.7917V27.7083M7.29167 7.29166C5.68084 7.29166 4.375 8.59749 4.375 10.2083V14.5833C5.98583 14.5833 7.29167 15.8892 7.29167 17.5C7.29167 19.1108 5.98583 20.4167 4.375 20.4167V24.7917C4.375 26.4025 5.68084 27.7083 7.29167 27.7083H27.7083C29.3192 27.7083 30.625 26.4025 30.625 24.7917V20.4167C29.0142 20.4167 27.7083 19.1108 27.7083 17.5C27.7083 15.8892 29.0142 14.5833 30.625 14.5833V10.2083C30.625 8.59749 29.3192 7.29166 27.7083 7.29166H7.29167Z" stroke="currentColor" stroke-width="2" stroke-linecap="round" stroke-linejoin="round"/>
</svg>
