<svg viewBox="0 0 35 35" fill="none" xmlns="http://www.w3.org/2000/svg">
<path d="M7.46818 25.9638C10.431 24.2891 13.8539 23.3333 17.5 23.3333C21.1461 23.3333 24.569 24.2891 27.5318 25.9638M21.875 14.5833C21.875 16.9996 19.9162 18.9583 17.5 18.9583C15.0838 18.9583 13.125 16.9996 13.125 14.5833C13.125 12.1671 15.0838 10.2083 17.5 10.2083C19.9162 10.2083 21.875 12.1671 21.875 14.5833ZM30.625 17.5C30.625 24.7487 24.7487 30.625 17.5 30.625C10.2513 30.625 4.375 24.7487 4.375 17.5C4.375 10.2513 10.2513 4.375 17.5 4.375C24.7487 4.375 30.625 10.2513 30.625 17.5Z" stroke="currentColor" stroke-width="2" stroke-linecap="round" stroke-linejoin="round"/>
</svg>
