<svg viewBox="0 0 35 35" fill="none" xmlns="http://www.w3.org/2000/svg">
<path d="M24.792 29.1666H32.0837V26.25C32.0837 23.8337 30.1249 21.875 27.7087 21.875C26.3151 21.875 25.0737 22.5266 24.2725 23.5417M24.792 29.1666H10.2087M24.792 29.1666V26.25C24.792 25.293 24.6076 24.379 24.2725 23.5417M10.2087 29.1666H2.91699V26.25C2.91699 23.8337 4.87575 21.875 7.29199 21.875C8.68559 21.875 9.92699 22.5266 10.7282 23.5417M10.2087 29.1666V26.25C10.2087 25.293 10.393 24.379 10.7282 23.5417M10.7282 23.5417C11.8034 20.8556 14.4303 18.9583 17.5003 18.9583C20.5704 18.9583 23.1973 20.8556 24.2725 23.5417M21.8753 10.2083C21.8753 12.6246 19.9166 14.5833 17.5003 14.5833C15.0841 14.5833 13.1253 12.6246 13.1253 10.2083C13.1253 7.79207 15.0841 5.83331 17.5003 5.83331C19.9166 5.83331 21.8753 7.79207 21.8753 10.2083ZM30.6253 14.5833C30.6253 16.1941 29.3195 17.5 27.7087 17.5C26.0978 17.5 24.792 16.1941 24.792 14.5833C24.792 12.9725 26.0978 11.6666 27.7087 11.6666C29.3195 11.6666 30.6253 12.9725 30.6253 14.5833ZM10.2087 14.5833C10.2087 16.1941 8.90282 17.5 7.29199 17.5C5.68116 17.5 4.37533 16.1941 4.37533 14.5833C4.37533 12.9725 5.68116 11.6666 7.29199 11.6666C8.90282 11.6666 10.2087 12.9725 10.2087 14.5833Z" stroke="currentColor" stroke-width="2" stroke-linecap="round" stroke-linejoin="round"/>
</svg>
