<svg viewBox="0 0 35 35" fill="none" xmlns="http://www.w3.org/2000/svg">
<path d="M19.7229 16.2037L23.0953 14.59C23.5878 14.3543 24.1673 14.6971 24.1673 15.2241V20.0191C24.1673 20.5461 23.5878 20.8888 23.0953 20.6532L19.7229 19.0394M25.834 32.0834H9.16732C7.32637 32.0834 5.83398 30.5599 5.83398 28.6806V4.86115C5.83398 2.98185 7.32637 1.45837 9.16732 1.45837H18.477C18.919 1.45837 19.3429 1.63763 19.6555 1.9567L28.6792 11.1684C28.9917 11.4875 29.1673 11.9202 29.1673 12.3714V28.6806C29.1673 30.5599 27.6749 32.0834 25.834 32.0834ZM12.3155 21.875H18.2414C19.0596 21.875 19.7229 21.2403 19.7229 20.4572V14.7859C19.7229 14.0029 19.0596 13.3681 18.2414 13.3681H12.3155C11.4973 13.3681 10.834 14.0029 10.834 14.7859V20.4572C10.834 21.2403 11.4973 21.875 12.3155 21.875Z" stroke="currentColor" stroke-width="1.2" stroke-linecap="round" stroke-linejoin="round"/>
</svg>
