<svg viewBox="0 0 35 35" fill="none" xmlns="http://www.w3.org/2000/svg">
<path d="M1 13C1 12.4477 1.44772 12 2 12C2.55228 12 3 12.4477 3 13V21C3 21.5523 2.55228 22 2 22C1.44772 22 1 21.5523 1 21V13Z" fill="currentColor"/>
<path d="M7 6.5C7 5.94772 7.44772 5.5 8 5.5C8.55228 5.5 9 5.94772 9 6.5V27.5C9 28.0523 8.55228 28.5 8 28.5C7.44772 28.5 7 28.0523 7 27.5V6.5Z" fill="currentColor"/>
<path d="M13 2C13 1.44772 13.4477 1 14 1C14.5523 1 15 1.44772 15 2V32C15 32.5523 14.5523 33 14 33C13.4477 33 13 32.5523 13 32V2Z" fill="currentColor"/>
<path d="M19 9.5C19 8.94772 19.4477 8.5 20 8.5C20.5523 8.5 21 8.94772 21 9.5V24.5C21 25.0523 20.5523 25.5 20 25.5C19.4477 25.5 19 25.0523 19 24.5V9.5Z" fill="currentColor"/>
<path d="M25 4.5C25 3.94771 25.4477 3.5 26 3.5C26.5523 3.5 27 3.94772 27 4.5V29.5C27 30.0523 26.5523 30.5 26 30.5C25.4477 30.5 25 30.0523 25 29.5V4.5Z" fill="currentColor"/>
<path d="M31 14C31 13.4477 31.4477 13 32 13C32.5523 13 33 13.4477 33 14V20C33 20.5523 32.5523 21 32 21C31.4477 21 31 20.5523 31 20V14Z" fill="currentColor"/>
<path fill-rule="evenodd" clip-rule="evenodd" d="M13 2C13 1.44772 13.4477 1 14 1C14.5523 1 15 1.44772 15 2V32C15 32.5523 14.5523 33 14 33C13.4477 33 13 32.5523 13 32V2ZM8 5.5C7.44772 5.5 7 5.94772 7 6.5V27.5C7 28.0523 7.44772 28.5 8 28.5C8.55228 28.5 9 28.0523 9 27.5V6.5C9 5.94772 8.55228 5.5 8 5.5ZM2 12C1.44772 12 1 12.4477 1 13V21C1 21.5523 1.44772 22 2 22C2.55228 22 3 21.5523 3 21V13C3 12.4477 2.55228 12 2 12ZM20 8.5C19.4477 8.5 19 8.94772 19 9.5V24.5C19 25.0523 19.4477 25.5 20 25.5C20.5523 25.5 21 25.0523 21 24.5V9.5C21 8.94772 20.5523 8.5 20 8.5ZM25 4.5C25 3.94771 25.4477 3.5 26 3.5C26.5523 3.5 27 3.94772 27 4.5V29.5C27 30.0523 26.5523 30.5 26 30.5C25.4477 30.5 25 30.0523 25 29.5V4.5ZM32 13C31.4477 13 31 13.4477 31 14V20C31 20.5523 31.4477 21 32 21C32.5523 21 33 20.5523 33 20V14C33 13.4477 32.5523 13 32 13Z" fill="currentColor"/>
</svg>
