<svg viewBox="0 0 35 35" fill="none" xmlns="http://www.w3.org/2000/svg">
<path d="M33.3594 15.8594H32.2656V13.125C32.2656 12.2202 31.5298 11.4844 30.625 11.4844H29.5312C29.3393 11.4844 29.1558 11.5191 28.9844 11.5801V10.3906C28.9844 9.48582 28.2486 8.75 27.3438 8.75H26.25C25.3452 8.75 24.6094 9.48582 24.6094 10.3906V15.8594H10.3906V10.3906C10.3906 9.48582 9.6548 8.75 8.75 8.75H7.65625C6.75145 8.75 6.01562 9.48582 6.01562 10.3906V11.5801C5.84445 11.5191 5.6607 11.4844 5.46875 11.4844H4.375C3.4702 11.4844 2.73438 12.2202 2.73438 13.125V15.8594H1.64062C0.73582 15.8594 0 16.5952 0 17.5V18.5938C0 19.4986 0.73582 20.2344 1.64062 20.2344H2.73438V22.9688C2.73438 23.8736 3.4702 24.6094 4.375 24.6094H5.46875C5.6607 24.6094 5.84445 24.5744 6.01562 24.5137V25.7031C6.01562 26.6079 6.75145 27.3438 7.65625 27.3438H8.75C9.6548 27.3438 10.3906 26.6079 10.3906 25.7031V20.2344H24.6094V25.7031C24.6094 26.6079 25.3452 27.3438 26.25 27.3438H27.3438C28.2486 27.3438 28.9844 26.6079 28.9844 25.7031V24.5137C29.1558 24.5744 29.3393 24.6094 29.5312 24.6094H30.625C31.5298 24.6094 32.2656 23.8736 32.2656 22.9688V20.2344H33.3594C34.2642 20.2344 35 19.4986 35 18.5938V17.5C35 16.5952 34.2642 15.8594 33.3594 15.8594ZM33.9062 18.5938C33.9062 18.8954 33.661 19.1406 33.3594 19.1406H32.2656V16.9531H33.3594C33.661 16.9531 33.9062 17.1984 33.9062 17.5V18.5938ZM31.1719 22.9688C31.1719 23.2704 30.9266 23.5156 30.625 23.5156H29.5312C29.2296 23.5156 28.9844 23.2704 28.9844 22.9688V13.125C28.9844 12.8234 29.2296 12.5781 29.5312 12.5781H30.625C30.9266 12.5781 31.1719 12.8234 31.1719 13.125V22.9688ZM27.8906 25.7031C27.8906 26.0047 27.6454 26.25 27.3438 26.25H26.25C25.9484 26.25 25.7031 26.0047 25.7031 25.7031V10.3906C25.7031 10.089 25.9484 9.84375 26.25 9.84375H27.3438C27.6454 9.84375 27.8906 10.089 27.8906 10.3906V25.7031ZM9.29688 25.7031C9.29688 26.0047 9.0516 26.25 8.75 26.25H7.65625C7.35465 26.25 7.10938 26.0047 7.10938 25.7031V10.3906C7.10938 10.089 7.35465 9.84375 7.65625 9.84375H8.75C9.0516 9.84375 9.29688 10.089 9.29688 10.3906V25.7031ZM5.46875 23.5156H4.375C4.0734 23.5156 3.82812 23.2704 3.82812 22.9688V13.125C3.82812 12.8234 4.0734 12.5781 4.375 12.5781H5.46875C5.77035 12.5781 6.01562 12.8234 6.01562 13.125V22.9688C6.01562 23.2704 5.77035 23.5156 5.46875 23.5156ZM1.09375 18.5938V17.5C1.09375 17.1984 1.33902 16.9531 1.64062 16.9531H2.73438V19.1406H1.64062C1.33902 19.1406 1.09375 18.8954 1.09375 18.5938ZM10.3906 16.9531H24.6094V19.1406H10.3906V16.9531Z" fill="currentColor"/>
</svg>
