<svg viewBox="0 0 35 35" fill="none" xmlns="http://www.w3.org/2000/svg">
<path d="M26.7735 20.4754C26.7013 18.7969 26.0913 17.1291 24.9608 15.5179C24.0668 14.2437 22.9523 13.2648 21.6483 12.6091C20.5149 12.0388 19.2097 11.6982 17.765 11.5951V13.6727C19.5047 13.7973 21.1386 14.5236 22.3917 15.7357C23.7534 17.0527 24.5348 18.7989 24.5918 20.6522C24.6225 21.6424 24.4437 22.6145 24.0607 23.542C23.6922 24.4336 23.1552 25.2368 22.4642 25.9297C21.7869 26.6088 21.001 27.1419 20.1284 27.5142C19.3748 27.8355 18.585 28.0237 17.777 28.0743V30.1278C19.3772 29.9987 20.7988 29.5942 22.0055 28.9235C23.3824 28.1584 24.5196 27.0246 25.3853 25.5541C26.379 23.8662 26.846 22.1574 26.7735 20.4754Z" fill="currentColor"/>
<path d="M21.6476 24.9265C22.5211 24.0245 23.0727 22.8874 23.2422 21.6383C23.4114 20.3918 23.1847 19.1564 22.5862 18.0655C22.0355 17.0616 21.1946 16.2329 20.155 15.6689C19.3821 15.2497 18.5437 15.005 17.7632 14.9671V17.0489C18.6894 17.1717 19.4769 17.5676 20.1075 18.2277C20.8804 19.0367 21.2361 20.0071 21.1651 21.1119C21.046 22.9623 19.5538 24.4948 17.6942 24.6767C17.5421 24.6916 17.392 24.6991 17.2446 24.6991C16.4138 24.6991 15.6589 24.4635 14.9951 23.9961C14.0867 23.3565 13.5411 22.4745 13.3711 21.3721H11.2469C11.3424 23.0308 12.4371 25.1874 14.7153 26.2407C15.8498 26.7654 17.1139 26.9177 18.3707 26.6811C19.6327 26.4438 20.7657 25.8369 21.6476 24.9265Z" fill="currentColor"/>
<path d="M17.2623 23.1707C17.8635 23.1707 18.4336 22.9368 18.8665 22.5121C19.3003 22.0864 19.5408 21.5238 19.5443 20.9281V20.9155C19.5443 20.3166 19.3097 19.7539 18.8839 19.331C18.455 18.9054 17.8802 18.669 17.2655 18.6656C17.2611 18.6656 17.2567 18.6656 17.2525 18.6656C16.642 18.6656 16.0679 18.896 15.6346 19.3149C15.1985 19.7365 14.9571 20.299 14.9541 20.8992V20.91C14.9541 21.5094 15.1926 22.0748 15.6262 22.502C16.0635 22.9329 16.6445 23.1705 17.2623 23.1707Z" fill="currentColor"/>
<path d="M26.9496 12.717L27.5171 12.1605L27.8947 12.5445C28.1384 12.7924 28.5408 12.7996 28.7936 12.5607L29.5426 11.8524C29.7954 11.6134 29.8027 11.2188 29.559 10.9709L27.7729 9.15414C27.5292 8.90624 27.1268 8.89925 26.874 9.138L26.125 9.84628C25.8722 10.0853 25.8648 10.4799 26.1085 10.7278L26.4871 11.113L25.9135 11.6755C23.9592 9.93036 21.4385 8.78458 18.6537 8.53451L18.6098 5.92734L19.9683 5.247C20.0933 5.17304 20.1668 5.03789 20.1601 4.89479V3.37992C20.1795 3.19249 20.0432 3.02409 19.8528 3H15.048C14.8573 3.02409 14.7212 3.19249 14.7406 3.37992V4.89503C14.734 5.03813 14.8077 5.17328 14.9327 5.24724L16.2912 5.92758L16.3352 8.53595C9.97779 9.11174 5 14.3564 5 20.7414C5.00786 27.5084 10.5996 32.9921 17.4999 33C24.4034 33 30 27.5117 30 20.7416C30 17.6728 28.8498 14.8672 26.9496 12.717ZM17.5001 31.2517C11.5812 31.2517 6.78275 26.5464 6.78275 20.7416C6.78938 14.9394 11.5837 10.2378 17.4999 10.2313C23.4188 10.2313 28.2172 14.9365 28.2172 20.7414C28.2172 26.5459 23.4193 31.2517 17.5001 31.2517Z" fill="currentColor"/>
</svg>
