<svg viewBox="0 0 35 35" fill="none" xmlns="http://www.w3.org/2000/svg">
<path d="M30.4546 10.8597C30.3142 10.2989 30.0283 9.78505 29.6258 9.37008C29.2233 8.9551 28.7184 8.6537 28.1621 8.49632C26.1296 8 17.9994 8 17.9994 8C17.9994 8 9.8693 8 7.83677 8.54358C7.28048 8.70097 6.77557 9.00237 6.37304 9.41734C5.97052 9.83232 5.68463 10.3462 5.54426 10.907C5.17228 12.9697 4.99032 15.0622 5.00068 17.1582C4.98742 19.27 5.16938 21.3784 5.54426 23.4567C5.69901 24.0001 5.99131 24.4944 6.39289 24.8919C6.79448 25.2893 7.29179 25.5765 7.83677 25.7256C9.8693 26.2692 17.9994 26.2692 17.9994 26.2692C17.9994 26.2692 26.1296 26.2692 28.1621 25.7256C28.7184 25.5682 29.2233 25.2668 29.6258 24.8518C30.0283 24.4368 30.3142 23.923 30.4546 23.3622C30.8237 21.315 31.0057 19.2384 30.9982 17.1582C31.0114 15.0465 30.8295 12.938 30.4546 10.8597V10.8597Z" stroke="currentColor" stroke-width="2" stroke-linecap="round" stroke-linejoin="round"/>
<path d="M15.3403 21.0224L22.1351 17.1582L15.3403 13.2941V21.0224Z" stroke="currentColor" stroke-width="2" stroke-linecap="round" stroke-linejoin="round"/>
</svg>
